<?xml version="1.0" standalone="no"?>
<!DOCTYPE svg PUBLIC "-//W3C//DTD SVG 1.1//EN" "http://www.w3.org/Graphics/SVG/1.1/DTD/svg11.dtd" >
<svg xmlns="http://www.w3.org/2000/svg">
    <defs>
        <font id="Gilroy-Heavy">
            <font-face font-family="Gilroy-Heavy"
                       units-per-em="1000"
                       ascent="990"
                       descent="-285"
                       bbox="-487 -284 1253 990"
                    />
            <missing-glyph horiz-adv-x="0" />
            
            <glyph glyph-name="!" unicode="&#x21;" horiz-adv-x="270" d=" M75,260 L40,500 L40,700 L270,700 L270,500 L235,260 M203,-15 Q107,-15 73.5,18.5 Q40,52 40,100 Q40,148 73.5,181.5 Q107,215 155,215 Q203,215 236.5,181.5 Q270,148 270,100 Q270,52 203,-15"/> 
            <glyph glyph-name="&quot;" unicode="&#x22;" horiz-adv-x="440" d=" M70,420 L50,700 L220,700 L200,420 M290,420 L270,700 L440,700 L420,420"/> 
            <glyph glyph-name="#" unicode="&#x23;" horiz-adv-x="623" d=" M602,380 L507,380 L497,320 L593,320 L572,190 L475,190 L452,50 L308,50 L331,190 L259,190 L236,50 L92,50 L115,190 L20,190 L41,320 L137,320 L147,380 L51,380 L72,510 L169,510 L192,650 L336,650 L313,510 L385,510 L408,650 L552,650 L529,510 L623,510 M353,320 L363,380 L291,380 L281,320"/> 
            <glyph glyph-name="$" unicode="&#x24;" horiz-adv-x="550" d=" M550,209 Q550,112 489,53.5 Q428,-5 325,-14 L325,-100 L255,-100 L255,-15 Q164,-9 101,34.5 Q38,78 15,150 L191,245 Q206,184 255,170 L255,265 L251,266 Q196,285 161,302 Q126,319 94,344.5 Q62,370 47,406 Q32,442 32,490 Q32,586 94,646.5 Q156,707 255,715 L255,800 L325,800 L325,714 Q475,697 537,563 L366,471 Q352,515 325,527 L325,428 Q326,428 328,427 Q330,426 331,426 Q433,389 467,366 Q550,312 550,209 M222,491 Q222,469 255,454 L255,531 Q222,521 222,491 M325,169 Q360,176 360,205 Q360,226 325,240"/> 
            <glyph glyph-name="%" unicode="&#x25;" horiz-adv-x="838" d=" M225,336 Q142,336 86,391.5 Q30,447 30,526 Q30,605 86,660.5 Q142,716 225,716 Q307,716 362.5,660.5 Q418,605 418,526 Q418,447 362.5,391.5 Q307,336 225,336 M157,111 L627,609 L700,567 L229,70 M203,476 Q245,476 259,491 Q273,506 273,526 Q273,547 259,561.5 Q245,576 224,576 Q203,576 189.5,561.5 Q176,547 176,526 Q176,505 203,476 M645,-16 Q562,-16 506,39.5 Q450,95 450,174 Q450,253 506,308.5 Q562,364 645,364 Q727,364 782.5,308.5 Q838,253 838,174 Q838,95 782.5,39.5 Q727,-16 645,-16 M623,124 Q665,124 679,139 Q693,154 693,174 Q693,195 679,209.5 Q665,224 644,224 Q623,224 609.5,209.5 Q596,195 596,174 Q596,153 623,124"/> 
            <glyph glyph-name="&amp;" unicode="&#x26;" horiz-adv-x="673" d=" M673,59 L522,-28 L467,33 Q384,-16 284,-16 Q166,-16 98,46.5 Q30,109 30,202 Q30,322 143,391 Q107,445 107,506 Q107,597 174,656.5 Q241,716 343,716 Q522,716 598,554 L431,457 Q403,530 355,530 Q312,530 312,489 Q312,485 312.5,481 Q313,477 315,473 Q317,469 318.5,465.5 Q320,462 324,457 Q328,452 330,448.5 Q332,445 337.5,438.5 Q343,432 346,428.5 Q349,425 356,417 Q363,409 367,405 L472,286 Q493,330 502,379 L658,288 Q635,214 592,151 M308,150 Q331,150 353,158 L255,265 Q231,242 231,212 Q231,186 250.5,168 Q270,150 308,150"/> 
            <glyph glyph-name="'" unicode="&#x27;" horiz-adv-x="220" d=" M70,420 L50,700 L220,700 L200,420"/> 
            <glyph glyph-name="(" unicode="&#x28;" horiz-adv-x="335" d=" M150,-100 Q40,120 40,350 Q40,580 150,800 L335,800 Q225,580 225,350 Q225,120 335,-100"/> 
            <glyph glyph-name=")" unicode="&#x29;" horiz-adv-x="295" d=" M185,-100 L0,-100 Q110,120 110,350 Q110,580 0,800 L185,800 Q295,580 295,350 Q295,120 185,-100"/> 
            <glyph glyph-name="*" unicode="&#x2A;" horiz-adv-x="370" d=" M370,601 L370,497 L278,507 L336,436 L248,382 L205,461 L162,382 L74,436 L132,507 L40,497 L40,601 L132,591 L74,662 L162,716 L205,637 L248,716 L336,662 L278,591"/> 
            <glyph glyph-name="+" unicode="&#x2B;" horiz-adv-x="530" d=" M530,440 L530,260 L370,260 L370,100 L190,100 L190,260 L30,260 L30,440 L190,440 L190,600 L370,600 L370,440"/> 
            <glyph glyph-name="," unicode="&#x2C;" horiz-adv-x="280" d=" M280,195 L190,-140 L40,-140 L70,195"/> 
            <glyph glyph-name="-" unicode="&#x2D;" horiz-adv-x="450" d=" M50,217 L50,391 L450,391 L450,217"/> 
            <glyph glyph-name="." unicode="&#x2E;" horiz-adv-x="265" d=" M198,-15 Q102,-15 68.5,18.5 Q35,52 35,100 Q35,148 68.5,181.5 Q102,215 150,215 Q198,215 231.5,181.5 Q265,148 265,100 Q265,52 198,-15"/> 
            <glyph glyph-name="/" unicode="&#x2F;" horiz-adv-x="500" d=" M100,-100 L20,-100 L420,800 L500,800"/> 
            <glyph glyph-name="0" unicode="&#x30;" horiz-adv-x="610" d=" M456,-16 Q174,-16 97,83.5 Q20,183 20,350 Q20,517 97,616.5 Q174,716 315,716 Q456,716 533,616.5 Q610,517 610,350 Q610,183 456,-16 M220,178 Q410,178 410,350 Q410,522 315,522 Q220,522 220,178"/> 
            <glyph glyph-name="1" unicode="&#x31;" horiz-adv-x="367" d=" M197,700 L367,700 L367,0 L167,0 L167,491 L46,462 L0,629"/> 
            <glyph glyph-name="2" unicode="&#x32;" horiz-adv-x="526" d=" M20,0 L20,146 L248,393 Q254,400 265.5,412 Q277,424 281.5,429 Q286,434 293.5,442.5 Q301,451 303.5,456.5 Q306,462 308.5,468.5 Q311,475 311,482 Q311,499 299,510.5 Q287,522 264,522 Q208,522 181,451 L5,547 Q40,630 108.5,673 Q177,716 261,716 Q364,716 437.5,657.5 Q511,599 511,496 Q511,433 483.5,386 Q456,339 397,273 L326,194 L526,194 L526,0"/> 
            <glyph glyph-name="3" unicode="&#x33;" horiz-adv-x="525" d=" M376,414 Q444,394 484.5,344.5 Q525,295 525,220 Q525,104 451,44 Q377,-16 265,-16 Q173,-16 104,26 Q35,68 5,150 L181,251 Q202,178 265,178 Q292,178 308.5,192 Q325,206 325,230 Q325,280 265,280 L222,280 L144,396 L238,506 L27,506 L27,700 L487,700 L487,546"/> 
            <glyph glyph-name="4" unicode="&#x34;" horiz-adv-x="570" d=" M570,282 L570,102 L500,102 L500,0 L304,0 L304,102 L10,102 L10,282 L203,700 L430,700 L234,282 L304,282 L304,380 L500,380 L500,282"/> 
            <glyph glyph-name="5" unicode="&#x35;" horiz-adv-x="535" d=" M295,455 Q399,455 467,396.5 Q535,338 535,228 Q535,111 461,47.5 Q387,-16 275,-16 Q176,-16 105.5,26 Q35,68 5,150 L181,251 Q202,178 275,178 Q302,178 318.5,191 Q335,204 335,229 Q335,278 275,278 L45,278 L74,700 L495,700 L495,506 L257,506 L253,455"/> 
            <glyph glyph-name="6" unicode="&#x36;" horiz-adv-x="550" d=" M337,474 Q435,458 492.5,392.5 Q550,327 550,231 Q550,121 476,52.5 Q402,-16 280,-16 Q157,-16 83.5,52.5 Q10,121 10,231 Q10,309 48,367 L256,700 L480,700 M210,163 Q350,163 350,231 Q350,299 280,299 Q210,299 210,163"/> 
            <glyph glyph-name="7" unicode="&#x37;" horiz-adv-x="480" d=" M-10,700 L480,700 L480,536 L272,0 L52,0 L248,506 L-10,506"/> 
            <glyph glyph-name="8" unicode="&#x38;" horiz-adv-x="549" d=" M454,366 Q549,309 549,197 Q549,99 480,42.5 Q411,-14 282,-14 Q153,-14 84,42.5 Q15,99 15,197 Q15,309 110,366 Q39,419 39,506 Q39,603 107,658.5 Q175,714 282,714 Q389,714 457,658.5 Q525,603 525,506 Q525,419 454,366 M282,538 Q219,538 219,487 Q219,436 282,436 Q310,436 327.5,449 Q345,462 345,487 Q345,512 327.5,525 Q310,538 282,538 M250,166 Q314,166 331.5,181.5 Q349,197 349,225 Q349,253 331.5,268.5 Q314,284 282,284 Q250,284 232.5,268.5 Q215,253 215,225 Q215,197 250,166"/> 
            <glyph glyph-name="9" unicode="&#x39;" horiz-adv-x="550" d=" M550,469 Q550,391 512,333 L304,0 L80,0 L223,226 Q125,242 67.5,307.5 Q10,373 10,469 Q10,579 84,647.5 Q158,716 280,716 Q403,716 476.5,647.5 Q550,579 550,469 M350,537 Q210,537 210,469 Q210,401 280,401 Q350,401 350,537"/> 
            <glyph glyph-name=":" unicode="&#x3A;" horiz-adv-x="265" d=" M198,285 Q102,285 68.5,318.5 Q35,352 35,400 Q35,448 68.5,481.5 Q102,515 150,515 Q198,515 231.5,481.5 Q265,448 265,400 Q265,352 198,285 M198,-15 Q102,-15 68.5,18.5 Q35,52 35,100 Q35,148 68.5,181.5 Q102,215 150,215 Q198,215 231.5,181.5 Q265,148 265,100 Q265,52 198,-15"/> 
            <glyph glyph-name=";" unicode="&#x3B;" horiz-adv-x="285" d=" M218,285 Q122,285 88.5,318.5 Q55,352 55,400 Q55,448 88.5,481.5 Q122,515 170,515 Q218,515 251.5,481.5 Q285,448 285,400 Q285,352 218,285 M280,195 L190,-140 L40,-140 L70,195"/> 
            <glyph glyph-name="&lt;" unicode="&#x3C;" horiz-adv-x="480" d=" M480,630 L480,436 L220,350 L480,264 L480,70 L30,265 L30,435"/> 
            <glyph glyph-name="=" unicode="&#x3D;" horiz-adv-x="470" d=" M30,375 L30,555 L470,555 L470,375 M30,145 L30,325 L470,325 L470,145"/> 
            <glyph glyph-name="&gt;" unicode="&#x3E;" horiz-adv-x="480" d=" M30,630 L480,435 L480,265 L30,70 L30,264 L290,350 L30,436"/> 
            <glyph glyph-name="?" unicode="&#x3F;" horiz-adv-x="502" d=" M165,260 Q165,303 186.5,340 Q208,377 233.5,398 Q259,419 280.5,443 Q302,467 302,488 Q302,504 291,514 Q280,524 261,524 Q212,524 179,451 L10,547 Q46,632 115,674 Q184,716 269,716 Q370,716 436,662.5 Q502,609 502,519 Q502,477 486,441 Q470,405 447,381.5 Q424,358 400.5,338 Q377,318 361,298.5 Q345,279 345,260 M303,-15 Q207,-15 173.5,18.5 Q140,52 140,100 Q140,148 173.5,181.5 Q207,215 255,215 Q303,215 336.5,181.5 Q370,148 370,100 Q370,52 303,-15"/> 
            <glyph glyph-name="@" unicode="&#x40;" horiz-adv-x="739" d=" M389,612 Q495,612 577,560.5 Q659,509 699,432 Q739,355 739,270 Q739,41 571,41 Q516,41 478.5,64.5 Q441,88 426,127 Q390,85 332,85 Q263,85 221.5,131 Q180,177 180,250 Q180,323 221.5,369 Q263,415 332,415 Q383,415 418,382 L418,403 L570,403 L570,167 Q570,107 614,107 Q647,107 668,145.5 Q689,184 689,270 Q689,395 602.5,480.5 Q516,566 389,566 Q256,566 165.5,475 Q75,384 75,250 Q75,113 169,23.5 Q263,-66 407,-66 Q489,-66 550,-46 L550,-95 Q488,-112 407,-112 Q243,-112 134,-9.5 Q25,93 25,250 Q25,401 129.5,506.5 Q234,612 389,612 M356,203 Q394,203 405.5,216 Q417,229 417,250 Q417,271 405.5,284 Q394,297 375,297 Q356,297 344,284 Q332,271 332,250 Q332,229 356,203"/> 
            <glyph glyph-name="A" unicode="&#x41;" horiz-adv-x="670" d=" M455,0 L431,90 L229,90 L205,0 L-10,0 L213,700 L447,700 L670,0 M272,250 L388,250 L330,465"/> 
            <glyph glyph-name="B" unicode="&#x42;" horiz-adv-x="590" d=" M500,361 Q590,310 590,206 Q590,110 527.5,55 Q465,0 346,0 L50,0 L50,700 L328,700 Q446,700 508,649 Q570,598 570,503 Q570,412 500,361 M316,528 L250,528 L250,434 L327,435 Q370,441 370,481 Q370,504 354,516 Q338,528 316,528 M334,172 Q358,172 374,186 Q390,200 390,222 Q390,264 345,271 L250,272 L250,172"/> 
            <glyph glyph-name="C" unicode="&#x43;" horiz-adv-x="698" d=" M391,-16 Q233,-16 129,89 Q25,194 25,350 Q25,506 129,611 Q233,716 391,716 Q488,716 570,670 Q652,624 698,546 L524,446 Q507,480 471,500 Q435,520 391,520 Q317,520 271,472 Q225,424 225,350 Q225,276 271,228 Q317,180 391,180 Q436,180 471.5,200 Q507,220 524,255 L698,155 Q652,76 570,30 Q488,-16 391,-16"/> 
            <glyph glyph-name="D" unicode="&#x44;" horiz-adv-x="680" d=" M340,700 Q485,700 582.5,599.5 Q680,499 680,350 Q680,201 582.5,100.5 Q485,0 340,0 L50,0 L50,700 M340,194 Q401,194 440.5,237.5 Q480,281 480,350 Q480,419 440.5,462.5 Q401,506 340,506 L260,506 L260,194"/> 
            <glyph glyph-name="E" unicode="&#x45;" horiz-adv-x="510" d=" M250,184 L510,184 L510,0 L50,0 L50,700 L505,700 L505,518 L250,518 L250,442 L480,442 L480,262 L250,262"/> 
            <glyph glyph-name="F" unicode="&#x46;" horiz-adv-x="485" d=" M485,506 L250,506 L250,415 L480,415 L480,221 L250,221 L250,0 L50,0 L50,700 L485,700"/> 
            <glyph glyph-name="G" unicode="&#x47;" horiz-adv-x="747" d=" M747,413 L747,330 Q747,180 650.5,82 Q554,-16 397,-16 Q233,-16 129,88.5 Q25,193 25,349 Q25,505 129,610.5 Q233,716 389,716 Q487,716 568.5,672 Q650,628 697,553 L527,456 Q485,520 393,520 Q318,520 271.5,472 Q225,424 225,348 Q225,276 268,222.5 Q311,169 401,169 Q505,169 540,243 L391,243 L391,413"/> 
            <glyph glyph-name="H" unicode="&#x48;" horiz-adv-x="620" d=" M420,700 L620,700 L620,0 L420,0 L420,258 L250,258 L250,0 L50,0 L50,700 L250,700 L250,452 L420,452"/> 
            <glyph glyph-name="I" unicode="&#x49;" horiz-adv-x="250" d=" M50,700 L250,700 L250,0 L50,0"/> 
            <glyph glyph-name="J" unicode="&#x4A;" horiz-adv-x="527" d=" M267,-16 Q90,-16 20,128 L188,227 Q212,178 266,178 Q327,178 327,235 L327,700 L527,700 L527,230 Q527,115 459,49.5 Q391,-16 267,-16"/> 
            <glyph glyph-name="K" unicode="&#x4B;" horiz-adv-x="646" d=" M646,0 L424,0 L250,300 L250,0 L50,0 L50,700 L250,700 L250,420 L414,700 L636,700 L428,360"/> 
            <glyph glyph-name="L" unicode="&#x4C;" horiz-adv-x="480" d=" M250,194 L480,194 L480,0 L50,0 L50,700 L250,700"/> 
            <glyph glyph-name="M" unicode="&#x4D;" horiz-adv-x="780" d=" M780,700 L780,0 L580,0 L580,341 L424,79 L406,79 L250,341 L250,0 L50,0 L50,700 L250,700 L415,415 L580,700"/> 
            <glyph glyph-name="N" unicode="&#x4E;" horiz-adv-x="630" d=" M430,700 L630,700 L630,0 L470,0 L250,320 L250,0 L50,0 L50,700 L210,700 L430,380"/> 
            <glyph glyph-name="O" unicode="&#x4F;" horiz-adv-x="767" d=" M552,-16 Q240,-16 132.5,89.5 Q25,195 25,350 Q25,505 132.5,610.5 Q240,716 396,716 Q552,716 659.5,610.5 Q767,505 767,350 Q767,195 552,-16 M322,180 Q470,180 518.5,228.5 Q567,277 567,350 Q567,423 518.5,471.5 Q470,520 396,520 Q322,520 273.5,471.5 Q225,423 225,350 Q225,277 322,180"/> 
            <glyph glyph-name="P" unicode="&#x50;" horiz-adv-x="585" d=" M330,700 Q439,700 512,631.5 Q585,563 585,449 Q585,335 512,266.5 Q439,198 330,198 L250,198 L250,0 L50,0 L50,700 M330,392 Q353,392 369,407.5 Q385,423 385,449 Q385,475 369,490.5 Q353,506 330,506 L250,506 L250,392"/> 
            <glyph glyph-name="Q" unicode="&#x51;" horiz-adv-x="767" d=" M767,350 Q767,227 696,131 L752,70 L615,-50 L553,17 Q479,-16 396,-16 Q240,-16 132.5,89.5 Q25,195 25,350 Q25,505 132.5,610.5 Q240,716 396,716 Q552,716 659.5,610.5 Q767,505 767,350 M396,180 L403,180 L317,274 L455,393 L555,284 Q567,314 567,350 Q567,423 518.5,471.5 Q470,520 396,520 Q322,520 273.5,471.5 Q225,423 225,350 Q225,277 273.5,228.5 Q322,180 396,180"/> 
            <glyph glyph-name="R" unicode="&#x52;" horiz-adv-x="625" d=" M411,1 L300,221 L250,221 L250,1 L50,1 L50,701 L330,701 Q445,701 520,633.5 Q595,566 595,455 Q595,393 566.5,343 Q538,293 487,262 L625,1 M250,517 L250,387 L326,387 Q358,386 376.5,403 Q395,420 395,451 Q395,482 376.5,499.5 Q358,517 326,517"/> 
            <glyph glyph-name="S" unicode="&#x53;" horiz-adv-x="575" d=" M302,-16 Q188,-16 112,31.5 Q36,79 10,160 L181,259 Q216,170 307,170 Q375,170 375,206 Q375,216 370,224 Q365,232 351,238 Q337,244 326.5,247.5 Q316,251 290,258 Q264,265 251,269 Q42,332 42,494 Q42,590 111.5,653 Q181,716 294,716 Q383,716 453.5,674 Q524,632 557,553 L391,456 Q362,530 295,530 Q269,530 255.5,519.5 Q242,509 242,493 Q242,471 265.5,459 Q289,447 356,428 Q406,413 438,399.5 Q470,386 505,361.5 Q540,337 557.5,298.5 Q575,260 575,208 Q575,101 501.5,42.5 Q428,-16 302,-16"/> 
            <glyph glyph-name="T" unicode="&#x54;" horiz-adv-x="540" d=" M540,700 L540,506 L375,506 L375,0 L175,0 L175,506 L10,506 L10,700"/> 
            <glyph glyph-name="U" unicode="&#x55;" horiz-adv-x="610" d=" M452,-16 Q198,-16 119,53 Q40,122 40,234 L40,700 L240,700 L240,256 Q240,178 325,178 Q410,178 410,256 L410,700 L610,700 L610,234 Q610,122 452,-16"/> 
            <glyph glyph-name="V" unicode="&#x56;" horiz-adv-x="670" d=" M223,0 L0,700 L220,700 L335,255 L450,700 L670,700 L447,0"/> 
            <glyph glyph-name="W" unicode="&#x57;" horiz-adv-x="1010" d=" M198,0 L0,700 L220,700 L315,315 L428,700 L582,700 L695,315 L790,700 L1010,700 L812,0 L615,0 L505,374 L395,0"/> 
            <glyph glyph-name="X" unicode="&#x58;" horiz-adv-x="645" d=" M645,0 L423,0 L323,168 L222,0 L0,0 L212,354 L5,700 L227,700 L323,540 L418,700 L640,700 L434,354"/> 
            <glyph glyph-name="Y" unicode="&#x59;" horiz-adv-x="674" d=" M674,700 L437,266 L437,0 L237,0 L237,266 L0,700 L222,700 L337,454 L452,700"/> 
            <glyph glyph-name="Z" unicode="&#x5A;" horiz-adv-x="525" d=" M292,194 L525,194 L525,0 L30,0 L30,154 L253,506 L35,506 L35,700 L515,700 L515,546"/> 
            <glyph glyph-name="[" unicode="&#x5B;" horiz-adv-x="320" d=" M320,624 L225,624 L225,76 L320,76 L320,-100 L40,-100 L40,800 L320,800"/> 
            <glyph glyph-name="\" unicode="&#x5C;" horiz-adv-x="500" d=" M420,-100 L20,800 L100,800 L500,-100"/> 
            <glyph glyph-name="]" unicode="&#x5D;" horiz-adv-x="300" d=" M300,800 L300,-100 L20,-100 L20,76 L115,76 L115,624 L20,624 L20,800"/> 
            <glyph glyph-name="^" unicode="&#x5E;" horiz-adv-x="560" d=" M354,700 L560,330 L360,330 L290,477 L220,330 L20,330 L226,700"/> 
            <glyph glyph-name="_" unicode="&#x5F;" horiz-adv-x="490" d=" M20,-191 L20,-17 L490,-17 L490,-191"/> 
            <glyph glyph-name="`" unicode="&#x60;" horiz-adv-x="310" d=" M310,550 L230,700 L20,700 L136,550"/> 
            <glyph glyph-name="a" unicode="&#x61;" horiz-adv-x="566" d=" M381,500 L566,500 L566,0 L381,0 L381,45 Q333,-14 247,-14 Q146,-14 82,61 Q18,136 18,250 Q18,364 82,439 Q146,514 247,514 Q333,514 381,455 M252,156 Q332,156 356.5,183 Q381,210 381,250 Q381,290 356.5,317 Q332,344 292,344 Q252,344 227.5,317 Q203,290 203,250 Q203,210 252,156"/> 
            <glyph glyph-name="b" unicode="&#x62;" horiz-adv-x="588" d=" M359,514 Q460,514 524,439 Q588,364 588,250 Q588,136 524,61 Q460,-14 359,-14 Q273,-14 225,45 L225,0 L40,0 L40,700 L225,700 L225,455 Q273,514 359,514 M274,156 Q354,156 378.5,183 Q403,210 403,250 Q403,290 378.5,317 Q354,344 314,344 Q274,344 249.5,317 Q225,290 225,250 Q225,210 274,156"/> 
            <glyph glyph-name="c" unicode="&#x63;" horiz-adv-x="515" d=" M285,-14 Q170,-14 94,61.5 Q18,137 18,250 Q18,363 94,438.5 Q170,514 285,514 Q359,514 420.5,478.5 Q482,443 515,383 L359,294 Q334,336 285,336 Q250,336 226.5,311.5 Q203,287 203,250 Q203,213 226.5,188.5 Q250,164 285,164 Q337,164 359,207 L515,117 Q482,56 420.5,21 Q359,-14 285,-14"/> 
            <glyph glyph-name="d" unicode="&#x64;" horiz-adv-x="566" d=" M381,700 L566,700 L566,0 L381,0 L381,45 Q333,-14 247,-14 Q146,-14 82,61 Q18,136 18,250 Q18,364 82,439 Q146,514 247,514 Q333,514 381,455 M252,156 Q332,156 356.5,183 Q381,210 381,250 Q381,290 356.5,317 Q332,344 292,344 Q252,344 227.5,317 Q203,290 203,250 Q203,210 252,156"/> 
            <glyph glyph-name="e" unicode="&#x65;" horiz-adv-x="545" d=" M205,187 Q229,137 307,137 Q353,137 392,169 L513,67 Q438,-14 301,-14 Q173,-14 95.5,60.5 Q18,135 18,248 Q18,362 93.5,438 Q169,514 284,514 Q398,514 471.5,439.5 Q545,365 545,252 Q545,219 537,187 M202,306 L370,306 Q353,366 289,366 Q224,366 202,306"/> 
            <glyph glyph-name="f" unicode="&#x66;" horiz-adv-x="330" d=" M330,550 Q294,553 273.5,539 Q253,525 253,500 L330,500 L330,324 L253,324 L253,0 L68,0 L68,324 L10,324 L10,500 L68,500 Q68,608 135,665.5 Q202,723 330,716"/> 
            <glyph glyph-name="g" unicode="&#x67;" horiz-adv-x="573" d=" M388,500 L573,500 L573,15 Q573,-45 550.5,-91 Q528,-137 490,-163.5 Q452,-190 406.5,-203 Q361,-216 311,-216 Q223,-216 155,-184 Q87,-152 54,-94 L204,-7 Q240,-56 301,-56 Q336,-56 362,-38.5 Q388,-21 388,15 L388,65 Q340,6 254,6 Q154,6 89.5,79 Q25,152 25,260 Q25,368 89.5,441 Q154,514 254,514 Q340,514 388,455 M259,170 Q339,170 363.5,196 Q388,222 388,260 Q388,298 363.5,324 Q339,350 299,350 Q259,350 234.5,324 Q210,298 210,260 Q210,222 259,170"/> 
            <glyph glyph-name="h" unicode="&#x68;" horiz-adv-x="540" d=" M359,514 Q441,514 490.5,457.5 Q540,401 540,289 L540,0 L355,0 L355,269 Q355,336 293,336 Q260,336 242.5,315 Q225,294 225,257 L225,0 L40,0 L40,700 L225,700 L225,451 Q271,514 359,514"/> 
            <glyph glyph-name="i" unicode="&#x69;" horiz-adv-x="235" d=" M133,538 Q91,538 60.5,568.5 Q30,599 30,640 Q30,681 60.5,711.5 Q91,742 133,742 Q174,742 204.5,711.5 Q235,681 235,640 Q235,599 204.5,568.5 Q174,538 133,538 M40,0 L40,500 L225,500 L225,0"/> 
            <glyph glyph-name="j" unicode="&#x6A;" horiz-adv-x="250" d=" M148,538 Q106,538 75.5,568.5 Q45,599 45,640 Q45,681 75.5,711.5 Q106,742 148,742 Q189,742 219.5,711.5 Q250,681 250,640 Q250,599 219.5,568.5 Q189,538 148,538 M55,0 L55,500 L240,500 L240,0 Q240,-118 179.5,-170.5 Q119,-223 -10,-216 L-10,-50 Q55,-56 55,0"/> 
            <glyph glyph-name="k" unicode="&#x6B;" horiz-adv-x="550" d=" M550,0 L345,0 L225,200 L225,0 L40,0 L40,700 L225,700 L225,306 L330,500 L540,500 L388,250"/> 
            <glyph glyph-name="l" unicode="&#x6C;" horiz-adv-x="225" d=" M40,0 L40,730 L225,730 L225,0"/> 
            <glyph glyph-name="m" unicode="&#x6D;" horiz-adv-x="815" d=" M630,514 Q717,514 766,459.5 Q815,405 815,304 L815,0 L630,0 L630,279 Q630,336 579,336 Q520,336 520,262 L520,0 L335,0 L335,279 Q335,336 284,336 Q225,336 225,262 L225,0 L40,0 L40,500 L225,500 L225,453 Q274,514 361,514 Q447,514 486,452 Q540,514 630,514"/> 
            <glyph glyph-name="n" unicode="&#x6E;" horiz-adv-x="540" d=" M359,514 Q441,514 490.5,457.5 Q540,401 540,289 L540,0 L355,0 L355,269 Q355,336 293,336 Q260,336 242.5,315 Q225,294 225,257 L225,0 L40,0 L40,500 L225,500 L225,451 Q271,514 359,514"/> 
            <glyph glyph-name="o" unicode="&#x6F;" horiz-adv-x="556" d=" M287,-14 Q175,-14 96.5,62 Q18,138 18,250 Q18,362 96,438 Q174,514 287,514 Q400,514 478,438 Q556,362 556,250 Q556,138 478,62 Q400,-14 287,-14 M250,162 Q324,162 347.5,186.5 Q371,211 371,250 Q371,289 347.5,313.5 Q324,338 287,338 Q250,338 226.5,313.5 Q203,289 203,250 Q203,211 250,162"/> 
            <glyph glyph-name="p" unicode="&#x70;" horiz-adv-x="588" d=" M359,514 Q460,514 524,439 Q588,364 588,250 Q588,136 524,61 Q460,-14 359,-14 Q273,-14 225,45 L225,-200 L40,-200 L40,500 L225,500 L225,455 Q273,514 359,514 M274,156 Q354,156 378.5,183 Q403,210 403,250 Q403,290 378.5,317 Q354,344 314,344 Q274,344 249.5,317 Q225,290 225,250 Q225,210 274,156"/> 
            <glyph glyph-name="q" unicode="&#x71;" horiz-adv-x="566" d=" M381,500 L566,500 L566,-200 L381,-200 L381,45 Q333,-14 247,-14 Q146,-14 82,61 Q18,136 18,250 Q18,364 82,439 Q146,514 247,514 Q333,514 381,455 M252,156 Q332,156 356.5,183 Q381,210 381,250 Q381,290 356.5,317 Q332,344 292,344 Q252,344 227.5,317 Q203,290 203,250 Q203,210 252,156"/> 
            <glyph glyph-name="r" unicode="&#x72;" horiz-adv-x="375" d=" M225,403 Q239,454 280,482 Q321,510 375,510 L375,310 Q315,318 270,286.5 Q225,255 225,186 L225,0 L40,0 L40,500 L225,500"/> 
            <glyph glyph-name="s" unicode="&#x73;" horiz-adv-x="469" d=" M219,353 Q219,341 237.5,334 Q256,327 284,323.5 Q312,320 344,310 Q376,300 404,285 Q432,270 450.5,237.5 Q469,205 469,159 Q469,111 447.5,75 Q426,39 391,21 Q356,3 319.5,-5.5 Q283,-14 244,-14 Q63,-14 10,105 L171,177 Q190,126 242,126 Q276,126 276,148 Q276,161 251,169 Q226,177 191,185.5 Q156,194 120.5,208.5 Q85,223 60,257 Q35,291 35,342 Q35,424 97.5,469 Q160,514 242,514 Q406,514 459,387 L306,332 Q288,374 250,374 Q219,374 219,353"/> 
            <glyph glyph-name="t" unicode="&#x74;" horiz-adv-x="370" d=" M370,324 L265,324 L265,216 Q265,191 277,179 Q289,167 312.5,165.5 Q336,164 370,166 L370,0 Q213,-22 146.5,27 Q80,76 80,206 L80,324 L10,324 L10,500 L80,500 L80,585 L265,640 L265,500 L370,500"/> 
            <glyph glyph-name="u" unicode="&#x75;" horiz-adv-x="535" d=" M350,500 L535,500 L535,0 L350,0 L350,49 Q304,-14 216,-14 Q134,-14 84.5,42.5 Q35,99 35,211 L35,500 L220,500 L220,231 Q220,164 282,164 Q315,164 332.5,185 Q350,206 350,243"/> 
            <glyph glyph-name="v" unicode="&#x76;" horiz-adv-x="570" d=" M365,500 L570,500 L380,0 L190,0 L0,500 L205,500 L285,250"/> 
            <glyph glyph-name="w" unicode="&#x77;" horiz-adv-x="810" d=" M615,500 L810,500 L665,0 L477,0 L415,235 L353,0 L165,0 L20,500 L215,500 L273,223 L345,500 L485,500 L557,223"/> 
            <glyph glyph-name="x" unicode="&#x78;" horiz-adv-x="570" d=" M570,0 L365,0 L285,112 L205,0 L0,0 L183,256 L8,500 L213,500 L285,399 L357,500 L562,500 L388,256"/> 
            <glyph glyph-name="y" unicode="&#x79;" horiz-adv-x="570" d=" M360,500 L570,500 L400,1 Q363,-108 285,-156.5 Q207,-205 79,-200 L79,-25 Q130,-25 157,-17.5 Q184,-10 200,10 L0,500 L210,500 L299,233"/> 
            <glyph glyph-name="z" unicode="&#x7A;" horiz-adv-x="460" d=" M286,170 L460,170 L460,0 L40,0 L40,130 L204,330 L50,330 L50,500 L450,500 L450,370"/> 
            <glyph glyph-name="{" unicode="&#x7B;" horiz-adv-x="345" d=" M345,-107 Q225,-114 165,-62.5 Q105,-11 105,89 L105,214 Q105,270 30,264 L30,439 Q105,433 105,489 L105,614 Q105,714 165,765.5 Q225,817 345,810 L345,644 Q290,650 290,614 L290,489 Q290,385 207,352 Q290,317 290,214 L290,89 Q290,53 345,59"/> 
            <glyph glyph-name="|" unicode="&#x7C;" horiz-adv-x="235" d=" M50,-200 L50,720 L235,720 L235,-200"/> 
            <glyph glyph-name="}" unicode="&#x7D;" horiz-adv-x="335" d=" M20,-107 L20,59 Q75,53 75,89 L75,214 Q75,317 158,352 Q75,385 75,489 L75,614 Q75,650 20,644 L20,810 Q140,817 200,765.5 Q260,714 260,614 L260,489 Q260,433 335,439 L335,264 Q260,270 260,214 L260,89 Q260,-11 200,-62.5 Q140,-114 20,-107"/> 
            <glyph glyph-name="~" unicode="&#x7E;" horiz-adv-x="582" d=" M438,471 L582,406 Q557,287 479.5,242.5 Q402,198 306,244 Q237,276 212,272 Q187,268 174,225 L30,290 Q55,409 132.5,453.5 Q210,498 306,452 Q374,420 399,424 Q424,428 438,471"/> 
            <glyph glyph-name="¡" unicode="&#xA1;" horiz-adv-x="270" d=" M107,515 Q203,515 236.5,481.5 Q270,448 270,400 Q270,352 236.5,318.5 Q203,285 155,285 Q107,285 73.5,318.5 Q40,352 40,400 Q40,448 107,515 M75,240 L235,240 L270,0 L270,-200 L40,-200 L40,0"/> 
            <glyph glyph-name="¢" unicode="&#xA2;" horiz-adv-x="515" d=" M288,264 Q337,266 359,307 L515,217 Q482,156 420.5,121 Q359,86 285,86 Q260,86 232,91 L203,0 L138,0 L173,109 Q102,139 60,203.5 Q18,268 18,350 Q18,463 94,538.5 Q170,614 285,614 Q303,614 335,610 L364,700 L429,700 L394,592 Q473,557 515,483 L359,394 Q352,408 338,418 M203,350 Q203,309 230,285 L279,436 Q246,434 224.5,410 Q203,386 203,350"/> 
            <glyph glyph-name="£" unicode="&#xA3;" horiz-adv-x="570" d=" M277,194 L570,194 L570,0 L20,0 L20,194 L77,194 L77,275 L30,275 L30,415 L77,415 L77,482 Q77,594 147.5,655 Q218,716 312,716 Q491,716 561,552 L388,459 Q367,528 322,528 Q300,528 288.5,511.5 Q277,495 277,469 L277,415 L460,415 L460,275 L277,275"/> 
            <glyph glyph-name="¤" unicode="&#xA4;" horiz-adv-x="506" d=" M480,423 Q480,277 436,222 L506,153 L460,107 L389,178 Q334,140 263,140 Q192,140 137,178 L66,107 L20,153 L89,222 Q46,278 46,350 Q46,422 89,478 L20,547 L66,593 L137,522 Q192,560 263,560 Q334,560 389,522 L460,593 L506,547 L436,478 M243,308 Q283,308 294.5,319.5 Q306,331 306,350 Q306,369 294.5,380.5 Q283,392 263,392 Q243,392 231.5,380.5 Q220,369 220,350 Q220,331 243,308"/> 
            <glyph glyph-name="¥" unicode="&#xA5;" horiz-adv-x="674" d=" M674,700 L498,377 L577,377 L577,277 L443,277 L437,266 L437,235 L577,235 L577,135 L437,135 L437,0 L237,0 L237,135 L77,135 L77,235 L237,235 L237,266 L231,277 L77,277 L77,377 L176,377 L0,700 L222,700 L337,454 L452,700"/> 
            <glyph glyph-name="¦" unicode="&#xA6;" horiz-adv-x="235" d=" M50,350 L50,720 L235,720 L235,350 M50,-200 L50,170 L235,170 L235,-200"/> 
            <glyph glyph-name="§" unicode="&#xA7;" horiz-adv-x="517" d=" M517,290 Q517,216 465,171 Q497,129 497,65 Q497,-20 431,-66 Q365,-112 269,-112 Q94,-112 38,15 L191,93 Q217,36 269,36 Q313,36 313,65 Q313,74 306.5,81.5 Q300,89 286,95.5 Q272,102 258.5,107 Q245,112 222.5,120 Q200,128 184,134 Q30,196 30,320 Q30,397 85,442 Q60,484 60,539 Q60,623 122.5,669.5 Q185,716 268,716 Q424,716 489,584 L341,514 Q322,576 278,576 Q263,576 253.5,568.5 Q244,561 244,549 Q244,538 251.5,529 Q259,520 274,512 Q289,504 304,498 Q319,492 343.5,483 Q368,474 385,467 Q447,440 482,399.5 Q517,359 517,290 M210,325 Q210,302 245,285 Q248,284 276,272 Q290,266 322,256 Q337,266 337,285 Q337,291 335,296 Q333,301 330.5,304 Q328,307 321.5,311 Q315,315 311,317 Q307,319 297,323 Q287,327 282,329 Q272,334 221,352 Q210,341 210,325"/> 
            <glyph glyph-name="¨" unicode="&#xA8;" horiz-adv-x="390" d=" M140,530 Q70,530 45,555 Q20,580 20,615 Q20,650 45,675 Q70,700 105,700 Q140,700 165,675 Q190,650 190,615 Q190,580 140,530 M340,530 Q270,530 245,555 Q220,580 220,615 Q220,650 245,675 Q270,700 305,700 Q340,700 365,675 Q390,650 390,615 Q390,580 340,530"/> 
            <glyph glyph-name="©" unicode="&#xA9;" horiz-adv-x="749" d=" M537,-12 Q237,-12 131,94 Q25,200 25,350 Q25,500 131,606 Q237,712 387,712 Q537,712 643,606 Q749,500 749,350 Q749,200 537,-12 M258,34 Q516,34 607.5,126.5 Q699,219 699,350 Q699,481 607.5,573.5 Q516,666 387,666 Q258,666 166.5,573.5 Q75,481 75,350 Q75,219 258,34 M390,153 Q308,153 249.5,211.5 Q191,270 191,350 Q191,430 249.5,488.5 Q308,547 390,547 Q442,547 486,521.5 Q530,496 557,449 L430,376 Q415,400 386,400 Q364,400 350,385 Q336,370 336,350 Q336,330 350,315 Q364,300 386,300 Q415,300 430,324 L558,251 Q531,204 486.5,178.5 Q442,153 390,153"/> 
            <glyph glyph-name="«" unicode="&#xAB;" horiz-adv-x="527" d=" M317,509 L202,309 L317,109 L165,109 L50,309 L165,509 M527,509 L412,309 L527,109 L375,109 L260,309 L375,509"/> 
            <glyph glyph-name="¬" unicode="&#xAC;" horiz-adv-x="550" d=" M30,440 L550,440 L550,140 L360,140 L360,260 L30,260"/> 
            <glyph glyph-name="®" unicode="&#xAE;" horiz-adv-x="749" d=" M237,712 Q537,712 643,606 Q749,500 749,350 Q749,200 643,94 Q537,-12 387,-12 Q237,-12 131,94 Q25,200 25,350 Q25,500 237,712 M258,34 Q516,34 607.5,126.5 Q699,219 699,350 Q699,481 607.5,573.5 Q516,666 387,666 Q258,666 166.5,573.5 Q75,481 75,350 Q75,219 258,34 M566,406 Q566,333 515,290 L586,165 L435,165 L387,257 L374,257 L374,165 L232,165 L232,535 L426,535 Q483,535 524.5,498.5 Q566,462 566,406 M396,415 L374,415 L374,367 L396,367 Q424,367 424,391 Q424,415 396,415"/> 
            <glyph glyph-name="¯" unicode="&#xAF;" horiz-adv-x="340" d=" M20,549 L20,689 L340,689 L340,549"/> 
            <glyph glyph-name="°" unicode="&#xB0;" horiz-adv-x="396" d=" M213,450 Q135,450 82.5,502.5 Q30,555 30,630 Q30,706 82,758 Q134,810 213,810 Q292,810 344,758 Q396,706 396,630 Q396,555 344.5,502.5 Q293,450 213,450 M213,590 Q231,590 241.5,601 Q252,612 252,630 Q252,647 241,658.5 Q230,670 213,670 Q196,670 185,658.5 Q174,647 174,630 Q174,613 185,601.5 Q196,590 213,590"/> 
            <glyph glyph-name="±" unicode="&#xB1;" horiz-adv-x="530" d=" M370,540 L530,540 L530,360 L370,360 L370,230 L190,230 L190,360 L30,360 L30,540 L190,540 L190,670 L370,670 M30,0 L30,180 L530,180 L530,0"/> 
            <glyph glyph-name="´" unicode="&#xB4;" horiz-adv-x="310" d=" M20,550 L194,550 L310,700 L100,700"/> 
            <glyph glyph-name="µ" unicode="&#xB5;" horiz-adv-x="585" d=" M570,160 L585,160 L585,0 L505,0 Q426,0 385,50 Q343,-16 241,-16 Q230,-16 225,-15 L225,-200 L40,-200 L40,500 L225,500 L225,229 Q225,162 287,162 Q320,162 337.5,183 Q355,204 355,241 L355,500 L540,500 L540,190 Q540,160 570,160"/> 
            <glyph glyph-name="¶" unicode="&#xB6;" horiz-adv-x="740" d=" M740,700 L740,506 L668,506 L668,-200 L488,-200 L488,506 L430,506 L430,-200 L250,-200 L250,240 Q154,240 87,307.5 Q20,375 20,470 Q20,566 87,633 Q154,700 250,700"/> 
            <glyph glyph-name="·" unicode="&#xB7;" horiz-adv-x="265" d=" M198,240 Q102,240 68.5,273.5 Q35,307 35,355 Q35,403 68.5,436.5 Q102,470 150,470 Q198,470 231.5,436.5 Q265,403 265,355 Q265,307 198,240"/> 
            <glyph glyph-name="¸" unicode="&#xB8;" horiz-adv-x="265" d=" M212,-46 Q265,-68 265,-123 Q265,-179 204,-206 Q143,-233 20,-226 L20,-112 Q115,-119 115,-98 Q115,-83 62,-78 L62,0 L212,0"/> 
            <glyph glyph-name="»" unicode="&#xBB;" horiz-adv-x="527" d=" M202,509 L317,309 L202,109 L50,109 L165,309 L50,509 M412,509 L527,309 L412,109 L260,109 L375,309 L260,509"/> 
            <glyph glyph-name="¼" unicode="&#xBC;" horiz-adv-x="815" d=" M111,300 L111,551 L33,532 L0,652 L132,700 L253,700 L253,300 M509,700 L639,700 L229,0 L99,0 M815,171 L815,51 L782,51 L782,0 L654,0 L654,51 L464,51 L464,171 L574,400 L721,400 L617,171 L654,171 L654,237 L782,237 L782,171"/> 
            <glyph glyph-name="½" unicode="&#xBD;" horiz-adv-x="788" d=" M111,300 L111,551 L33,532 L0,652 L132,700 L253,700 L253,300 M509,700 L639,700 L229,0 L99,0 M681,125 L788,125 L788,0 L482,0 L482,102 L622,233 Q649,258 649,274 Q649,292 629,292 Q606,292 590,250 L474,316 Q524,414 636,414 Q697,414 742,377.5 Q787,341 787,282 Q787,219 717,157"/> 
            <glyph glyph-name="¾" unicode="&#xBE;" horiz-adv-x="859" d=" M328,429 Q328,361 282.5,323.5 Q237,286 164,286 Q45,286 0,384 L114,449 Q129,409 164,409 Q192,409 192,429 Q192,448 169,448 L137,448 L87,523 L135,577 L21,577 L21,700 L313,700 L313,611 L249,539 Q328,509 328,429 M553,700 L683,700 L273,0 L143,0 M859,171 L859,51 L826,51 L826,0 L698,0 L698,51 L508,51 L508,171 L618,400 L765,400 L661,171 L698,171 L698,237 L826,237 L826,171"/> 
            <glyph glyph-name="¿" unicode="&#xBF;" horiz-adv-x="522" d=" M229,515 Q325,515 358.5,481.5 Q392,448 392,400 Q392,352 358.5,318.5 Q325,285 277,285 Q229,285 195.5,318.5 Q162,352 162,400 Q162,448 229,515 M367,240 Q367,197 345.5,160 Q324,123 298.5,102 Q273,81 251.5,57 Q230,33 230,12 Q230,-4 241,-14 Q252,-24 271,-24 Q320,-24 353,49 L522,-47 Q486,-132 417,-174 Q348,-216 263,-216 Q162,-216 96,-162.5 Q30,-109 30,-19 Q30,23 46,59 Q62,95 85,118.5 Q108,142 131.5,162 Q155,182 171,201.5 Q187,221 187,240"/> 
            <glyph glyph-name="À" unicode="&#xC0;" horiz-adv-x="670" d=" M430,750 L256,750 L140,900 L350,900 M455,0 L431,90 L229,90 L205,0 L-10,0 L213,700 L447,700 L670,0 M272,250 L388,250 L330,465"/> 
            <glyph glyph-name="Á" unicode="&#xC1;" horiz-adv-x="670" d=" M510,900 L394,750 L220,750 L300,900 M455,0 L431,90 L229,90 L205,0 L-10,0 L213,700 L447,700 L670,0 M272,250 L388,250 L330,465"/> 
            <glyph glyph-name="Â" unicode="&#xC2;" horiz-adv-x="670" d=" M325,798 L280,740 L125,740 L231,900 L419,900 L525,740 L370,740 M455,0 L431,90 L229,90 L205,0 L-10,0 L213,700 L447,700 L670,0 M272,250 L388,250 L330,465"/> 
            <glyph glyph-name="Ã" unicode="&#xC3;" horiz-adv-x="670" d=" M326,757 Q321,759 312,763.5 Q303,768 298.5,770 Q294,772 287.5,773.5 Q281,775 278,772 Q275,769 273,762 Q271,755 271,743 L151,743 Q151,803 168,842 Q185,881 213,895 Q241,909 271.5,909 Q302,909 334,896 Q339,894 348.5,889.5 Q358,885 362.5,883 Q367,881 373.5,879.5 Q380,878 383,881 Q386,884 388,891 Q390,898 390,910 L510,910 Q510,849 493,809.5 Q476,770 448,756.5 Q420,743 389.5,743.5 Q359,744 326,757 M455,0 L431,90 L229,90 L205,0 L-10,0 L213,700 L447,700 L670,0 M272,250 L388,250 L330,465"/> 
            <glyph glyph-name="Ä" unicode="&#xC4;" horiz-adv-x="670" d=" M265,730 Q195,730 170,755 Q145,780 145,815 Q145,850 170,875 Q195,900 230,900 Q265,900 290,875 Q315,850 315,815 Q315,780 265,730 M465,730 Q395,730 370,755 Q345,780 345,815 Q345,850 370,875 Q395,900 430,900 Q465,900 490,875 Q515,850 515,815 Q515,780 465,730 M455,0 L431,90 L229,90 L205,0 L-10,0 L213,700 L447,700 L670,0 M272,250 L388,250 L330,465"/> 
            <glyph glyph-name="Å" unicode="&#xC5;" horiz-adv-x="670" d=" M455,0 L431,90 L229,90 L205,0 L-10,0 L209,686 Q181,722 181,770 Q181,830 223,870 Q265,910 330,910 Q397,910 438,870.5 Q479,831 479,770 Q479,722 452,685 L670,0 M330,800 Q315,800 307,791.5 Q299,783 299,770 Q299,757 307,748.5 Q315,740 330,740 Q362,740 362,770 Q362,800 330,800 M272,250 L388,250 L330,465"/> 
            <glyph glyph-name="Æ" unicode="&#xC6;" horiz-adv-x="860" d=" M635,184 L860,184 L860,0 L440,0 L440,90 L258,90 L210,0 L-10,0 L379,700 L855,700 L855,518 L635,518 L635,442 L830,442 L830,262 L635,262 M345,250 L440,250 L440,427"/> 
            <glyph glyph-name="Ç" unicode="&#xC7;" horiz-adv-x="698" d=" M391,180 Q436,180 471.5,200 Q507,220 524,255 L698,155 Q621,25 468,-8 L468,-46 Q521,-68 521,-123 Q521,-179 460,-206 Q399,-233 276,-226 L276,-112 Q371,-119 371,-98 Q371,-83 318,-78 L318,-9 Q188,14 106.5,114 Q25,214 25,350 Q25,506 129,611 Q233,716 391,716 Q488,716 570,670 Q652,624 698,546 L524,446 Q507,480 471,500 Q435,520 391,520 Q317,520 271,472 Q225,424 225,350 Q225,276 271,228 Q317,180 391,180"/> 
            <glyph glyph-name="È" unicode="&#xC8;" horiz-adv-x="510" d=" M378,750 L204,750 L88,900 L298,900 M250,184 L510,184 L510,0 L50,0 L50,700 L505,700 L505,518 L250,518 L250,442 L480,442 L480,262 L250,262"/> 
            <glyph glyph-name="É" unicode="&#xC9;" horiz-adv-x="510" d=" M458,900 L342,750 L168,750 L248,900 M250,184 L510,184 L510,0 L50,0 L50,700 L505,700 L505,518 L250,518 L250,442 L480,442 L480,262 L250,262"/> 
            <glyph glyph-name="Ê" unicode="&#xCA;" horiz-adv-x="510" d=" M273,798 L228,740 L73,740 L179,900 L367,900 L473,740 L318,740 M250,184 L510,184 L510,0 L50,0 L50,700 L505,700 L505,518 L250,518 L250,442 L480,442 L480,262 L250,262"/> 
            <glyph glyph-name="Ë" unicode="&#xCB;" horiz-adv-x="510" d=" M213,730 Q143,730 118,755 Q93,780 93,815 Q93,850 118,875 Q143,900 178,900 Q213,900 238,875 Q263,850 263,815 Q263,780 213,730 M413,730 Q343,730 318,755 Q293,780 293,815 Q293,850 318,875 Q343,900 378,900 Q413,900 438,875 Q463,850 463,815 Q463,780 413,730 M250,184 L510,184 L510,0 L50,0 L50,700 L505,700 L505,518 L250,518 L250,442 L480,442 L480,262 L250,262"/> 
            <glyph glyph-name="Ì" unicode="&#xCC;" horiz-adv-x="250" d=" M250,750 L170,900 L-40,900 L76,750 M50,700 L250,700 L250,0 L50,0"/> 
            <glyph glyph-name="Í" unicode="&#xCD;" horiz-adv-x="330" d=" M40,750 L214,750 L330,900 L120,900 M50,700 L250,700 L250,0 L50,0"/> 
            <glyph glyph-name="Î" unicode="&#xCE;" horiz-adv-x="345" d=" M145,798 L100,740 L-55,740 L51,900 L239,900 L345,740 L190,740 M50,0 L50,700 L250,700 L250,0"/> 
            <glyph glyph-name="Ï" unicode="&#xCF;" horiz-adv-x="335" d=" M85,730 Q15,730 -10,755 Q-35,780 -35,815 Q-35,850 -10,875 Q15,900 50,900 Q85,900 110,875 Q135,850 135,815 Q135,780 85,730 M285,730 Q215,730 190,755 Q165,780 165,815 Q165,850 190,875 Q215,900 250,900 Q285,900 310,875 Q335,850 335,815 Q335,780 285,730 M50,700 L250,700 L250,0 L50,0"/> 
            <glyph glyph-name="Ð" unicode="&#xD0;" horiz-adv-x="700" d=" M360,700 Q505,700 602.5,599.5 Q700,499 700,350 Q700,201 602.5,100.5 Q505,0 360,0 L70,0 L70,258 L0,258 L0,432 L70,432 L70,700 M360,194 Q421,194 460.5,237.5 Q500,281 500,350 Q500,419 460.5,462.5 Q421,506 360,506 L280,506 L280,432 L400,432 L400,258 L280,258 L280,194"/> 
            <glyph glyph-name="Ñ" unicode="&#xD1;" horiz-adv-x="630" d=" M146,743 Q146,803 163,842 Q180,881 208,895 Q236,909 266.5,909 Q297,909 329,896 Q334,894 343.5,889.5 Q353,885 357.5,883 Q362,881 368.5,879.5 Q375,878 378,881 Q381,884 383,891 Q385,898 385,910 L505,910 Q505,849 488,809.5 Q471,770 443,756.5 Q415,743 384.5,743.5 Q354,744 321,757 Q316,759 307,763.5 Q298,768 293.5,770 Q289,772 282.5,773.5 Q276,775 273,772 Q270,769 268,762 Q266,755 266,743 M430,700 L630,700 L630,0 L470,0 L250,320 L250,0 L50,0 L50,700 L210,700 L430,380"/> 
            <glyph glyph-name="Ò" unicode="&#xD2;" horiz-adv-x="767" d=" M496,760 L416,910 L206,910 L322,760 M552,-16 Q240,-16 132.5,89.5 Q25,195 25,350 Q25,505 132.5,610.5 Q240,716 396,716 Q552,716 659.5,610.5 Q767,505 767,350 Q767,195 552,-16 M322,180 Q470,180 518.5,228.5 Q567,277 567,350 Q567,423 518.5,471.5 Q470,520 396,520 Q322,520 273.5,471.5 Q225,423 225,350 Q225,277 322,180"/> 
            <glyph glyph-name="Ó" unicode="&#xD3;" horiz-adv-x="767" d=" M286,760 L460,760 L576,910 L366,910 M552,-16 Q240,-16 132.5,89.5 Q25,195 25,350 Q25,505 132.5,610.5 Q240,716 396,716 Q552,716 659.5,610.5 Q767,505 767,350 Q767,195 552,-16 M322,180 Q470,180 518.5,228.5 Q567,277 567,350 Q567,423 518.5,471.5 Q470,520 396,520 Q322,520 273.5,471.5 Q225,423 225,350 Q225,277 322,180"/> 
            <glyph glyph-name="Ô" unicode="&#xD4;" horiz-adv-x="767" d=" M391,808 L346,750 L191,750 L297,910 L485,910 L591,750 L436,750 M240,716 Q552,716 659.5,610.5 Q767,505 767,350 Q767,195 659.5,89.5 Q552,-16 396,-16 Q240,-16 132.5,89.5 Q25,195 25,350 Q25,505 240,716 M322,180 Q470,180 518.5,228.5 Q567,277 567,350 Q567,423 518.5,471.5 Q470,520 396,520 Q322,520 273.5,471.5 Q225,423 225,350 Q225,277 322,180"/> 
            <glyph glyph-name="Õ" unicode="&#xD5;" horiz-adv-x="767" d=" M217,753 Q217,813 234,852 Q251,891 279,905 Q307,919 337.5,919 Q368,919 400,906 Q405,904 414.5,899.5 Q424,895 428.5,893 Q433,891 439.5,889.5 Q446,888 449,891 Q452,894 454,901 Q456,908 456,920 L576,920 Q576,859 559,819.5 Q542,780 514,766.5 Q486,753 455.5,753.5 Q425,754 392,767 Q387,769 378,773.5 Q369,778 364.5,780 Q360,782 353.5,783.5 Q347,785 344,782 Q341,779 339,772 Q337,765 337,753 M552,-16 Q240,-16 132.5,89.5 Q25,195 25,350 Q25,505 132.5,610.5 Q240,716 396,716 Q552,716 659.5,610.5 Q767,505 767,350 Q767,195 552,-16 M322,180 Q470,180 518.5,228.5 Q567,277 567,350 Q567,423 518.5,471.5 Q470,520 396,520 Q322,520 273.5,471.5 Q225,423 225,350 Q225,277 322,180"/> 
            <glyph glyph-name="Ö" unicode="&#xD6;" horiz-adv-x="767" d=" M331,740 Q261,740 236,765 Q211,790 211,825 Q211,860 236,885 Q261,910 296,910 Q331,910 356,885 Q381,860 381,825 Q381,790 331,740 M531,740 Q461,740 436,765 Q411,790 411,825 Q411,860 436,885 Q461,910 496,910 Q531,910 556,885 Q581,860 581,825 Q581,790 531,740 M552,-16 Q240,-16 132.5,89.5 Q25,195 25,350 Q25,505 132.5,610.5 Q240,716 396,716 Q552,716 659.5,610.5 Q767,505 767,350 Q767,195 552,-16 M322,180 Q470,180 518.5,228.5 Q567,277 567,350 Q567,423 518.5,471.5 Q470,520 396,520 Q322,520 273.5,471.5 Q225,423 225,350 Q225,277 322,180"/> 
            <glyph glyph-name="×" unicode="&#xD7;" horiz-adv-x="523" d=" M523,469 L404,350 L523,231 L396,103 L277,223 L157,103 L30,231 L149,350 L30,469 L157,597 L277,478 L396,597"/> 
            <glyph glyph-name="Ø" unicode="&#xD8;" horiz-adv-x="772" d=" M667,608 Q772,501 772,350 Q772,195 664.5,89.5 Q557,-16 401,-16 Q291,-16 201,40 L157,-14 L82,28 L135,92 Q30,199 30,350 Q30,505 137.5,610.5 Q245,716 401,716 Q511,716 601,660 L645,714 L720,672 M230,350 Q230,293 262,248 L474,505 Q441,520 401,520 Q327,520 278.5,471.5 Q230,423 230,350 M401,180 Q475,180 523.5,228.5 Q572,277 572,350 Q572,407 540,452 L328,195 Q361,180 401,180"/> 
            <glyph glyph-name="Ù" unicode="&#xD9;" horiz-adv-x="610" d=" M425,750 L345,900 L135,900 L251,750 M452,-16 Q198,-16 119,53 Q40,122 40,234 L40,700 L240,700 L240,256 Q240,178 325,178 Q410,178 410,256 L410,700 L610,700 L610,234 Q610,122 452,-16"/> 
            <glyph glyph-name="Ú" unicode="&#xDA;" horiz-adv-x="610" d=" M215,750 L389,750 L505,900 L295,900 M452,-16 Q198,-16 119,53 Q40,122 40,234 L40,700 L240,700 L240,256 Q240,178 325,178 Q410,178 410,256 L410,700 L610,700 L610,234 Q610,122 452,-16"/> 
            <glyph glyph-name="Û" unicode="&#xDB;" horiz-adv-x="610" d=" M320,798 L275,740 L120,740 L226,900 L414,900 L520,740 L365,740 M410,700 L610,700 L610,234 Q610,122 531,53 Q452,-16 325,-16 Q198,-16 119,53 Q40,122 40,234 L40,700 L240,700 L240,256 Q240,178 325,178 Q410,178 410,256"/> 
            <glyph glyph-name="Ü" unicode="&#xDC;" horiz-adv-x="610" d=" M260,730 Q190,730 165,755 Q140,780 140,815 Q140,850 165,875 Q190,900 225,900 Q260,900 285,875 Q310,850 310,815 Q310,780 260,730 M460,730 Q390,730 365,755 Q340,780 340,815 Q340,850 365,875 Q390,900 425,900 Q460,900 485,875 Q510,850 510,815 Q510,780 460,730 M452,-16 Q198,-16 119,53 Q40,122 40,234 L40,700 L240,700 L240,256 Q240,178 325,178 Q410,178 410,256 L410,700 L610,700 L610,234 Q610,122 452,-16"/> 
            <glyph glyph-name="Ý" unicode="&#xDD;" horiz-adv-x="674" d=" M517,900 L401,750 L227,750 L307,900 M674,700 L437,266 L437,0 L237,0 L237,266 L0,700 L222,700 L337,454 L452,700"/> 
            <glyph glyph-name="Þ" unicode="&#xDE;" horiz-adv-x="585" d=" M330,602 Q439,602 512,533.5 Q585,465 585,351 Q585,237 512,168.5 Q439,100 330,100 L250,100 L250,1 L50,1 L50,701 L250,701 L250,602 M330,294 Q353,294 369,309.5 Q385,325 385,351 Q385,377 369,392.5 Q353,408 330,408 L250,408 L250,294"/> 
            <glyph glyph-name="ß" unicode="&#xDF;" horiz-adv-x="554" d=" M271,-3 L271,163 Q369,150 369,201 Q369,233 326.5,300.5 Q284,368 284,392 Q284,411 301,445.5 Q318,480 318,506 Q318,556 274,556 Q250,556 237.5,539.5 Q225,523 225,497 L225,0 L40,0 L40,488 Q40,597 106,656.5 Q172,716 280,716 Q389,716 451,660.5 Q513,605 513,533 Q513,493 490.5,455 Q468,417 468,397 Q468,374 489.5,338 Q511,302 532.5,253.5 Q554,205 554,150 Q554,62 488,18 Q422,-26 271,-3"/> 
            <glyph glyph-name="à" unicode="&#xE0;" horiz-adv-x="566" d=" M403,550 L229,550 L113,700 L323,700 M381,500 L566,500 L566,0 L381,0 L381,45 Q333,-14 247,-14 Q146,-14 82,61 Q18,136 18,250 Q18,364 82,439 Q146,514 247,514 Q333,514 381,455 M252,156 Q332,156 356.5,183 Q381,210 381,250 Q381,290 356.5,317 Q332,344 292,344 Q252,344 227.5,317 Q203,290 203,250 Q203,210 252,156"/> 
            <glyph glyph-name="á" unicode="&#xE1;" horiz-adv-x="566" d=" M483,700 L367,550 L193,550 L273,700 M381,500 L566,500 L566,0 L381,0 L381,45 Q333,-14 247,-14 Q146,-14 82,61 Q18,136 18,250 Q18,364 82,439 Q146,514 247,514 Q333,514 381,455 M252,156 Q332,156 356.5,183 Q381,210 381,250 Q381,290 356.5,317 Q332,344 292,344 Q252,344 227.5,317 Q203,290 203,250 Q203,210 252,156"/> 
            <glyph glyph-name="â" unicode="&#xE2;" horiz-adv-x="566" d=" M298,598 L253,540 L98,540 L204,700 L392,700 L498,540 L343,540 M381,500 L566,500 L566,0 L381,0 L381,45 Q333,-14 247,-14 Q146,-14 82,61 Q18,136 18,250 Q18,364 82,439 Q146,514 247,514 Q333,514 381,455 M252,156 Q332,156 356.5,183 Q381,210 381,250 Q381,290 356.5,317 Q332,344 292,344 Q252,344 227.5,317 Q203,290 203,250 Q203,210 252,156"/> 
            <glyph glyph-name="ã" unicode="&#xE3;" horiz-adv-x="566" d=" M299,557 Q294,559 285,563.5 Q276,568 271.5,570 Q267,572 260.5,573.5 Q254,575 251,572 Q248,569 246,562 Q244,555 244,543 L124,543 Q124,603 141,642 Q158,681 186,695 Q214,709 244.5,709 Q275,709 307,696 Q312,694 321.5,689.5 Q331,685 335.5,683 Q340,681 346.5,679.5 Q353,678 356,681 Q359,684 361,691 Q363,698 363,710 L483,710 Q483,649 466,609.5 Q449,570 421,556.5 Q393,543 362.5,543.5 Q332,544 299,557 M381,500 L566,500 L566,0 L381,0 L381,45 Q333,-14 247,-14 Q146,-14 82,61 Q18,136 18,250 Q18,364 82,439 Q146,514 247,514 Q333,514 381,455 M252,156 Q332,156 356.5,183 Q381,210 381,250 Q381,290 356.5,317 Q332,344 292,344 Q252,344 227.5,317 Q203,290 203,250 Q203,210 252,156"/> 
            <glyph glyph-name="ä" unicode="&#xE4;" horiz-adv-x="566" d=" M238,530 Q168,530 143,555 Q118,580 118,615 Q118,650 143,675 Q168,700 203,700 Q238,700 263,675 Q288,650 288,615 Q288,580 238,530 M438,530 Q368,530 343,555 Q318,580 318,615 Q318,650 343,675 Q368,700 403,700 Q438,700 463,675 Q488,650 488,615 Q488,580 438,530 M381,500 L566,500 L566,0 L381,0 L381,45 Q333,-14 247,-14 Q146,-14 82,61 Q18,136 18,250 Q18,364 82,439 Q146,514 247,514 Q333,514 381,455 M252,156 Q332,156 356.5,183 Q381,210 381,250 Q381,290 356.5,317 Q332,344 292,344 Q252,344 227.5,317 Q203,290 203,250 Q203,210 252,156"/> 
            <glyph glyph-name="å" unicode="&#xE5;" horiz-adv-x="566" d=" M303,530 Q238,530 196,570 Q154,610 154,670 Q154,730 196,770 Q238,810 303,810 Q370,810 411,770.5 Q452,731 452,670 Q452,609 411,569.5 Q370,530 303,530 M303,700 Q288,700 280,691.5 Q272,683 272,670 Q272,657 280,648.5 Q288,640 303,640 Q335,640 335,670 Q335,700 303,700 M381,500 L566,500 L566,0 L381,0 L381,45 Q333,-14 247,-14 Q146,-14 82,61 Q18,136 18,250 Q18,364 82,439 Q146,514 247,514 Q333,514 381,455 M252,156 Q332,156 356.5,183 Q381,210 381,250 Q381,290 356.5,317 Q332,344 292,344 Q252,344 227.5,317 Q203,290 203,250 Q203,210 252,156"/> 
            <glyph glyph-name="æ" unicode="&#xE6;" horiz-adv-x="907" d=" M569,187 Q596,127 674,127 Q729,127 766,165 L881,72 Q810,-14 696,-14 Q605,-14 546,43 L546,0 L381,0 L381,34 Q333,-14 257,-14 Q155,-14 86.5,61.5 Q18,137 18,250 Q18,363 86.5,438.5 Q155,514 257,514 Q333,514 381,466 L381,500 L546,500 L546,463 Q599,514 680,514 Q776,514 841.5,438.5 Q907,363 907,252 Q907,219 899,187 M564,306 L733,306 Q716,366 651,366 Q587,366 564,306 M252,160 Q332,160 356.5,185 Q381,210 381,250 Q381,290 356.5,315 Q332,340 292,340 Q252,340 227.5,315 Q203,290 203,250 Q203,210 252,160"/> 
            <glyph glyph-name="ç" unicode="&#xE7;" horiz-adv-x="515" d=" M285,164 Q337,164 359,207 L515,117 Q465,27 364,-3 L364,-46 Q417,-68 417,-123 Q417,-179 356,-206 Q295,-233 172,-226 L172,-112 Q267,-119 267,-98 Q267,-83 214,-78 L214,-5 Q126,17 72,86.5 Q18,156 18,250 Q18,363 94,438.5 Q170,514 285,514 Q359,514 420.5,478.5 Q482,443 515,383 L359,294 Q334,336 285,336 Q250,336 226.5,311.5 Q203,287 203,250 Q203,213 226.5,188.5 Q250,164 285,164"/> 
            <glyph glyph-name="è" unicode="&#xE8;" horiz-adv-x="545" d=" M390,560 L216,560 L100,710 L310,710 M205,187 Q229,137 307,137 Q353,137 392,169 L513,67 Q438,-14 301,-14 Q173,-14 95.5,60.5 Q18,135 18,248 Q18,362 93.5,438 Q169,514 284,514 Q398,514 471.5,439.5 Q545,365 545,252 Q545,219 537,187 M202,306 L370,306 Q353,366 289,366 Q224,366 202,306"/> 
            <glyph glyph-name="é" unicode="&#xE9;" horiz-adv-x="545" d=" M470,710 L354,560 L180,560 L260,710 M205,187 Q229,137 307,137 Q353,137 392,169 L513,67 Q438,-14 301,-14 Q173,-14 95.5,60.5 Q18,135 18,248 Q18,362 93.5,438 Q169,514 284,514 Q398,514 471.5,439.5 Q545,365 545,252 Q545,219 537,187 M202,306 L370,306 Q353,366 289,366 Q224,366 202,306"/> 
            <glyph glyph-name="ê" unicode="&#xEA;" horiz-adv-x="545" d=" M285,608 L240,550 L85,550 L191,710 L379,710 L485,550 L330,550 M205,187 Q229,137 307,137 Q353,137 392,169 L513,67 Q438,-14 301,-14 Q173,-14 95.5,60.5 Q18,135 18,248 Q18,362 93.5,438 Q169,514 284,514 Q398,514 471.5,439.5 Q545,365 545,252 Q545,219 537,187 M202,306 L370,306 Q353,366 289,366 Q224,366 202,306"/> 
            <glyph glyph-name="ë" unicode="&#xEB;" horiz-adv-x="545" d=" M225,540 Q155,540 130,565 Q105,590 105,625 Q105,660 130,685 Q155,710 190,710 Q225,710 250,685 Q275,660 275,625 Q275,590 225,540 M425,540 Q355,540 330,565 Q305,590 305,625 Q305,660 330,685 Q355,710 390,710 Q425,710 450,685 Q475,660 475,625 Q475,590 425,540 M205,187 Q229,137 307,137 Q353,137 392,169 L513,67 Q438,-14 301,-14 Q173,-14 95.5,60.5 Q18,135 18,248 Q18,362 93.5,438 Q169,514 284,514 Q398,514 471.5,439.5 Q545,365 545,252 Q545,219 537,187 M202,306 L370,306 Q353,366 289,366 Q224,366 202,306"/> 
            <glyph glyph-name="ì" unicode="&#xEC;" horiz-adv-x="225" d=" M220,550 L180,700 L-30,700 L46,550 M225,0 L40,0 L40,500 L225,500"/> 
            <glyph glyph-name="í" unicode="&#xED;" horiz-adv-x="290" d=" M40,550 L214,550 L290,700 L80,700 M40,0 L40,500 L225,500 L225,0"/> 
            <glyph glyph-name="î" unicode="&#xEE;" horiz-adv-x="312" d=" M132,593 L97,540 L-48,540 L38,700 L226,700 L312,540 L167,540 M40,0 L40,500 L225,500 L225,0"/> 
            <glyph glyph-name="ï" unicode="&#xEF;" horiz-adv-x="302" d=" M75,540 Q9,540 -14.5,563.5 Q-38,587 -38,620 Q-38,653 -14.5,676.5 Q9,700 42,700 Q75,700 98.5,676.5 Q122,653 122,620 Q122,587 75,540 M255,540 Q189,540 165.5,563.5 Q142,587 142,620 Q142,653 165.5,676.5 Q189,700 222,700 Q255,700 278.5,676.5 Q302,653 302,620 Q302,587 255,540 M40,0 L40,500 L225,500 L225,0"/> 
            <glyph glyph-name="ð" unicode="&#xF0;" horiz-adv-x="544" d=" M498,370 Q544,307 544,230 Q544,120 465.5,52 Q387,-16 281,-16 Q169,-16 93.5,51 Q18,118 18,230 Q18,312 73,377 Q128,442 211,459 L186,495 L65,457 L65,597 L104,609 L40,700 L252,700 L279,664 L422,709 L422,569 L363,551 M246,149 Q316,149 337.5,169 Q359,189 359,226 Q359,250 345,270 Q321,299 281,299 Q246,299 224.5,279.5 Q203,260 203,226 Q203,189 246,149"/> 
            <glyph glyph-name="ñ" unicode="&#xF1;" horiz-adv-x="540" d=" M291,567 Q286,569 277,573.5 Q268,578 263.5,580 Q259,582 252.5,583.5 Q246,585 243,582 Q240,579 238,572 Q236,565 236,553 L116,553 Q116,613 133,652 Q150,691 178,705 Q206,719 236.5,719 Q267,719 299,706 Q304,704 313.5,699.5 Q323,695 327.5,693 Q332,691 338.5,689.5 Q345,688 348,691 Q351,694 353,701 Q355,708 355,720 L475,720 Q475,659 458,619.5 Q441,580 413,566.5 Q385,553 354.5,553.5 Q324,554 291,567 M359,514 Q441,514 490.5,457.5 Q540,401 540,289 L540,0 L355,0 L355,269 Q355,336 293,336 Q260,336 242.5,315 Q225,294 225,257 L225,0 L40,0 L40,500 L225,500 L225,451 Q271,514 359,514"/> 
            <glyph glyph-name="ò" unicode="&#xF2;" horiz-adv-x="556" d=" M387,560 L307,710 L97,710 L213,560 M287,-14 Q175,-14 96.5,62 Q18,138 18,250 Q18,362 96,438 Q174,514 287,514 Q400,514 478,438 Q556,362 556,250 Q556,138 478,62 Q400,-14 287,-14 M250,162 Q324,162 347.5,186.5 Q371,211 371,250 Q371,289 347.5,313.5 Q324,338 287,338 Q250,338 226.5,313.5 Q203,289 203,250 Q203,211 250,162"/> 
            <glyph glyph-name="ó" unicode="&#xF3;" horiz-adv-x="556" d=" M177,560 L351,560 L467,710 L257,710 M287,-14 Q175,-14 96.5,62 Q18,138 18,250 Q18,362 96,438 Q174,514 287,514 Q400,514 478,438 Q556,362 556,250 Q556,138 478,62 Q400,-14 287,-14 M250,162 Q324,162 347.5,186.5 Q371,211 371,250 Q371,289 347.5,313.5 Q324,338 287,338 Q250,338 226.5,313.5 Q203,289 203,250 Q203,211 250,162"/> 
            <glyph glyph-name="ô" unicode="&#xF4;" horiz-adv-x="556" d=" M282,608 L237,550 L82,550 L188,710 L376,710 L482,550 L327,550 M174,514 Q400,514 478,438 Q556,362 556,250 Q556,138 478,62 Q400,-14 287,-14 Q175,-14 96.5,62 Q18,138 18,250 Q18,362 174,514 M250,162 Q324,162 347.5,186.5 Q371,211 371,250 Q371,289 347.5,313.5 Q324,338 287,338 Q250,338 226.5,313.5 Q203,289 203,250 Q203,211 250,162"/> 
            <glyph glyph-name="õ" unicode="&#xF5;" horiz-adv-x="556" d=" M108,553 Q108,613 125,652 Q142,691 170,705 Q198,719 228.5,719 Q259,719 291,706 Q296,704 305.5,699.5 Q315,695 319.5,693 Q324,691 330.5,689.5 Q337,688 340,691 Q343,694 345,701 Q347,708 347,720 L467,720 Q467,659 450,619.5 Q433,580 405,566.5 Q377,553 346.5,553.5 Q316,554 283,567 Q278,569 269,573.5 Q260,578 255.5,580 Q251,582 244.5,583.5 Q238,585 235,582 Q232,579 230,572 Q228,565 228,553 M287,-14 Q175,-14 96.5,62 Q18,138 18,250 Q18,362 96,438 Q174,514 287,514 Q400,514 478,438 Q556,362 556,250 Q556,138 478,62 Q400,-14 287,-14 M250,162 Q324,162 347.5,186.5 Q371,211 371,250 Q371,289 347.5,313.5 Q324,338 287,338 Q250,338 226.5,313.5 Q203,289 203,250 Q203,211 250,162"/> 
            <glyph glyph-name="ö" unicode="&#xF6;" horiz-adv-x="556" d=" M222,540 Q152,540 127,565 Q102,590 102,625 Q102,660 127,685 Q152,710 187,710 Q222,710 247,685 Q272,660 272,625 Q272,590 222,540 M422,540 Q352,540 327,565 Q302,590 302,625 Q302,660 327,685 Q352,710 387,710 Q422,710 447,685 Q472,660 472,625 Q472,590 422,540 M287,-14 Q175,-14 96.5,62 Q18,138 18,250 Q18,362 96,438 Q174,514 287,514 Q400,514 478,438 Q556,362 556,250 Q556,138 478,62 Q400,-14 287,-14 M250,162 Q324,162 347.5,186.5 Q371,211 371,250 Q371,289 347.5,313.5 Q324,338 287,338 Q250,338 226.5,313.5 Q203,289 203,250 Q203,211 250,162"/> 
            <glyph glyph-name="÷" unicode="&#xF7;" horiz-adv-x="510" d=" M313,462 Q227,462 198.5,490.5 Q170,519 170,562 Q170,605 198.5,633.5 Q227,662 270,662 Q313,662 341.5,633.5 Q370,605 370,562 Q370,519 313,462 M30,260 L30,440 L510,440 L510,260 M313,38 Q227,38 198.5,66.5 Q170,95 170,138 Q170,181 198.5,209.5 Q227,238 270,238 Q313,238 341.5,209.5 Q370,181 370,138 Q370,95 313,38"/> 
            <glyph glyph-name="ø" unicode="&#xF8;" horiz-adv-x="556" d=" M482,434 Q556,358 556,250 Q556,138 478,62 Q400,-14 287,-14 Q213,-14 147,23 L117,-14 L56,20 L93,66 Q18,143 18,250 Q18,362 96,438 Q174,514 287,514 Q362,514 428,477 L458,514 L519,479 M203,250 Q203,229 211,210 L312,335 Q300,338 287,338 Q250,338 226.5,313.5 Q203,289 203,250 M287,162 Q324,162 347.5,186.5 Q371,211 371,250 Q371,269 364,288 L263,165 Q275,162 287,162"/> 
            <glyph glyph-name="ù" unicode="&#xF9;" horiz-adv-x="535" d=" M385,550 L211,550 L95,700 L305,700 M350,500 L535,500 L535,0 L350,0 L350,49 Q304,-14 216,-14 Q134,-14 84.5,42.5 Q35,99 35,211 L35,500 L220,500 L220,231 Q220,164 282,164 Q315,164 332.5,185 Q350,206 350,243"/> 
            <glyph glyph-name="ú" unicode="&#xFA;" horiz-adv-x="535" d=" M465,700 L349,550 L175,550 L255,700 M350,500 L535,500 L535,0 L350,0 L350,49 Q304,-14 216,-14 Q134,-14 84.5,42.5 Q35,99 35,211 L35,500 L220,500 L220,231 Q220,164 282,164 Q315,164 332.5,185 Q350,206 350,243"/> 
            <glyph glyph-name="û" unicode="&#xFB;" horiz-adv-x="535" d=" M280,598 L235,540 L80,540 L186,700 L374,700 L480,540 L325,540 M350,500 L535,500 L535,0 L350,0 L350,49 Q304,-14 216,-14 Q134,-14 84.5,42.5 Q35,99 35,211 L35,500 L220,500 L220,231 Q220,164 282,164 Q315,164 332.5,185 Q350,206 350,243"/> 
            <glyph glyph-name="ü" unicode="&#xFC;" horiz-adv-x="535" d=" M220,530 Q150,530 125,555 Q100,580 100,615 Q100,650 125,675 Q150,700 185,700 Q220,700 245,675 Q270,650 270,615 Q270,580 220,530 M420,530 Q350,530 325,555 Q300,580 300,615 Q300,650 325,675 Q350,700 385,700 Q420,700 445,675 Q470,650 470,615 Q470,580 420,530 M350,500 L535,500 L535,0 L350,0 L350,49 Q304,-14 216,-14 Q134,-14 84.5,42.5 Q35,99 35,211 L35,500 L220,500 L220,231 Q220,164 282,164 Q315,164 332.5,185 Q350,206 350,243"/> 
            <glyph glyph-name="ý" unicode="&#xFD;" horiz-adv-x="570" d=" M471,700 L355,550 L181,550 L261,700 M360,500 L570,500 L400,1 Q363,-108 285,-156.5 Q207,-205 79,-200 L79,-25 Q130,-25 157,-17.5 Q184,-10 200,10 L0,500 L210,500 L299,233"/> 
            <glyph glyph-name="þ" unicode="&#xFE;" horiz-adv-x="588" d=" M359,514 Q460,514 524,439 Q588,364 588,250 Q588,136 524,61 Q460,-14 359,-14 Q273,-14 225,45 L225,-200 L40,-200 L40,700 L225,700 L225,455 Q273,514 359,514 M274,156 Q354,156 378.5,183 Q403,210 403,250 Q403,290 378.5,317 Q354,344 314,344 Q274,344 249.5,317 Q225,290 225,250 Q225,210 274,156"/> 
            <glyph glyph-name="ÿ" unicode="&#xFF;" horiz-adv-x="570" d=" M226,530 Q156,530 131,555 Q106,580 106,615 Q106,650 131,675 Q156,700 191,700 Q226,700 251,675 Q276,650 276,615 Q276,580 226,530 M426,530 Q356,530 331,555 Q306,580 306,615 Q306,650 331,675 Q356,700 391,700 Q426,700 451,675 Q476,650 476,615 Q476,580 426,530 M360,500 L570,500 L400,1 Q363,-108 285,-156.5 Q207,-205 79,-200 L79,-25 Q130,-25 157,-17.5 Q184,-10 200,10 L0,500 L210,500 L299,233"/> 
            <glyph glyph-name="Ā" unicode="&#x100;" horiz-adv-x="670" d=" M490,889 L490,749 L170,749 L170,889 M455,0 L431,90 L229,90 L205,0 L-10,0 L213,700 L447,700 L670,0 M272,250 L388,250 L330,465"/> 
            <glyph glyph-name="ā" unicode="&#x101;" horiz-adv-x="566" d=" M463,689 L463,549 L143,549 L143,689 M381,500 L566,500 L566,0 L381,0 L381,45 Q333,-14 247,-14 Q146,-14 82,61 Q18,136 18,250 Q18,364 82,439 Q146,514 247,514 Q333,514 381,455 M252,156 Q332,156 356.5,183 Q381,210 381,250 Q381,290 356.5,317 Q332,344 292,344 Q252,344 227.5,317 Q203,290 203,250 Q203,210 252,156"/> 
            <glyph glyph-name="Ă" unicode="&#x102;" horiz-adv-x="670" d=" M419,732 Q241,732 193,775 Q145,818 145,902 L295,902 Q295,862 330,862 Q365,862 365,902 L515,902 Q515,818 419,732 M455,0 L431,90 L229,90 L205,0 L-10,0 L213,700 L447,700 L670,0 M272,250 L388,250 L330,465"/> 
            <glyph glyph-name="ă" unicode="&#x103;" horiz-adv-x="566" d=" M392,532 Q214,532 166,575 Q118,618 118,702 L268,702 Q268,662 303,662 Q338,662 338,702 L488,702 Q488,618 392,532 M381,500 L566,500 L566,0 L381,0 L381,45 Q333,-14 247,-14 Q146,-14 82,61 Q18,136 18,250 Q18,364 82,439 Q146,514 247,514 Q333,514 381,455 M252,156 Q332,156 356.5,183 Q381,210 381,250 Q381,290 356.5,317 Q332,344 292,344 Q252,344 227.5,317 Q203,290 203,250 Q203,210 252,156"/> 
            <glyph glyph-name="Ą" unicode="&#x104;" horiz-adv-x="670" d=" M630,-71 Q630,-90 651,-90 Q661,-90 670,-87 L670,-197 Q628,-214 582,-214 Q534,-214 503,-191 Q472,-168 472,-123 Q472,-62 531,0 L455,0 L431,90 L229,90 L205,0 L-10,0 L213,700 L447,700 L670,0 Q630,-41 630,-71 M272,250 L388,250 L330,465"/> 
            <glyph glyph-name="ą" unicode="&#x105;" horiz-adv-x="566" d=" M566,500 L566,0 Q526,-41 526,-71 Q526,-90 547,-90 Q557,-90 566,-87 L566,-197 Q524,-214 478,-214 Q430,-214 399,-191 Q368,-168 368,-123 Q368,-62 427,0 L381,0 L381,45 Q333,-14 247,-14 Q146,-14 82,61 Q18,136 18,250 Q18,364 82,439 Q146,514 247,514 Q333,514 381,455 L381,500 M252,156 Q332,156 356.5,183 Q381,210 381,250 Q381,290 356.5,317 Q332,344 292,344 Q252,344 227.5,317 Q203,290 203,250 Q203,210 252,156"/> 
            <glyph glyph-name="Ć" unicode="&#x106;" horiz-adv-x="698" d=" M281,760 L455,760 L571,910 L361,910 M391,-16 Q233,-16 129,89 Q25,194 25,350 Q25,506 129,611 Q233,716 391,716 Q488,716 570,670 Q652,624 698,546 L524,446 Q507,480 471,500 Q435,520 391,520 Q317,520 271,472 Q225,424 225,350 Q225,276 271,228 Q317,180 391,180 Q436,180 471.5,200 Q507,220 524,255 L698,155 Q652,76 570,30 Q488,-16 391,-16"/> 
            <glyph glyph-name="ć" unicode="&#x107;" horiz-adv-x="515" d=" M174,560 L348,560 L464,710 L254,710 M285,-14 Q170,-14 94,61.5 Q18,137 18,250 Q18,363 94,438.5 Q170,514 285,514 Q359,514 420.5,478.5 Q482,443 515,383 L359,294 Q334,336 285,336 Q250,336 226.5,311.5 Q203,287 203,250 Q203,213 226.5,188.5 Q250,164 285,164 Q337,164 359,207 L515,117 Q482,56 420.5,21 Q359,-14 285,-14"/> 
            <glyph glyph-name="Ċ" unicode="&#x10A;" horiz-adv-x="698" d=" M430,750 Q352,750 324,778 Q296,806 296,845 Q296,884 324,912 Q352,940 391,940 Q430,940 458,912 Q486,884 486,845 Q486,806 430,750 M391,-16 Q233,-16 129,89 Q25,194 25,350 Q25,506 129,611 Q233,716 391,716 Q488,716 570,670 Q652,624 698,546 L524,446 Q507,480 471,500 Q435,520 391,520 Q317,520 271,472 Q225,424 225,350 Q225,276 271,228 Q317,180 391,180 Q436,180 471.5,200 Q507,220 524,255 L698,155 Q652,76 570,30 Q488,-16 391,-16"/> 
            <glyph glyph-name="ċ" unicode="&#x10B;" horiz-adv-x="515" d=" M323,550 Q245,550 217,578 Q189,606 189,645 Q189,684 217,712 Q245,740 284,740 Q323,740 351,712 Q379,684 379,645 Q379,606 323,550 M285,-14 Q170,-14 94,61.5 Q18,137 18,250 Q18,363 94,438.5 Q170,514 285,514 Q359,514 420.5,478.5 Q482,443 515,383 L359,294 Q334,336 285,336 Q250,336 226.5,311.5 Q203,287 203,250 Q203,213 226.5,188.5 Q250,164 285,164 Q337,164 359,207 L515,117 Q482,56 420.5,21 Q359,-14 285,-14"/> 
            <glyph glyph-name="Č" unicode="&#x10C;" horiz-adv-x="698" d=" M292,750 L186,910 L341,910 L386,852 L431,910 L586,910 L480,750 M391,180 Q436,180 471.5,200 Q507,220 524,255 L698,155 Q652,76 570,30 Q488,-16 391,-16 Q233,-16 129,89 Q25,194 25,350 Q25,506 129,611 Q233,716 391,716 Q488,716 570,670 Q652,624 698,546 L524,446 Q507,480 471,500 Q435,520 391,520 Q317,520 271,472 Q225,424 225,350 Q225,276 271,228 Q317,180 391,180"/> 
            <glyph glyph-name="č" unicode="&#x10D;" horiz-adv-x="515" d=" M185,550 L79,710 L234,710 L279,652 L324,710 L479,710 L373,550 M285,164 Q337,164 359,207 L515,117 Q482,56 420.5,21 Q359,-14 285,-14 Q170,-14 94,61.5 Q18,137 18,250 Q18,363 94,438.5 Q170,514 285,514 Q359,514 420.5,478.5 Q482,443 515,383 L359,294 Q334,336 285,336 Q250,336 226.5,311.5 Q203,287 203,250 Q203,213 226.5,188.5 Q250,164 285,164"/> 
            <glyph glyph-name="Ď" unicode="&#x10E;" horiz-adv-x="680" d=" M231,740 L125,900 L280,900 L325,842 L370,900 L525,900 L419,740 M340,700 Q485,700 582.5,599.5 Q680,499 680,350 Q680,201 582.5,100.5 Q485,0 340,0 L50,0 L50,700 M340,194 Q401,194 440.5,237.5 Q480,281 480,350 Q480,419 440.5,462.5 Q401,506 340,506 L260,506 L260,194"/> 
            <glyph glyph-name="ď" unicode="&#x10F;" horiz-adv-x="786" d=" M381,455 L381,700 L566,700 L566,0 L381,0 L381,45 Q333,-14 247,-14 Q146,-14 82,61 Q18,136 18,250 Q18,364 82,439 Q146,514 247,514 Q333,514 381,455 M616,700 L786,700 L746,470 L606,470 M252,156 Q332,156 356.5,183 Q381,210 381,250 Q381,290 356.5,317 Q332,344 292,344 Q252,344 227.5,317 Q203,290 203,250 Q203,210 252,156"/> 
            <glyph glyph-name="Đ" unicode="&#x110;" horiz-adv-x="700" d=" M360,700 Q505,700 602.5,599.5 Q700,499 700,350 Q700,201 602.5,100.5 Q505,0 360,0 L70,0 L70,258 L0,258 L0,432 L70,432 L70,700 M360,194 Q421,194 460.5,237.5 Q500,281 500,350 Q500,419 460.5,462.5 Q421,506 360,506 L280,506 L280,432 L400,432 L400,258 L280,258 L280,194"/> 
            <glyph glyph-name="đ" unicode="&#x111;" horiz-adv-x="621" d=" M621,645 L621,526 L566,526 L566,0 L381,0 L381,33 Q332,-14 257,-14 Q156,-14 87,60 Q18,134 18,240 Q18,346 87,420 Q156,494 257,494 Q332,494 381,447 L381,526 L251,526 L251,645 L381,645 L381,700 L566,700 L566,645 M253,151 Q331,151 356,177 Q381,203 381,240 Q381,277 356,303 Q331,329 292,329 Q253,329 228,303 Q203,277 203,240 Q203,203 253,151"/> 
            <glyph glyph-name="Ē" unicode="&#x112;" horiz-adv-x="510" d=" M438,889 L438,749 L118,749 L118,889 M250,184 L510,184 L510,0 L50,0 L50,700 L505,700 L505,518 L250,518 L250,442 L480,442 L480,262 L250,262"/> 
            <glyph glyph-name="ē" unicode="&#x113;" horiz-adv-x="545" d=" M450,699 L450,559 L130,559 L130,699 M205,187 Q229,137 307,137 Q353,137 392,169 L513,67 Q438,-14 301,-14 Q173,-14 95.5,60.5 Q18,135 18,248 Q18,362 93.5,438 Q169,514 284,514 Q398,514 471.5,439.5 Q545,365 545,252 Q545,219 537,187 M202,306 L370,306 Q353,366 289,366 Q224,366 202,306"/> 
            <glyph glyph-name="Ė" unicode="&#x116;" horiz-adv-x="510" d=" M317,740 Q239,740 211,768 Q183,796 183,835 Q183,874 211,902 Q239,930 278,930 Q317,930 345,902 Q373,874 373,835 Q373,796 317,740 M250,184 L510,184 L510,0 L50,0 L50,700 L505,700 L505,518 L250,518 L250,442 L480,442 L480,262 L250,262"/> 
            <glyph glyph-name="ė" unicode="&#x117;" horiz-adv-x="545" d=" M329,550 Q251,550 223,578 Q195,606 195,645 Q195,684 223,712 Q251,740 290,740 Q329,740 357,712 Q385,684 385,645 Q385,606 329,550 M205,187 Q229,137 307,137 Q353,137 392,169 L513,67 Q438,-14 301,-14 Q173,-14 95.5,60.5 Q18,135 18,248 Q18,362 93.5,438 Q169,514 284,514 Q398,514 471.5,439.5 Q545,365 545,252 Q545,219 537,187 M202,306 L370,306 Q353,366 289,366 Q224,366 202,306"/> 
            <glyph glyph-name="Ę" unicode="&#x118;" horiz-adv-x="510" d=" M510,184 L510,0 Q470,-41 470,-71 Q470,-90 491,-90 Q501,-90 510,-87 L510,-197 Q468,-214 422,-214 Q374,-214 343,-191 Q312,-168 312,-123 Q312,-62 371,0 L50,0 L50,700 L505,700 L505,518 L250,518 L250,442 L480,442 L480,262 L250,262 L250,184"/> 
            <glyph glyph-name="ę" unicode="&#x119;" horiz-adv-x="545" d=" M205,187 Q229,137 307,137 Q353,137 392,169 L505,73 L513,77 L508,71 L513,67 Q497,51 488,44 Q420,-47 420,-71 Q420,-90 441,-90 Q451,-90 460,-87 L460,-197 Q418,-214 372,-214 Q324,-214 293,-191 Q262,-168 262,-123 Q262,-68 334,-13 Q323,-14 301,-14 Q173,-14 95.5,60.5 Q18,135 18,248 Q18,362 93.5,438 Q169,514 284,514 Q398,514 471.5,439.5 Q545,365 545,252 Q545,219 537,187 M202,306 L370,306 Q353,366 289,366 Q224,366 202,306"/> 
            <glyph glyph-name="Ě" unicode="&#x11A;" horiz-adv-x="510" d=" M179,740 L73,900 L228,900 L273,842 L318,900 L473,900 L367,740 M250,184 L510,184 L510,0 L50,0 L50,700 L505,700 L505,518 L250,518 L250,442 L480,442 L480,262 L250,262"/> 
            <glyph glyph-name="ě" unicode="&#x11B;" horiz-adv-x="545" d=" M191,550 L85,710 L240,710 L285,652 L330,710 L485,710 L379,550 M205,187 Q229,137 307,137 Q353,137 392,169 L513,67 Q438,-14 301,-14 Q173,-14 95.5,60.5 Q18,135 18,248 Q18,362 93.5,438 Q169,514 284,514 Q398,514 471.5,439.5 Q545,365 545,252 Q545,219 537,187 M202,306 L370,306 Q353,366 289,366 Q224,366 202,306"/> 
            <glyph glyph-name="Ğ" unicode="&#x11E;" horiz-adv-x="747" d=" M480,742 Q302,742 254,785 Q206,828 206,912 L356,912 Q356,872 391,872 Q426,872 426,912 L576,912 Q576,828 480,742 M747,413 L747,330 Q747,180 650.5,82 Q554,-16 397,-16 Q233,-16 129,88.5 Q25,193 25,349 Q25,505 129,610.5 Q233,716 389,716 Q487,716 568.5,672 Q650,628 697,553 L527,456 Q485,520 393,520 Q318,520 271.5,472 Q225,424 225,348 Q225,276 268,222.5 Q311,169 401,169 Q505,169 540,243 L391,243 L391,413"/> 
            <glyph glyph-name="ğ" unicode="&#x11F;" horiz-adv-x="573" d=" M398,542 Q220,542 172,585 Q124,628 124,712 L274,712 Q274,672 309,672 Q344,672 344,712 L494,712 Q494,628 398,542 M388,500 L573,500 L573,15 Q573,-45 550.5,-91 Q528,-137 490,-163.5 Q452,-190 406.5,-203 Q361,-216 311,-216 Q223,-216 155,-184 Q87,-152 54,-94 L204,-7 Q240,-56 301,-56 Q336,-56 362,-38.5 Q388,-21 388,15 L388,65 Q340,6 254,6 Q154,6 89.5,79 Q25,152 25,260 Q25,368 89.5,441 Q154,514 254,514 Q340,514 388,455 M259,170 Q339,170 363.5,196 Q388,222 388,260 Q388,298 363.5,324 Q339,350 299,350 Q259,350 234.5,324 Q210,298 210,260 Q210,222 259,170"/> 
            <glyph glyph-name="Ġ" unicode="&#x120;" horiz-adv-x="747" d=" M430,750 Q352,750 324,778 Q296,806 296,845 Q296,884 324,912 Q352,940 391,940 Q430,940 458,912 Q486,884 486,845 Q486,806 430,750 M747,413 L747,330 Q747,180 650.5,82 Q554,-16 397,-16 Q233,-16 129,88.5 Q25,193 25,349 Q25,505 129,610.5 Q233,716 389,716 Q487,716 568.5,672 Q650,628 697,553 L527,456 Q485,520 393,520 Q318,520 271.5,472 Q225,424 225,348 Q225,276 268,222.5 Q311,169 401,169 Q505,169 540,243 L391,243 L391,413"/> 
            <glyph glyph-name="ġ" unicode="&#x121;" horiz-adv-x="573" d=" M348,550 Q270,550 242,578 Q214,606 214,645 Q214,684 242,712 Q270,740 309,740 Q348,740 376,712 Q404,684 404,645 Q404,606 348,550 M388,500 L573,500 L573,15 Q573,-45 550.5,-91 Q528,-137 490,-163.5 Q452,-190 406.5,-203 Q361,-216 311,-216 Q223,-216 155,-184 Q87,-152 54,-94 L204,-7 Q240,-56 301,-56 Q336,-56 362,-38.5 Q388,-21 388,15 L388,65 Q340,6 254,6 Q154,6 89.5,79 Q25,152 25,260 Q25,368 89.5,441 Q154,514 254,514 Q340,514 388,455 M259,170 Q339,170 363.5,196 Q388,222 388,260 Q388,298 363.5,324 Q339,350 299,350 Q259,350 234.5,324 Q210,298 210,260 Q210,222 259,170"/> 
            <glyph glyph-name="Ģ" unicode="&#x122;" horiz-adv-x="747" d=" M747,413 L747,330 Q747,180 650.5,82 Q554,-16 397,-16 Q233,-16 129,88.5 Q25,193 25,349 Q25,505 129,610.5 Q233,716 389,716 Q487,716 568.5,672 Q650,628 697,553 L527,456 Q485,520 393,520 Q318,520 271.5,472 Q225,424 225,348 Q225,276 268,222.5 Q311,169 401,169 Q505,169 540,243 L391,243 L391,413 M310,-284 L320,-54 L490,-54 L450,-284"/> 
            <glyph glyph-name="ģ" unicode="&#x123;" horiz-adv-x="573" d=" M386,800 L376,570 L206,570 L246,800 M388,500 L573,500 L573,15 Q573,-45 550.5,-91 Q528,-137 490,-163.5 Q452,-190 406.5,-203 Q361,-216 311,-216 Q223,-216 155,-184 Q87,-152 54,-94 L204,-7 Q240,-56 301,-56 Q336,-56 362,-38.5 Q388,-21 388,15 L388,65 Q340,6 254,6 Q154,6 89.5,79 Q25,152 25,260 Q25,368 89.5,441 Q154,514 254,514 Q340,514 388,455 M259,170 Q339,170 363.5,196 Q388,222 388,260 Q388,298 363.5,324 Q339,350 299,350 Q259,350 234.5,324 Q210,298 210,260 Q210,222 259,170"/> 
            <glyph glyph-name="Ħ" unicode="&#x126;" horiz-adv-x="700" d=" M700,603 L700,457 L640,457 L640,0 L440,0 L440,183 L270,183 L270,0 L70,0 L70,457 L10,457 L10,603 L70,603 L70,700 L270,700 L270,603 L440,603 L440,700 L640,700 L640,603 M440,377 L440,457 L270,457 L270,377"/> 
            <glyph glyph-name="ħ" unicode="&#x127;" horiz-adv-x="555" d=" M374,489 Q456,489 505.5,432.5 Q555,376 555,264 L555,0 L370,0 L370,244 Q370,311 308,311 Q275,311 257.5,290 Q240,269 240,232 L240,0 L55,0 L55,526 L0,526 L0,645 L55,645 L55,700 L240,700 L240,645 L370,645 L370,526 L240,526 L240,426 Q286,489 374,489"/> 
            <glyph glyph-name="Ī" unicode="&#x12A;" horiz-adv-x="310" d=" M-10,749 L-10,889 L310,889 L310,749 M50,700 L250,700 L250,0 L50,0"/> 
            <glyph glyph-name="ī" unicode="&#x12B;" horiz-adv-x="273" d=" M-7,549 L-7,689 L273,689 L273,549 M40,0 L40,500 L225,500 L225,0"/> 
            <glyph glyph-name="Į" unicode="&#x12E;" horiz-adv-x="250" d=" M250,700 L250,0 Q210,-41 210,-71 Q210,-90 231,-90 Q241,-90 250,-87 L250,-197 Q208,-214 162,-214 Q114,-214 83,-191 Q52,-168 52,-123 Q52,-62 111,0 L50,0 L50,700"/> 
            <glyph glyph-name="į" unicode="&#x12F;" horiz-adv-x="235" d=" M133,538 Q91,538 60.5,568.5 Q30,599 30,640 Q30,681 60.5,711.5 Q91,742 133,742 Q174,742 204.5,711.5 Q235,681 235,640 Q235,599 204.5,568.5 Q174,538 133,538 M193,-71 Q193,-90 214,-90 Q224,-90 233,-87 L233,-197 Q191,-214 145,-214 Q97,-214 66,-191 Q35,-168 35,-123 Q35,-59 76,0 L40,0 L40,500 L225,500 L225,0 Q193,-40 193,-71"/> 
            <glyph glyph-name="İ" unicode="&#x130;" horiz-adv-x="250" d=" M189,740 Q111,740 83,768 Q55,796 55,835 Q55,874 83,902 Q111,930 150,930 Q189,930 217,902 Q245,874 245,835 Q245,796 189,740 M50,700 L250,700 L250,0 L50,0"/> 
            <glyph glyph-name="ı" unicode="&#x131;" horiz-adv-x="225" d=" M40,0 L40,500 L225,500 L225,0"/> 
            <glyph glyph-name="Ķ" unicode="&#x136;" horiz-adv-x="646" d=" M428,360 L646,0 L424,0 L250,300 L250,0 L50,0 L50,700 L250,700 L250,420 L414,700 L636,700 M226,-284 L236,-54 L406,-54 L366,-284"/> 
            <glyph glyph-name="ķ" unicode="&#x137;" horiz-adv-x="550" d=" M225,200 L225,0 L40,0 L40,700 L225,700 L225,306 L330,500 L540,500 L388,250 L550,0 L345,0 M194,-284 L204,-54 L374,-54 L334,-284"/> 
            <glyph glyph-name="Ĺ" unicode="&#x139;" horiz-adv-x="480" d=" M332,900 L216,750 L42,750 L122,900 M250,194 L480,194 L480,0 L50,0 L50,700 L250,700"/> 
            <glyph glyph-name="ĺ" unicode="&#x13A;" horiz-adv-x="330" d=" M40,760 L214,760 L330,910 L120,910 M40,0 L40,730 L225,730 L225,0"/> 
            <glyph glyph-name="Ļ" unicode="&#x13B;" horiz-adv-x="480" d=" M250,194 L480,194 L480,0 L50,0 L50,700 L250,700 M174,-284 L184,-54 L354,-54 L314,-284"/> 
            <glyph glyph-name="ļ" unicode="&#x13C;" horiz-adv-x="225" d=" M40,0 L40,730 L225,730 L225,0 M175,-284 L215,-54 L45,-54 L35,-284"/> 
            <glyph glyph-name="Ľ" unicode="&#x13D;" horiz-adv-x="480" d=" M250,700 L250,194 L480,194 L480,0 L50,0 L50,700 M480,700 L441,490 L291,490 L301,700"/> 
            <glyph glyph-name="ľ" unicode="&#x13E;" horiz-adv-x="441" d=" M40,0 L40,730 L225,730 L225,0 M401,500 L441,730 L271,730 L261,500"/> 
            <glyph glyph-name="Ł" unicode="&#x141;" horiz-adv-x="500" d=" M270,194 L500,194 L500,0 L70,0 L70,197 L10,163 L10,356 L70,390 L70,700 L270,700 L270,502 L390,569 L390,376 L270,309"/> 
            <glyph glyph-name="ł" unicode="&#x142;" horiz-adv-x="290" d=" M290,515 L290,342 L238,311 L238,0 L53,0 L53,202 L0,171 L0,344 L53,375 L53,730 L238,730 L238,484"/> 
            <glyph glyph-name="Ń" unicode="&#x143;" horiz-adv-x="630" d=" M215,750 L389,750 L505,900 L295,900 M430,700 L630,700 L630,0 L470,0 L250,320 L250,0 L50,0 L50,700 L210,700 L430,380"/> 
            <glyph glyph-name="ń" unicode="&#x144;" horiz-adv-x="540" d=" M475,710 L359,560 L185,560 L265,710 M359,514 Q441,514 490.5,457.5 Q540,401 540,289 L540,0 L355,0 L355,269 Q355,336 293,336 Q260,336 242.5,315 Q225,294 225,257 L225,0 L40,0 L40,500 L225,500 L225,451 Q271,514 359,514"/> 
            <glyph glyph-name="Ņ" unicode="&#x145;" horiz-adv-x="630" d=" M430,700 L630,700 L630,0 L470,0 L250,320 L250,0 L50,0 L50,700 L210,700 L430,380 M404,-284 L444,-54 L274,-54 L264,-284"/> 
            <glyph glyph-name="ņ" unicode="&#x146;" horiz-adv-x="540" d=" M359,514 Q441,514 490.5,457.5 Q540,401 540,289 L540,0 L355,0 L355,269 Q355,336 293,336 Q260,336 242.5,315 Q225,294 225,257 L225,0 L40,0 L40,500 L225,500 L225,451 Q271,514 359,514 M207,-284 L217,-54 L387,-54 L347,-284"/> 
            <glyph glyph-name="Ň" unicode="&#x147;" horiz-adv-x="630" d=" M226,740 L120,900 L275,900 L320,842 L365,900 L520,900 L414,740 M430,700 L630,700 L630,0 L470,0 L250,320 L250,0 L50,0 L50,700 L210,700 L430,380"/> 
            <glyph glyph-name="ň" unicode="&#x148;" horiz-adv-x="540" d=" M196,550 L90,710 L245,710 L290,652 L335,710 L490,710 L384,550 M359,514 Q441,514 490.5,457.5 Q540,401 540,289 L540,0 L355,0 L355,269 Q355,336 293,336 Q260,336 242.5,315 Q225,294 225,257 L225,0 L40,0 L40,500 L225,500 L225,451 Q271,514 359,514"/> 
            <glyph glyph-name="Ŋ" unicode="&#x14A;" horiz-adv-x="630" d=" M430,700 L630,700 L630,0 Q630,-118 569.5,-170.5 Q509,-223 380,-216 L380,-50 Q445,-56 445,0 L445,36 L250,320 L250,0 L50,0 L50,700 L210,700 L430,380"/> 
            <glyph glyph-name="ŋ" unicode="&#x14B;" horiz-adv-x="540" d=" M359,514 Q441,514 490.5,457.5 Q540,401 540,289 L540,0 Q540,-114 484.5,-163 Q429,-212 310,-203 L310,-46 Q332,-47 343.5,-36.5 Q355,-26 355,0 L355,269 Q355,336 293,336 Q260,336 242.5,315 Q225,294 225,257 L225,0 L40,0 L40,500 L225,500 L225,451 Q271,514 359,514"/> 
            <glyph glyph-name="Ō" unicode="&#x14C;" horiz-adv-x="767" d=" M236,759 L236,899 L556,899 L556,759 M552,-16 Q240,-16 132.5,89.5 Q25,195 25,350 Q25,505 132.5,610.5 Q240,716 396,716 Q552,716 659.5,610.5 Q767,505 767,350 Q767,195 552,-16 M322,180 Q470,180 518.5,228.5 Q567,277 567,350 Q567,423 518.5,471.5 Q470,520 396,520 Q322,520 273.5,471.5 Q225,423 225,350 Q225,277 322,180"/> 
            <glyph glyph-name="ō" unicode="&#x14D;" horiz-adv-x="556" d=" M127,559 L127,699 L447,699 L447,559 M287,-14 Q175,-14 96.5,62 Q18,138 18,250 Q18,362 96,438 Q174,514 287,514 Q400,514 478,438 Q556,362 556,250 Q556,138 478,62 Q400,-14 287,-14 M250,162 Q324,162 347.5,186.5 Q371,211 371,250 Q371,289 347.5,313.5 Q324,338 287,338 Q250,338 226.5,313.5 Q203,289 203,250 Q203,211 250,162"/> 
            <glyph glyph-name="Ő" unicode="&#x150;" horiz-adv-x="767" d=" M186,750 L354,750 L440,910 L266,910 M389,750 L557,750 L653,910 L479,910 M552,-16 Q240,-16 132.5,89.5 Q25,195 25,350 Q25,505 132.5,610.5 Q240,716 396,716 Q552,716 659.5,610.5 Q767,505 767,350 Q767,195 552,-16 M322,180 Q470,180 518.5,228.5 Q567,277 567,350 Q567,423 518.5,471.5 Q470,520 396,520 Q322,520 273.5,471.5 Q225,423 225,350 Q225,277 322,180"/> 
            <glyph glyph-name="ő" unicode="&#x151;" horiz-adv-x="556" d=" M77,550 L245,550 L331,710 L157,710 M280,550 L448,550 L544,710 L370,710 M287,-14 Q175,-14 96.5,62 Q18,138 18,250 Q18,362 96,438 Q174,514 287,514 Q400,514 478,438 Q556,362 556,250 Q556,138 478,62 Q400,-14 287,-14 M250,162 Q324,162 347.5,186.5 Q371,211 371,250 Q371,289 347.5,313.5 Q324,338 287,338 Q250,338 226.5,313.5 Q203,289 203,250 Q203,211 250,162"/> 
            <glyph glyph-name="Œ" unicode="&#x152;" horiz-adv-x="925" d=" M705,184 L925,184 L925,0 L505,0 Q454,-16 396,-16 Q240,-16 132.5,89.5 Q25,195 25,350 Q25,505 132.5,610.5 Q240,716 396,716 Q454,716 505,700 L920,700 L920,518 L705,518 L705,442 L895,442 L895,262 L705,262 M505,201 L505,499 Q458,520 396,520 Q322,520 273.5,471.5 Q225,423 225,350 Q225,277 273.5,228.5 Q322,180 396,180 Q458,180 505,201"/> 
            <glyph glyph-name="œ" unicode="&#x153;" horiz-adv-x="895" d=" M555,187 Q579,137 657,137 Q703,137 742,169 L863,67 Q788,-14 651,-14 Q535,-14 464,65 Q396,-14 277,-14 Q162,-14 90,65 Q18,144 18,248 Q18,354 89.5,434 Q161,514 277,514 Q396,514 464,435 Q537,514 654,514 Q757,514 826,439 Q895,364 895,252 Q895,219 887,187 M552,306 L720,306 Q703,366 639,366 Q574,366 552,306 M250,162 Q324,162 347.5,186.5 Q371,211 371,250 Q371,289 347.5,313.5 Q324,338 287,338 Q250,338 226.5,313.5 Q203,289 203,250 Q203,211 250,162"/> 
            <glyph glyph-name="Ŕ" unicode="&#x154;" horiz-adv-x="625" d=" M470,900 L354,750 L180,750 L260,900 M411,1 L300,221 L250,221 L250,1 L50,1 L50,701 L330,701 Q445,701 520,633.5 Q595,566 595,455 Q595,393 566.5,343 Q538,293 487,262 L625,1 M250,517 L250,387 L326,387 Q358,386 376.5,403 Q395,420 395,451 Q395,482 376.5,499.5 Q358,517 326,517"/> 
            <glyph glyph-name="ŕ" unicode="&#x155;" horiz-adv-x="375" d=" M372,700 L256,550 L82,550 L162,700 M225,403 Q239,454 280,482 Q321,510 375,510 L375,310 Q315,318 270,286.5 Q225,255 225,186 L225,0 L40,0 L40,500 L225,500"/> 
            <glyph glyph-name="Ŗ" unicode="&#x156;" horiz-adv-x="625" d=" M250,221 L250,1 L50,1 L50,701 L330,701 Q445,701 520,633.5 Q595,566 595,455 Q595,393 566.5,343 Q538,293 487,262 L625,1 L411,1 L300,221 M326,517 L250,517 L250,387 L326,387 Q358,386 376.5,403 Q395,420 395,451 Q395,482 376.5,499.5 Q358,517 326,517 M234,-284 L244,-54 L414,-54 L374,-284"/> 
            <glyph glyph-name="ŗ" unicode="&#x157;" horiz-adv-x="375" d=" M225,403 Q239,454 280,482 Q321,510 375,510 L375,310 Q315,318 270,286.5 Q225,255 225,186 L225,0 L40,0 L40,500 L225,500 M32,-284 L42,-54 L212,-54 L172,-284"/> 
            <glyph glyph-name="Ř" unicode="&#x158;" horiz-adv-x="625" d=" M191,740 L85,900 L240,900 L285,842 L330,900 L485,900 L379,740 M411,1 L300,221 L250,221 L250,1 L50,1 L50,701 L330,701 Q445,701 520,633.5 Q595,566 595,455 Q595,393 566.5,343 Q538,293 487,262 L625,1 M250,517 L250,387 L326,387 Q358,386 376.5,403 Q395,420 395,451 Q395,482 376.5,499.5 Q358,517 326,517"/> 
            <glyph glyph-name="ř" unicode="&#x159;" horiz-adv-x="387" d=" M93,540 L-13,700 L142,700 L187,642 L232,700 L387,700 L281,540 M225,403 Q239,454 280,482 Q321,510 375,510 L375,310 Q315,318 270,286.5 Q225,255 225,186 L225,0 L40,0 L40,500 L225,500"/> 
            <glyph glyph-name="Ś" unicode="&#x15A;" horiz-adv-x="575" d=" M176,760 L350,760 L466,910 L256,910 M302,-16 Q188,-16 112,31.5 Q36,79 10,160 L181,259 Q216,170 307,170 Q375,170 375,206 Q375,216 370,224 Q365,232 351,238 Q337,244 326.5,247.5 Q316,251 290,258 Q264,265 251,269 Q42,332 42,494 Q42,590 111.5,653 Q181,716 294,716 Q383,716 453.5,674 Q524,632 557,553 L391,456 Q362,530 295,530 Q269,530 255.5,519.5 Q242,509 242,493 Q242,471 265.5,459 Q289,447 356,428 Q406,413 438,399.5 Q470,386 505,361.5 Q540,337 557.5,298.5 Q575,260 575,208 Q575,101 501.5,42.5 Q428,-16 302,-16"/> 
            <glyph glyph-name="ś" unicode="&#x15B;" horiz-adv-x="469" d=" M419,710 L303,560 L129,560 L209,710 M219,353 Q219,341 237.5,334 Q256,327 284,323.5 Q312,320 344,310 Q376,300 404,285 Q432,270 450.5,237.5 Q469,205 469,159 Q469,111 447.5,75 Q426,39 391,21 Q356,3 319.5,-5.5 Q283,-14 244,-14 Q63,-14 10,105 L171,177 Q190,126 242,126 Q276,126 276,148 Q276,161 251,169 Q226,177 191,185.5 Q156,194 120.5,208.5 Q85,223 60,257 Q35,291 35,342 Q35,424 97.5,469 Q160,514 242,514 Q406,514 459,387 L306,332 Q288,374 250,374 Q219,374 219,353"/> 
            <glyph glyph-name="Ş" unicode="&#x15E;" horiz-adv-x="575" d=" M575,208 Q575,119 524,63.5 Q473,8 381,-9 L381,-46 Q434,-68 434,-123 Q434,-179 373,-206 Q312,-233 189,-226 L189,-112 Q284,-119 284,-98 Q284,-83 231,-78 L231,-11 Q146,3 89,48 Q32,93 10,160 L181,259 Q216,170 307,170 Q375,170 375,206 Q375,216 370,224 Q365,232 351,238 Q337,244 326.5,247.5 Q316,251 290,258 Q264,265 251,269 Q42,332 42,494 Q42,590 111.5,653 Q181,716 294,716 Q383,716 453.5,674 Q524,632 557,553 L391,456 Q362,530 295,530 Q269,530 255.5,519.5 Q242,509 242,493 Q242,471 265.5,459 Q289,447 356,428 Q406,413 438,399.5 Q470,386 505,361.5 Q540,337 557.5,298.5 Q575,260 575,208"/> 
            <glyph glyph-name="ş" unicode="&#x15F;" horiz-adv-x="469" d=" M469,159 Q469,33 331,-3 L331,-46 Q384,-68 384,-123 Q384,-179 323,-206 Q262,-233 139,-226 L139,-112 Q234,-119 234,-98 Q234,-83 181,-78 L181,-10 Q54,6 10,105 L171,177 Q190,126 242,126 Q276,126 276,148 Q276,161 251,169 Q226,177 191,185.5 Q156,194 120.5,208.5 Q85,223 60,257 Q35,291 35,342 Q35,424 97.5,469 Q160,514 242,514 Q406,514 459,387 L306,332 Q288,374 250,374 Q219,374 219,353 Q219,341 237.5,334 Q256,327 284,323.5 Q312,320 344,310 Q376,300 404,285 Q432,270 450.5,237.5 Q469,205 469,159"/> 
            <glyph glyph-name="Š" unicode="&#x160;" horiz-adv-x="575" d=" M187,750 L81,910 L236,910 L281,852 L326,910 L481,910 L375,750 M356,428 Q406,413 438,399.5 Q470,386 505,361.5 Q540,337 557.5,298.5 Q575,260 575,208 Q575,101 501.5,42.5 Q428,-16 302,-16 Q188,-16 112,31.5 Q36,79 10,160 L181,259 Q216,170 307,170 Q375,170 375,206 Q375,216 370,224 Q365,232 351,238 Q337,244 326.5,247.5 Q316,251 290,258 Q264,265 251,269 Q42,332 42,494 Q42,590 111.5,653 Q181,716 294,716 Q383,716 453.5,674 Q524,632 557,553 L391,456 Q362,530 295,530 Q269,530 255.5,519.5 Q242,509 242,493 Q242,471 265.5,459 Q289,447 356,428"/> 
            <glyph glyph-name="š" unicode="&#x161;" horiz-adv-x="469" d=" M140,550 L34,710 L189,710 L234,652 L279,710 L434,710 L328,550 M219,353 Q219,341 237.5,334 Q256,327 284,323.5 Q312,320 344,310 Q376,300 404,285 Q432,270 450.5,237.5 Q469,205 469,159 Q469,111 447.5,75 Q426,39 391,21 Q356,3 319.5,-5.5 Q283,-14 244,-14 Q63,-14 10,105 L171,177 Q190,126 242,126 Q276,126 276,148 Q276,161 251,169 Q226,177 191,185.5 Q156,194 120.5,208.5 Q85,223 60,257 Q35,291 35,342 Q35,424 97.5,469 Q160,514 242,514 Q406,514 459,387 L306,332 Q288,374 250,374 Q219,374 219,353"/> 
            <glyph glyph-name="Ţ" unicode="&#x162;" horiz-adv-x="540" d=" M540,700 L540,506 L375,506 L375,0 L175,0 L175,506 L10,506 L10,700 M177,-284 L187,-54 L357,-54 L317,-284"/> 
            <glyph glyph-name="ţ" unicode="&#x163;" horiz-adv-x="370" d=" M370,324 L265,324 L265,216 Q265,191 277,179 Q289,167 312.5,165.5 Q336,164 370,166 L370,0 Q213,-22 146.5,27 Q80,76 80,206 L80,324 L10,324 L10,500 L80,500 L80,585 L265,640 L265,500 L370,500 M139,-274 L149,-44 L319,-44 L279,-274"/> 
            <glyph glyph-name="Ť" unicode="&#x164;" horiz-adv-x="540" d=" M176,740 L70,900 L225,900 L270,842 L315,900 L470,900 L364,740 M540,700 L540,506 L375,506 L375,0 L175,0 L175,506 L10,506 L10,700"/> 
            <glyph glyph-name="ť" unicode="&#x165;" horiz-adv-x="466" d=" M306,722 L466,722 L426,532 L296,532 M265,640 L265,500 L370,500 L370,324 L265,324 L265,216 Q265,191 277,179 Q289,167 312.5,165.5 Q336,164 370,166 L370,0 Q213,-22 146.5,27 Q80,76 80,206 L80,324 L10,324 L10,500 L80,500 L80,585"/> 
            <glyph glyph-name="Ŧ" unicode="&#x166;" horiz-adv-x="540" d=" M540,506 L375,506 L375,412 L475,412 L475,238 L375,238 L375,0 L175,0 L175,238 L75,238 L75,412 L175,412 L175,506 L10,506 L10,700 L540,700"/> 
            <glyph glyph-name="ŧ" unicode="&#x167;" horiz-adv-x="370" d=" M370,354 L265,354 L265,320 L335,320 L335,200 L266,200 Q272,175 295.5,169 Q319,163 370,166 L370,0 Q215,-22 148.5,25.5 Q82,73 80,200 L35,200 L35,320 L80,320 L80,354 L10,354 L10,500 L80,500 L80,585 L265,640 L265,500 L370,500"/> 
            <glyph glyph-name="Ū" unicode="&#x16A;" horiz-adv-x="610" d=" M165,749 L165,889 L485,889 L485,749 M452,-16 Q198,-16 119,53 Q40,122 40,234 L40,700 L240,700 L240,256 Q240,178 325,178 Q410,178 410,256 L410,700 L610,700 L610,234 Q610,122 452,-16"/> 
            <glyph glyph-name="ū" unicode="&#x16B;" horiz-adv-x="535" d=" M445,689 L445,549 L125,549 L125,689 M350,500 L535,500 L535,0 L350,0 L350,49 Q304,-14 216,-14 Q134,-14 84.5,42.5 Q35,99 35,211 L35,500 L220,500 L220,231 Q220,164 282,164 Q315,164 332.5,185 Q350,206 350,243"/> 
            <glyph glyph-name="Ů" unicode="&#x16E;" horiz-adv-x="610" d=" M325,710 Q260,710 218,750 Q176,790 176,850 Q176,910 218,950 Q260,990 325,990 Q392,990 433,950.5 Q474,911 474,850 Q474,789 433,749.5 Q392,710 325,710 M325,820 Q357,820 357,850 Q357,880 325,880 Q310,880 302,871.5 Q294,863 294,850 Q294,837 302,828.5 Q310,820 325,820 M452,-16 Q198,-16 119,53 Q40,122 40,234 L40,700 L240,700 L240,256 Q240,178 325,178 Q410,178 410,256 L410,700 L610,700 L610,234 Q610,122 452,-16"/> 
            <glyph glyph-name="ů" unicode="&#x16F;" horiz-adv-x="535" d=" M285,530 Q220,530 178,570 Q136,610 136,670 Q136,730 178,770 Q220,810 285,810 Q352,810 393,770.5 Q434,731 434,670 Q434,609 393,569.5 Q352,530 285,530 M285,700 Q270,700 262,691.5 Q254,683 254,670 Q254,657 262,648.5 Q270,640 285,640 Q317,640 317,670 Q317,700 285,700 M350,500 L535,500 L535,0 L350,0 L350,49 Q304,-14 216,-14 Q134,-14 84.5,42.5 Q35,99 35,211 L35,500 L220,500 L220,231 Q220,164 282,164 Q315,164 332.5,185 Q350,206 350,243"/> 
            <glyph glyph-name="Ű" unicode="&#x170;" horiz-adv-x="610" d=" M115,740 L283,740 L369,900 L195,900 M318,740 L486,740 L582,900 L408,900 M452,-16 Q198,-16 119,53 Q40,122 40,234 L40,700 L240,700 L240,256 Q240,178 325,178 Q410,178 410,256 L410,700 L610,700 L610,234 Q610,122 452,-16"/> 
            <glyph glyph-name="ű" unicode="&#x171;" horiz-adv-x="542" d=" M329,700 L243,540 L75,540 L155,700 M446,540 L278,540 L368,700 L542,700 M350,243 L350,500 L535,500 L535,0 L350,0 L350,49 Q304,-14 216,-14 Q134,-14 84.5,42.5 Q35,99 35,211 L35,500 L220,500 L220,231 Q220,164 282,164 Q315,164 332.5,185 Q350,206 350,243"/> 
            <glyph glyph-name="Ų" unicode="&#x172;" horiz-adv-x="610" d=" M410,700 L610,700 L610,234 Q610,115 521,45 Q474,4 455,-21.5 Q436,-47 436,-71 Q436,-90 457,-90 Q467,-90 476,-87 L476,-197 Q434,-214 388,-214 Q340,-214 309,-191 Q278,-168 278,-123 Q278,-72 323,-16 Q197,-15 118.5,54 Q40,123 40,234 L40,700 L240,700 L240,256 Q240,178 325,178 Q410,178 410,256"/> 
            <glyph glyph-name="ų" unicode="&#x173;" horiz-adv-x="535" d=" M535,500 L535,0 Q495,-41 495,-71 Q495,-90 516,-90 Q526,-90 535,-87 L535,-197 Q493,-214 447,-214 Q399,-214 368,-191 Q337,-168 337,-123 Q337,-62 396,0 L350,0 L350,49 Q304,-14 216,-14 Q134,-14 84.5,42.5 Q35,99 35,211 L35,500 L220,500 L220,231 Q220,164 282,164 Q315,164 332.5,185 Q350,206 350,243 L350,500"/> 
            <glyph glyph-name="Ŵ" unicode="&#x174;" horiz-adv-x="1010" d=" M525,798 L480,740 L325,740 L431,900 L619,900 L725,740 L570,740 M790,700 L1010,700 L812,0 L615,0 L505,374 L395,0 L198,0 L0,700 L220,700 L315,315 L428,700 L582,700 L695,315"/> 
            <glyph glyph-name="ŵ" unicode="&#x175;" horiz-adv-x="810" d=" M410,598 L365,540 L210,540 L316,700 L504,700 L610,540 L455,540 M615,500 L810,500 L665,0 L477,0 L415,235 L353,0 L165,0 L20,500 L215,500 L273,223 L345,500 L485,500 L557,223"/> 
            <glyph glyph-name="Ŷ" unicode="&#x176;" horiz-adv-x="674" d=" M332,798 L287,740 L132,740 L238,900 L426,900 L532,740 L377,740 M674,700 L437,266 L437,0 L237,0 L237,266 L0,700 L222,700 L337,454 L452,700"/> 
            <glyph glyph-name="ŷ" unicode="&#x177;" horiz-adv-x="570" d=" M286,598 L241,540 L86,540 L192,700 L380,700 L486,540 L331,540 M360,500 L570,500 L400,1 Q363,-108 285,-156.5 Q207,-205 79,-200 L79,-25 Q130,-25 157,-17.5 Q184,-10 200,10 L0,500 L210,500 L299,233"/> 
            <glyph glyph-name="Ÿ" unicode="&#x178;" horiz-adv-x="674" d=" M272,730 Q202,730 177,755 Q152,780 152,815 Q152,850 177,875 Q202,900 237,900 Q272,900 297,875 Q322,850 322,815 Q322,780 272,730 M472,730 Q402,730 377,755 Q352,780 352,815 Q352,850 377,875 Q402,900 437,900 Q472,900 497,875 Q522,850 522,815 Q522,780 472,730 M674,700 L437,266 L437,0 L237,0 L237,266 L0,700 L222,700 L337,454 L452,700"/> 
            <glyph glyph-name="Ź" unicode="&#x179;" horiz-adv-x="525" d=" M461,900 L345,750 L171,750 L251,900 M292,194 L525,194 L525,0 L30,0 L30,154 L253,506 L35,506 L35,700 L515,700 L515,546"/> 
            <glyph glyph-name="ź" unicode="&#x17A;" horiz-adv-x="460" d=" M430,700 L314,550 L140,550 L220,700 M286,170 L460,170 L460,0 L40,0 L40,130 L204,330 L50,330 L50,500 L450,500 L450,370"/> 
            <glyph glyph-name="Ż" unicode="&#x17B;" horiz-adv-x="525" d=" M320,740 Q242,740 214,768 Q186,796 186,835 Q186,874 214,902 Q242,930 281,930 Q320,930 348,902 Q376,874 376,835 Q376,796 320,740 M292,194 L525,194 L525,0 L30,0 L30,154 L253,506 L35,506 L35,700 L515,700 L515,546"/> 
            <glyph glyph-name="ż" unicode="&#x17C;" horiz-adv-x="460" d=" M289,540 Q211,540 183,568 Q155,596 155,635 Q155,674 183,702 Q211,730 250,730 Q289,730 317,702 Q345,674 345,635 Q345,596 289,540 M286,170 L460,170 L460,0 L40,0 L40,130 L204,330 L50,330 L50,500 L450,500 L450,370"/> 
            <glyph glyph-name="Ž" unicode="&#x17D;" horiz-adv-x="525" d=" M182,740 L76,900 L231,900 L276,842 L321,900 L476,900 L370,740 M292,194 L525,194 L525,0 L30,0 L30,154 L253,506 L35,506 L35,700 L515,700 L515,546"/> 
            <glyph glyph-name="ž" unicode="&#x17E;" horiz-adv-x="460" d=" M151,540 L45,700 L200,700 L245,642 L290,700 L445,700 L339,540 M286,170 L460,170 L460,0 L40,0 L40,130 L204,330 L50,330 L50,500 L450,500 L450,370"/> 
            <glyph glyph-name="ƒ" unicode="&#x192;" horiz-adv-x="482" d=" M186,538 Q199,613 243.5,658 Q288,703 349,711.5 Q410,720 482,707 L482,527 Q448,541 418.5,526.5 Q389,512 382,475 L376,438 L441,438 L441,262 L346,262 L296,-30 Q283,-105 238.5,-150 Q194,-195 133,-203.5 Q72,-212 0,-199 L0,-19 Q34,-33 63.5,-18.5 Q93,-4 100,33 L139,262 L81,262 L81,438 L169,438"/> 
            <glyph glyph-name="Ș" unicode="&#x218;" horiz-adv-x="575" d=" M302,-16 Q188,-16 112,31.5 Q36,79 10,160 L181,259 Q216,170 307,170 Q375,170 375,206 Q375,216 370,224 Q365,232 351,238 Q337,244 326.5,247.5 Q316,251 290,258 Q264,265 251,269 Q42,332 42,494 Q42,590 111.5,653 Q181,716 294,716 Q383,716 453.5,674 Q524,632 557,553 L391,456 Q362,530 295,530 Q269,530 255.5,519.5 Q242,509 242,493 Q242,471 265.5,459 Q289,447 356,428 Q406,413 438,399.5 Q470,386 505,361.5 Q540,337 557.5,298.5 Q575,260 575,208 Q575,101 501.5,42.5 Q428,-16 302,-16 M363,-284 L403,-54 L233,-54 L223,-284"/> 
            <glyph glyph-name="ș" unicode="&#x219;" horiz-adv-x="469" d=" M219,353 Q219,341 237.5,334 Q256,327 284,323.5 Q312,320 344,310 Q376,300 404,285 Q432,270 450.5,237.5 Q469,205 469,159 Q469,111 447.5,75 Q426,39 391,21 Q356,3 319.5,-5.5 Q283,-14 244,-14 Q63,-14 10,105 L171,177 Q190,126 242,126 Q276,126 276,148 Q276,161 251,169 Q226,177 191,185.5 Q156,194 120.5,208.5 Q85,223 60,257 Q35,291 35,342 Q35,424 97.5,469 Q160,514 242,514 Q406,514 459,387 L306,332 Q288,374 250,374 Q219,374 219,353 M173,-284 L183,-54 L353,-54 L313,-284"/> 
            <glyph glyph-name="Ț" unicode="&#x21A;" horiz-adv-x="540" d=" M540,700 L540,506 L375,506 L375,0 L175,0 L175,506 L10,506 L10,700 M177,-284 L187,-54 L357,-54 L317,-284"/> 
            <glyph glyph-name="ț" unicode="&#x21B;" horiz-adv-x="370" d=" M370,324 L265,324 L265,216 Q265,191 277,179 Q289,167 312.5,165.5 Q336,164 370,166 L370,0 Q213,-22 146.5,27 Q80,76 80,206 L80,324 L10,324 L10,500 L80,500 L80,585 L265,640 L265,500 L370,500 M139,-274 L149,-44 L319,-44 L279,-274"/> 
            <glyph glyph-name="ˆ" unicode="&#x2C6;" horiz-adv-x="420" d=" M420,540 L265,540 L220,598 L175,540 L20,540 L126,700 L314,700"/> 
            <glyph glyph-name="ˇ" unicode="&#x2C7;" horiz-adv-x="420" d=" M265,700 L420,700 L314,540 L126,540 L20,700 L175,700 L220,642"/> 
            <glyph glyph-name="˘" unicode="&#x2D8;" horiz-adv-x="390" d=" M294,532 Q116,532 68,575 Q20,618 20,702 L170,702 Q170,662 205,662 Q240,662 240,702 L390,702 Q390,618 294,532"/> 
            <glyph glyph-name="˙" unicode="&#x2D9;" horiz-adv-x="210" d=" M154,540 Q76,540 48,568 Q20,596 20,635 Q20,674 48,702 Q76,730 115,730 Q154,730 182,702 Q210,674 210,635 Q210,596 154,540"/> 
            <glyph glyph-name="˚" unicode="&#x2DA;" horiz-adv-x="318" d=" M169,530 Q104,530 62,570 Q20,610 20,670 Q20,730 62,770 Q104,810 169,810 Q236,810 277,770.5 Q318,731 318,670 Q318,609 277,569.5 Q236,530 169,530 M169,640 Q201,640 201,670 Q201,700 169,700 Q154,700 146,691.5 Q138,683 138,670 Q138,657 146,648.5 Q154,640 169,640"/> 
            <glyph glyph-name="˛" unicode="&#x2DB;" horiz-adv-x="218" d=" M130,-214 Q82,-214 51,-191 Q20,-168 20,-123 Q20,-62 79,0 L218,0 Q178,-41 178,-71 Q178,-90 199,-90 Q209,-90 218,-87 L218,-197 Q176,-214 130,-214"/> 
            <glyph glyph-name="˜" unicode="&#x2DC;" horiz-adv-x="379" d=" M20,543 Q20,603 37,642 Q54,681 82,695 Q110,709 140.5,709 Q171,709 203,696 Q208,694 217.5,689.5 Q227,685 231.5,683 Q236,681 242.5,679.5 Q249,678 252,681 Q255,684 257,691 Q259,698 259,710 L379,710 Q379,649 362,609.5 Q345,570 317,556.5 Q289,543 258.5,543.5 Q228,544 195,557 Q190,559 181,563.5 Q172,568 167.5,570 Q163,572 156.5,573.5 Q150,575 147,572 Q144,569 142,562 Q140,555 140,543"/> 
            <glyph glyph-name="˝" unicode="&#x2DD;" horiz-adv-x="487" d=" M20,540 L188,540 L274,700 L100,700 M223,540 L391,540 L487,700 L313,700"/> 
            <glyph glyph-name="̀" unicode="&#x300;" horiz-adv-x="-20" d=" M-20,550 L-100,700 L-310,700 L-194,550"/> 
            <glyph glyph-name="́" unicode="&#x301;" horiz-adv-x="10" d=" M-280,550 L-106,550 L10,700 L-200,700"/> 
            <glyph glyph-name="̂" unicode="&#x302;" horiz-adv-x="-20" d=" M-20,540 L-175,540 L-220,598 L-265,540 L-420,540 L-314,700 L-126,700"/> 
            <glyph glyph-name="̃" unicode="&#x303;" horiz-adv-x="-20" d=" M-379,543 Q-379,603 -362,642 Q-345,681 -317,695 Q-289,709 -258.5,709 Q-228,709 -196,696 Q-191,694 -181.5,689.5 Q-172,685 -167.5,683 Q-163,681 -156.5,679.5 Q-150,678 -147,681 Q-144,684 -142,691 Q-140,698 -140,710 L-20,710 Q-20,649 -37,609.5 Q-54,570 -82,556.5 Q-110,543 -140.5,543.5 Q-171,544 -204,557 Q-209,559 -218,563.5 Q-227,568 -231.5,570 Q-236,572 -242.5,573.5 Q-249,575 -252,572 Q-255,569 -257,562 Q-259,555 -259,543"/> 
            <glyph glyph-name="̄" unicode="&#x304;" horiz-adv-x="-20" d=" M-340,549 L-340,689 L-20,689 L-20,549"/> 
            <glyph glyph-name="̆" unicode="&#x306;" horiz-adv-x="-30" d=" M-126,532 Q-304,532 -352,575 Q-400,618 -400,702 L-250,702 Q-250,662 -215,662 Q-180,662 -180,702 L-30,702 Q-30,618 -126,532"/> 
            <glyph glyph-name="̇" unicode="&#x307;" horiz-adv-x="-20" d=" M-76,540 Q-154,540 -182,568 Q-210,596 -210,635 Q-210,674 -182,702 Q-154,730 -115,730 Q-76,730 -48,702 Q-20,674 -20,635 Q-20,596 -76,540"/> 
            <glyph glyph-name="̈" unicode="&#x308;" horiz-adv-x="-20" d=" M-270,530 Q-340,530 -365,555 Q-390,580 -390,615 Q-390,650 -365,675 Q-340,700 -305,700 Q-270,700 -245,675 Q-220,650 -220,615 Q-220,580 -270,530 M-70,530 Q-140,530 -165,555 Q-190,580 -190,615 Q-190,650 -165,675 Q-140,700 -105,700 Q-70,700 -45,675 Q-20,650 -20,615 Q-20,580 -70,530"/> 
            <glyph glyph-name="̊" unicode="&#x30A;" horiz-adv-x="-20" d=" M-169,530 Q-234,530 -276,570 Q-318,610 -318,670 Q-318,730 -276,770 Q-234,810 -169,810 Q-102,810 -61,770.5 Q-20,731 -20,670 Q-20,609 -61,569.5 Q-102,530 -169,530 M-169,640 Q-137,640 -137,670 Q-137,700 -169,700 Q-184,700 -192,691.5 Q-200,683 -200,670 Q-200,657 -192,648.5 Q-184,640 -169,640"/> 
            <glyph glyph-name="̋" unicode="&#x30B;" horiz-adv-x="-20" d=" M-487,540 L-319,540 L-233,700 L-407,700 M-284,540 L-116,540 L-20,700 L-194,700"/> 
            <glyph glyph-name="̌" unicode="&#x30C;" horiz-adv-x="-20" d=" M-175,700 L-20,700 L-126,540 L-314,540 L-420,700 L-265,700 L-220,642"/> 
            <glyph glyph-name="̒" unicode="&#x312;" horiz-adv-x="-20" d=" M-160,990 L-200,760 L-30,760 L-20,990"/> 
            <glyph glyph-name="̦" unicode="&#x326;" horiz-adv-x="-20" d=" M-60,-284 L-20,-54 L-190,-54 L-200,-284"/> 
            <glyph glyph-name="̧" unicode="&#x327;" horiz-adv-x="-20" d=" M-73,-46 Q-20,-68 -20,-123 Q-20,-179 -81,-206 Q-142,-233 -265,-226 L-265,-112 Q-170,-119 -170,-98 Q-170,-83 -223,-78 L-223,0 L-73,0"/> 
            <glyph glyph-name="̨" unicode="&#x328;" horiz-adv-x="-20" d=" M-108,-214 Q-156,-214 -187,-191 Q-218,-168 -218,-123 Q-218,-62 -159,0 L-20,0 Q-60,-41 -60,-71 Q-60,-90 -39,-90 Q-29,-90 -20,-87 L-20,-197 Q-62,-214 -108,-214"/> 
            <glyph glyph-name="Δ" unicode="&#x394;" horiz-adv-x="670" d=" M442,700 L670,0 L-10,0 L218,700 M248,160 L412,160 L330,465"/> 
            <glyph glyph-name="Ω" unicode="&#x3A9;" horiz-adv-x="762" d=" M762,370 Q762,262 692,184 L746,184 L746,0 L462,0 L462,194 Q508,214 535,255.5 Q562,297 562,350 Q562,423 513.5,471.5 Q465,520 391,520 Q317,520 268.5,471.5 Q220,423 220,350 Q220,297 247,255.5 Q274,214 320,194 L320,0 L36,0 L36,184 L90,184 Q20,262 20,370 Q20,523 126.5,619.5 Q233,716 391,716 Q549,716 655.5,619.5 Q762,523 762,370"/> 
            <glyph glyph-name="π" unicode="&#x3C0;" horiz-adv-x="640" d=" M640,500 L640,324 L570,324 L570,0 L385,0 L385,324 L265,324 L265,0 L80,0 L80,324 L10,324 L10,500"/> 
            <glyph glyph-name="Ё" unicode="&#x401;" horiz-adv-x="510" d=" M213,730 Q143,730 118,755 Q93,780 93,815 Q93,850 118,875 Q143,900 178,900 Q213,900 238,875 Q263,850 263,815 Q263,780 213,730 M413,730 Q343,730 318,755 Q293,780 293,815 Q293,850 318,875 Q343,900 378,900 Q413,900 438,875 Q463,850 463,815 Q463,780 413,730 M250,184 L510,184 L510,0 L50,0 L50,700 L505,700 L505,518 L250,518 L250,442 L480,442 L480,262 L250,262"/> 
            <glyph glyph-name="Ђ" unicode="&#x402;" horiz-adv-x="670" d=" M494,434 Q579,434 624.5,385 Q670,336 670,239 L670,200 Q670,82 611,29.5 Q552,-23 430,-16 L430,155 Q455,152 465,163 Q475,174 475,200 L475,214 Q475,256 430,256 Q400,256 365,244 L365,0 L165,0 L165,506 L10,506 L10,700 L540,700 L540,506 L365,506 L365,417 Q439,434 494,434"/> 
            <glyph glyph-name="Ѓ" unicode="&#x403;" horiz-adv-x="480" d=" M426,899 L310,749 L136,749 L216,899 M480,700 L480,506 L250,506 L250,0 L50,0 L50,700"/> 
            <glyph glyph-name="Є" unicode="&#x404;" horiz-adv-x="698" d=" M386,175 Q433,175 469.5,196.5 Q506,218 524,255 L698,155 Q653,76 570.5,30 Q488,-16 391,-16 Q230,-16 127.5,88.5 Q25,193 25,350 Q25,507 127.5,611.5 Q230,716 391,716 Q487,716 569.5,669.5 Q652,623 698,546 L524,446 Q506,481 469,503 Q432,525 386,525 Q282,525 240,440 L451,440 L451,260 L240,260 Q282,175 386,175"/> 
            <glyph glyph-name="Ѕ" unicode="&#x405;" horiz-adv-x="575" d=" M302,-16 Q188,-16 112,31.5 Q36,79 10,160 L181,259 Q216,170 307,170 Q375,170 375,206 Q375,216 370,224 Q365,232 351,238 Q337,244 326.5,247.5 Q316,251 290,258 Q264,265 251,269 Q42,332 42,494 Q42,590 111.5,653 Q181,716 294,716 Q383,716 453.5,674 Q524,632 557,553 L391,456 Q362,530 295,530 Q269,530 255.5,519.5 Q242,509 242,493 Q242,471 265.5,459 Q289,447 356,428 Q406,413 438,399.5 Q470,386 505,361.5 Q540,337 557.5,298.5 Q575,260 575,208 Q575,101 501.5,42.5 Q428,-16 302,-16"/> 
            <glyph glyph-name="І" unicode="&#x406;" horiz-adv-x="250" d=" M50,700 L250,700 L250,0 L50,0"/> 
            </font>
</defs>
</svg>
