<?xml version="1.0" encoding="UTF-8" standalone="no"?>
<svg
   xmlns:dc="http://purl.org/dc/elements/1.1/"
   xmlns:cc="http://creativecommons.org/ns#"
   xmlns:rdf="http://www.w3.org/1999/02/22-rdf-syntax-ns#"
   xmlns:svg="http://www.w3.org/2000/svg"
   xmlns="http://www.w3.org/2000/svg"
   xmlns:sodipodi="http://sodipodi.sourceforge.net/DTD/sodipodi-0.dtd"
   xmlns:inkscape="http://www.inkscape.org/namespaces/inkscape"
   width="247px"
   height="247px"
   viewBox="0 0 247 247"
   version="1.1"
   id="svg26"
   sodipodi:docname="backup-warning.svg"
   inkscape:version="0.92.1 r15371">
  <metadata
     id="metadata30">
    <rdf:RDF>
      <cc:Work
         rdf:about="">
        <dc:format>image/svg+xml</dc:format>
        <dc:type
           rdf:resource="http://purl.org/dc/dcmitype/StillImage" />
      </cc:Work>
    </rdf:RDF>
  </metadata>
  <sodipodi:namedview
     pagecolor="#ffffff"
     bordercolor="#666666"
     borderopacity="1"
     objecttolerance="10"
     gridtolerance="10"
     guidetolerance="10"
     inkscape:pageopacity="0"
     inkscape:pageshadow="2"
     inkscape:window-width="1920"
     inkscape:window-height="1015"
     id="namedview28"
     showgrid="false"
     inkscape:zoom="3.2105263"
     inkscape:cx="40.959016"
     inkscape:cy="123.5"
     inkscape:window-x="0"
     inkscape:window-y="27"
     inkscape:window-maximized="1"
     inkscape:current-layer="svg26" />
  <!-- Generator: Sketch 42 (36781) - http://www.bohemiancoding.com/sketch -->
  <title
     id="title2">backup-warning</title>
  <desc
     id="desc4">Created with Sketch.</desc>
  <defs
     id="defs16">
    <linearGradient
       x1="123.5"
       y1="1.4210855e-14"
       x2="123.5"
       y2="220.98438"
       id="linearGradient-1"
       gradientUnits="userSpaceOnUse">
      <stop
         stop-color="#192C3A"
         offset="0%"
         id="stop6" />
      <stop
         stop-color="#192C3A"
         offset="100%"
         id="stop8" />
    </linearGradient>
    <linearGradient
       x1="88.723773"
       y1="62.638229"
       x2="88.723773"
       y2="173.99195"
       id="linearGradient-2"
       gradientTransform="scale(1.3919606,0.71841111)"
       gradientUnits="userSpaceOnUse">
      <stop
         stop-color="#BCBCBC"
         offset="0%"
         id="stop11" />
      <stop
         stop-color="#707D89"
         offset="100%"
         id="stop13" />
    </linearGradient>
  </defs>
  <path
     inkscape:connector-curvature="0"
     style="opacity:1;fill:#8b8b8b;fill-rule:nonzero;stroke:none;stroke-width:1;fill-opacity:1"
     id="Oval-2"
     d="M 123.5,247 C 191.70717,247 247,191.70717 247,123.5 247,55.292833 191.70717,0 123.5,0 55.292833,0 0,55.292833 0,123.5 0,191.70717 55.292833,247 123.5,247 Z" />
  <g
     id="g4573"
     style="fill:#ffffff;fill-opacity:1">
    <g
       id="g4564"
       style="fill:#ffffff;fill-opacity:1">
      <g
         id="g4556"
         style="fill:#ffffff;fill-opacity:1">
        <g
           id="g4549"
           style="fill:#ffffff;fill-opacity:1">
          <g
             id="g4543"
             style="fill:#ffffff;fill-opacity:1">
            <g
               id="g4538"
               style="fill:#ffffff;fill-opacity:1">
              <g
                 id="g4534"
                 style="fill:#ffffff;fill-opacity:1">
                <path
                   d="m 157.69352,46.911476 c -0.32236,-1.066278 -1.53211,-1.930636 -2.69049,-1.911153 l -40.8799,8.144098 -22.312137,-7.928008 c -1.161924,0.01948 -2.373443,0.885613 -2.695806,1.953662 L 74.392755,96.557174 H 172.60724 Z M 123.5,107.87177 c -29.347446,0 -56.307279,6.40829 -77.5,17.12598 h 155 c -21.21398,-10.71769 -48.15255,-17.12598 -77.5,-17.12598 z"
                   id="Shape"
                   style="fill:#ffffff;fill-rule:nonzero;stroke:none;stroke-width:1;fill-opacity:1"
                   inkscape:connector-curvature="0" />
              </g>
            </g>
          </g>
        </g>
      </g>
    </g>
  </g>
  <path
     style="opacity:1;fill:#ffffff;fill-rule:nonzero;stroke:none;stroke-width:1;fill-opacity:1"
     inkscape:connector-curvature="0"
     id="Combined-Shape"
     d="m 155.01897,132.111 c -11.9239,0 -21.79848,8.82779 -23.5024,20.28585 -5.29597,-1.17432 -10.77791,-1.18141 -16.07565,-0.0266 -1.8279,-11.31459 -11.63518,-19.9936 -23.458118,-19.9936 -13.117701,0 -23.79111,10.67341 -23.79111,23.79111 0,13.1177 10.671638,23.79111 23.79111,23.79111 11.973488,0 21.881728,-8.90041 23.525428,-20.42755 5.257,-1.41167 10.79031,-1.39041 16.03845,0.0655 1.78362,11.36596 11.6157,20.09633 23.47406,20.09633 13.1177,0 23.79111,-10.67163 23.79111,-23.7911 -0.004,-13.11771 -10.67518,-23.79111 -23.79288,-23.79111 z m -63.037939,41.45909 c -9.612445,0 -17.404068,-7.79163 -17.404068,-17.40407 0,-9.61245 7.791623,-17.40407 17.404068,-17.40407 9.612439,0 17.404069,7.79162 17.404069,17.40407 0,9.61244 -7.79163,17.40407 -17.404069,17.40407 z m 63.037939,-0.26392 c -9.61245,0 -17.40407,-7.79162 -17.40407,-17.40406 0,-9.61245 7.79162,-17.40407 17.40407,-17.40407 9.61244,0 17.40407,7.79162 17.40407,17.40407 -0.002,9.61244 -7.7934,17.40406 -17.40407,17.40406 z" />
</svg>
