<?xml version="1.0" encoding="UTF-8" standalone="no"?>
<svg
   xmlns:dc="http://purl.org/dc/elements/1.1/"
   xmlns:cc="http://creativecommons.org/ns#"
   xmlns:rdf="http://www.w3.org/1999/02/22-rdf-syntax-ns#"
   xmlns:svg="http://www.w3.org/2000/svg"
   xmlns="http://www.w3.org/2000/svg"
   xmlns:sodipodi="http://sodipodi.sourceforge.net/DTD/sodipodi-0.dtd"
   xmlns:inkscape="http://www.inkscape.org/namespaces/inkscape"
   version="1.1"
   id="Wallet"
   x="0px"
   y="0px"
   viewBox="0 0 40 40"
   style="enable-background:new 0 0 40 40;"
   xml:space="preserve"
   sodipodi:docname="icon-wallet.svg"
   inkscape:version="0.92.1 r15371"><metadata
     id="metadata10"><rdf:RDF><cc:Work
         rdf:about=""><dc:format>image/svg+xml</dc:format><dc:type
           rdf:resource="http://purl.org/dc/dcmitype/StillImage" /><dc:title></dc:title></cc:Work></rdf:RDF></metadata><defs
     id="defs8" /><sodipodi:namedview
     pagecolor="#ffffff"
     bordercolor="#666666"
     borderopacity="1"
     objecttolerance="10"
     gridtolerance="10"
     guidetolerance="10"
     inkscape:pageopacity="0"
     inkscape:pageshadow="2"
     inkscape:window-width="1920"
     inkscape:window-height="1015"
     id="namedview6"
     showgrid="false"
     inkscape:pagecheckerboard="true"
     inkscape:zoom="19.825"
     inkscape:cx="12.559899"
     inkscape:cy="26.610103"
     inkscape:window-x="0"
     inkscape:window-y="27"
     inkscape:window-maximized="1"
     inkscape:current-layer="Wallet" /><style
     type="text/css"
     id="style2">
	.st0{fill:none;stroke:#FFFFFF;}
</style><text
     xml:space="preserve"
     style="font-style:normal;font-weight:normal;font-size:42.66666667px;line-height:125%;font-family:sans-serif;letter-spacing:0px;word-spacing:0px;fill:#000000;fill-opacity:1;stroke:none;stroke-width:1px;stroke-linecap:butt;stroke-linejoin:miter;stroke-opacity:1;"
     x="-7.263556"
     y="11.197982"
     id="text4493"><tspan
       sodipodi:role="line"
       id="tspan4491"
       x="-7.263556"
       y="46.588608" /></text>
<g
     aria-label=""
     style="font-style:normal;font-variant:normal;font-weight:normal;font-stretch:normal;font-size:24.29528046px;line-height:125%;font-family:icomoon;-inkscape-font-specification:icomoon;letter-spacing:0px;word-spacing:0px;fill:#ffffff;fill-opacity:1;stroke:none;stroke-width:0.607382px;stroke-linecap:butt;stroke-linejoin:miter;stroke-opacity:1"
     id="text4497"><path
       d="m 30.194736,19.685663 h -3.226717 q -0.735501,0 -1.233744,0.521969 -0.498243,0.498243 -0.498243,1.210019 0,0.711776 0.498243,1.233745 0.521969,0.498243 1.233744,0.498243 h 3.226717 q 0.308437,0 0.521969,-0.213533 0.237259,-0.237259 0.237259,-0.545695 v -2.016698 q 0,-0.260984 -0.237259,-0.474517 -0.213532,-0.213533 -0.521969,-0.213533 z m -11.649397,2.06415 h -2.775925 v 3.155539 h 2.704748 q 0.166081,0 0.379613,-0.02372 0.237259,-0.02373 0.427066,-0.0949 0.379614,-0.166081 0.616872,-0.569421 0.237259,-0.403339 0.237259,-0.901582 0,-0.711776 -0.450791,-1.138842 -0.427066,-0.427065 -1.138842,-0.427065 z m 8.42268,2.396312 q -1.138841,0 -1.94552,-0.782954 -0.782953,-0.806679 -0.782953,-1.94552 0,-1.138841 0.782953,-1.945521 0.806679,-0.806679 1.94552,-0.806679 h 3.226717 q 0,0 0,0 0,0 0,0 v -3.962218 q 0,-0.949035 -0.664324,-1.589633 -0.664324,-0.664324 -1.589632,-0.664324 V 11.45279 q 0,-0.735502 -0.521969,-1.233745 Q 26.920568,9.7208021 26.208792,9.7208021 H 9.5295125 q -0.7117758,0 -1.2337447,0.5219689 -0.498243,0.498243 -0.498243,1.210019 v 16.655553 q 0,0.949035 0.664324,1.613359 0.6643241,0.640598 1.5896322,0.640598 h 17.913025 q 0.949034,0 1.589632,-0.640598 0.664324,-0.664324 0.664324,-1.613359 v -3.962218 q 0,0 0,0 0,0 0,0 H 26.968019 Z M 9.6481418,12.449276 q -0.3558879,0 -0.6168723,-0.260984 Q 8.770285,11.927307 8.770285,11.571419 v 0 q 0,-0.355888 0.2609845,-0.616872 0.2609844,-0.260985 0.6168723,-0.260985 H 26.090163 q 0.355888,0 0.616872,0.260985 0.260984,0.260984 0.260984,0.616872 v 0.877857 H 9.6481418 Z M 19.779084,25.783209 q -0.332162,0.118629 -0.664324,0.166081 -0.332162,0.02373 -0.711776,0.02373 h -0.521969 v 0.711776 q 0,0.118629 -0.07118,0.213533 -0.07118,0.07118 -0.189807,0.07118 h -0.759228 q -0.118629,0 -0.213533,-0.07118 -0.07118,-0.0949 -0.07118,-0.213533 v -0.711776 h -0.854131 v 0.711776 q 0,0.118629 -0.07118,0.213533 -0.07118,0.07118 -0.189807,0.07118 H 14.70175 q -0.118629,0 -0.213533,-0.07118 -0.07118,-0.0949 -0.07118,-0.213533 v -0.711776 h -0.711776 q -0.0949,0 -0.166081,-0.07118 -0.04745,-0.07118 -0.04745,-0.142355 v -0.640598 q 0,-0.0949 0.04745,-0.142355 0.07118,-0.07118 0.166081,-0.07118 h 0.711776 v -6.951677 h -0.782954 q -0.07118,0 -0.118629,-0.04745 -0.02373,-0.04745 -0.02373,-0.11863 v -0.711775 q 0,-0.07118 0.02373,-0.11863 0.04745,-0.04745 0.118629,-0.04745 h 0.782954 v -0.735502 q 0,-0.0949 0.07118,-0.166081 0.0949,-0.0949 0.213533,-0.0949 h 0.759227 q 0.11863,0 0.189807,0.0949 0.07118,0.07118 0.07118,0.166081 v 0.735502 h 0.854131 v -0.735502 q 0,-0.0949 0.07118,-0.166081 0.0949,-0.0949 0.213533,-0.0949 h 0.759228 q 0.118629,0 0.189807,0.0949 0.07118,0.07118 0.07118,0.166081 v 0.735502 h 0.332162 q 0.498243,0 0.877857,0.07118 0.379614,0.04745 0.711776,0.213533 0.545695,0.237259 0.877857,0.782953 0.355888,0.521969 0.355888,1.233745 0,0.664324 -0.308437,1.186293 -0.28471,0.498243 -0.830405,0.759228 v 0.04745 q 0.711776,0.189807 1.115116,0.806679 0.403339,0.616873 0.403339,1.3761 0.02373,0.877857 -0.474517,1.518455 -0.474517,0.640599 -1.162567,0.877857 z m 0,-6.47716 q 0,-0.379613 -0.166081,-0.688049 -0.142355,-0.332163 -0.427066,-0.498244 -0.166081,-0.07118 -0.403339,-0.118629 -0.237259,-0.04745 -0.521969,-0.04745 H 15.79314 v 2.7522 h 2.681022 q 0.593146,0 0.949034,-0.379614 0.355888,-0.403339 0.355888,-1.020212 z"
       style="fill:#ffffff;fill-opacity:1;stroke-width:0.607382px"
       id="path4499" /></g></svg>