<?xml version="1.0" encoding="UTF-8" standalone="no"?>
<svg
   xmlns:dc="http://purl.org/dc/elements/1.1/"
   xmlns:cc="http://creativecommons.org/ns#"
   xmlns:rdf="http://www.w3.org/1999/02/22-rdf-syntax-ns#"
   xmlns:svg="http://www.w3.org/2000/svg"
   xmlns="http://www.w3.org/2000/svg"
   xmlns:sodipodi="http://sodipodi.sourceforge.net/DTD/sodipodi-0.dtd"
   xmlns:inkscape="http://www.inkscape.org/namespaces/inkscape"
   width="22px"
   height="32px"
   viewBox="0 0 22 32"
   version="1.1"
   id="svg12"
   sodipodi:docname="icon-bitcoin-white.svg"
   inkscape:version="0.92.1 r15371">
  <metadata
     id="metadata16">
    <rdf:RDF>
      <cc:Work
         rdf:about="">
        <dc:format>image/svg+xml</dc:format>
        <dc:type
           rdf:resource="http://purl.org/dc/dcmitype/StillImage" />
      </cc:Work>
    </rdf:RDF>
  </metadata>
  <sodipodi:namedview
     pagecolor="#ffffff"
     bordercolor="#666666"
     borderopacity="1"
     objecttolerance="10"
     gridtolerance="10"
     guidetolerance="10"
     inkscape:pageopacity="0"
     inkscape:pageshadow="2"
     inkscape:window-width="1920"
     inkscape:window-height="1015"
     id="namedview14"
     showgrid="false"
     inkscape:zoom="20.059887"
     inkscape:cx="2.8118239"
     inkscape:cy="17.526157"
     inkscape:window-x="0"
     inkscape:window-y="27"
     inkscape:window-maximized="1"
     inkscape:current-layer="svg12" />
  <!-- Generator: Sketch 40.1 (33804) - http://www.bohemiancoding.com/sketch -->
  <title
     id="title2">Imported Layers</title>
  <desc
     id="desc4">Created with Sketch.</desc>
  <defs
     id="defs6" />
  <g
     transform="matrix(2.8088042,0,0,2.8088042,-234.50148,-331.90876)"
     aria-label=""
     style="font-style:normal;font-variant:normal;font-weight:normal;font-stretch:normal;font-size:10.58333302px;line-height:125%;font-family:icomoon;-inkscape-font-specification:icomoon;letter-spacing:0px;word-spacing:0px;fill:#fbfbfb;fill-opacity:1;stroke:none;stroke-width:0.26458332px;stroke-linecap:butt;stroke-linejoin:miter;stroke-opacity:1"
     id="text4487">
    <path
       inkscape:connector-curvature="0"
       d="m 89.710383,123.60521 v -0.0207 q 0.506429,-0.24804 0.785482,-0.7338 0.289388,-0.48576 0.289388,-1.11621 0,-0.69247 -0.330729,-1.1989 -0.33073,-0.50642 -0.847494,-0.74414 -0.320394,-0.14469 -0.682129,-0.19637 -0.3514,-0.0517 -0.816487,-0.0517 H 87.78802 v -0.7028 q 0,-0.10336 -0.07235,-0.1757 -0.07235,-0.0724 -0.1757,-0.0724 H 86.8165 q -0.103353,0 -0.1757,0.0724 -0.07235,0.0723 -0.07235,0.1757 v 0.7028 h -0.806152 v -0.7028 q 0,-0.10336 -0.07235,-0.1757 -0.07235,-0.0724 -0.1757,-0.0724 h -0.7028 q -0.113688,0 -0.186035,0.0724 -0.06201,0.0723 -0.06201,0.1757 v 0.7028 h -0.74414 q -0.06201,0 -0.113688,0.0517 -0.04134,0.0413 -0.04134,0.11369 v 0.68213 q 0,0.0724 0.04134,0.12402 0.05168,0.0413 0.113688,0.0413 h 0.74414 v 6.57324 h -0.692464 q -0.08268,0 -0.144694,0.062 -0.05168,0.0517 -0.05168,0.13436 v 0.59944 q 0,0.0827 0.05168,0.1447 0.06201,0.0517 0.144694,0.0517 h 0.692464 v 0.68213 q 0,0.11369 0.06201,0.1757 0.07235,0.0724 0.186035,0.0724 h 0.72347 q 0.103353,0 0.165365,-0.0724 0.07235,-0.062 0.07235,-0.1757 v -0.68213 h 0.816487 v 0.68213 q 0,0.11369 0.07235,0.1757 0.07235,0.0724 0.1757,0.0724 h 0.72347 q 0.103353,0 0.1757,-0.0724 0.07235,-0.062 0.07235,-0.1757 v -0.68213 h 0.475423 q 0.3514,0 0.661459,-0.0207 0.320394,-0.031 0.620117,-0.14469 0.661458,-0.21704 1.126546,-0.81649 0.465088,-0.60978 0.465088,-1.47794 -0.01034,-0.71314 -0.382406,-1.28158 -0.361735,-0.57877 -1.064534,-0.77515 z m -1.601969,-3.0489 q 0.279052,0 0.485758,0.0413 0.217041,0.0413 0.392741,0.13436 0.279053,0.15502 0.423747,0.45475 0.144694,0.29972 0.144694,0.67179 0,0.57878 -0.3514,0.94051 -0.341065,0.36174 -0.919841,0.36174 h -2.511474 v -2.60449 h 2.335775 z m 0.971516,6.44921 q -0.175699,0.0827 -0.382405,0.10336 -0.206706,0.0207 -0.382406,0.0207 h -2.54248 v -2.97657 h 2.645833 q 0.682129,0 1.085205,0.40308 0.403076,0.39274 0.403076,1.0542 0,0.49609 -0.227376,0.86816 -0.217041,0.37207 -0.599447,0.5271 z"
       style="fill:#fbfbfb;fill-opacity:1;stroke-width:0.26458332px"
       id="path4527" />
  </g>
</svg>
