<?xml version="1.0" encoding="UTF-8"?>
<svg width="256px" height="256px" viewBox="0 0 256 256" version="1.1" xmlns="http://www.w3.org/2000/svg" xmlns:xlink="http://www.w3.org/1999/xlink">
    <!-- Generator: Sketch 52.2 (67145) - http://www.bohemiancoding.com/sketch -->
    <title>Group 16</title>
    <desc>Created with Sketch.</desc>
    <defs>
        <path d="M195,3.08807055e-15 C232,3.08807055e-15 256,24 256,61 L256,195 C256,232 232,256 195,256 L61,256 C24,256 0,232 0,195 L0,61 C0,24 24,3.08807057e-15 61,3.08807057e-15 L195,3.08807055e-15 Z" id="path-1"></path>
        <linearGradient x1="50%" y1="0%" x2="50%" y2="96.8185513%" id="linearGradient-3">
            <stop stop-color="#FFFFFF" offset="0%"></stop>
            <stop stop-color="#FFC421" stop-opacity="0.0571938223" offset="94.2806178%"></stop>
            <stop stop-color="#E99A3F" stop-opacity="0" offset="100%"></stop>
        </linearGradient>
        <linearGradient x1="100%" y1="50%" x2="-28.6917724%" y2="136.82417%" id="linearGradient-4">
            <stop stop-color="#FFFFFF" offset="0%"></stop>
            <stop stop-color="#FFC014" stop-opacity="0" offset="100%"></stop>
        </linearGradient>
    </defs>
    <g id="Page-1" stroke="none" stroke-width="1" fill="none" fill-rule="evenodd">
        <g id="Group-16">
            <mask id="mask-2" fill="white">
                <use xlink:href="#path-1"></use>
            </mask>
            <use id="Placeholder" fill="#E99A3F" xlink:href="#path-1"></use>
            <g id="Group-15-Copy" transform="translate(39.000000, 43.000000)">
                <path d="M30.8891774,168.095469 C29.7933793,171.023655 31.2990998,174.314867 34.2361135,175.408513 L42.5433395,178.501088 C45.4803533,179.593593 48.780343,178.092398 49.8772861,175.164212 L94.0092094,57.3381239 L74.7451474,51.0079912 L30.8891774,168.095469 Z" id="Fill-1" fill="#2A2A2A"></path>
                <path d="M99.2710214,0.471314286 C96.8276381,0.508171429 94.5290661,2.023 93.6258365,4.44574286 L92.0390487,8.69782857 L112.448847,16.1466571 L113.975501,12.0518286 C115.149945,8.90054286 113.537385,5.3598 110.389581,4.18282857 L101.486143,0.854628571 C100.818538,0.605228571 100.132526,0.481142857 99.4563308,0.471314286 L99.2710214,0.471314286 Z" id="Fill-4" fill="#2A2A2A"></path>
                <path d="M126.496679,27.1782594 L110.177434,21.1530809 L92.7844261,14.7323948 L76.4639647,8.70841849 C75.1032169,12.313668 71.1158245,14.2166723 67.4117693,13.0301497 C53.5841881,8.6014271 28.4243382,2.16992172 4.8392589,4.65236258 C0.287624371,5.13202065 -0.488208605,11.3711819 3.79954543,12.953212 L66.1641131,35.9767991 L63.6882574,42.5309239 L80.0075028,48.5561024 L97.4005107,54.9767884 L113.720972,61.0019669 L116.196828,54.44664 L178.561396,77.4690249 C182.84915,79.0510551 186.399984,73.8373282 183.280843,70.5266056 C167.113603,53.368311 143.848342,41.9238378 130.468263,36.3085927 C126.884596,34.8047024 125.134716,30.7835088 126.496679,27.1782594" id="Fill-7" fill="#FFFFFF"></path>
                <polygon id="Path-2" fill="url(#linearGradient-3)" points="137.946738 79.6666667 169.724732 107.921439 150.983699 118.734548"></polygon>
                <polygon id="Path-2" fill="url(#linearGradient-4)" points="158.360154 25.7623036 176.63353 16.2779671 178.15721 26.4371063"></polygon>
            </g>
        </g>
    </g>
</svg>