<?xml version="1.0" encoding="UTF-8"?>
<svg width="49px" height="42px" viewBox="0 0 49 42" version="1.1" xmlns="http://www.w3.org/2000/svg" xmlns:xlink="http://www.w3.org/1999/xlink">
    <!-- Generator: Sketch 54.1 (76490) - https://sketchapp.com -->
    <title>bitcoin-wallet</title>
    <desc>Created with Sketch.</desc>
    <g id="Page-1" stroke="none" stroke-width="1" fill="none" fill-rule="evenodd">
        <g id="bitcoin-wallet" fill="#FFFFFF" fill-rule="nonzero">
            <path d="M35.65039,27.23553 C36.7554718,27.2359345 37.751965,26.5705606 38.1751418,25.5497142 C38.5983185,24.5288679 38.3648271,23.353622 37.5835593,22.5720681 C36.8022915,21.7905142 35.6271312,21.5565926 34.60613,21.9793956 C33.5851288,22.4021986 32.9193901,23.3984482 32.91939,24.50353 C32.9209158,26.0113492 34.1425715,27.2334522 35.65039,27.23553 M35.65039,23.78453 C36.0474684,23.7845576 36.3693474,24.1064649 36.36934,24.5035433 C36.3693326,24.9006217 36.0474417,25.2225171 35.6503633,25.22253 C35.2532849,25.2225429 34.9313731,24.9006684 34.93134,24.50359 C34.926941,24.3115704 35.001284,24.1261091 35.137097,23.9902942 C35.2729101,23.8544792 35.4583703,23.7801336 35.65039,23.78453" id="Shape"></path>
            <path d="M40.8266,0.51117 L5.1696,0.51117 C2.70909962,0.513661492 0.715091492,2.50766962 0.7126,4.96817 L0.7126,37.74917 C0.715755678,39.8918309 2.45193909,41.6280143 4.5946,41.63117 L44.8516,41.63117 C46.9945574,41.6287287 48.7311587,39.8921274 48.7336,37.74917 L48.7336,11.29417 C48.7311862,9.15120122 46.9945688,7.4145838 44.8516,7.41217 L41.8326,7.41217 L41.8326,1.51717 C41.811853,0.970395709 41.3733743,0.531916969 40.8266,0.51117 L40.8266,0.51117 Z M5.1696,2.52417 L39.8196,2.52417 L39.8196,7.41217 L5.1696,7.41217 C4.29644288,7.41217003 3.48961242,6.94634626 3.05303385,6.19017002 C2.61645529,5.43399378 2.61645529,4.50234622 3.05303385,3.74616998 C3.48961242,2.98999374 4.29644288,2.52416997 5.1696,2.52417 L5.1696,2.52417 Z M46.7206,29.84117 L29.8996,29.84117 C29.7069115,29.8479473 29.5200669,29.7743743 29.3837313,29.6380387 C29.2473957,29.5017031 29.1738227,29.3148585 29.1806,29.12217 L29.1806,19.92117 C29.1738227,19.7284815 29.2473957,19.5416369 29.3837313,19.4053013 C29.5200669,19.2689657 29.7069115,19.1953927 29.8996,19.20217 L46.7206,19.20217 L46.7206,29.84117 Z M44.8516,9.42517 C45.3489141,9.41980772 45.8274235,9.61499725 46.1790981,9.96667187 C46.5307727,10.3183465 46.7259623,10.7968559 46.7206,11.29417 L46.7206,17.18917 L29.8996,17.18917 C28.3912905,17.1904547 27.1688847,18.4128605 27.1676,19.92117 L27.1676,29.12217 C27.1689012,30.6304726 28.3912974,31.8528688 29.8996,31.85417 L46.7206,31.85417 L46.7206,37.74917 C46.7259678,38.2464858 46.53078,38.7249984 46.1791042,39.0766742 C45.8274284,39.42835 45.3489158,39.6235378 44.8516,39.61817 L4.5946,39.61817 C4.09728507,39.623535 3.61877405,39.4283464 3.26709883,39.0766712 C2.91542361,38.7249959 2.72023496,38.2464849 2.7256,37.74917 L2.72549225,8.69017 L2.9426,8.81617 C3.61827763,9.2119595 4.38659195,9.42205959 5.16965,9.42517 C14.0466,9.41717 24.1636,9.42023 33.23665,9.42317 L44.8516,9.42517 Z" id="Shape"></path>
            <path d="M24.839,26.16527 L24.82781,26.1445 L24.82596,26.14103 C24.81911,26.1201 24.81413,26.09828 24.80639,26.07565 L24.80551,26.07396 L24.80451,26.07219 L24.80363,26.07042 L24.80274,26.06857 L24.80174,26.06688 L24.80074,26.06511 L24.79889,26.06172 C24.5631394,25.2731961 24.0957088,24.5737905 23.45732,24.05436 L23.45632,24.05259 C23.4374,24.03826 23.4176,24.02216 23.39875,24.00766 L23.37267,23.98826 L23.35375,23.97393 L23.34569,23.96708 L23.32782,23.95452 L23.31982,23.94768 L23.30182,23.93504 L23.29382,23.92819 L23.27498,23.91378 L23.26508,23.90798 L23.24616,23.89357 L23.23625,23.88777 L23.21564,23.87433 L23.20574,23.86853 L23.19366,23.85041 L23.18287,23.84284 L23.16226,23.82932 L23.15147,23.82183 L23.13078,23.8083 L23.12,23.80073 L23.09931,23.78737 L23.0886,23.77972 L23.06702,23.76458 L23.05623,23.75693 L23.03288,23.74268 L23.02217,23.73511 L22.99882,23.72094 L22.98803,23.71329 L22.96476,23.69912 L22.95397,23.69155 L22.93062,23.67722 L22.918,23.6707 L22.89473,23.65645 L22.88217,23.64977 L22.85717,23.63648 L22.84453,23.6298 L22.81868,23.6148 L22.80604,23.6082 L22.78004,23.59315 L22.76756,23.58654 L22.74156,23.57154 L22.72819,23.56348 L22.70219,23.54848 L22.68883,23.54048 L22.66113,23.52631 L22.64769,23.51825 L22.62007,23.50416 L22.60131,23.49416 L22.60031,23.49247 C22.58695,23.48442 22.5727,23.4783 22.55917,23.46984 C21.984885,23.1746019 21.3648107,22.9785989 20.72517,22.89012 C20.9044927,22.6972899 21.0686951,22.4909328 21.21632,22.27288 L21.23992,22.23788 L21.24169,22.23688 L21.25269,22.21981 L21.26694,22.19654 L21.27494,22.18584 L21.28911,22.1624 L21.29668,22.1517 L21.31085,22.12843 L21.3189,22.11764 L21.33315,22.09429 L21.34072,22.0835 L21.35497,22.06023 L21.36254,22.04936 L21.3751,22.02706 L21.38267,22.01627 L21.39523,21.99397 L21.40103,21.98406 L21.41359,21.96176 L21.41947,21.95194 L21.43195,21.92963 L21.43782,21.91973 L21.44861,21.89823 L21.45433,21.88841 L21.4652,21.86699 L21.471,21.85717 L21.48179,21.83575 L21.48758,21.82585 L21.49934,21.8062 L21.50522,21.7963 L21.51689,21.77649 L21.52277,21.76675 L21.53277,21.74799 L21.53857,21.73808 L21.54857,21.7194 L21.55276,21.71047 L21.56276,21.69171 L21.56687,21.68277 L21.57687,21.66409 L21.58106,21.65523 L21.59106,21.63647 L21.59517,21.62754 L21.60317,21.60974 L21.60736,21.60081 L21.61541,21.58293 L21.6196,21.574 L21.6276,21.5562 L21.6317,21.54727 L21.6408,21.52673 L21.65318,21.5 C21.66228,21.47955 21.66929,21.45974 21.67863,21.43945 L21.6804,21.43845 C21.9556632,20.7600574 22.0201965,20.0144798 21.86559,19.29888 L21.86459,19.29711 L21.86274,19.29365 L21.86174,19.29196 L21.86074,19.2901 L21.85974,19.28833 L21.85874,19.28656 L21.85774,19.28487 L21.85674,19.2831 C21.8530921,19.2630592 21.8483889,19.243225 21.84265,19.22368 L21.84265,19.21933 L21.84165,19.21756 L21.84065,19.21571 L21.83965,19.21393 L21.84065,19.21571 L21.83265,19.20025 C21.82653,19.17231 21.82033,19.14425 21.81155,19.11562 C21.80555,19.08768 21.79666,19.05878 21.78877,19.03189 L21.77854,19.01289 L21.77669,19.00934 L21.75914,18.95185 L21.75814,18.95016 L21.75714,18.94839 L21.75614,18.94662 L21.75514,18.94485 L21.75414,18.94308 L21.75314,18.9413 L21.75214,18.93953 C21.5427682,18.2379151 21.1269274,17.615628 20.5588,17.15375 L20.5578,17.15198 C20.5417,17.13846 20.52366,17.12573 20.5074,17.11221 L20.48486,17.0953 L20.46686,17.08266 L20.45881,17.07589 L20.44351,17.06406 L20.43551,17.05721 L20.42029,17.04538 L20.41229,17.03861 L20.39659,17.02831 L20.38859,17.02146 L20.37059,17.00882 L20.36254,17.00206 L20.34454,16.98942 L20.33649,16.98257 L20.31879,16.97 L20.30888,16.96412 L20.29093,16.95156 L20.28119,16.94569 L20.26319,16.93304 L20.25329,16.92717 L20.23356,16.91549 L20.22374,16.90961 L20.20393,16.89786 L20.19403,16.89214 L20.17439,16.88031 L20.16448,16.87451 L20.14476,16.86267 L20.135,16.857 L20.11431,16.84347 L20.10441,16.83775 L20.0838,16.82423 L20.07389,16.81843 L20.05151,16.80587 L20.04161,16.80007 L20.0193,16.78751 L20.00851,16.77994 L19.98613,16.76738 L19.97534,16.75973 L19.95304,16.74725 L19.94225,16.7396 L19.9189,16.72543 L19.90642,16.71883 L19.88306,16.70466 L19.8705,16.69798 L19.8455,16.68461 L19.833,16.678 L19.808,16.66463 L19.79013,16.65663 L19.78913,16.65486 L19.75161,16.63486 C18.544534,16.0356973 17.1596647,15.8999111 15.8592,16.25321 L15.49446,16.34685 L14.57092,12.75476 L12.43336,13.30276 L13.35278,16.88084 L11.64269,17.31941 L10.72269,13.75172 L8.58506,14.2998 L9.50456,17.8778 L5.09587,19.01236 L5.68244,21.29211 L7.45887,20.8359 C8.04686703,20.6845137 8.64626293,21.038426 8.7977,21.62641 L8.7977,21.62819 L8.7977,21.62819 L11.263,31.221 C11.363735,31.6135222 11.1275153,32.0134628 10.73513,32.11473 L9.17875,32.51506 L9.27022,35.22654 L13.6735,34.095 L14.60508,37.66647 L16.74174,37.11671 L15.82136,33.5371 L17.53136,33.09852 L18.45223,36.67773 L20.5889,36.12804 L19.6657,32.53434 C20.02802,32.4399 20.33914,32.35934 20.5546,32.30358 C22.0283061,31.9456506 23.3200109,31.0606338 24.1859,29.81558 L24.212,29.777 L24.21377,29.776 L24.22634,29.758 L24.24316,29.73111 L24.25116,29.71774 L24.26799,29.69085 L24.27599,29.67749 L24.29105,29.65149 L24.2991,29.63804 L24.3141,29.61212 L24.32078,29.59956 L24.33584,29.57363 L24.34236,29.56099 L24.35742,29.53514 L24.3641,29.5225 L24.37739,29.4975 L24.38407,29.48502 L24.39735,29.46002 L24.40395,29.44746 L24.41828,29.42411 L24.4248,29.41155 L24.43906,29.38828 L24.44566,29.37572 L24.45822,29.35333 L24.46482,29.34085 L24.47738,29.31855 L24.48398,29.30591 L24.49654,29.2836 L24.50145,29.27209 L24.51409,29.24962 L24.519,29.23811 L24.52971,29.21669 L24.53558,29.20679 L24.54637,29.18521 L24.55225,29.17539 L24.56296,29.15389 L24.56883,29.14399 L24.57962,29.12257 L24.58542,29.11275 L24.59613,29.09125 L24.60201,29.08135 L24.61279,29.05993 L24.61867,29.05003 L24.62767,29.02958 L24.63338,29.01967 L24.64238,28.99914 L24.64657,28.99029 L24.65647,28.9671 L24.6696,28.93771 C24.6795,28.9146 24.69037,28.89302 24.69842,28.87088 L24.69914,28.86831 C25.008403,28.1051617 25.0811975,27.2666875 24.90808,26.46166 L24.90724,26.46005 L24.90624,26.45828 L24.90536,26.45643 L24.90436,26.45474 L24.90336,26.45296 L24.90236,26.45119 L24.90148,26.44942 L24.90048,26.44765 L24.88526,26.38219 L24.88526,26.37776 L24.88426,26.37607 L24.88326,26.3743 L24.88237,26.37245 L24.88137,26.37068 L24.88037,26.36899 L24.87937,26.36721 L24.87856,26.36544 L24.87756,26.36359 L24.87656,26.3619 L24.87556,26.36013 L24.87467,26.35836 L24.87367,26.35658 L24.87267,26.35489 L24.86888,26.34797 C24.86088,26.31657 24.85471,26.2842 24.84473,26.25368 C24.84542,26.2354 24.84091,26.20247 24.839,26.16527 Z M12.279,19.74753 C12.64374,19.65389 14.15158,19.27514 14.64893,19.14591 C15.372335,18.9467447 16.14259,19.0065534 16.82658,19.315 L16.84703,19.32409 L16.84703,19.32409 L16.85597,19.32828 L16.86853,19.33488 L16.87473,19.33818 L16.88737,19.34487 L16.89357,19.34817 L16.90621,19.35485 L16.91241,19.35823 L16.92497,19.36484 L16.93125,19.36822 L16.94381,19.37482 L16.95001,19.3782 L16.96265,19.3848 L16.96885,19.38819 L16.98141,19.39479 L16.9877,19.39817 L17.00026,19.40469 L17.00646,19.40816 L17.0191,19.41476 L17.0253,19.41814 L17.03609,19.42571 L17.04237,19.42909 L17.05316,19.43666 L17.05944,19.43996 L17.07023,19.44761 L17.07651,19.45091 L17.08641,19.45679 L17.09261,19.46009 L17.10251,19.46597 L17.10879,19.46927 L17.11869,19.47514 L17.12498,19.47853 L17.13488,19.48432 L17.14108,19.48771 L17.15108,19.4935 L17.15551,19.49777 L17.16541,19.50357 L17.16903,19.50615 L17.17886,19.51202 L17.18248,19.51452 L17.19239,19.5204 L17.19593,19.52297 L17.20583,19.52877 L17.20953,19.53135 L17.21759,19.53819 L17.22113,19.54069 L17.23103,19.54657 L17.24456,19.55457 C17.25438,19.56045 17.2634,19.56906 17.27322,19.57486 L17.27322,19.57486 C17.5845167,19.8098986 17.8132518,20.1376083 17.92653,20.51086 L17.92653,20.51086 L17.92935,20.5161 L17.9391,20.54661 L17.9401,20.5483 L17.94566,20.55877 C17.9496,20.57487 17.95443,20.58752 17.95846,20.60322 C17.9626777,20.6190298 17.9653733,20.6352068 17.96651,20.65153 L17.97215,20.662 L17.97315,20.66377 C17.9746582,20.6745303 17.9773616,20.6850889 17.98121,20.69525 L17.98402,20.7004 L17.98402,20.7004 C18.0639126,21.0819255 18.0212786,21.4789369 17.8622,21.8348 L17.8622,21.8348 L17.84827,21.86701 L17.84086,21.88222 L17.83499,21.89205 L17.83346,21.89728 L17.82927,21.90622 L17.82766,21.91161 L17.82186,21.92135 L17.82025,21.92667 L17.81446,21.93649 L17.81285,21.94189 L17.80697,21.95171 L17.80544,21.9571 L17.79964,21.96685 L17.79795,21.97216 L17.79223,21.9819 L17.79062,21.9873 L17.78475,21.99704 L17.78145,22.0034 L17.77557,22.01322 L17.77227,22.0195 L17.76639,22.02933 L17.76309,22.03569 L17.75721,22.04559 L17.75383,22.05187 L17.74627,22.06258 L17.74297,22.06886 L17.73491,22.07965 L17.73153,22.08593 L17.72396,22.09664 L17.72058,22.103 L17.71301,22.11371 L17.70963,22.12007 L17.70158,22.13077 L17.69828,22.13714 L17.69071,22.14784 L17.68733,22.15412 L17.67976,22.16491 L17.67638,22.17111 L17.66882,22.1819 L17.66552,22.18818 L17.656,22.2 L17.65261,22.20628 L17.64336,22.21803 L17.64,22.2243 L17.63075,22.23606 L17.62745,22.24234 L17.61819,22.2541 L17.61134,22.2621 L17.61134,22.2621 L17.5987,22.28005 C17.1480562,22.8805752 16.501423,23.304416 15.77097,23.47805 C15.27274,23.60567 13.76897,24.00005 13.40419,24.09376 L12.279,19.74753 Z M20.63469,27.10272 L20.64017,27.11311 L20.64117,27.11488 L20.64834,27.14894 L20.64834,27.14894 L20.64934,27.15071 L20.64934,27.15071 L20.65034,27.15248 L20.65134,27.15434 L20.65234,27.15603 L20.65234,27.15603 C20.7367516,27.5769145 20.6761616,28.0139801 20.48044,28.39603 L20.48044,28.39603 L20.46128,28.43082 L20.4521,28.44692 L20.44557,28.45948 L20.44211,28.46576 L20.43632,28.47566 L20.43293,28.48194 L20.42714,28.49185 L20.42376,28.49805 L20.4157,28.50892 L20.4124,28.51512 L20.40484,28.52591 L20.40146,28.53219 L20.39389,28.54289 L20.39051,28.54926 L20.38294,28.55996 L20.37964,28.56633 L20.37159,28.57703 L20.36829,28.58331 L20.36064,28.5941 L20.35726,28.60038 L20.34969,28.61109 L20.34631,28.61737 L20.33825,28.62816 L20.33495,28.63444 L20.32739,28.64523 L20.32401,28.65151 L20.31475,28.66327 L20.31145,28.66955 L20.30211,28.6813 L20.29873,28.6875 L20.29067,28.70095 L20.28729,28.70731 L20.27924,28.72068 L20.27594,28.72696 L20.26789,28.7404 L20.26282,28.74757 L20.25476,28.76093 L20.24969,28.7681 L20.23955,28.78251 L20.23448,28.78967 L20.22433,28.80408 L20.21933,28.81125 L20.20918,28.82558 L20.20411,28.83275 L20.19396,28.84716 L20.18896,28.85432 L20.17873,28.86873 L20.17073,28.87773 L20.17073,28.87773 L20.15463,28.89746 C19.5927796,29.5726274 18.8266846,30.0468649 17.97182,30.24869 C17.38204,30.40103 15.59989,30.86714 15.16622,30.97785 L13.95292,26.25685 C14.38569,26.14412 16.17284,25.69585 16.76292,25.54355 C17.6090396,25.3085844 18.5085611,25.3545536 19.32632,25.67455 L19.34943,25.68455 L19.34943,25.68455 L19.36111,25.68947 L19.37785,25.69607 L19.38591,25.6984 L19.40112,25.70581 L19.40918,25.70823 L19.42431,25.71564 L19.43236,25.71797 L19.44758,25.72546 L19.45386,25.72876 L19.46908,25.73624 L19.47536,25.73954 L19.4905,25.74695 L19.49678,25.75041 L19.51199,25.75774 L19.51819,25.76112 L19.53083,25.76772 L19.53703,25.77111 L19.54968,25.77771 L19.55588,25.78109 L19.56844,25.78769 L19.57464,25.79107 L19.58728,25.79768 L19.59348,25.80106 L19.60612,25.80766 L19.61232,25.81104 L19.62488,25.81764 L19.63116,25.82102 L19.64372,25.82763 L19.64992,25.83101 L19.66256,25.83761 L19.66876,25.84099 L19.68132,25.84759 L19.6876,25.85089 L19.69831,25.85854 L19.70459,25.86184 L19.71538,25.86984 L19.72166,25.87314 L19.73245,25.88079 L19.73873,25.88409 L19.74952,25.89215 L19.7558,25.89553 L19.76659,25.90301 L19.77279,25.90648 L19.78262,25.91227 L19.7889,25.91565 L19.79969,25.92322 L19.8141,25.93337 C19.82489,25.94093 19.83737,25.94762 19.84816,25.95519 L19.84816,25.95519 C20.2033106,26.1959554 20.4667847,26.549562 20.59591,26.95874 L20.59591,26.95874 L20.59962,26.96559 L20.61017,26.99779 L20.61117,26.99957 L20.61681,27.00995 L20.62961,27.05867 C20.63766,27.06044 20.63871,27.07967 20.63597,27.1036 L20.63469,27.10272 Z" id="Shape"></path>
        </g>
    </g>
</svg>