<?xml version="1.0" encoding="UTF-8"?>
<svg width="375px" height="102px" viewBox="0 0 375 102" version="1.1" xmlns="http://www.w3.org/2000/svg" xmlns:xlink="http://www.w3.org/1999/xlink">
    <!-- Generator: Sketch 51 (57462) - http://www.bohemiancoding.com/sketch -->
    <title>Artboard</title>
    <desc>Created with Sketch.</desc>
    <defs></defs>
    <g id="Artboard" stroke="none" stroke-width="1" fill="none" fill-rule="evenodd">
        <rect fill="#1A3A8B" x="0" y="0" width="375" height="102"></rect>
        <g id="bitpay-logo-white.d8eadc2c-2" transform="translate(117.000000, 27.000000)" fill="#FFFFFF" fill-rule="nonzero">
            <path d="M141.176471,11.3222591 L133.874239,11.3222591 L129.655172,28.8637874 L129.006085,31.255814 C128.51927,31.4152824 128.194726,31.4152824 127.707911,31.5747508 C126.896552,31.7342193 126.247465,31.7342193 125.436105,31.7342193 C124.462475,31.7342193 123.813387,31.5747508 123.1643,31.255814 C122.677485,30.9368771 122.190669,30.6179402 122.028398,30.1395349 C121.866126,29.6611296 121.703854,29.0232558 121.703854,28.3853821 C121.703854,27.7475083 121.866126,26.9501661 122.028398,26.3122924 L124.300203,17.2225914 L125.760649,11.1627907 L118.296146,11.1627907 L114.888438,25.1960133 C114.401623,26.9501661 114.239351,28.5448505 114.239351,29.9800664 C114.239351,31.5747508 114.401623,32.8504983 114.888438,33.9667774 C115.375254,35.0830565 116.348884,36.0398671 117.647059,36.6777409 C118.945233,37.3156146 120.730223,37.6345515 123.002028,37.6345515 C124.624746,37.6345515 126.085193,37.4750831 127.221095,37.1561462 L127.383367,37.1561462 C127.058824,38.5913621 126.409736,39.7076412 125.273834,40.6644518 C124.137931,41.6212625 122.677485,42.0996678 120.567951,42.0996678 C119.756592,42.0996678 118.782961,42.0996678 118.133874,41.9401993 L116.673428,47.8405316 C117.647059,48 118.782961,48 119.918864,48 C122.190669,48 124.137931,47.6810631 125.760649,47.2026578 C127.383367,46.7242525 128.843813,45.9269103 130.141988,44.9700997 C131.27789,44.013289 132.413793,42.7375415 133.225152,41.1428571 C134.036511,39.5481728 134.685598,37.7940199 135.172414,35.7209302 L140.20284,14.8305648 L141.176471,11.3222591 Z M110.507099,26.3122924 C110.020284,28.0664452 109.858012,29.9800664 110.020284,31.8936877 C110.182556,33.807309 110.993915,36.5182724 111.643002,37.9534884 L104.503043,37.9534884 C103.691684,36.5182724 103.691684,35.8803987 103.529412,35.4019934 C102.555781,36.1993355 101.58215,36.6777409 100.446247,37.1561462 C99.3103448,37.6345515 98.1744422,37.9534884 96.7139959,37.9534884 C95.0912779,37.9534884 93.6308316,37.6345515 92.494929,37.1561462 C91.3590264,36.6777409 90.3853955,35.8803987 89.5740365,34.923588 C88.7626775,33.9667774 88.2758621,32.8504983 87.9513185,31.5747508 C87.6267748,30.2990033 87.464503,29.0232558 87.464503,27.4285714 C87.464503,25.1960133 87.9513185,23.1229236 88.6004057,21.2093023 C89.4117647,19.2956811 90.5476673,17.5415282 92.0081136,16.1063123 C93.4685598,14.6710963 96.8762677,11.3222591 102.555781,11.3222591 L113.914807,11.3222591 L110.507099,26.3122924 Z M105.314402,17.3820598 C101.906694,17.3820598 101.257606,17.3820598 99.7971602,18.0199336 C98.8235294,18.4983389 98.0121704,19.2956811 97.2008114,20.2524917 C96.5517241,21.0498339 95.9026369,22.166113 95.4158215,23.282392 C94.9290061,24.3986711 94.7667343,25.6744186 94.7667343,26.9501661 C94.7667343,28.5448505 95.0912779,29.6611296 95.5780933,30.6179402 C96.0649087,31.5747508 97.0385396,31.8936877 98.4989858,31.8936877 C99.3103448,31.8936877 99.959432,31.7342193 100.608519,31.4152824 C101.257606,31.0963455 101.906694,30.6179402 102.555781,29.9800664 C102.555781,29.1827243 102.718053,28.3853821 102.880325,27.4285714 C103.042596,26.4717608 103.204868,25.6744186 103.36714,25.0365449 L105.314402,17.3820598 Z M85.6795132,21.8471761 C85.6795132,24.2392027 85.1926978,26.3122924 84.5436105,28.3853821 C83.7322515,30.2990033 82.5963489,32.0531561 81.2981744,33.4883721 C79.8377282,34.923588 78.2150101,36.0398671 76.2677485,36.8372093 C74.3204868,37.6345515 72.2109533,38.1129568 69.9391481,38.1129568 C68.8032454,38.1129568 67.6673428,37.9534884 66.5314402,37.7940199 L64.2596349,46.5647841 L56.9574037,46.5647841 L65.3955375,11.4817276 L75.1318458,11.4817276 C76.9168357,11.4817276 78.5395538,11.8006645 79.8377282,12.2790698 C81.1359026,12.7574751 82.2718053,13.5548173 83.0831643,14.5116279 C83.8945233,15.4684385 84.5436105,16.5847176 85.030426,17.8604651 C85.5172414,18.9767442 85.6795132,20.4119601 85.6795132,21.8471761 Z M67.6673428,31.7342193 C68.1541582,31.8936877 68.9655172,31.8936877 69.7768763,31.8936877 C71.0750507,31.8936877 72.2109533,31.7342193 73.346856,31.255814 C74.3204868,30.7774086 75.2941176,30.1395349 76.1054767,29.3421927 C76.9168357,28.5448505 77.4036511,27.4285714 77.8904665,26.3122924 C78.3772819,25.1960133 78.5395538,23.7607973 78.5395538,22.3255814 C78.5395538,20.8903654 78.2150101,19.7740864 77.5659229,18.8172757 C76.9168357,17.8604651 75.7809331,17.3820598 74.3204868,17.3820598 L71.3995943,17.3820598 L67.6673428,31.7342193 Z M52.4137931,31.7342193 C51.4401623,31.7342193 50.7910751,31.5747508 50.1419878,31.255814 C49.6551724,30.9368771 49.168357,30.6179402 49.0060852,30.1395349 C48.8438134,29.6611296 48.6815416,29.0232558 48.6815416,28.3853821 C48.6815416,27.7475083 48.8438134,26.9501661 49.0060852,26.3122924 L51.2778905,17.2225914 L59.5537525,17.2225914 L61.0141988,11.1627907 L52.5760649,11.1627907 L54.5233266,3.50830565 L46.7342799,4.78405316 L41.8661258,25.3554817 C41.3793103,27.1096346 41.2170385,28.7043189 41.2170385,30.1395349 C41.2170385,31.7342193 41.3793103,33.0099668 41.8661258,34.1262458 C42.3529412,35.2425249 43.326572,36.1993355 44.6247465,36.8372093 C45.9229209,37.4750831 47.7079108,37.7940199 49.979716,37.7940199 C51.6024341,37.7940199 53.0628803,37.6345515 54.198783,37.3156146 C54.3610548,37.3156146 54.5233266,37.3156146 54.6855984,37.1561462 L56.1460446,30.9368771 C55.6592292,31.0963455 55.1724138,31.255814 54.6855984,31.255814 C53.8742394,31.7342193 53.2251521,31.7342193 52.4137931,31.7342193 Z M33.7525355,11.3222591 L27.2616633,37.9534884 L34.5638945,37.9534884 L41.0547667,11.3222591 L33.7525355,11.3222591 Z M41.703854,8.13289037 L42.8397566,3.50830565 L35.5375254,3.50830565 L34.4016227,8.13289037 L41.703854,8.13289037 Z M17.525355,11.3222591 C19.148073,11.3222591 20.4462475,11.641196 21.5821501,12.1196013 C22.7180527,12.5980066 23.6916836,13.3953488 24.5030426,14.3521595 C25.3144016,15.3089701 25.801217,16.4252492 26.1257606,17.7009967 C26.4503043,18.9767442 26.6125761,20.2524917 26.6125761,21.6877076 C26.6125761,23.9202658 26.1257606,25.9933555 25.3144016,28.0664452 C24.5030426,29.9800664 23.36714,31.7342193 21.9066937,33.3289037 C20.4462475,34.923588 18.8235294,35.8803987 16.7139959,36.8372093 C14.7667343,37.6345515 12.6572008,38.1129568 10.3853955,38.1129568 L8.76267748,38.1129568 C7.95131846,38.1129568 7.13995943,38.1129568 6.1663286,37.9534884 C5.19269777,37.7940199 4.21906694,37.6345515 3.0831643,37.3156146 C1.94726166,36.9966777 0.973630832,36.6777409 0,36.1993355 L8.43813387,1.11627907 L16.0649087,0 L12.9817444,12.4385382 C13.6308316,12.1196013 14.2799189,11.9601329 14.9290061,11.8006645 C16.0649087,11.3222591 16.7139959,11.3222591 17.525355,11.3222591 Z M11.0344828,32.0531561 C12.1703854,32.0531561 13.306288,31.7342193 14.2799189,31.255814 C15.2535497,30.7774086 16.2271805,29.9800664 16.8762677,29.0232558 C17.6876268,28.0664452 18.1744422,27.1096346 18.6612576,25.9933555 C19.148073,24.8770764 19.3103448,23.6013289 19.3103448,22.3255814 C19.3103448,20.730897 18.9858012,19.6146179 18.4989858,18.6578073 C18.0121704,17.8604651 16.8762677,17.3820598 15.4158215,17.3820598 C14.9290061,17.3820598 14.4421907,17.3820598 13.7931034,17.5415282 C12.9817444,17.7009967 12.494929,18.0199336 11.8458418,18.4983389 L8.60040568,31.7342193 C9.57403651,31.8936877 9.89858012,31.8936877 10.0608519,31.8936877 C10.3853955,32.0531561 10.7099391,32.0531561 11.0344828,32.0531561 Z" id="Shape"></path>
        </g>
    </g>
</svg>