<?xml version="1.0" encoding="UTF-8" standalone="no"?>
<!-- Created with Inkscape (http://www.inkscape.org/) -->

<svg
   xmlns:dc="http://purl.org/dc/elements/1.1/"
   xmlns:cc="http://creativecommons.org/ns#"
   xmlns:rdf="http://www.w3.org/1999/02/22-rdf-syntax-ns#"
   xmlns:svg="http://www.w3.org/2000/svg"
   xmlns="http://www.w3.org/2000/svg"
   xmlns:sodipodi="http://sodipodi.sourceforge.net/DTD/sodipodi-0.dtd"
   xmlns:inkscape="http://www.inkscape.org/namespaces/inkscape"
   width="1000"
   height="1000"
   viewBox="0 0 264.58333 264.58334"
   version="1.1"
   id="svg8"
   inkscape:version="0.92.1 r15371"
   sodipodi:docname="chart.svg">
  <defs
     id="defs2" />
  <sodipodi:namedview
     id="base"
     pagecolor="#ffffff"
     bordercolor="#494949"
     borderopacity="1.0"
     inkscape:pageopacity="0.0"
     inkscape:pageshadow="2"
     inkscape:zoom="0.83599997"
     inkscape:cx="500.00002"
     inkscape:cy="499.99999"
     inkscape:document-units="mm"
     inkscape:current-layer="layer1"
     showgrid="false"
     units="px"
     inkscape:window-width="1920"
     inkscape:window-height="1017"
     inkscape:window-x="-8"
     inkscape:window-y="-8"
     inkscape:window-maximized="1"
     inkscape:snap-to-guides="false" />
  <metadata
     id="metadata5">
    <rdf:RDF>
      <cc:Work
         rdf:about="">
        <dc:format>image/svg+xml</dc:format>
        <dc:type
           rdf:resource="http://purl.org/dc/dcmitype/StillImage" />
        <dc:title></dc:title>
      </cc:Work>
    </rdf:RDF>
  </metadata>
  <g
     inkscape:label="Layer 1"
     inkscape:groupmode="layer"
     id="layer1"
     transform="translate(0,-32.41665)">
    <rect
       id="rect14"
       width="264.58334"
       height="264.58334"
       x="0"
       y="32.416649"
       style="stroke-width:0.24498457"
       ry="9.0714283"
       rx="7.5595236" />
    <g
       id="g4643"
       transform="translate(0.055194,1.8411461)">
      <path
         sodipodi:nodetypes="cccccccc"
         inkscape:connector-curvature="0"
         id="path18"
         d="m 26.458333,261.23929 32.505951,-65.46132 32.505953,41.57738 19.654763,-46.86904 18.14286,15.875 32.50595,-65.3143 29.48215,41.87977 46.76505,-118.462089"
         style="fill:none;stroke:#fab915;stroke-width:11.66499996;stroke-linecap:round;stroke-linejoin:round;stroke-miterlimit:4;stroke-dasharray:none;stroke-opacity:1" />
      <path
         sodipodi:nodetypes="cc"
         inkscape:connector-curvature="0"
         id="path4498"
         d="M 26.458333,266.08154 H 242.66071"
         style="fill:none;stroke:#fab915;stroke-width:2.16499996;stroke-linecap:round;stroke-linejoin:miter;stroke-miterlimit:4;stroke-dasharray:none;stroke-opacity:1" />
      <path
         sodipodi:nodetypes="cc"
         inkscape:connector-curvature="0"
         id="path4498-9"
         d="M 43.618453,227.52797 H 243.41667"
         style="fill:none;stroke:#fab915;stroke-width:2.16499996;stroke-linecap:butt;stroke-linejoin:miter;stroke-miterlimit:4;stroke-dasharray:none;stroke-opacity:1" />
      <path
         sodipodi:nodetypes="cc"
         inkscape:connector-curvature="0"
         id="path4498-3"
         d="M 135.92024,189.73035 H 243.06901"
         style="fill:none;stroke:#fab915;stroke-width:2.16499996;stroke-linecap:butt;stroke-linejoin:miter;stroke-miterlimit:4;stroke-dasharray:none;stroke-opacity:1" />
      <path
         sodipodi:nodetypes="cc"
         inkscape:connector-curvature="0"
         id="path4498-98"
         d="m 201.08333,149.66487 h 41.57739"
         style="fill:none;stroke:#fab915;stroke-width:2.16499996;stroke-linecap:butt;stroke-linejoin:miter;stroke-miterlimit:4;stroke-dasharray:none;stroke-opacity:1" />
      <path
         sodipodi:nodetypes="cc"
         inkscape:connector-curvature="0"
         id="path4498-5"
         d="m 216.95833,112.24524 h 25.70238"
         style="fill:none;stroke:#fab915;stroke-width:2.16499996;stroke-linecap:butt;stroke-linejoin:miter;stroke-miterlimit:4;stroke-dasharray:none;stroke-opacity:1" />
      <path
         sodipodi:nodetypes="cc"
         inkscape:connector-curvature="0"
         id="path4498-7"
         d="M 242.66071,63.637484 V 266.08154"
         style="fill:none;stroke:#fab915;stroke-width:2.16499996;stroke-linecap:round;stroke-linejoin:miter;stroke-miterlimit:4;stroke-dasharray:none;stroke-opacity:1" />
      <path
         sodipodi:nodetypes="cc"
         inkscape:connector-curvature="0"
         id="path4498-7-8"
         d="M 203.12441,156.69523 V 266.00595"
         style="fill:none;stroke:#fab915;stroke-width:2.16499996;stroke-linecap:butt;stroke-linejoin:miter;stroke-miterlimit:4;stroke-dasharray:none;stroke-opacity:1" />
      <path
         sodipodi:nodetypes="cc"
         inkscape:connector-curvature="0"
         id="path4498-7-8-6"
         d="M 161.24464,141.04701 V 266.7619"
         style="fill:none;stroke:#fab915;stroke-width:2.16499996;stroke-linecap:butt;stroke-linejoin:miter;stroke-miterlimit:4;stroke-dasharray:none;stroke-opacity:1" />
      <path
         sodipodi:nodetypes="cc"
         inkscape:connector-curvature="0"
         id="path4498-7-8-6-9"
         d="m 118.68453,196.38272 v 69.62323"
         style="fill:none;stroke:#fab915;stroke-width:2.16499996;stroke-linecap:butt;stroke-linejoin:miter;stroke-miterlimit:4;stroke-dasharray:none;stroke-opacity:1" />
      <path
         sodipodi:nodetypes="cc"
         inkscape:connector-curvature="0"
         id="path4498-7-8-6-6"
         d="m 76.35119,217.54939 v 48.45656"
         style="fill:none;stroke:#fab915;stroke-width:2.16499996;stroke-linecap:butt;stroke-linejoin:miter;stroke-miterlimit:4;stroke-dasharray:none;stroke-opacity:1" />
    </g>
    <g
       id="g4630"
       transform="matrix(0.73998713,0,0,0.73998713,21.841499,24.62316)">
      <circle
         r="45.732407"
         cy="105.99992"
         cx="73.266808"
         id="path4626"
         style="fill:#fab915;fill-opacity:1;stroke:#fab915;stroke-width:2.16499996;stroke-linecap:round;stroke-linejoin:round;stroke-miterlimit:4;stroke-dasharray:none;stroke-opacity:1" />
      <path
         d="m 88.490422,104.66296 v -0.12733 q 3.11954,-1.52793 4.83848,-4.52015 1.7826,-2.992228 1.7826,-6.875739 0,-4.265505 -2.03725,-7.38505 -2.03725,-3.119544 -5.22047,-4.583817 -1.973585,-0.891301 -4.201833,-1.209621 -2.164582,-0.318322 -5.029469,-0.318322 h -1.973606 v -4.329166 q 0,-0.636642 -0.445641,-1.082299 -0.445641,-0.445643 -1.082284,-0.445643 h -4.456505 q -0.636641,0 -1.082284,0.445643 -0.445657,0.445657 -0.445657,1.082299 v 4.329166 h -4.965811 v -4.329166 q 0,-0.636642 -0.445645,-1.082299 -0.445656,-0.445643 -1.082298,-0.445643 h -4.329155 q -0.700317,0 -1.145961,0.445643 -0.381982,0.445657 -0.381982,1.082299 v 4.329166 h -4.583828 q -0.381983,0 -0.700303,0.318322 -0.254659,0.254645 -0.254659,0.700302 v 4.201833 q 0,0.445662 0.254659,0.763979 0.31832,0.254663 0.700303,0.254663 h 4.583828 v 40.49044 h -4.265507 q -0.509318,0 -0.891301,0.38198 -0.318321,0.31833 -0.318321,0.82764 v 3.69253 q 0,0.50931 0.318321,0.89131 0.381983,0.31831 0.891301,0.31831 h 4.265507 v 4.20183 q 0,0.70031 0.381982,1.08231 0.445644,0.44564 1.145961,0.44564 h 4.456491 q 0.636641,0 1.018624,-0.44564 0.445657,-0.382 0.445657,-1.08231 v -4.20183 h 5.029473 v 4.20183 q 0,0.70031 0.445644,1.08231 0.445657,0.44564 1.082299,0.44564 h 4.456489 q 0.636639,0 1.082287,-0.44564 0.445655,-0.382 0.445655,-1.08231 v -4.20183 h 2.928547 q 2.164589,0 4.074514,-0.12732 1.973598,-0.19099 3.819864,-0.8913 4.074504,-1.33696 6.939384,-5.02947 2.8649,-3.75619 2.8649,-9.104 -0.0636,-4.39283 -2.35558,-7.89436 -2.22825,-3.56519 -6.55742,-4.77481 z M 78.62248,85.882016 q 1.718926,0 2.992212,0.254658 1.336952,0.254657 2.419239,0.827637 1.718941,0.954963 2.610245,2.801228 0.891282,1.84626 0.891282,4.138163 0,3.5652 -2.164582,5.79345 -2.100909,2.228258 -5.666116,2.228258 H 64.234366 V 85.882016 Z m 5.984432,39.726474 q -1.082288,0.50931 -2.355581,0.63664 -1.273285,0.12732 -2.355573,0.12732 H 64.234366 v -18.33529 h 16.298039 q 4.201832,0 6.684737,2.4829 2.4829,2.41925 2.4829,6.49376 0,3.05589 -1.4006,5.34779 -1.336951,2.29192 -3.69253,3.24688 z"
         style="font-style:normal;font-variant:normal;font-weight:normal;font-stretch:normal;font-size:medium;line-height:125%;font-family:icomoon;-inkscape-font-specification:icomoon;letter-spacing:0px;word-spacing:0px;fill:#494949;fill-opacity:1;stroke:none;stroke-width:1.62980402px;stroke-linecap:butt;stroke-linejoin:miter;stroke-opacity:1"
         id="path4486"
         inkscape:connector-curvature="0" />
    </g>
  </g>
</svg>
