<?xml version="1.0" encoding="UTF-8" standalone="no"?>
<!-- Created with Inkscape (http://www.inkscape.org/) -->

<svg
   xmlns:dc="http://purl.org/dc/elements/1.1/"
   xmlns:cc="http://creativecommons.org/ns#"
   xmlns:rdf="http://www.w3.org/1999/02/22-rdf-syntax-ns#"
   xmlns:svg="http://www.w3.org/2000/svg"
   xmlns="http://www.w3.org/2000/svg"
   xmlns:sodipodi="http://sodipodi.sourceforge.net/DTD/sodipodi-0.dtd"
   xmlns:inkscape="http://www.inkscape.org/namespaces/inkscape"
   width="1000"
   height="1000"
   viewBox="0 0 264.58333 264.58334"
   version="1.1"
   id="svg8"
   inkscape:version="0.92.1 r15371"
   sodipodi:docname="chart.svg">
  <defs
     id="defs2" />
  <sodipodi:namedview
     id="base"
     pagecolor="#ffffff"
     bordercolor="#666666"
     borderopacity="1.0"
     inkscape:pageopacity="0.0"
     inkscape:pageshadow="2"
     inkscape:zoom="0.83599997"
     inkscape:cx="500.00002"
     inkscape:cy="499.99999"
     inkscape:document-units="mm"
     inkscape:current-layer="layer1"
     showgrid="false"
     units="px"
     inkscape:window-width="1920"
     inkscape:window-height="1017"
     inkscape:window-x="-8"
     inkscape:window-y="-8"
     inkscape:window-maximized="1"
     inkscape:snap-to-guides="false" />
  <metadata
     id="metadata5">
    <rdf:RDF>
      <cc:Work
         rdf:about="">
        <dc:format>image/svg+xml</dc:format>
        <dc:type
           rdf:resource="http://purl.org/dc/dcmitype/StillImage" />
        <dc:title />
      </cc:Work>
    </rdf:RDF>
  </metadata>
  <g
     inkscape:label="Layer 1"
     inkscape:groupmode="layer"
     id="layer1"
     transform="translate(0,-32.41665)">
    <g
       id="g4643"
       transform="translate(0.055194,1.8411461)">
      <path
         sodipodi:nodetypes="cccccccc"
         inkscape:connector-curvature="0"
         id="path18"
         d="m 26.458333,261.23929 32.505951,-65.46132 32.505953,41.57738 19.654763,-46.86904 18.14286,15.875 32.50595,-65.3143 29.48215,41.87977 46.76505,-118.462089"
         style="fill:none;stroke:#fab915;stroke-width:11.66499996;stroke-linecap:round;stroke-linejoin:round;stroke-miterlimit:4;stroke-dasharray:none;stroke-opacity:1" />
      <path
         sodipodi:nodetypes="cc"
         inkscape:connector-curvature="0"
         id="path4498"
         d="M 26.458333,266.08154 H 242.66071"
         style="fill:none;stroke:#fab915;stroke-width:2.16499996;stroke-linecap:round;stroke-linejoin:miter;stroke-miterlimit:4;stroke-dasharray:none;stroke-opacity:1" />
      <path
         sodipodi:nodetypes="cc"
         inkscape:connector-curvature="0"
         id="path4498-9"
         d="M 43.618453,227.52797 H 243.41667"
         style="fill:none;stroke:#fab915;stroke-width:2.16499996;stroke-linecap:butt;stroke-linejoin:miter;stroke-miterlimit:4;stroke-dasharray:none;stroke-opacity:1" />
      <path
         sodipodi:nodetypes="cc"
         inkscape:connector-curvature="0"
         id="path4498-3"
         d="M 135.92024,189.73035 H 243.06901"
         style="fill:none;stroke:#fab915;stroke-width:2.16499996;stroke-linecap:butt;stroke-linejoin:miter;stroke-miterlimit:4;stroke-dasharray:none;stroke-opacity:1" />
      <path
         sodipodi:nodetypes="cc"
         inkscape:connector-curvature="0"
         id="path4498-98"
         d="m 201.08333,149.66487 h 41.57739"
         style="fill:none;stroke:#fab915;stroke-width:2.16499996;stroke-linecap:butt;stroke-linejoin:miter;stroke-miterlimit:4;stroke-dasharray:none;stroke-opacity:1" />
      <path
         sodipodi:nodetypes="cc"
         inkscape:connector-curvature="0"
         id="path4498-5"
         d="m 216.95833,112.24524 h 25.70238"
         style="fill:none;stroke:#fab915;stroke-width:2.16499996;stroke-linecap:butt;stroke-linejoin:miter;stroke-miterlimit:4;stroke-dasharray:none;stroke-opacity:1" />
      <path
         sodipodi:nodetypes="cc"
         inkscape:connector-curvature="0"
         id="path4498-7"
         d="M 242.66071,63.637484 V 266.08154"
         style="fill:none;stroke:#fab915;stroke-width:2.16499996;stroke-linecap:round;stroke-linejoin:miter;stroke-miterlimit:4;stroke-dasharray:none;stroke-opacity:1" />
      <path
         sodipodi:nodetypes="cc"
         inkscape:connector-curvature="0"
         id="path4498-7-8"
         d="M 203.12441,156.69523 V 266.00595"
         style="fill:none;stroke:#fab915;stroke-width:2.16499996;stroke-linecap:butt;stroke-linejoin:miter;stroke-miterlimit:4;stroke-dasharray:none;stroke-opacity:1" />
      <path
         sodipodi:nodetypes="cc"
         inkscape:connector-curvature="0"
         id="path4498-7-8-6"
         d="M 161.24464,141.04701 V 266.7619"
         style="fill:none;stroke:#fab915;stroke-width:2.16499996;stroke-linecap:butt;stroke-linejoin:miter;stroke-miterlimit:4;stroke-dasharray:none;stroke-opacity:1" />
      <path
         sodipodi:nodetypes="cc"
         inkscape:connector-curvature="0"
         id="path4498-7-8-6-9"
         d="m 118.68453,196.38272 v 69.62323"
         style="fill:none;stroke:#fab915;stroke-width:2.16499996;stroke-linecap:butt;stroke-linejoin:miter;stroke-miterlimit:4;stroke-dasharray:none;stroke-opacity:1" />
      <path
         sodipodi:nodetypes="cc"
         inkscape:connector-curvature="0"
         id="path4498-7-8-6-6"
         d="m 76.35119,217.54939 v 48.45656"
         style="fill:none;stroke:#fab915;stroke-width:2.16499996;stroke-linecap:butt;stroke-linejoin:miter;stroke-miterlimit:4;stroke-dasharray:none;stroke-opacity:1" />
    </g>
    <path
       style="fill:#fab915;fill-opacity:1;stroke:#fab915;stroke-width:6.05507565;stroke-linecap:round;stroke-linejoin:round;stroke-miterlimit:4;stroke-dasharray:none;stroke-opacity:1"
       d="M 287.46289 139.09961 A 127.90448 127.90448 0 0 0 159.55859 267.00586 A 127.90448 127.90448 0 0 0 287.46289 394.91016 A 127.90448 127.90448 0 0 0 415.36719 267.00586 A 127.90448 127.90448 0 0 0 287.46289 139.09961 z M 245.64258 176.9082 L 257.75 176.9082 C 258.93704 176.9082 259.9464 177.32338 260.77734 178.1543 C 261.60826 178.98524 262.02344 179.9946 262.02344 181.18164 L 262.02344 193.28906 L 275.91211 193.28906 L 275.91211 181.18164 C 275.91211 179.9946 276.32726 178.98524 277.1582 178.1543 C 277.98912 177.32338 278.99851 176.9082 280.18555 176.9082 L 292.64844 176.9082 C 293.83548 176.9082 294.84487 177.32338 295.67578 178.1543 C 296.50669 178.98524 296.92188 179.9946 296.92188 181.18164 L 296.92188 193.28906 L 302.44141 193.28906 C 307.78309 193.28906 312.47187 193.58617 316.50781 194.17969 C 320.66246 194.77321 324.57995 195.90064 328.25977 197.5625 C 334.19499 200.29269 339.0628 204.56631 342.86133 210.38281 C 346.65985 216.19931 348.55859 223.08393 348.55859 231.03711 C 348.55859 238.27805 346.89598 244.68847 343.57227 250.26758 C 340.36724 255.84667 335.85751 260.06127 330.04102 262.91016 L 330.04102 263.26562 C 338.1129 265.521 344.22621 269.97366 348.38086 276.62109 C 352.65434 283.1498 354.85017 290.50863 354.96875 298.69922 C 354.96875 308.67039 352.29678 317.15857 346.95508 324.16211 C 341.61341 331.04692 335.14588 335.73569 327.54883 338.22852 C 324.1064 339.53427 320.54508 340.3646 316.86523 340.7207 C 313.30411 340.95806 309.5047 341.07617 305.46875 341.07617 L 297.2793 341.07617 L 297.2793 352.82812 C 297.2793 354.13388 296.86219 355.1432 296.03125 355.85547 C 295.20032 356.68639 294.1929 357.10156 293.00586 357.10156 L 280.54102 357.10156 C 279.35397 357.10156 278.34462 356.68639 277.51367 355.85547 C 276.68275 355.1432 276.26758 354.13388 276.26758 352.82812 L 276.26758 341.07617 L 262.20117 341.07617 L 262.20117 352.82812 C 262.20117 354.13388 261.78602 355.1432 260.95508 355.85547 C 260.24286 356.68639 259.29251 357.10156 258.10547 357.10156 L 245.64258 357.10156 C 244.33681 357.10156 243.26842 356.68639 242.4375 355.85547 C 241.72528 355.1432 241.36914 354.13388 241.36914 352.82812 L 241.36914 341.07617 L 229.43945 341.07617 C 228.48981 341.07617 227.65753 340.77903 226.94531 340.18555 C 226.35179 339.47328 226.05664 338.64298 226.05664 337.69336 L 226.05664 327.36523 C 226.05664 326.41562 226.35179 325.64432 226.94531 325.05078 C 227.65753 324.33857 228.48981 323.98242 229.43945 323.98242 L 241.36914 323.98242 L 241.36914 210.74023 L 228.54883 210.74023 C 227.83661 210.74023 227.18336 210.50217 226.58984 210.02734 C 226.11502 209.43383 225.87695 208.72158 225.87695 207.89062 L 225.87695 196.13867 C 225.87695 195.30773 226.11502 194.65448 226.58984 194.17969 C 227.18336 193.58617 227.83661 193.28906 228.54883 193.28906 L 241.36914 193.28906 L 241.36914 181.18164 C 241.36914 179.9946 241.72528 178.98524 242.4375 178.1543 C 243.26842 177.32338 244.33681 176.9082 245.64258 176.9082 z M 262.20117 210.74023 L 262.20117 255.60938 L 305.46875 255.60938 C 312.1162 255.60937 317.39919 253.53161 321.31641 249.37695 C 325.35234 245.2223 327.36914 239.82127 327.36914 233.17383 C 327.36914 228.9005 326.53878 225.04398 324.87695 221.60156 C 323.21509 218.15914 320.7812 215.54619 317.57617 213.76562 C 315.55821 212.69728 313.30334 211.92599 310.81055 211.45117 C 308.43646 210.97635 305.6464 210.74023 302.44141 210.74023 L 262.20117 210.74023 z M 262.20117 272.70312 L 262.20117 323.98242 L 306.00391 323.98242 C 308.02187 323.98242 310.21771 323.86431 312.5918 323.62695 C 314.9659 323.38955 317.16172 322.79532 319.17969 321.8457 C 323.57175 320.06514 327.01307 317.03899 329.50586 312.76562 C 332.11733 308.49229 333.42383 303.50641 333.42383 297.80859 C 333.42383 290.21154 331.10992 284.15727 326.48047 279.64648 C 321.85101 275.01704 315.61766 272.70312 307.7832 272.70312 L 262.20117 272.70312 z "
       transform="matrix(0.26458333,0,0,0.26458333,0,32.41665)"
       id="path4626" />
  </g>
</svg>
