<?xml version="1.0" encoding="utf-8"?>
<!-- Generator: Adobe Illustrator 21.1.0, SVG Export Plug-In . SVG Version: 6.00 Build 0)  -->
<svg version="1.1" id="Capa_1" xmlns="http://www.w3.org/2000/svg" xmlns:xlink="http://www.w3.org/1999/xlink" x="0px" y="0px"
	 viewBox="0 0 512 512" style="enable-background:new 0 0 512 512;" xml:space="preserve">
<g>
	<g>
		<g>
			<path d="M304.1,32c44.8,0,48,26.9,48,32v393.4l-84.6-84.6l-22.7,22.6l112,112c6.2,6.2,16.3,6.2,22.6,0l112-112l-22.6-22.6
				l-84.6,84.6V64c0-22.1-16-64-80-64l-48,0v32H304.1z"/>
			<path d="M208.1,480c-44.8,0-48-26.9-48-32V54.6l84.6,84.6l22.6-22.6l-112-112c-6.2-6.2-16.3-6.2-22.6,0l-112,112l22.7,22.7
				l84.6-84.8V448c0,22.1,16,64,80,64h48v-32H208.1z"/>
		</g>
	</g>
</g>
</svg>