<svg id="Capa_1" data-name="Capa 1" xmlns="http://www.w3.org/2000/svg" viewBox="0 0 300 242.73"><title>icon-reddit-white</title><polygon points="69.23 153.18 69.23 153.21 85.17 153.21 69.23 153.18" style="fill:#fab915"/><polygon points="228.54 153.18 228.54 153.21 244.47 153.21 228.54 153.18" style="fill:#fab915"/><path d="M350,190.7a37.37,37.37,0,0,0-37.35-37.34,36.67,36.67,0,0,0-22.43,7.53C269.36,146.45,242,137.83,213,135.64l15.7-36.77,45.52,10.68a28.05,28.05,0,1,0,4.41-18.17L225.34,78.93a9.3,9.3,0,0,0-10.71,5.44L193,135.11c-31.34,1.11-61.2,9.9-83.75,25.28a36.67,36.67,0,0,0-21.92-7A37.26,37.26,0,0,0,68.86,223c-.16,1.62-.19,3.24-.19,5,0,51.53,58.6,93.39,130.67,93.39S330,279.53,330,228c0-1.47-.06-2.93-.06-4.37A37,37,0,0,0,350,190.7ZM302.07,97.33a9.34,9.34,0,1,1-9.34,9.31A9.27,9.27,0,0,1,302.07,97.33ZM134,218.62a18.68,18.68,0,1,1,18.66,18.75A18.66,18.66,0,0,1,134,218.62Zm108.42,62a73.58,73.58,0,0,1-86.16,0,9.32,9.32,0,1,1,10.91-15.12,54.77,54.77,0,0,0,64.31,0,9.46,9.46,0,0,1,13.06,2.06A9.32,9.32,0,0,1,242.43,280.61Zm3.6-43.24a18.69,18.69,0,1,1,18.61-18.75A18.68,18.68,0,0,1,246,237.37Z" transform="translate(-50 -78.65)" style="fill:#fff"/></svg>