<?xml version="1.0" encoding="UTF-8"?>
<svg width="54px" height="44px" viewBox="0 0 54 44" version="1.1" xmlns="http://www.w3.org/2000/svg" xmlns:xlink="http://www.w3.org/1999/xlink">
    <!-- Generator: Sketch 55 (78076) - https://sketchapp.com -->
    <title>news</title>
    <desc>Created with Sketch.</desc>
    <defs>
        <linearGradient x1="50%" y1="100%" x2="50%" y2="3.061617e-15%" id="linearGradient-1">
            <stop stop-color="#F5F2F2" offset="0%"></stop>
            <stop stop-color="#F5F5F5" offset="100%"></stop>
        </linearGradient>
    </defs>
    <g id="Page-1" stroke="none" stroke-width="1" fill="none" fill-rule="evenodd">
        <g id="Wallet-Icons" transform="translate(-430.000000, -243.000000)" fill="#FFFFFF" fill-rule="nonzero">
            <g id="news" transform="translate(430.000000, 243.000000)">
                <path d="M6.75,44 L3,44 C1.34314575,44 2.02906125e-16,42.6568542 0,41 L0,7.39012536 L6.75,7.39012536 L6.75,0 L54,0 L54,38.8837209 C54,41.7093638 51.7191865,44 48.9056604,44 L6.75,44 Z M9.80660377,3.06976744 L9.80660377,40.9302326 L48.9056604,40.9302326 C50.0310708,40.9302326 50.9433962,40.0139781 50.9433962,38.8837209 L50.9433962,3.06976744 L9.80660377,3.06976744 Z" id="Combined-Shape"></path>
                <g id="Group" transform="translate(12.909668, 9.000000)">
                    <rect id="Rectangle" x="0.0903320312" y="7" width="18" height="13"></rect>
                    <rect id="Rectangle-Copy" x="0.0903320312" y="0" width="33" height="4"></rect>
                    <rect id="Rectangle-Copy-9" x="0.0903320312" y="23" width="33" height="3"></rect>
                    <rect id="Rectangle-Copy-2" x="20.090332" y="7" width="13" height="3"></rect>
                    <rect id="Rectangle-Copy-7" x="20.090332" y="12" width="13" height="3"></rect>
                    <rect id="Rectangle-Copy-8" x="20.090332" y="17" width="13" height="3"></rect>
                </g>
            </g>
        </g>
    </g>
</svg>