<?xml version="1.0" encoding="UTF-8"?>
<svg width="32px" height="32px" viewBox="0 0 32 32" version="1.1" xmlns="http://www.w3.org/2000/svg" xmlns:xlink="http://www.w3.org/1999/xlink">
    <!-- Generator: Sketch 55.1 (78136) - https://sketchapp.com -->
    <title>BTC</title>
    <desc>Created with Sketch.</desc>
    <g id="Page-1" stroke="none" stroke-width="1" fill="none" fill-rule="evenodd">
        <g id="BTC">
            <circle id="Oval" fill-opacity="0.01" fill="#FFFFFF" cx="16" cy="16" r="16"></circle>
            <path d="M20.4690116,11.0823347 C19.7963017,9.30246202 18.1093253,9.14180414 16.1449429,9.53893597 L15.4453591,7 L13.9612361,7.44316301 L14.642615,9.9162112 C14.2525126,10.0317405 13.855475,10.1599057 13.4610381,10.2862659 L12.7761916,7.79697137 L11.2929354,8.23923181 L11.9907853,10.7781678 C11.6717682,10.881061 11.3579525,10.9821491 11.050205,11.0742115 L11.0476043,11.0651858 L9,11.6762272 L9.45511951,13.3279346 C9.45511951,13.3279346 10.5456725,12.9777365 10.5326691,13.0048137 C11.1342938,12.8252018 11.4299047,13.1302713 11.5729423,13.4272176 L12.3704851,16.3190593 C12.4112291,16.3073259 12.4658434,16.2928847 12.5299936,16.2829564 L12.3730857,16.3298902 L13.4887787,20.38244 C13.5165193,20.5873239 13.4922463,20.9348142 13.0726694,21.0611743 C13.0960756,21.0729078 11.9925191,21.3824901 11.9925191,21.3824901 L12.206642,23.3167026 L14.1380825,22.7390563 C14.4978437,22.6334553 14.8532703,22.5341724 15.200895,22.4321817 L15.9091476,25 L17.3915369,24.5577396 L16.6919532,22.0169984 C17.0895902,21.9071456 17.4860731,21.7928131 17.8813321,21.674021 L18.5765814,24.2039312 L20.0615713,23.7607682 L19.3559194,21.1974628 C21.8100971,20.3030136 23.3765751,19.1269618 22.9214556,16.621421 C22.5556262,14.6050745 21.4269298,13.9931304 19.9124655,14.0617259 C20.6475919,13.3486938 20.9640083,12.3847465 20.4690116,11.0832372 L20.4690116,11.0823347 Z M19.9055303,17.1927493 C20.4343359,19.1125207 17.218158,19.8363837 16.2125606,20.1378429 L15.2754479,16.7351452 C16.2810453,16.4345886 19.3533187,15.1917465 19.9046634,17.1936519 L19.9055303,17.1927493 Z M17.8926018,12.5986562 C18.3728612,14.3451336 15.684622,14.9272928 14.8463352,15.1773053 L13.9967788,12.0914105 C14.8341987,11.841398 17.39067,10.7781678 17.8926018,12.5995587 L17.8926018,12.5986562 Z" id="Shape" fill="#FBFCFF" fill-rule="nonzero" transform="translate(16.000000, 16.000000) rotate(37.000000) translate(-16.000000, -16.000000) "></path>
        </g>
    </g>
</svg>