<svg id="Capa_1" data-name="Capa 1" xmlns="http://www.w3.org/2000/svg" viewBox="0 0 300 243.69"><title>icon-twitter-white</title><path d="M350,107a122.92,122.92,0,0,1-35.34,9.69,61.78,61.78,0,0,0,27-34,124.13,124.13,0,0,1-39.1,14.94,61.6,61.6,0,0,0-104.87,56.11A174.71,174.71,0,0,1,70.9,89.4a61.62,61.62,0,0,0,19,82.15,61.62,61.62,0,0,1-27.88-7.72v.77a61.6,61.6,0,0,0,49.36,60.34,62.17,62.17,0,0,1-16.21,2.16A59.09,59.09,0,0,1,83.63,226a61.59,61.59,0,0,0,57.48,42.75A123.52,123.52,0,0,1,64.68,295,131.69,131.69,0,0,1,50,294.16a174,174,0,0,0,94.33,27.68c113.21,0,175.1-93.77,175.1-175.09l-.21-8A122.91,122.91,0,0,0,350,107Z" transform="translate(-50 -78.16)" style="fill:#fff"/></svg>