<?xml version="1.0" encoding="UTF-8"?>
<svg width="44px" height="60px" viewBox="0 0 44 60" version="1.1" xmlns="http://www.w3.org/2000/svg" xmlns:xlink="http://www.w3.org/1999/xlink">
    <!-- Generator: Sketch 55 (78076) - https://sketchapp.com -->
    <title>faucet</title>
    <desc>Created with Sketch.</desc>
    <defs>
        <path d="M36.1576548,20.4832329 C35.947942,23.9048614 34.3368318,26.1260495 31.9763281,27.5158496 C36.7373121,28.6889609 39.7525146,31.7611189 39.2683024,38.7736534 C38.6741609,47.4848763 32.8636143,49.9269225 24.5246946,50.6093017 L24.6555628,59.7473745 L19.6904245,59.8402942 L19.5595564,50.8241785 C18.2718136,50.8474084 16.9552798,50.8619271 15.5916335,50.8532159 L15.725119,59.909984 L10.7652155,60 L10.6264952,50.8474084 C9.46700326,50.8590234 8.28395502,50.8590234 7.07996788,50.8793496 L0.617697752,50.9954992 L1.50760129,44.3981997 C1.50760129,44.3981997 5.17976208,44.3952959 5.11694536,44.3343174 C6.52246948,44.30528 6.87581353,43.1815322 6.9569518,42.4759231 L6.742328,28.0298117 C6.92554344,28.026908 7.10090678,28.0240043 7.26841804,28.0211005 C7.06164633,27.9949668 6.8784309,27.9891594 6.742328,27.9920631 L6.58790357,17.6808789 C6.38113186,16.5658423 5.70846948,15.2823888 3.69833442,15.3172337 C3.75591641,15.2417364 0.0916077174,15.3869235 0.0916077174,15.3869235 L2.38031816e-13,9.50104051 L6.85225726,9.37908339 L6.85225726,9.4081208 C7.88088106,9.38779461 8.93829586,9.34714223 10.0114148,9.30358612 L9.88054667,0.255529207 L14.8430676,0.165513236 L14.9739358,9.03644195 C16.2983216,8.98127087 17.6331769,8.92900353 18.9392412,8.9057736 L18.8083731,0.0929197116 L23.7735114,0 L23.9069969,9.0538644 C24.7950088,9.12374624 25.6579857,9.22406866 26.4876103,9.36230719 C26.4634116,9.6528815 26.4510638,9.94691607 26.4510638,10.2439024 C26.4510638,15.7980819 30.7697753,20.3198488 36.1576548,20.4832329 Z M26.5662842,20.5761758 C26.4694666,14.2006843 17.6799942,15.3297964 14.8775158,15.3811197 L15.0423675,26.1818182 C17.8422292,26.1333462 26.6578685,26.6893484 26.5662842,20.5761758 Z M28.6915523,38.5362868 C28.5883084,31.5490327 18.1968078,32.7889361 14.8775158,32.8486563 L15.0530305,44.7272727 C18.3697414,44.6647088 28.7973773,45.2363157 28.6915523,38.5362868 Z" id="path-1"></path>
        <filter x="-1.3%" y="-0.8%" width="102.5%" height="101.7%" filterUnits="objectBoundingBox" id="filter-2">
            <feOffset dx="0" dy="1" in="SourceAlpha" result="shadowOffsetInner1"></feOffset>
            <feComposite in="shadowOffsetInner1" in2="SourceAlpha" operator="arithmetic" k2="-1" k3="1" result="shadowInnerInner1"></feComposite>
            <feColorMatrix values="0 0 0 0 1   0 0 0 0 1   0 0 0 0 1  0 0 0 1 0" type="matrix" in="shadowInnerInner1"></feColorMatrix>
        </filter>
        <path d="M34.141575,8.85517752 C33.4884611,8.25995529 32.4764848,8.30688572 31.8812625,8.95999958 C31.2860403,9.61311344 31.3329707,10.6250898 31.9860846,11.220312 L36.0149426,14.8920545 L43.0777452,8.45529452 C43.7308591,7.86007229 43.7777895,6.84809594 43.1825672,6.19498208 C42.587345,5.54186822 41.5753687,5.49493779 40.9222548,6.09016002 L36.0149426,10.562491 L34.141575,8.85517752 Z" id="path-3"></path>
        <filter x="-4.1%" y="-5.4%" width="108.2%" height="110.8%" filterUnits="objectBoundingBox" id="filter-4">
            <feOffset dx="0" dy="1" in="SourceAlpha" result="shadowOffsetInner1"></feOffset>
            <feComposite in="shadowOffsetInner1" in2="SourceAlpha" operator="arithmetic" k2="-1" k3="1" result="shadowInnerInner1"></feComposite>
            <feColorMatrix values="0 0 0 0 1   0 0 0 0 1   0 0 0 0 1  0 0 0 1 0" type="matrix" in="shadowInnerInner1"></feColorMatrix>
        </filter>
    </defs>
    <g id="Page-1" stroke="none" stroke-width="1" fill="none" fill-rule="evenodd">
        <g id="Wallet-Icons" transform="translate(-429.000000, -670.000000)" fill-rule="nonzero">
            <g id="faucet" transform="translate(429.000000, 670.000000)">
                <g id="Combined-Shape">
                    <use fill="#FFFFFF" xlink:href="#path-1"></use>
                    <use fill="black" fill-opacity="1" filter="url(#filter-2)" xlink:href="#path-1"></use>
                </g>
                <g id="Path-78-Copy-4">
                    <use fill="#FFFFFF" xlink:href="#path-3"></use>
                    <use fill="black" fill-opacity="1" filter="url(#filter-4)" xlink:href="#path-3"></use>
                </g>
            </g>
        </g>
    </g>
</svg>