<?xml version="1.0" encoding="UTF-8"?>
<svg width="151px" height="159px" viewBox="0 0 151 159" version="1.1" xmlns="http://www.w3.org/2000/svg" xmlns:xlink="http://www.w3.org/1999/xlink">
    <!-- Generator: Sketch 52.2 (67145) - http://www.bohemiancoding.com/sketch -->
    <title>Group 7</title>
    <desc>Created with Sketch.</desc>
    <defs>
        <linearGradient x1="135.920805%" y1="-98.8372093%" x2="-33.5952231%" y2="194.751728%" id="linearGradient-1">
            <stop stop-color="#FFFFFF" offset="0%"></stop>
            <stop stop-color="#FFFFFF" stop-opacity="0" offset="100%"></stop>
        </linearGradient>
        <linearGradient x1="135.947435%" y1="-98.8554472%" x2="-33.5735481%" y2="194.764731%" id="linearGradient-2">
            <stop stop-color="#FFFFFF" offset="0%"></stop>
            <stop stop-color="#FFFFFF" stop-opacity="0" offset="100%"></stop>
        </linearGradient>
        <linearGradient x1="135.954198%" y1="-98.8549618%" x2="-33.5114504%" y2="194.732824%" id="linearGradient-3">
            <stop stop-color="#FFFFFF" offset="0%"></stop>
            <stop stop-color="#FFFFFF" stop-opacity="0" offset="100%"></stop>
        </linearGradient>
    </defs>
    <g id="Page-1" stroke="none" stroke-width="1" fill="none" fill-rule="evenodd">
        <g id="Group-7" transform="translate(-8.000000, -3.000000)">
            <rect id="Rectangle-Copy-12" x="0" y="0" width="166" height="166"></rect>
            <g id="1_1" transform="translate(8.000000, 3.000000)">
                <path d="M117.629904,117.486883 L114.023696,107.649634 C111.726521,101.371817 99.46134,100.140284 86.0959598,104.8912 C72.7305796,109.642115 64.0716061,118.257843 66.3687809,124.510628 L69.9749886,134.352883 C72.2721634,140.625694 84.5373446,141.862234 97.9027248,137.106312 C111.268105,132.35039 119.932172,123.7647 117.629904,117.486883 Z M114.370055,122.337923 L111.981197,115.82982 C112.442086,115.225593 112.85584,114.587984 113.218921,113.922445 L114.8845,118.473111 C115.322542,119.64457 115.083147,120.966215 114.375148,122.337923 L114.370055,122.337923 Z M87.068821,107.589559 C97.041921,104.060165 109.43444,103.61461 111.263012,108.620843 C113.091583,113.627077 103.261101,121.041309 93.2880013,124.570703 C83.3149013,128.100098 70.9274757,128.545653 69.0938107,123.539419 C67.2601458,118.533186 77.116095,111.118954 87.068821,107.589559 Z M101.065797,124.33541 L103.658395,131.409218 C102.583664,131.984935 101.473278,132.530614 100.342518,133.031238 L97.7651999,125.912374 C98.9112406,125.416757 100.02672,124.886096 101.086171,124.33541 L101.065797,124.33541 Z M102.787405,123.394238 C103.918165,122.746766 104.977615,122.079268 105.965757,121.391745 L108.512514,128.400472 C107.534559,129.111357 106.475109,129.807223 105.359629,130.468046 L102.787405,123.394238 Z M79.2859319,130.147647 L81.8326888,137.096299 C80.4645132,137.091178 79.0999926,136.957064 77.7578777,136.695801 L75.272243,129.912354 C76.6092975,130.087329 77.9575806,130.165969 79.3063059,130.147647 L79.2859319,130.147647 Z M81.3233374,130.067548 C82.5355937,129.987448 83.7869002,129.843936 85.0772571,129.637012 L87.654575,136.680782 C86.3659161,136.866013 85.1078181,136.991168 83.8853748,137.051243 L81.3233374,130.067548 Z M87.0382599,129.271556 C88.2148616,129.031257 89.4118373,128.770933 90.6291871,128.405478 L93.2370662,135.524342 C92.0400904,135.839735 90.8278341,136.115078 89.6257649,136.340358 L87.0382599,129.271556 Z M72.7203926,133.361649 L71.04972,128.810983 C71.7130878,129.074344 72.3937665,129.293446 73.0871256,129.4668 L75.4657965,135.974903 C74.1058283,135.374155 73.1329672,134.518089 72.7203926,133.381674 L72.7203926,133.361649 Z M96.9145831,134.387927 C96.318642,134.598189 95.7176074,134.798438 95.1063857,134.988675 L92.4934132,127.849786 C93.0944478,127.659549 93.6954824,127.464306 94.296517,127.249038 C94.8975517,127.03377 95.4119966,126.838527 95.9570025,126.628265 L98.5699751,133.777167 C98.0198756,134.002447 97.4646826,134.212709 96.9145831,134.407952 L96.9145831,134.387927 Z M110.157719,127.108864 L107.610962,120.155205 C108.654332,119.339663 109.63653,118.451257 110.54992,117.496895 L113.045741,124.310379 C112.175378,125.338731 111.20656,126.282565 110.152626,127.128889 L110.157719,127.108864 Z" id="Shape" fill="#FFFFFF" fill-rule="nonzero"></path>
                <path d="M82.3161075,76.7309011 L89.0561548,63.2433577 C93.3554036,54.6557832 82.5844941,40.875252 64.5367642,31.9239685 C46.4890342,22.972685 28.9831413,22.6493881 24.6838925,31.2521171 L17.9438452,44.7144029 C13.6445964,53.3019774 24.4155059,67.0825086 42.4632358,76.0590497 C60.5109658,85.0355907 78.0168587,85.3538361 82.3161075,76.7309011 Z M74.0518272,78.2210978 L78.5232485,69.2849689 C79.6041814,69.153435 80.6738898,68.9423803 81.7236316,68.6535296 L78.6093347,74.8870983 C77.7940473,76.513686 76.1938557,77.59471 74.0518272,78.2210978 Z M62.6884416,35.5964195 C76.1584084,42.2947275 88.7776405,54.5395984 85.349382,61.3995549 C81.9211236,68.2595115 64.5215725,65.5721058 51.0516057,58.8737977 C37.5816389,52.1754897 24.9624068,39.9255673 28.3906653,33.0706623 C31.8189237,26.2157572 49.2184748,28.8930599 62.6884416,35.5964195 Z M58.9360937,66.6026147 L54.089944,76.2964708 C52.4340496,75.7913194 50.7781552,75.1800862 49.1425164,74.5183378 L54.0190495,64.7638635 C55.6732559,65.4508695 57.3122707,66.0637865 58.9360937,66.6026147 Z M61.6098315,67.4310631 C63.3923234,67.9362145 65.1545596,68.3605417 66.8205818,68.6838387 L62.0351989,78.281716 C60.3286655,77.9887282 58.5664292,77.59471 56.7839374,77.1097647 L61.6098315,67.4310631 Z M31.4897704,50.0841627 L26.729707,59.5911128 C25.4084339,58.1893802 24.2216752,56.6672787 23.1849789,55.0447498 L27.8336366,45.7449119 C28.9459878,47.2772854 30.1678805,48.7274783 31.4897704,50.0841627 Z M33.5710322,52.1047685 C34.8420704,53.2615653 36.2245144,54.4032075 37.7031724,55.5195922 L32.8772783,65.1477786 C31.4188759,64.0111879 30.0465597,62.8392365 28.7856493,61.6521306 L33.5710322,52.1047685 Z M39.9717984,57.1562828 C41.37281,58.1261736 42.848092,59.0674391 44.3976446,59.9800794 L39.5211115,69.7345537 C38.0019423,68.8252811 36.5435399,67.8553903 35.1256487,66.8501389 L39.9717984,57.1562828 Z M21.650618,46.5481026 L24.7649148,40.3094824 C25.1402365,41.2512009 25.5801491,42.166007 26.0815281,43.0474032 L21.6354263,51.94312 C20.956864,49.9629264 20.8707778,48.1191236 21.650618,46.5582057 L21.650618,46.5481026 Z M44.3115584,72.3512381 C43.5114626,71.9538523 42.7130548,71.5345766 41.9163349,71.093411 L46.8080597,61.3136792 C47.5929638,61.7380064 48.3879957,62.1572821 49.2032831,62.5614032 C50.0185706,62.9655244 50.7224523,63.2938728 51.476973,63.6424273 L46.5903121,73.4272107 C45.8205998,73.0887592 45.0610152,72.7250502 44.3115584,72.3613411 L44.3115584,72.3512381 Z M64.9064287,78.6605796 L69.6664921,69.1334234 C71.5427971,69.3855454 73.4347525,69.5037144 75.3279293,69.4870294 L70.6691438,78.802022 C68.7483691,78.9389756 66.8189291,78.8950013 64.9064287,78.6706826 L64.9064287,78.6605796 Z" id="Shape" fill="#FFFFFF" fill-rule="nonzero"></path>
                <rect id="Rectangle" fill="url(#linearGradient-1)" x="135" y="62" width="16" height="16"></rect>
                <rect id="Rectangle" fill="url(#linearGradient-2)" x="0" y="110" width="24" height="24"></rect>
                <rect id="Rectangle" fill="url(#linearGradient-3)" x="123" y="152" width="7" height="7"></rect>
                <rect id="Rectangle" fill="url(#linearGradient-3)" x="69" y="0" width="7" height="7"></rect>
            </g>
        </g>
    </g>
</svg>