<svg xmlns="http://www.w3.org/2000/svg" viewBox="0 0 56.562 13.071">
  <defs>
    <style>
      .cls-1, .cls-2 {
        fill: #707070;
      }

      .cls-2, .cls-3 {
        stroke: #707070;
        stroke-width: 2px;
      }

      .cls-3 {
        fill: none;
      }
    </style>
  </defs>
  <g id="Symbol_3_1" data-name="Symbol 3 – 1" transform="translate(-231.248 -160.719)">
    <path id="Path_45" data-name="Path 45" class="cls-1" d="M12.722,0H1.428A1.422,1.422,0,0,0,0,1.428V11.834a1.239,1.239,0,0,0,1.237,1.237H14.023a1.239,1.239,0,0,0,1.237-1.237V3.426a1.239,1.239,0,0,0-1.237-1.237h-.952V.317A.4.4,0,0,0,12.722,0M1.428.635H12.405V2.189H1.428a.779.779,0,0,1-.793-.761A.806.806,0,0,1,1.428.635M14.594,9.3H9.264a.217.217,0,0,1-.222-.222V6.155a.217.217,0,0,1,.222-.222h5.33Zm-.6-6.472a.6.6,0,0,1,.6.6V5.3H9.264a.853.853,0,0,0-.857.857V9.074a.853.853,0,0,0,.857.857h5.33V11.8a.6.6,0,0,1-.6.6H1.237a.6.6,0,0,1-.6-.6V2.6L.7,2.633a1.446,1.446,0,0,0,.7.19h12.6Z" transform="translate(231.248 160.719)"/>
    <path id="Path_46" data-name="Path 46" class="cls-1" d="M10.975,16.841h0a1.274,1.274,0,0,0,.666-1.174,1.3,1.3,0,0,0-.73-1.206,2,2,0,0,0-.92-.159H9.8v-.444a.15.15,0,0,0-.159-.159H9.2a.15.15,0,0,0-.159.159V14.3H8.533v-.444a.15.15,0,0,0-.159-.159H7.93c-.063.032-.159.1-.159.19v.444H7.327a.084.084,0,0,0-.1.1v.412a.084.084,0,0,0,.1.1h.444V19H7.327a.136.136,0,0,0-.127.127v.381a.136.136,0,0,0,.127.127h.444v.412a.15.15,0,0,0,.159.159h.444a.15.15,0,0,0,.159-.159v-.412H9.04v.412A.15.15,0,0,0,9.2,20.2h.444a.15.15,0,0,0,.159-.159v-.412h.286a2.182,2.182,0,0,0,.793-.1,1.5,1.5,0,0,0,.984-1.428,1.242,1.242,0,0,0-.888-1.269m-2.443-1.9H9.992a1.264,1.264,0,0,1,.539.1.766.766,0,0,1,.349.7.758.758,0,0,1-.793.825H8.533V14.937Zm2.062,4a1.233,1.233,0,0,1-.476.063H8.533v-1.84h1.65a.85.85,0,0,1,.92.92.9.9,0,0,1-.508.857" transform="translate(226.332 151.366)"/>
    <path id="Path_45-2" data-name="Path 45" class="cls-1" d="M12.722,0H1.428A1.422,1.422,0,0,0,0,1.428V11.834a1.239,1.239,0,0,0,1.237,1.237H14.023a1.239,1.239,0,0,0,1.237-1.237V3.426a1.239,1.239,0,0,0-1.237-1.237h-.952V.317A.4.4,0,0,0,12.722,0M1.428.635H12.405V2.189H1.428a.779.779,0,0,1-.793-.761A.806.806,0,0,1,1.428.635M14.594,9.3H9.264a.217.217,0,0,1-.222-.222V6.155a.217.217,0,0,1,.222-.222h5.33Zm-.6-6.472a.6.6,0,0,1,.6.6V5.3H9.264a.853.853,0,0,0-.857.857V9.074a.853.853,0,0,0,.857.857h5.33V11.8a.6.6,0,0,1-.6.6H1.237a.6.6,0,0,1-.6-.6V2.6L.7,2.633a1.446,1.446,0,0,0,.7.19h12.6Z" transform="translate(272.55 160.719)"/>
    <path id="Path_46-2" data-name="Path 46" class="cls-1" d="M10.975,16.841h0a1.274,1.274,0,0,0,.666-1.174,1.3,1.3,0,0,0-.73-1.206,2,2,0,0,0-.92-.159H9.8v-.444a.15.15,0,0,0-.159-.159H9.2a.15.15,0,0,0-.159.159V14.3H8.533v-.444a.15.15,0,0,0-.159-.159H7.93c-.063.032-.159.1-.159.19v.444H7.327a.084.084,0,0,0-.1.1v.412a.084.084,0,0,0,.1.1h.444V19H7.327a.136.136,0,0,0-.127.127v.381a.136.136,0,0,0,.127.127h.444v.412a.15.15,0,0,0,.159.159h.444a.15.15,0,0,0,.159-.159v-.412H9.04v.412A.15.15,0,0,0,9.2,20.2h.444a.15.15,0,0,0,.159-.159v-.412h.286a2.182,2.182,0,0,0,.793-.1,1.5,1.5,0,0,0,.984-1.428,1.242,1.242,0,0,0-.888-1.269m-2.443-1.9H9.992a1.264,1.264,0,0,1,.539.1.766.766,0,0,1,.349.7.758.758,0,0,1-.793.825H8.533V14.937Zm2.062,4a1.233,1.233,0,0,1-.476.063H8.533v-1.84h1.65a.85.85,0,0,1,.92.92.9.9,0,0,1-.508.857" transform="translate(267.634 151.366)"/>
    <path id="Path_31" data-name="Path 31" class="cls-2" d="M0,0H13.275" transform="translate(265.885 167.457) rotate(180)"/>
    <path id="arrow" class="cls-3" d="M0,0,4.764,4.866,0,9.732" transform="translate(261.884 162.554)"/>
  </g>
</svg>
