<?xml version="1.0" encoding="UTF-8"?>
<svg width="110px" height="155px" viewBox="0 0 110 155" version="1.1" xmlns="http://www.w3.org/2000/svg" xmlns:xlink="http://www.w3.org/1999/xlink">
    <!-- Generator: Sketch 52.2 (67145) - http://www.bohemiancoding.com/sketch -->
    <title>Group 8</title>
    <desc>Created with Sketch.</desc>
    <defs>
        <linearGradient x1="79.9542434%" y1="-1.8847369%" x2="20.0457566%" y2="101.884737%" id="linearGradient-1">
            <stop stop-color="#FFFFFF" offset="0%"></stop>
            <stop stop-color="#FFFFFF" stop-opacity="0.96" offset="9%"></stop>
            <stop stop-color="#FFFFFF" stop-opacity="0.86" offset="23%"></stop>
            <stop stop-color="#FFFFFF" stop-opacity="0.69" offset="42%"></stop>
            <stop stop-color="#FFFFFF" stop-opacity="0.45" offset="64%"></stop>
            <stop stop-color="#FFFFFF" stop-opacity="0.15" offset="88%"></stop>
            <stop stop-color="#FFFFFF" stop-opacity="0" offset="100%"></stop>
        </linearGradient>
    </defs>
    <g id="Page-1" stroke="none" stroke-width="1" fill="none" fill-rule="evenodd">
        <g id="Group-8" transform="translate(-28.000000, -5.000000)">
            <rect id="Rectangle-Copy-11" x="0" y="0" width="166" height="166"></rect>
            <g id="Group-5-Copy" transform="translate(4.000000, 4.000000)">
                <g id="Group-4">
                    <g id="Group-3" transform="translate(24.746988, 1.892216)">
                        <g id="just-coin" opacity="0.198846726" transform="translate(30.457831, 0.000000)" fill="#FFFFFF" fill-rule="nonzero">
                            <path d="M46.8098795,27.8180306 L49.1893976,18.108413 C50.698012,11.9165655 41.741506,4.57596116 28.7969277,1.42998786 C15.8523494,-1.71598544 4.52584337,0.624428033 3.01246988,6.81627548 L0.632951807,16.5306597 C-0.870903614,22.698674 8.09036145,30.0297451 21.0301807,33.2090848 C33.97,36.3884245 45.3012651,34.0146446 46.8098795,27.8180306 Z M41.7034337,29.9916121 L43.2786747,23.5519001 C43.955817,23.3097388 44.614328,23.0181936 45.2489157,22.6796075 L44.1543373,27.1697694 C43.8687952,28.3375928 42.9931325,29.2718516 41.7034337,29.9916121 Z M28.1449398,4.07069878 C37.8057831,6.45401189 47.7331325,12.5171604 46.5243373,17.4553852 C45.3155422,22.3936099 33.713012,23.1991698 24.0521687,20.8301565 C14.3913253,18.4611433 4.46873494,12.3932281 5.67277108,7.44547014 C6.87680723,2.49771213 18.4840964,1.70168556 28.1449398,4.07069878 Z M30.2579518,24.6863571 L28.5542169,31.6646979 C27.4072892,31.5693654 26.2508434,31.4263666 25.1039157,31.2357016 L26.8171687,24.2096945 C27.9752008,24.4162483 29.1221285,24.5751359 30.2579518,24.6863571 Z M32.0996988,24.8293559 C33.3227711,24.9008553 34.5077711,24.9151552 35.6451807,24.8770222 L33.9604819,31.7743303 C32.8135542,31.8315298 31.6237952,31.8362965 30.4007229,31.7743303 L32.0996988,24.8293559 Z M10.1605422,18.0035472 L8.48536145,24.8627223 C7.42397728,24.1497589 6.43137597,23.3390917 5.52048193,22.4412762 L7.13855422,15.7298665 C8.09007142,16.5594524 9.10001404,17.3193121 10.1605422,18.0035472 Z M11.7928916,18.9997721 C12.7827711,19.562234 13.8392771,20.1008627 14.9576506,20.6061251 L13.2586747,27.5558661 C12.1498193,27.0363039 11.0980723,26.4786086 10.1129518,25.8970802 L11.7928916,18.9997721 Z M16.6566265,21.3354189 C17.7036145,21.754882 18.7934337,22.150512 19.9213253,22.5127756 L18.2080723,29.5530825 C17.0992169,29.1860523 16.0093976,28.7713558 14.9528916,28.3280596 L16.6566265,21.3354189 Z M3.30277108,17.1598544 L4.3973494,12.6696925 C4.77499118,13.2246335 5.1916709,13.751889 5.64421687,14.2474457 L4.07849398,20.6537914 C3.3313253,19.4669014 3.02674699,18.2847781 3.30277108,17.1598544 Z M21.6821687,30.5445408 C21.1063253,30.4063086 20.5257229,30.2490099 19.9546386,30.0678781 L21.6726506,23.0228046 C22.2437349,23.1848699 22.8148193,23.3374019 23.4001807,23.4994672 C23.9855422,23.6615325 24.485241,23.7520984 25.023012,23.8664974 L23.3192771,30.9068043 C22.7577108,30.7971719 22.2151807,30.6780063 21.6821687,30.5445408 Z M35.8736145,31.6170316 L37.5535542,24.7578565 C38.7988194,24.6458563 40.0345371,24.4451501 41.2513253,24.1572616 L39.6142169,30.8686713 C38.3934327,31.2346352 37.1410879,31.4851845 35.8736145,31.6170316 Z" id="Shape"></path>
                        </g>
                        <g id="just-x" transform="translate(0.000000, 46.081681)" fill="url(#linearGradient-1)">
                            <polygon id="Path" points="109.207982 18.115273 90.8737952 0 54.6099398 35.830858 18.3341867 0 0 18.115273 36.2638554 53.9578866 0 89.7887447 18.3341867 107.904018 54.6099398 72.0731597 90.8737952 107.904018 109.207982 89.7887447 72.9441265 53.9578866"></polygon>
                        </g>
                    </g>
                    <rect id="Rectangle-Copy" x="0" y="0" width="158" height="156.11345"></rect>
                    <rect id="Rectangle-Copy-2" x="0" y="0.946107784" width="158" height="156.11345"></rect>
                </g>
            </g>
        </g>
    </g>
</svg>