<?xml version="1.0" encoding="utf-8"?>
<!-- Generator: Adobe Illustrator 16.0.0, SVG Export Plug-In . SVG Version: 6.00 Build 0)  -->
<!DOCTYPE svg PUBLIC "-//W3C//DTD SVG 1.1//EN" "http://www.w3.org/Graphics/SVG/1.1/DTD/svg11.dtd">
<svg version="1.1" id="Capa_1" xmlns="http://www.w3.org/2000/svg" xmlns:xlink="http://www.w3.org/1999/xlink" x="0px" y="0px"
	 width="400px" height="400px" viewBox="56 56 400 400" enable-background="new 56 56 400 400" xml:space="preserve">
<g>
	<g>
		<polygon fill="#FAB915" points="175.233,287.83 175.233,287.861 191.164,287.861 		"/>
	</g>
</g>
<g>
	<g>
		<polygon fill="#FAB915" points="334.536,287.83 334.536,287.861 350.467,287.861 		"/>
	</g>
</g>
<g>
	<g>
		<path fill="#FAB915" d="M406,246.696c0-20.638-16.778-37.337-37.348-37.337c-8.203,0-16.094,2.638-22.436,7.533
			c-20.857-14.444-48.176-23.061-77.179-25.255l15.706-36.77l45.52,10.679c1.475,14.079,13.261,25.111,27.808,25.111
			c15.376,0,27.916-12.54,27.916-28.02c0-15.388-12.54-27.985-27.916-27.985c-9.863,0-18.433,5.081-23.403,12.729l-53.325-12.452
			c-4.454-1.028-8.899,1.235-10.716,5.437l-21.638,50.746c-31.342,1.112-61.202,9.902-83.748,25.279
			c-6.142-4.537-13.759-7.031-21.917-7.031c-20.553,0-37.325,16.699-37.325,37.337c0,13.57,7.433,25.924,18.857,32.32
			c-0.151,1.619-0.181,3.244-0.181,4.979c0,51.532,58.594,93.39,130.664,93.39c71.994,0,130.647-41.857,130.647-93.39
			c0-1.463-0.06-2.93-0.06-4.363C398.018,273.447,406,260.852,406,246.696z M358.071,153.332c5.035,0,9.306,4.171,9.306,9.305
			c0,5.17-4.271,9.37-9.306,9.37c-5.239,0-9.341-4.199-9.341-9.37C348.73,157.503,352.832,153.332,358.071,153.332z
			 M190.008,274.619c0-10.252,8.353-18.618,18.661-18.618c10.309,0,18.695,8.366,18.695,18.618c0,10.334-8.386,18.75-18.695,18.75
			C198.361,293.369,190.008,284.953,190.008,274.619z M298.432,336.609c-12.875,9.273-27.93,13.926-43.092,13.926
			c-15.085,0-30.195-4.652-43.07-13.926c-4.238-3.091-5.121-8.922-2.119-13.057c3.001-4.102,8.861-5.044,13.026-2.064
			c19.272,13.879,45.061,13.942,64.317,0c4.134-2.979,9.961-2.071,13.057,2.064C303.608,327.719,302.638,333.519,298.432,336.609z
			 M302.032,293.369c-10.341,0-18.64-8.416-18.64-18.75c0-10.252,8.299-18.618,18.64-18.618s18.611,8.366,18.611,18.618
			C320.644,284.953,312.373,293.369,302.032,293.369z"/>
	</g>
</g>
</svg>
