<svg id="Layer_1" data-name="Layer 1" xmlns="http://www.w3.org/2000/svg" viewBox="0 0 35.2 44"><defs><style>.cls-1{fill:#fff;}</style></defs><title>icon-exchange</title><g id="Rectangle-Copy-43"><rect id="path-3" class="cls-1" x="17.05" y="6.6" width="2.2" height="30.8"/><rect id="path-3-2" data-name="path-3" class="cls-1" x="17.05" y="6.6" width="2.2" height="30.8"/><rect id="path-3-3" data-name="path-3" class="cls-1" x="17.05" y="6.6" width="2.2" height="30.8"/></g><g id="Rectangle-Copy-44"><rect id="path-6" class="cls-1" x="3.85" y="13.2" width="2.2" height="30.8"/><rect id="path-6-2" data-name="path-6" class="cls-1" x="3.85" y="13.2" width="2.2" height="30.8"/><rect id="path-6-3" data-name="path-6" class="cls-1" x="3.85" y="13.2" width="2.2" height="30.8"/></g><g id="Rectangle-Copy-45"><rect id="path-9" class="cls-1" x="30.25" width="2.2" height="30.8"/><rect id="path-9-2" data-name="path-9" class="cls-1" x="30.25" width="2.2" height="30.8"/><rect id="path-9-3" data-name="path-9" class="cls-1" x="30.25" width="2.2" height="30.8"/></g><g id="Rectangle-Copy-46"><rect id="path-13" class="cls-1" x="13.2" y="13.2" width="8.8" height="17.6" rx="0.55" ry="0.55"/><rect id="path-13-2" data-name="path-13" class="cls-1" x="13.2" y="13.2" width="8.8" height="17.6" rx="0.55" ry="0.55"/><rect id="path-13-3" data-name="path-13" class="cls-1" x="13.2" y="13.2" width="8.8" height="17.6" rx="0.55" ry="0.55"/></g><g id="Rectangle-Copy-47"><rect id="path-16" class="cls-1" y="19.8" width="8.8" height="17.6" rx="0.55" ry="0.55"/><rect id="path-16-2" data-name="path-16" class="cls-1" y="19.8" width="8.8" height="17.6" rx="0.55" ry="0.55"/><rect id="path-16-3" data-name="path-16" class="cls-1" y="19.8" width="8.8" height="17.6" rx="0.55" ry="0.55"/></g><g id="Rectangle-Copy-48"><rect id="path-19" class="cls-1" x="26.4" y="6.6" width="8.8" height="17.6" rx="0.55" ry="0.55"/><rect id="path-19-2" data-name="path-19" class="cls-1" x="26.4" y="6.6" width="8.8" height="17.6" rx="0.55" ry="0.55"/><rect id="path-19-3" data-name="path-19" class="cls-1" x="26.4" y="6.6" width="8.8" height="17.6" rx="0.55" ry="0.55"/></g></svg>