<?xml version="1.0" encoding="utf-8"?>
<!-- Generator: Adobe Illustrator 16.0.0, SVG Export Plug-In . SVG Version: 6.00 Build 0)  -->
<!DOCTYPE svg PUBLIC "-//W3C//DTD SVG 1.1//EN" "http://www.w3.org/Graphics/SVG/1.1/DTD/svg11.dtd">
<svg version="1.1" id="Capa_1" xmlns="http://www.w3.org/2000/svg" xmlns:xlink="http://www.w3.org/1999/xlink" x="0px" y="0px"
	 width="400px" height="400px" viewBox="56 56 400 400" enable-background="new 56 56 400 400" xml:space="preserve">
<g>
	<g>
		<path fill="#FAB915" d="M406,162.989c-11.041,4.893-22.89,8.211-35.336,9.692c12.708-7.611,22.438-19.685,27.05-34.025
			c-11.923,7.049-25.083,12.167-39.104,14.941c-11.23-11.979-27.2-19.44-44.918-19.44c-33.987,0-61.545,27.558-61.545,61.526
			c0,4.817,0.545,9.522,1.593,14.022c-51.139-2.568-96.487-27.07-126.838-64.301c-5.304,9.074-8.323,19.646-8.323,30.933
			c0,21.352,10.873,40.191,27.37,51.215c-10.086-0.338-19.572-3.113-27.875-7.723v0.769c0,29.806,21.221,54.682,49.359,60.345
			c-5.156,1.387-10.592,2.156-16.216,2.156c-3.974,0-7.817-0.394-11.585-1.146c7.836,24.466,30.558,42.255,57.478,42.745
			c-21.053,16.495-47.598,26.301-76.43,26.301c-4.968,0-9.861-0.3-14.679-0.843c27.239,17.489,59.577,27.687,94.333,27.687
			c113.211,0,175.092-93.771,175.092-175.092l-0.206-7.967C387.311,186.16,397.771,175.324,406,162.989z"/>
	</g>
</g>
</svg>
