<?xml version="1.0" encoding="utf-8"?>
<!-- Generator: Adobe Illustrator 16.0.0, SVG Export Plug-In . SVG Version: 6.00 Build 0)  -->
<!DOCTYPE svg PUBLIC "-//W3C//DTD SVG 1.1//EN" "http://www.w3.org/Graphics/SVG/1.1/DTD/svg11.dtd">
<svg version="1.1" id="Capa_1" xmlns="http://www.w3.org/2000/svg" xmlns:xlink="http://www.w3.org/1999/xlink" x="0px" y="0px"
	 width="400px" height="400px" viewBox="56 56 400 400" enable-background="new 56 56 400 400" xml:space="preserve">
<g>
	<g>
		<path fill="#FFFFFF" d="M350.833,297.017c-17.517,0-32.967,8.346-43.062,21.124l-93.629-47.881
			c1.226-4.571,2.106-9.296,2.106-14.267c0-5.412-1.046-10.507-2.506-15.465l93.216-47.661
			c10.039,13.358,25.889,22.089,43.888,22.089c30.489,0,55.153-24.664,55.153-55.125c0-30.435-24.664-55.112-55.152-55.112
			c-30.42,0-55.111,24.677-55.111,55.111c0,4.985,0.882,9.723,2.12,14.308l-93.615,47.882
			c-10.108-12.793-25.587-21.166-43.131-21.166c-30.462,0-55.111,24.691-55.111,55.139c0,30.447,24.65,55.125,55.111,55.125
			c18.026,0,33.863-8.758,43.943-22.129l93.174,47.66c-1.46,4.943-2.52,10.081-2.52,15.507c0,30.447,24.691,55.125,55.111,55.125
			c30.489,0,55.152-24.678,55.152-55.125C405.985,321.681,381.322,297.017,350.833,297.017z"/>
	</g>
</g>
</svg>
