<?xml version="1.0" encoding="utf-8"?>
<!-- Generator: Adobe Illustrator 16.0.0, SVG Export Plug-In . SVG Version: 6.00 Build 0)  -->
<!DOCTYPE svg PUBLIC "-//W3C//DTD SVG 1.1//EN" "http://www.w3.org/Graphics/SVG/1.1/DTD/svg11.dtd">
<svg version="1.1" xmlns="http://www.w3.org/2000/svg" xmlns:xlink="http://www.w3.org/1999/xlink" x="0px" y="0px" width="400px"
	 height="400px" viewBox="0 0 400 400" enable-background="new 0 0 400 400" xml:space="preserve">
<g id="Calque_3" display="none">
	<rect x="-300" y="-300" display="inline" fill="#404AD3" width="1000" height="1000"/>
</g>
<g id="Layer_1">
	<g>
		<path fill="#FAB915" d="M345.312,68.75H92.188c-2.591,0-4.687,2.097-4.687,4.688v234.374c0,7.748-6.308,14.063-14.062,14.063
			c-7.756,0-14.063-6.314-14.063-14.063V106.251c0-2.592-2.096-4.688-4.687-4.688c-2.591,0-4.688,2.097-4.688,4.688v201.561
			c0,12.922,10.516,23.438,23.438,23.438h253.124c12.922,0,23.438-10.516,23.438-23.438V73.438
			C350,70.847,347.902,68.75,345.312,68.75z M340.625,307.813c0,7.748-6.314,14.063-14.063,14.063H92.177
			c2.948-3.914,4.699-8.791,4.699-14.063V78.125h243.75V307.813z"/>
		<path fill="#FAB915" d="M73.438,312.5c2.59,0,4.687-2.097,4.687-4.688V92.188c0-2.59-2.096-4.687-4.687-4.687
			c-2.592,0-4.688,2.097-4.688,4.687v215.625C68.75,310.403,70.847,312.5,73.438,312.5z"/>
		<path fill="#FAB915" d="M120.313,246.875h75c2.591,0,4.687-2.097,4.687-4.688v-84.375c0-2.59-2.096-4.686-4.687-4.686h-75
			c-2.592,0-4.688,2.096-4.688,4.686v84.375C115.625,244.778,117.721,246.875,120.313,246.875z M125,162.501h65.625v75H125V162.501z
			"/>
		<path fill="#FAB915" d="M120.313,106.251h196.875c2.591,0,4.688-2.097,4.688-4.688c0-2.591-2.097-4.688-4.688-4.688H120.313
			c-2.592,0-4.688,2.097-4.688,4.688C115.625,104.154,117.721,106.251,120.313,106.251z"/>
		<path fill="#FAB915" d="M120.313,134.375h196.875c2.591,0,4.688-2.096,4.688-4.687c0-2.591-2.097-4.688-4.688-4.688H120.313
			c-2.592,0-4.688,2.097-4.688,4.688C115.625,132.279,117.721,134.375,120.313,134.375z"/>
		<path fill="#FAB915" d="M120.313,275h196.875c2.591,0,4.688-2.096,4.688-4.687c0-2.592-2.097-4.688-4.688-4.688H120.313
			c-2.592,0-4.688,2.097-4.688,4.688C115.625,272.904,117.721,275,120.313,275z"/>
		<path fill="#FAB915" d="M317.188,153.126h-93.75c-2.592,0-4.688,2.096-4.688,4.686c0,2.592,2.096,4.689,4.688,4.689h93.75
			c2.591,0,4.688-2.097,4.688-4.689C321.875,155.222,319.778,153.126,317.188,153.126z"/>
		<path fill="#FAB915" d="M317.188,181.25h-93.75c-2.592,0-4.688,2.097-4.688,4.688s2.096,4.687,4.688,4.687h93.75
			c2.591,0,4.688-2.096,4.688-4.687S319.778,181.25,317.188,181.25z"/>
		<path fill="#FAB915" d="M317.188,209.375h-93.75c-2.592,0-4.688,2.097-4.688,4.688c0,2.592,2.096,4.688,4.688,4.688h93.75
			c2.591,0,4.688-2.096,4.688-4.688C321.875,211.472,319.778,209.375,317.188,209.375z"/>
		<path fill="#FAB915" d="M317.188,237.502h-93.75c-2.592,0-4.688,2.095-4.688,4.686s2.096,4.688,4.688,4.688h93.75
			c2.591,0,4.688-2.097,4.688-4.688S319.778,237.502,317.188,237.502z"/>
		<path fill="#FAB915" d="M317.188,293.75h-93.75c-2.592,0-4.688,2.097-4.688,4.688c0,2.592,2.096,4.689,4.688,4.689h93.75
			c2.591,0,4.688-2.098,4.688-4.689C321.875,295.847,319.778,293.75,317.188,293.75z"/>
	</g>
</g>
</svg>
