<svg xmlns="http://www.w3.org/2000/svg" viewBox="0 0 43.659 43.771">
  <defs>
    <style>
      .cls-1 {
        fill: #fff;
      }
    </style>
  </defs>
  <g id="QR_Scan" data-name="QR Scan" transform="translate(0 0)">
    <g id="Group_98" data-name="Group 98">
      <g id="Group_95" data-name="Group 95">
        <g id="Group_91" data-name="Group 91" transform="translate(0 0.113)">
          <path id="Path_77" data-name="Path 77" class="cls-1" d="M2.419,11H0V.2H11.027V2.619H2.419Z" transform="translate(0 -0.2)"/>
        </g>
        <g id="Group_92" data-name="Group 92" transform="translate(32.857)">
          <path id="Path_78" data-name="Path 78" class="cls-1" d="M69.2,11.027H66.783V2.419H58.4V0H69.2Z" transform="translate(-58.4)"/>
        </g>
        <g id="Group_93" data-name="Group 93" transform="translate(32.688 32.857)">
          <path id="Path_79" data-name="Path 79" class="cls-1" d="M69.071,69.2H58.1V66.783h8.552V58.4h2.419Z" transform="translate(-58.1 -58.4)"/>
        </g>
        <g id="Group_94" data-name="Group 94" transform="translate(0 32.8)">
          <path id="Path_80" data-name="Path 80" class="cls-1" d="M10.8,69.271H0V58.3H2.419v8.552H10.8Z" transform="translate(0 -58.3)"/>
        </g>
      </g>
      <g id="GXLLf9.tif_1_" transform="translate(4.501 4.501)">
        <g id="Group_96" data-name="Group 96">
          <path id="Path_81" data-name="Path 81" class="cls-1" d="M49,37.1h3.319v1.632h3.319v1.632a15.783,15.783,0,0,1-1.632,0v1.632H57.27v1.632H54.007v1.632h3.319v1.632h1.632v3.319H57.327c-.056.563,0,1.125,0,1.688H54.007V50.265h1.632V48.634H54.007V47H50.688V45.37H49.056V40.419h1.632V38.788H49.056C49,38.169,49,37.663,49,37.1Zm1.688,6.583h1.632V42.051H50.688Z" transform="translate(-25.834 -20.559)"/>
          <path id="Path_82" data-name="Path 82" class="cls-1" d="M7.9,7.7H19.434V19.234c-.338.056-10.24.056-11.534,0ZM9.532,9.388v8.27c1.181.056,7.933.056,8.27,0V9.444C15.045,9.388,12.288,9.388,9.532,9.388Z" transform="translate(-7.858 -7.7)"/>
          <path id="Path_83" data-name="Path 83" class="cls-1" d="M60.572,7.7V19.234H49.038c-.056-.281-.113-10.24-.056-11.534ZM58.884,9.388h-8.27c-.056,1.463-.056,7.933,0,8.27h8.214C58.884,14.845,58.884,12.145,58.884,9.388Z" transform="translate(-25.816 -7.7)"/>
          <path id="Path_84" data-name="Path 84" class="cls-1" d="M19.4,48.9V60.434H7.867c-.056-.338-.056-10.3,0-11.534ZM9.5,58.8h8.27c.056-1.463.056-7.933,0-8.27H9.555C9.5,53.288,9.5,56.045,9.5,58.8Z" transform="translate(-7.825 -25.72)"/>
          <path id="Path_85" data-name="Path 85" class="cls-1" d="M40.2,59.751V58.119h1.632V54.8h1.632v3.319h1.688V56.488h1.632v3.319H50.1v1.632a15.783,15.783,0,0,0,1.632,0h1.632V63.07H48.414V61.439H46.783V63.07H41.832V61.439h1.632V59.751Z" transform="translate(-21.985 -28.301)"/>
          <path id="Path_86" data-name="Path 86" class="cls-1" d="M54.9,34.53V31.267c.338-.056,3.938-.056,4.951,0V34.53h1.632V31.267h1.632V37.85H59.795V36.218H58.163V32.9H56.532V34.53Z" transform="translate(-28.415 -17.99)"/>
          <path id="Path_87" data-name="Path 87" class="cls-1" d="M36.351,55.483H33.032v4.951H31.4V53.851h1.632V48.9h3.319v1.632H34.719v1.632h1.632Z" transform="translate(-18.136 -25.72)"/>
          <path id="Path_88" data-name="Path 88" class="cls-1" d="M9.532,37.056v3.263a32.026,32.026,0,0,0,3.319,0V38.688H16.17v3.263H7.9V37A15.274,15.274,0,0,0,9.532,37.056Z" transform="translate(-7.858 -20.515)"/>
          <path id="Path_89" data-name="Path 89" class="cls-1" d="M36.351,16.963v1.632c-.338.056-2.7.056-4.951.056V13.7h1.632v3.319C34.157,16.963,35.226,16.963,36.351,16.963Z" transform="translate(-18.136 -10.324)"/>
          <path id="Path_90" data-name="Path 90" class="cls-1" d="M9.532,34.563V32.932H7.9V31.3h6.583v1.632H11.163v1.632Z" transform="translate(-7.858 -18.022)"/>
          <path id="Path_91" data-name="Path 91" class="cls-1" d="M34.3,43.319V40h1.632v1.632h3.319v3.319H37.619V43.319Z" transform="translate(-19.405 -21.828)"/>
          <path id="Path_92" data-name="Path 92" class="cls-1" d="M43.1,37.883V32.932h1.632V31.3h1.688v3.319H44.788v3.319C44.169,37.883,43.663,37.883,43.1,37.883Z" transform="translate(-23.254 -18.022)"/>
          <path id="Path_93" data-name="Path 93" class="cls-1" d="M34.3,27.032h1.632a15.783,15.783,0,0,0,0-1.632h1.632v4.951H35.932V28.719H34.3Z" transform="translate(-19.405 -15.442)"/>
          <path id="Path_94" data-name="Path 94" class="cls-1" d="M33.032,11.063V9.432a15.783,15.783,0,0,0-1.632,0V7.8h3.319v3.263Z" transform="translate(-18.136 -7.744)"/>
          <path id="Path_95" data-name="Path 95" class="cls-1" d="M33.032,36.151H31.4V31.2h1.632Z" transform="translate(-18.136 -17.979)"/>
          <path id="Path_96" data-name="Path 96" class="cls-1" d="M43.1,12.651V7.7h1.632v4.951Z" transform="translate(-23.254 -7.7)"/>
          <path id="Path_97" data-name="Path 97" class="cls-1" d="M66.7,63.6h1.632v1.632H66.7Z" transform="translate(-33.576 -32.15)"/>
          <path id="Path_98" data-name="Path 98" class="cls-1" d="M38.932,63.6v1.632H37.3V63.6Z" transform="translate(-20.717 -32.15)"/>
          <circle id="Ellipse_4" data-name="Ellipse 4" class="cls-1" cx="1.181" cy="1.181" r="1.181" transform="translate(16.189 2.982)"/>
          <path id="Path_99" data-name="Path 99" class="cls-1" d="M41.832,16.5v1.632H40.2V16.5Z" transform="translate(-21.985 -11.549)"/>
          <path id="Path_100" data-name="Path 100" class="cls-1" d="M33.032,27.032H31.4V25.4h1.632Z" transform="translate(-18.136 -15.442)"/>
          <path id="Path_101" data-name="Path 101" class="cls-1" d="M43.1,27.032V25.4h1.632a15.771,15.771,0,0,1,0,1.632Z" transform="translate(-23.254 -15.442)"/>
          <path id="Path_102" data-name="Path 102" class="cls-1" d="M33.032,47.632H31.4V46h1.632Z" transform="translate(-18.136 -24.452)"/>
          <path id="Path_103" data-name="Path 103" class="cls-1" d="M27.132,43v1.632H25.5V43Z" transform="translate(-15.556 -23.14)"/>
          <path id="Path_104" data-name="Path 104" class="cls-1" d="M25.5,32.832V31.2h1.632v1.632Z" transform="translate(-15.556 -17.979)"/>
          <path id="Path_105" data-name="Path 105" class="cls-1" d="M28.4,40h1.632v1.632H28.4Z" transform="translate(-16.824 -21.828)"/>
          <path id="Path_106" data-name="Path 106" class="cls-1" d="M24.232,35.832H22.6V34.2h1.632Z" transform="translate(-14.287 -19.291)"/>
          <circle id="Ellipse_5" data-name="Ellipse 5" class="cls-1" cx="1.181" cy="1.181" r="1.181" transform="translate(9.55 16.203)"/>
          <circle id="Ellipse_6" data-name="Ellipse 6" class="cls-1" cx="1.181" cy="1.181" r="1.181" transform="translate(21.14 24.474)"/>
          <path id="Path_107" data-name="Path 107" class="cls-1" d="M13.7,18.551V13.6h4.895c.056.281.056,3.713,0,4.951Z" transform="translate(-10.395 -10.281)"/>
          <path id="Path_108" data-name="Path 108" class="cls-1" d="M59.851,18.562H54.9V13.667c.281-.056,3.6-.056,4.951,0Z" transform="translate(-28.415 -10.292)"/>
          <path id="Path_109" data-name="Path 109" class="cls-1" d="M13.7,59.651V54.7h4.895c.056.281.056,3.882,0,4.951Z" transform="translate(-10.395 -28.257)"/>
        </g>
      </g>
    </g>
  </g>
</svg>
