<?xml version="1.0" encoding="UTF-8"?>
<svg width="18px" height="18px" viewBox="0 0 18 18" version="1.1" xmlns="http://www.w3.org/2000/svg" xmlns:xlink="http://www.w3.org/1999/xlink">
    <!-- Generator: Sketch 57.1 (83088) - https://sketch.com -->
    <title>Group 13</title>
    <desc>Created with Sketch.</desc>
    <g id="Page-1" stroke="none" stroke-width="1" fill="none" fill-rule="evenodd">
        <g id="Wallet-Icons" transform="translate(-854.000000, -644.000000)" fill="#FFFFFF" fill-rule="nonzero">
            <g id="Group-10" transform="translate(848.000000, 638.000000)">
                <g id="Group-11" transform="translate(6.000000, 4.000000)">
                    <g id="Group-12">
                        <g id="Group-13">
                            <path d="M9,2 C11.209139,2 13,3.790861 13,6 C13,8.209139 11.209139,10 9,10 C6.790861,10 5,8.209139 5,6 C5,3.790861 6.790861,2 9,2 Z M8.54527615,3.18762204 L8.41903746,3.97474989 C8.31853898,3.96092558 8.21954588,3.94710695 8.12354215,3.93199717 L8.12398635,3.92947797 L7.48465574,3.82765632 L7.40313825,4.33979983 C7.40313825,4.33979983 7.74624961,4.38731202 7.73973784,4.39291737 C7.92727359,4.42286796 7.97021759,4.54525052 7.97239618,4.64537942 L7.82902614,5.54247866 C7.8417322,5.54445933 7.85868788,5.54796857 7.87752405,5.55362767 C7.86189607,5.55113178 7.84553761,5.5485071 7.82844867,5.54575361 L7.6274246,6.80257369 C7.6090822,6.86245916 7.55902001,6.95415586 7.42782001,6.93361928 C7.43273102,6.93994001 7.09106577,6.87995496 7.09106577,6.87995496 L6.90735541,7.43771834 L7.51031671,7.53364661 C7.62263448,7.551633 7.73269336,7.57103935 7.84073849,7.58905161 L7.71363115,8.38537737 L8.17642762,8.45892856 L8.30255608,7.67100202 C8.42928273,7.6941266 8.55198187,7.71446301 8.67213584,7.73357138 L8.54638576,8.51792812 L9.00971364,8.59131326 L9.13732936,7.7963759 C9.92353716,7.87396384 10.5014492,7.75741393 10.6899828,7.01140157 C10.8423038,6.41095887 10.6087963,6.09496761 10.1838281,5.91509446 C10.4751984,5.81607451 10.6831571,5.59351078 10.7103184,5.17178731 C10.7485926,4.59591242 10.305122,4.33017566 9.71556251,4.18102357 L9.84164656,3.39334895 L9.37831868,3.31996381 L9.25567802,4.08668618 C9.1338196,4.06727727 9.00883855,4.04991527 8.88478705,4.03297693 L9.00831611,3.26121617 L8.54527615,3.18762204 Z M8.55376554,6.02864291 C8.87428385,6.07973324 9.89406964,6.14690131 9.79545205,6.76431819 C9.70154549,7.35647076 8.7064252,7.12907259 8.38611123,7.07827665 L8.55376554,6.02864291 Z M8.8120881,4.56362292 C9.0719961,4.60471716 9.90242419,4.64698379 9.81079793,5.21896475 C9.72282607,5.76739124 8.91656249,5.57393418 8.65694139,5.5326275 L8.8120881,4.56362292 Z" id="Combined-Shape-Copy-4" transform="translate(9.000000, 6.000000) rotate(-26.000000) translate(-9.000000, -6.000000) "></path>
                            <path d="M17.5719247,11.3293469 C18.0894417,11.8058164 18.1454553,12.6282628 17.6977322,13.1765758 L13.8682156,17.8369438 C13.2976197,18.5205123 12.4721538,18.9127593 11.6043172,18.9127089 L5.6266697,18.9127089 L4.59394979,20 L0,16.0715364 L2.63325202,13.3590716 C3.04101719,12.9373575 3.50569544,12.5988612 4.00502141,12.3482868 L11.8885809,12.3481787 C12.0921814,12.4580818 12.265507,12.6277326 12.3840186,12.8423202 C12.6013214,13.235788 12.6013214,13.7205604 12.3840186,14.1140282 C12.1667157,14.5074961 11.7651235,14.7498822 11.3305178,14.7498822 L8.8203836,14.7498822 C8.59812764,14.7498822 8.4179536,14.9382365 8.4179536,15.1705832 C8.4179536,15.4029299 8.59812764,15.5912842 8.8203836,15.5912842 L11.6649573,15.5912842 C12.0744374,15.5911962 12.4643296,15.4080236 12.7362664,15.0879798 L15.8031873,11.4322995 C16.2669081,10.8987153 17.0544076,10.8528775 17.5719247,11.3293469 Z" id="Path-Copy"></path>
                        </g>
                    </g>
                </g>
            </g>
        </g>
    </g>
</svg>