<?xml version="1.0" encoding="utf-8"?>
<!-- Generator: Adobe Illustrator 16.0.0, SVG Export Plug-In . SVG Version: 6.00 Build 0)  -->
<!DOCTYPE svg PUBLIC "-//W3C//DTD SVG 1.1//EN" "http://www.w3.org/Graphics/SVG/1.1/DTD/svg11.dtd">
<svg version="1.1" xmlns="http://www.w3.org/2000/svg" xmlns:xlink="http://www.w3.org/1999/xlink" x="0px" y="0px" width="400px"
	 height="400px" viewBox="0 0 400 400" enable-background="new 0 0 400 400" xml:space="preserve">
<g id="Calque_2" display="none">
	<rect x="1.106" y="0" display="inline" fill="#084287" width="400" height="400"/>
</g>
<g id="Grey">
	<g id="Bitcoin_Mining_1_">
		<path fill="#FAB915" d="M178.867,101.929l0.869-0.896c3.605-3.716-9.636-16.766-13.259-13.258l-0.896,0.869L178.867,101.929z"/>
		<path fill="#FAB915" d="M139.339,114.109l-84.675,82.165c-4.646,4.509-4.757,11.929-0.25,16.573
			c4.507,4.645,11.927,4.758,16.573,0.25c0.072-0.07,0.18-0.178,0.25-0.25l82.165-84.675L139.339,114.109z"/>
		<path fill="#FAB915" d="M201.105,178.906c-0.242-25.835-9.113-49.603-23.861-68.573l1.697-1.75
			c0.893-0.919,0.881-2.384-0.025-3.289l-16.699-16.7c-0.905-0.906-2.37-0.917-3.29-0.024l-1.749,1.697
			C138.208,75.52,114.44,66.649,88.606,66.406c20.411,9.321,39.197,21.581,55.828,36.229l-5.02,4.87
			c-0.938,0.911-0.95,2.415-0.024,3.339l17.278,17.278c0.925,0.925,2.428,0.913,3.339-0.025l4.87-5.019
			C179.525,139.709,191.785,158.495,201.105,178.906z"/>
		<polygon fill="#FAB915" points="313.605,310.156 284.895,170.117 215.168,204.688 218.098,228.125 240.949,232.813 
			249.738,253.906 270.246,253.906 278.449,270.898 267.902,257.422 246.223,258.594 235.676,238.086 217.572,236.693 
			221.027,257.422 208.138,271.484 213.996,287.891 203.449,300.781 211.652,287.891 204.621,270.898 216.34,255.664 
			212.824,236.328 205.621,217.957 205.794,217.578 163.606,310.156 88.606,347.656 351.105,347.656 		"/>
		<path fill="#FAB915" d="M189.973,220.508l-32.562,33.719c-1.178-1.137-2.294-2.334-3.346-3.588
			c-1.052-1.254-2.038-2.563-2.953-3.92L189.973,220.508z"/>
		<path fill="#FAB915" d="M182.355,197.656l-46.846-1.637c0.077-2.182,0.305-4.354,0.684-6.504c0.379-2.149,0.908-4.27,1.582-6.346
			L182.355,197.656z"/>
		<path fill="#FAB915" d="M246.223,171.289l31.455-46.634c1.629,1.098,3.197,2.281,4.703,3.543c1.504,1.263,2.941,2.603,4.305,4.016
			L246.223,171.289z"/>
		<path fill="#FAB915" d="M218.684,170.117l-4.9-46.619c1.629-0.171,3.264-0.257,4.9-0.257s3.271,0.086,4.9,0.257L218.684,170.117z"
			/>
		<g>
			<path fill="#FAB915" d="M112.674,288.834l6.744,6.744c3.933-3.934,9.898-8.729,5.994-12.631
				C121.354,278.889,116.882,284.627,112.674,288.834z"/>
			<path fill="#FAB915" d="M114.387,274.92c-3.806-3.807-8.005,1.225-11.204,4.424l6.672,6.672
				C113.618,282.254,118.158,278.691,114.387,274.92z"/>
			<path fill="#FAB915" d="M134.274,264.486c-10.983-10.982-28.791-10.982-39.775,0c-10.983,10.984-10.983,28.793,0,39.775
				c10.984,10.984,28.792,10.984,39.775,0C145.258,293.279,145.258,275.471,134.274,264.486z M131.789,296.805l-2.841,2.842
				l-3.545-3.547c-0.79,0.795-1.722,1.727-2.841,2.842l3.545,3.545l-2.841,2.842l-3.548-3.549c-1.057,1.053-2.231,2.225-3.545,3.539
				c-0.644,0.645-1.254,1.174-1.82,0.607l-1.855-3.426l2.354-2.354L98.616,283.91l-2.355,2.355l-3.425-1.855
				c-0.583-0.582,0.002-1.215,0.607-1.82c1.331-1.33,2.501-2.504,3.54-3.547l-3.548-3.547l2.841-2.84l3.543,3.543
				c1.159-1.162,2.082-2.082,2.85-2.832l-3.552-3.553l2.841-2.842l3.678,3.68c4.508-3.639,8.876-4.529,13.069-0.336
				c1.38,1.379,2.37,4.24,1.712,6.922c2.763-1.766,6.69-1.73,9.633,1.213c4.965,4.965,2.901,9.641-1.851,14.764L131.789,296.805z"/>
		</g>
		<g>
			<path fill="#FAB915" d="M312.885,88.892l-3.707,3.707c2.092,2.09,4.07,4.612,6.166,2.518
				C317.457,93.002,314.662,90.669,312.885,88.892z"/>
			<path fill="#FAB915" d="M307.613,94.165l-3.748,3.747c2.186,2.185,4.85,5.499,7.018,3.33
				C313.139,98.987,309.951,96.503,307.613,94.165z"/>
			<path fill="#FAB915" d="M323.348,81.858c-7.32-7.322-19.193-7.322-26.516,0s-7.322,19.194,0,26.517s19.195,7.322,26.516,0
				C330.67,101.053,330.67,89.181,323.348,81.858z M317.9,97.515c-0.766,0.767-2.357,1.317-3.846,0.952
				c0.98,1.535,0.961,3.717-0.674,5.352c-2.758,2.758-5.355,1.611-8.203-1.028l-1.992,1.994l-1.578-1.578l1.969-1.97
				c-0.441-0.438-0.959-0.956-1.578-1.578l-1.971,1.969l-1.578-1.578l1.973-1.972c-0.586-0.587-1.238-1.24-1.967-1.97
				c-0.357-0.357-0.652-0.697-0.338-1.011l1.904-1.03l1.307,1.308l9.02-9.019l-1.309-1.308l1.031-1.903
				c0.322-0.323,0.676,0.001,1.012,0.337c0.738,0.739,1.391,1.39,1.971,1.966l1.971-1.971l1.578,1.579l-1.969,1.968
				c0.645,0.644,1.156,1.157,1.572,1.583l1.975-1.973l1.578,1.579l-2.043,2.044C319.734,92.76,320.23,95.186,317.9,97.515z"/>
		</g>
		<g>
			<path fill="#FAB915" d="M223.885,70.581c0-4.187-5.078-3.729-8.596-3.729v7.339C219.428,74.191,223.885,74.729,223.885,70.581z"
				/>
			<path fill="#FAB915" d="M215.289,77.292v7.418c4.326,0,10.244,0.644,10.244-3.65C225.533,76.595,219.918,77.292,215.289,77.292z"
				/>
			<path fill="#FAB915" d="M218.684,52.343c-12.943,0-23.438,10.493-23.438,23.438s10.494,23.438,23.438,23.438
				s23.438-10.493,23.438-23.438S231.627,52.343,218.684,52.343z M221.418,88.239v3.948h-3.125v-3.9
				c-0.869,0.003-1.895,0.002-3.125,0.001v3.899h-3.125v-3.903c-1.159-0.002-2.45-0.003-3.896-0.003
				c-0.708,0-1.334-0.045-1.334-0.667l0.863-2.904h2.591V66.852h-2.591l-0.863-2.904c0-0.64,0.67-0.667,1.334-0.667
				c1.464,0,2.754-0.001,3.896-0.004v-3.902h3.125v3.897c1.277-0.001,2.291,0,3.125,0.01v-3.907h3.125v4.046
				c4.48,0.479,7.373,2.392,7.373,7.003c0,1.518-1.029,3.636-2.867,4.749c2.49,0.548,4.633,2.727,4.633,5.965
				C230.557,86.599,226.85,88.035,221.418,88.239z"/>
		</g>
	</g>
</g>
</svg>
