<?xml version="1.0" encoding="UTF-8"?>
<svg width="51px" height="58px" viewBox="0 0 51 58" version="1.1" xmlns="http://www.w3.org/2000/svg" xmlns:xlink="http://www.w3.org/1999/xlink">
    <!-- Generator: Sketch 55 (78076) - https://sketchapp.com -->
    <title>games</title>
    <desc>Created with Sketch.</desc>
    <g id="Page-1" stroke="none" stroke-width="1" fill="none" fill-rule="evenodd">
        <g id="Wallet-Icons" transform="translate(-431.000000, -99.000000)" fill="#FFFFFF" fill-rule="nonzero">
            <g id="games" transform="translate(455.000000, 127.000000) rotate(10.000000) translate(-455.000000, -127.000000) translate(430.000000, 100.000000)">
                <path d="M21.2765957,10.5882353 L46.8085106,10.5882353 C48.5711215,10.5882353 50,12.0103896 50,13.7647059 L50,50.1298174 C50,51.8841337 48.5711215,53.306288 46.8085106,53.306288 L21.2765957,53.306288 C19.5139848,53.306288 18.0851064,51.8841337 18.0851064,50.1298174 L18.0851064,13.7647059 C18.0851064,12.0103896 19.5139848,10.5882353 21.2765957,10.5882353 Z M21.2765957,13.7647059 L21.2765957,50.1298174 L46.8085106,50.1298174 L46.8085106,13.7647059 L21.2765957,13.7647059 Z" id="Rectangle-Copy-25"></path>
                <path d="M32.769929,7.59524172 L15.754868,8.33535199 L15.2086904,44.677406 L7.86690468,45.4490588 C6.11394954,45.6333018 4.54424302,44.3682966 4.36086704,42.6235907 L0.559677809,6.457691 C0.376301826,4.71298507 1.64869713,3.14926298 3.40165227,2.96501997 L28.7937007,0.296208147 C30.5466558,0.111965137 32.1163623,1.37697028 32.2997383,3.12167622 L32.769929,7.59524172 Z" id="Combined-Shape"></path>
                <polygon id="Rectangle" transform="translate(34.042553, 31.764706) rotate(-315.000000) translate(-34.042553, -31.764706) " points="27.689612 25.4117647 37.7816156 28.0256435 40.3954944 38.1176471 30.3034908 35.5037683"></polygon>
                <polygon id="Rectangle-Copy-53" transform="translate(42.553191, 19.421620) rotate(-315.000000) translate(-42.553191, -19.421620) " points="39.3767209 16.245149 44.4227227 17.5520884 45.7296621 22.5980901 40.6836603 21.2911507"></polygon>
                <polygon id="Rectangle-Copy-58" transform="translate(25.531915, 44.470588) rotate(-315.000000) translate(-25.531915, -44.470588) " points="22.3554443 41.2941176 27.4014461 42.6010571 28.7083855 47.6470588 23.6623837 46.3401194"></polygon>
            </g>
        </g>
    </g>
</svg>