<?xml version="1.0" encoding="UTF-8"?>
<svg width="50px" height="50px" viewBox="0 0 50 50" version="1.1" xmlns="http://www.w3.org/2000/svg" xmlns:xlink="http://www.w3.org/1999/xlink">
    <!-- Generator: Sketch 55 (78076) - https://sketchapp.com -->
    <title>tools</title>
    <desc>Created with Sketch.</desc>
    <g id="Page-1" stroke="none" stroke-width="1" fill="none" fill-rule="evenodd">
        <g id="Wallet-Icons" transform="translate(-429.000000, -378.000000)" fill="#FFFFFF" fill-rule="nonzero">
            <g id="tools" transform="translate(429.000000, 378.000000)">
                <path d="M1.37176591,41.9982546 C-0.457186858,43.8272074 -0.457186858,46.789117 1.37176591,48.6180698 C2.2862423,49.5325462 3.48470226,49.988193 4.68326489,49.988193 C5.88182752,49.988193 7.08028747,49.5325462 7.99476386,48.6180698 L23.3661191,33.2435318 L16.7431211,26.6267967 L1.37176591,41.9982546 Z" id="Path"></path>
                <polygon id="Path" points="39.7893224 13.5089322 46.4840862 10.0475359 49.9890144 3.27166324 46.7212526 0.00390143737 39.94846 3.51201232 36.4809035 10.2005133 28.3379877 18.3527721 31.6401437 21.661191"></polygon>
                <path d="M41.2561602,31.2773101 L40.6256674,31.2148871 C39.4833676,31.2148871 38.400308,31.4489733 37.389117,31.8235113 L18.1724846,12.6037988 C18.5470226,11.5926078 18.7811088,10.5095483 18.7811088,9.36724846 L18.7186858,8.73675565 C18.387885,3.86468172 14.3741273,0.00390143737 9.41786448,0.00390143737 C7.97587269,0.00390143737 6.62443532,0.356570842 5.40410678,0.940246407 L11.6244353,7.16057495 C11.9521561,7.48829569 12.1768994,7.87525667 12.326694,8.28418891 C12.7355236,9.38901437 12.513963,10.6812115 11.6244353,11.5738193 C11.0158111,12.1824435 10.2168378,12.4882957 9.41786448,12.4882957 C9.04958932,12.4882957 8.68439425,12.4071869 8.33480493,12.276078 C7.92597536,12.1200205 7.5389117,11.90154 7.21119097,11.5707392 L0.990965092,5.35349076 C0.407289528,6.5738193 0.0546201232,7.92525667 0.0546201232,9.36724846 C0.0546201232,14.3235113 3.91540041,18.337269 8.78747433,18.6680698 L9.41796715,18.7304928 C10.5602669,18.7304928 11.6433265,18.4964066 12.6545175,18.1250513 L31.8679671,37.3416838 C31.499692,38.3528747 31.2656057,39.4359343 31.2656057,40.5782341 L31.3311088,41.2087269 C31.6557495,46.0838809 35.6725873,49.9415811 40.6288501,49.9415811 C42.0708419,49.9415811 43.4253593,49.5951745 44.6426078,49.0052361 L38.4222793,42.7849076 C38.0976386,42.4602669 37.8698152,42.0702259 37.7137577,41.6644764 C37.3049281,40.5596509 37.5264887,39.2643737 38.4222793,38.3717659 C39.0246407,37.7631417 39.8298768,37.4572895 40.6288501,37.4572895 C40.9971253,37.4572895 41.3591376,37.5353183 41.7149897,37.6695072 C42.1238193,37.8224846 42.513963,38.0409651 42.8354209,38.3717659 L49.0557495,44.5920945 C49.6425051,43.3685832 49.9920945,42.0203285 49.9920945,40.5783368 C49.9890144,35.6218686 46.1282341,31.6081109 41.2561602,31.2773101 Z" id="Path"></path>
            </g>
        </g>
    </g>
</svg>