<?xml version="1.0" encoding="utf-8"?>
<!-- Generator: Adobe Illustrator 16.0.0, SVG Export Plug-In . SVG Version: 6.00 Build 0)  -->
<!DOCTYPE svg PUBLIC "-//W3C//DTD SVG 1.1//EN" "http://www.w3.org/Graphics/SVG/1.1/DTD/svg11.dtd">
<svg version="1.1" xmlns="http://www.w3.org/2000/svg" xmlns:xlink="http://www.w3.org/1999/xlink" x="0px" y="0px" width="400px"
	 height="400px" viewBox="0 0 400 400" enable-background="new 0 0 400 400" xml:space="preserve">
<g id="Calque_2" display="none">
	<rect x="0" display="inline" fill="#084287" width="400" height="400"/>
</g>
<g id="Black" display="none">
	<g display="inline">
		<g>
			<g>
				<path d="M286.422,150.249l-0.861-2.866l-14.596,14.573c-4.539,4.585-12.324,4.231-17.293-0.733
					c-4.973-4.975-5.295-12.732-0.711-17.294l14.6-14.574l-2.889-0.855c-11.346-3.376-23.563-0.301-31.855,8.03
					c-7.605,7.603-10.838,18.329-8.754,28.885l-21.707,21.705l24.973,25.863l22.176-22.129c10.563,2.085,21.307-1.146,28.912-8.752
					C286.713,173.786,289.764,161.587,286.422,150.249z"/>
				<path d="M141.938,247.543c-7.017,7.015-7.017,18.426,0,25.44c3.507,3.508,8.1,5.262,12.696,5.262
					c4.617,0,9.209-1.754,12.717-5.262l33.546-33.519l-24.972-25.912L141.938,247.543z M158.008,263.282h-0.002
					c-1.679,1.705-4.637,1.715-6.35,0c-0.855-0.854-1.318-1.991-1.318-3.191c0-1.195,0.463-2.332,1.316-3.187
					c0.857-0.855,1.992-1.292,3.189-1.292s2.334,0.437,3.166,1.292c0.854,0.854,1.315,1.991,1.318,3.187
					C159.327,261.286,158.863,262.428,158.008,263.282z"/>
			</g>
			<path d="M258.502,248.813l-80.756-83.575c-1.71-3.313-1.348-6.383,1.052-9.38c6.147-7.686,14.77-12.004,27.126-13.666
				c1.205-0.155,2.322-0.675,3.207-1.53l1.381-1.316c0.613-0.597,0.893-1.462,0.715-2.312c-0.127-0.846-0.689-1.535-1.492-1.895
				h-0.002c-23.686-10.386-48.406-5.946-66.089,11.776l-14.63,14.117l0.438,1.122c1.941,4.858,0.737,10.333-3.004,13.966
				c-3.763,3.634-9.258,4.635-14.068,2.521l-1.109-0.476l-9.593,9.269l33.619,34.84l9.611-9.303l-0.44-1.073
				c-1.917-4.878-0.731-10.377,3.031-13.98c3.731-3.629,9.254-4.631,14.18-2.482c0.124,0.028,0.343,0.121,0.244,0.014
				c0.774,0.802,1.416,1.463,1.899,1.963l-0.009,0.039l1.228,1.268l0.002-0.005c0.091,0.097,0.188,0.165,0.262,0.263
				c0.018,0.02,0.035,0.033,0.074,0.049l-0.007,0.032l70.249,72.719l1.293,1.243l0.1-0.097c2.906,2.196,6.379,3.317,9.852,3.317
				c4.057,0,8.113-1.511,11.219-4.527C264.508,265.52,264.707,255.203,258.502,248.813z"/>
		</g>
		<path d="M350,211.419v-22.838l-23.783-12.602l-4.912-18.286l14.313-22.793l-11.418-19.797l-26.914,0.987l-13.398-13.375
			l1.014-26.914L265.1,64.382l-22.818,14.312l-18.262-4.912L211.418,50h-22.837l-12.602,23.782l-18.287,4.912l-22.794-14.312
			l-19.799,11.418l0.989,26.914l-13.374,13.375L75.8,115.103l-11.419,19.797l14.313,22.793l-4.912,18.286L50,188.581v22.838
			l23.782,12.602l4.912,18.262L64.381,265.1L75.8,284.9l26.914-1.014l13.374,13.398l-0.989,26.914l19.799,11.419l22.794-14.313
			l18.287,4.912L188.581,350h22.837l12.602-23.782l18.262-4.912l22.818,14.313l19.801-11.419l-1.014-26.914l13.398-13.398
			l26.914,1.014l11.418-19.801l-14.313-22.817l4.912-18.262L350,211.419z M200,305.647c-58.329,0-105.623-47.318-105.623-105.647
			S141.67,94.377,200,94.377c58.329,0,105.647,47.293,105.647,105.623S258.328,305.647,200,305.647z"/>
	</g>
</g>
<g id="Grey">
	<g>
		<g>
			<g>
				<path fill="#FAB915" d="M286.422,150.249l-0.861-2.866l-14.596,14.573c-4.539,4.585-12.324,4.231-17.293-0.733
					c-4.973-4.975-5.295-12.732-0.711-17.294l14.6-14.574l-2.889-0.855c-11.346-3.376-23.563-0.301-31.855,8.03
					c-7.605,7.603-10.838,18.329-8.754,28.885l-21.707,21.705l24.973,25.863l22.176-22.129c10.563,2.085,21.307-1.146,28.912-8.752
					C286.713,173.786,289.764,161.587,286.422,150.249z"/>
				<path fill="#FAB915" d="M141.938,247.543c-7.017,7.015-7.017,18.426,0,25.44c3.507,3.508,8.1,5.262,12.696,5.262
					c4.617,0,9.209-1.754,12.717-5.262l33.546-33.519l-24.972-25.912L141.938,247.543z M158.008,263.282h-0.002
					c-1.679,1.705-4.637,1.715-6.35,0c-0.855-0.854-1.318-1.991-1.318-3.191c0-1.195,0.463-2.332,1.316-3.187
					c0.857-0.855,1.992-1.292,3.189-1.292s2.334,0.437,3.166,1.292c0.854,0.854,1.315,1.991,1.318,3.187
					C159.327,261.286,158.863,262.428,158.008,263.282z"/>
			</g>
			<path fill="#FAB915" d="M258.502,248.813l-80.756-83.575c-1.71-3.313-1.348-6.383,1.052-9.38
				c6.147-7.686,14.77-12.004,27.126-13.666c1.205-0.155,2.322-0.675,3.207-1.53l1.381-1.316c0.613-0.597,0.893-1.462,0.715-2.312
				c-0.127-0.846-0.689-1.535-1.492-1.895h-0.002c-23.686-10.386-48.406-5.946-66.089,11.776l-14.63,14.117l0.438,1.122
				c1.941,4.858,0.737,10.333-3.004,13.966c-3.763,3.634-9.258,4.635-14.068,2.521l-1.109-0.476l-9.593,9.269l33.619,34.84
				l9.611-9.303l-0.44-1.073c-1.917-4.878-0.731-10.377,3.031-13.98c3.731-3.629,9.254-4.631,14.18-2.482
				c0.124,0.028,0.343,0.121,0.244,0.014c0.774,0.802,1.416,1.463,1.899,1.963l-0.009,0.039l1.228,1.268l0.002-0.005
				c0.091,0.097,0.188,0.165,0.262,0.263c0.018,0.02,0.035,0.033,0.074,0.049l-0.007,0.032l70.249,72.719l1.293,1.243l0.1-0.097
				c2.906,2.196,6.379,3.317,9.852,3.317c4.057,0,8.113-1.511,11.219-4.527C264.508,265.52,264.707,255.203,258.502,248.813z"/>
		</g>
		<path fill="#FAB915" d="M350,211.419v-22.838l-23.783-12.602l-4.912-18.286l14.313-22.793l-11.418-19.797l-26.914,0.987
			l-13.398-13.375l1.014-26.914L265.1,64.382l-22.818,14.312l-18.262-4.912L211.418,50h-22.837l-12.602,23.782l-18.287,4.912
			l-22.794-14.312l-19.799,11.418l0.989,26.914l-13.374,13.375L75.8,115.103l-11.419,19.797l14.313,22.793l-4.912,18.286L50,188.581
			v22.838l23.782,12.602l4.912,18.262L64.381,265.1L75.8,284.9l26.914-1.014l13.374,13.398l-0.989,26.914l19.799,11.419
			l22.794-14.313l18.287,4.912L188.581,350h22.837l12.602-23.782l18.262-4.912l22.818,14.313l19.801-11.419l-1.014-26.914
			l13.398-13.398l26.914,1.014l11.418-19.801l-14.313-22.817l4.912-18.262L350,211.419z M200,305.647
			c-58.329,0-105.623-47.318-105.623-105.647S141.67,94.377,200,94.377c58.329,0,105.647,47.293,105.647,105.623
			S258.328,305.647,200,305.647z"/>
	</g>
</g>
</svg>
