<?xml version="1.0" encoding="utf-8"?>
<!-- Generator: Adobe Illustrator 16.0.0, SVG Export Plug-In . SVG Version: 6.00 Build 0)  -->
<!DOCTYPE svg PUBLIC "-//W3C//DTD SVG 1.1//EN" "http://www.w3.org/Graphics/SVG/1.1/DTD/svg11.dtd">
<svg version="1.1" xmlns="http://www.w3.org/2000/svg" xmlns:xlink="http://www.w3.org/1999/xlink" x="0px" y="0px" width="400px"
	 height="400px" viewBox="0 0 400 400" enable-background="new 0 0 400 400" xml:space="preserve">
<g id="Calque_2" display="none">
	<rect y="-0.001" display="inline" fill="#084287" width="400" height="400.001"/>
</g>
<g id="Black">
	<path fill="none" d="M320.309,108.603H204.725c-12.821,0-23.252,10.432-23.252,23.252v170.933c0,12.82,10.431,23.25,23.252,23.25
		h115.584c12.82,0,23.252-10.43,23.252-23.25V131.854C343.561,119.034,333.129,108.603,320.309,108.603z M320.309,116.611
		c2.771,0,5.373,0.748,7.614,2.047l-5.445,7.584l-6.912-9.631H320.309z M308.524,116.611l10.432,14.536l-16.742,23.333
		l-16.748-23.333l10.432-14.536H308.524z M288.856,116.611l-6.912,9.631l-6.913-9.631H288.856z M248.325,116.611l-6.915,9.631
		l-6.912-9.631H248.325z M227.458,116.611l10.433,14.536l-16.747,23.333l-16.746-23.333l10.435-14.536H227.458z M204.725,116.611
		h3.064l-6.912,9.631l-4.916-6.848C198.442,117.643,201.465,116.611,204.725,116.611z M189.481,131.854
		c0-3.047,0.901-5.885,2.447-8.269l5.428,7.562l-7.875,10.971V131.854z M189.481,151.929l11.396-15.877l16.745,23.333
		l-16.745,23.332l-11.396-15.877V151.929z M189.481,176.647l7.875,10.973l-7.875,10.973V176.647z M189.481,233.119l7.875,10.973
		l-7.875,10.973V233.119z M189.481,264.873l11.396-15.875l16.746,23.334l-16.746,23.328l-11.396-15.877V264.873z M189.481,302.787
		v-13.191l7.875,10.971l-6.355,8.854C190.027,307.414,189.481,305.162,189.481,302.787z M204.725,318.031
		c-3.874,0-7.411-1.455-10.103-3.844l6.255-8.719l9.014,12.563H204.725z M216.934,318.031l-12.536-17.465l16.746-23.332
		l16.747,23.332l-12.535,17.465H216.934z M232.396,318.031l9.014-12.563l9.014,12.563H232.396z M272.933,318.031l9.012-12.563
		l9.015,12.563H272.933z M298,318.031l-12.534-17.465l16.746-23.332l16.744,23.332l-12.533,17.465H298z M320.309,318.031h-6.845
		l9.014-12.563l6.874,9.58C326.821,316.918,323.69,318.031,320.309,318.031z M335.552,302.787c0,2.914-0.823,5.639-2.249,7.955
		l-7.306-10.176l9.555-13.309V302.787z M335.552,277.447l-13.074,18.213l-16.744-23.328l16.744-23.334l13.074,18.213V277.447z
		 M335.552,257.402l-9.555-13.311l9.555-13.309V257.402z M335.552,220.975l-7.551,10.52c-3.96,18.381-15.454,33.957-31.099,43.332
		l-14.958,20.834l-8.754-12.195c-2.144,0.344-4.321,0.58-6.527,0.715l11.761,16.387l-12.533,17.465h-8.425l-12.535-17.465
		l11.849-16.508c-2.173-0.184-4.314-0.473-6.423-0.859l-8.946,12.461l-16.354-22.781c-13.091-8.846-22.872-22.201-27.151-37.832
		l-8.423-11.736v-14.908l10.072-14.035c4.227-11.592,11.571-21.677,21.009-29.269l0.581-0.809l0.162,0.226
		c1.501-1.173,3.052-2.285,4.651-3.329l-1.294-1.803l16.747-23.333l10.81,15.06c2.151-0.332,4.339-0.557,6.553-0.679l-13.842-19.285
		l10.433-14.536h12.627l10.434,14.536l-13.801,19.229c2.249,0.069,4.469,0.25,6.656,0.536l10.665-14.86l16.748,23.333l-0.766,1.066
		c13.832,8.63,24.277,22.162,28.924,38.166l8.701,12.123V220.975z M335.552,200.928l-9.555-13.308l9.555-13.309V200.928z
		 M335.552,164.501l-13.074,18.214l-16.744-23.332l16.744-23.333l13.074,18.214V164.501z M335.552,144.456l-9.555-13.309
		l6.268-8.729c2.056,2.599,3.287,5.875,3.287,9.437V144.456z"/>
	<g>
		<g>
			<path fill="#FAB915" d="M153.063,173.503c-5.197-5.609-13.313-8.2-21.143-5.892c-11.009,3.249-17.166,15.26-13.918,26.269
				c0.378,1.287,1.047,3.083,1.604,4.11l-0.02,0.006c0,0,7.271,20.738,48.452,30.273v-71.104c-0.121,0.034-0.241,0.06-0.362,0.097
				C159.844,159.572,154.382,165.971,153.063,173.503z"/>
			<path fill="#FAB915" d="M84.711,120.73c-0.264-0.338-0.563-0.458-0.896-0.36c-0.134,0.04-0.339,0.109-0.617,0.21
				c-0.279,0.1-0.581,0.216-0.902,0.348c-0.325,0.132-0.66,0.271-1.008,0.419c-0.346,0.147-0.645,0.285-0.896,0.414
				c-0.304,0.144-0.418,0.341-0.345,0.591c0.016,0.05,0.06,0.136,0.133,0.261l0.953,1.296l-3.355,30.851
				c-0.006,0.039-0.003,0.083,0.012,0.133c0.051,0.167,0.209,0.211,0.476,0.131c0.483-0.143,0.915-0.279,1.293-0.407
				c0.38-0.13,0.714-0.257,1.004-0.378c0.224-0.104,0.341-0.255,0.354-0.459l0.791-11.519l10.88-3.401l7.21,9.404
				c0.172,0.221,0.4,0.291,0.685,0.207c0.134-0.041,0.349-0.108,0.646-0.205c0.3-0.098,0.625-0.21,0.975-0.342
				c0.351-0.13,0.709-0.272,1.072-0.425c0.363-0.152,0.686-0.297,0.973-0.437c0.318-0.148,0.436-0.364,0.353-0.648
				c-0.015-0.049-0.067-0.134-0.157-0.252L84.711,120.73z M82.051,140.481l0.969-13.774l8.414,11.006L82.051,140.481z"/>
			<path fill="#FAB915" d="M182.037,68.333L71.178,101.04c-15.954,4.705-25.07,21.453-20.363,37.406l48.367,163.947
				c4.705,15.953,21.455,25.07,37.408,20.363l32.713-9.65c-0.6-2.197-0.992-4.475-1.159-6.814l-33.497,9.881
				c-12.297,3.629-25.254-3.426-28.882-15.723L57.397,136.503c-3.628-12.297,3.425-25.252,15.724-28.88l110.857-32.706
				c12.299-3.627,25.254,3.425,28.881,15.723l1.854,6.279h7.157l-2.427-8.222C214.737,72.744,197.99,63.626,182.037,68.333z"/>
		</g>
		<g>
			<path fill="#FAB915" d="M284.206,215.203v-0.238c6.246-3.174,10.128-9.436,10.128-17.289c0-8.647-4.668-15.252-11.048-18.1
				c-3.99-1.817-8.297-2.39-14.107-2.39h-3.008v-6.573c0-1.288-1.025-2.328-2.324-2.328h-6.708c-1.288,0-2.339,1.04-2.339,2.328
				v6.573h-7.544v-6.573c0-1.288-1.046-2.328-2.34-2.328h-6.7c-1.301,0-2.329,1.04-2.329,2.328v6.573h-6.89
				c-0.806,0-1.449,0.659-1.449,1.464v6.407c0,0.804,0.644,1.464,1.449,1.464h6.89v61.662h-6.493c-1.031,0-1.882,0.838-1.878,1.885
				l0.021,5.602c0.006,1.035,0.835,1.881,1.863,1.881h6.486v6.467c0,1.285,1.028,2.34,2.329,2.34h6.7c1.294,0,2.34-1.055,2.34-2.34
				v-6.467h7.544v6.467c0,1.285,1.051,2.34,2.339,2.34h6.708c1.299,0,2.324-1.055,2.324-2.34v-6.467h4.486
				c4.438,0,8.192-0.238,12.057-1.498c8.318-2.836,14.802-10.807,14.802-21.396C297.516,225.559,292.843,217.699,284.206,215.203
				 M269.179,186.522c3.418,0,6.02,0.458,8.305,1.592c3.413,1.939,5.23,5.916,5.23,10.588c0,7.287-4.547,12.296-11.824,12.296
				h-23.634v-24.476H269.179z M278.274,247.072c-2.155,0.908-4.886,1.131-7.171,1.131l-23.848-0.018v-27.854l24.768-0.01
				c8.429,0,13.888,5.461,13.888,13.779C285.911,240.119,282.944,245.129,278.274,247.072"/>
			<g>
				<path fill="#FAB915" d="M320.309,101.738H204.725c-16.633,0-30.117,13.484-30.117,30.116v170.933
					c0,16.633,13.484,30.117,30.117,30.117h115.584c16.633,0,30.116-13.484,30.116-30.117V131.854
					C350.425,115.222,336.941,101.738,320.309,101.738z M343.561,302.787c0,12.82-10.432,23.25-23.252,23.25H204.725
					c-12.821,0-23.252-10.43-23.252-23.25V131.854c0-12.82,10.431-23.252,23.252-23.252h115.584
					c12.82,0,23.252,10.432,23.252,23.252V302.787z"/>
				<g>
					<polygon fill="#FAB915" points="305.733,159.384 322.478,182.715 335.552,164.501 335.552,154.265 322.478,136.051 					"/>
					<path fill="#FAB915" d="M241.41,295.66l8.946-12.461c-9.232-1.693-17.809-5.26-25.301-10.32L241.41,295.66z"/>
					<polygon fill="#FAB915" points="272.933,318.031 290.959,318.031 281.944,305.469 					"/>
					<path fill="#FAB915" d="M281.944,295.66l14.958-20.834c-7.148,4.283-15.159,7.27-23.712,8.639L281.944,295.66z"/>
					<path fill="#FAB915" d="M329.517,217.32c0,4.865-0.531,9.604-1.516,14.174l7.551-10.52v-10.236l-8.701-12.123
						C328.574,204.555,329.517,210.826,329.517,217.32z"/>
					<polygon fill="#FAB915" points="335.552,200.928 335.552,174.311 325.997,187.62 					"/>
					<polygon fill="#FAB915" points="232.396,318.031 250.424,318.031 241.41,305.469 					"/>
					<path fill="#FAB915" d="M256.779,284.059l-11.849,16.508l12.535,17.465h8.425l12.533-17.465l-11.761-16.387
						c-1.373,0.084-2.753,0.141-4.146,0.141C260.582,284.32,258.672,284.221,256.779,284.059z"/>
					<polygon fill="#FAB915" points="288.856,116.611 275.031,116.611 281.944,126.242 					"/>
					<path fill="#FAB915" d="M333.303,310.742c1.426-2.316,2.249-5.041,2.249-7.955v-15.529l-9.555,13.309L333.303,310.742z"/>
					<path fill="#FAB915" d="M264.623,150.375l13.801-19.229l-10.434-14.536h-12.627l-10.433,14.536l13.842,19.285
						c1.24-0.068,2.487-0.11,3.744-0.11C263.223,150.322,263.922,150.354,264.623,150.375z"/>
					<path fill="#FAB915" d="M189.481,289.596v13.191c0,2.375,0.546,4.627,1.52,6.633l6.355-8.854L189.481,289.596z"/>
					<path fill="#FAB915" d="M298.692,159.384l-16.748-23.333l-10.665,14.86c9.687,1.266,18.721,4.593,26.647,9.539L298.692,159.384
						z"/>
					<path fill="#FAB915" d="M207.789,116.611h-3.064c-3.26,0-6.282,1.032-8.764,2.783l4.916,6.848L207.789,116.611z"/>
					<path fill="#FAB915" d="M325.997,131.147l9.555,13.309v-12.601c0-3.563-1.231-6.838-3.287-9.437L325.997,131.147z"/>
					<polygon fill="#FAB915" points="302.214,154.479 318.956,131.147 308.524,116.611 295.897,116.611 285.466,131.147 					"/>
					<polygon fill="#FAB915" points="221.144,154.479 237.891,131.147 227.458,116.611 214.832,116.611 204.397,131.147 					"/>
					<polygon fill="#FAB915" points="335.552,257.402 335.552,230.783 325.997,244.092 					"/>
					<polygon fill="#FAB915" points="305.733,272.332 322.478,295.66 335.552,277.447 335.552,267.211 322.478,248.998 					"/>
					<polygon fill="#FAB915" points="217.622,159.384 200.877,136.051 189.481,151.929 189.481,166.838 200.877,182.715 					"/>
					<path fill="#FAB915" d="M313.464,318.031h6.845c3.382,0,6.513-1.113,9.043-2.982l-6.874-9.58L313.464,318.031z"/>
					<path fill="#FAB915" d="M191.929,123.585c-1.546,2.384-2.447,5.222-2.447,8.269v10.264l7.875-10.971L191.929,123.585z"/>
					<path fill="#FAB915" d="M194.622,314.188c2.691,2.389,6.229,3.844,10.103,3.844h5.166l-9.014-12.563L194.622,314.188z"/>
					<path fill="#FAB915" d="M327.923,118.658c-2.241-1.299-4.844-2.047-7.614-2.047h-4.743l6.912,9.631L327.923,118.658z"/>
					<path fill="#FAB915" d="M241.41,136.051l-16.747,23.333l1.294,1.803c7.786-5.082,16.686-8.599,26.263-10.076L241.41,136.051z"
						/>
					<path fill="#FAB915" d="M199.554,194.368l-10.072,14.035v14.908l8.423,11.736c-1.546-5.648-2.388-11.588-2.388-17.727
						C195.517,209.258,196.943,201.527,199.554,194.368z"/>
					<polygon fill="#FAB915" points="248.325,116.611 234.498,116.611 241.41,126.242 					"/>
					<polygon fill="#FAB915" points="189.481,176.647 189.481,198.592 197.356,187.62 					"/>
					<polygon fill="#FAB915" points="217.623,272.332 200.877,248.998 189.481,264.873 189.481,279.783 200.877,295.66 					"/>
					<polygon fill="#FAB915" points="221.144,277.234 204.397,300.566 216.934,318.031 225.355,318.031 237.891,300.566 					"/>
					<polygon fill="#FAB915" points="189.481,233.119 189.481,255.064 197.356,244.092 					"/>
					<polygon fill="#FAB915" points="302.212,277.234 285.466,300.566 298,318.031 306.423,318.031 318.956,300.566 					"/>
				</g>
			</g>
		</g>
	</g>
</g>
<g id="Grey" display="none">
	<g display="inline">
		<g>
			<path fill="#8B8B8B" d="M153.063,173.503c-5.197-5.609-13.313-8.2-21.143-5.892c-11.009,3.249-17.166,15.26-13.918,26.269
				c0.378,1.287,1.047,3.083,1.604,4.11l-0.02,0.006c0,0,7.271,20.738,48.452,30.273v-71.104c-0.121,0.034-0.241,0.06-0.362,0.097
				C159.844,159.572,154.382,165.971,153.063,173.503z"/>
			<path fill="#8B8B8B" d="M84.711,120.73c-0.264-0.338-0.563-0.458-0.896-0.36c-0.134,0.04-0.339,0.109-0.617,0.21
				c-0.279,0.1-0.581,0.216-0.902,0.348c-0.325,0.132-0.66,0.271-1.008,0.419c-0.346,0.147-0.645,0.285-0.896,0.414
				c-0.304,0.144-0.418,0.341-0.345,0.591c0.016,0.05,0.06,0.136,0.133,0.261l0.953,1.296l-3.355,30.851
				c-0.006,0.039-0.003,0.083,0.012,0.133c0.051,0.167,0.209,0.211,0.476,0.131c0.483-0.143,0.915-0.279,1.293-0.407
				c0.38-0.13,0.714-0.257,1.004-0.378c0.224-0.104,0.341-0.255,0.354-0.459l0.791-11.519l10.88-3.401l7.21,9.404
				c0.172,0.221,0.4,0.291,0.685,0.207c0.134-0.041,0.349-0.108,0.646-0.205c0.3-0.098,0.625-0.21,0.975-0.342
				c0.351-0.13,0.709-0.272,1.072-0.425c0.363-0.152,0.686-0.297,0.973-0.437c0.318-0.148,0.436-0.364,0.353-0.648
				c-0.015-0.049-0.067-0.134-0.157-0.252L84.711,120.73z M82.051,140.481l0.969-13.774l8.414,11.006L82.051,140.481z"/>
			<path fill="#8B8B8B" d="M182.037,68.333L71.178,101.04c-15.954,4.705-25.07,21.453-20.363,37.406l48.367,163.947
				c4.705,15.953,21.455,25.07,37.408,20.363l32.713-9.65c-0.6-2.197-0.992-4.475-1.159-6.814l-33.497,9.881
				c-12.297,3.629-25.254-3.426-28.882-15.723L57.397,136.503c-3.628-12.297,3.425-25.252,15.724-28.88l110.857-32.706
				c12.299-3.627,25.254,3.425,28.881,15.723l1.854,6.279h7.157l-2.427-8.222C214.737,72.744,197.99,63.626,182.037,68.333z"/>
		</g>
		<g>
			<path fill="#8B8B8B" d="M284.206,215.203v-0.238c6.246-3.174,10.128-9.436,10.128-17.289c0-8.647-4.668-15.252-11.048-18.1
				c-3.99-1.817-8.297-2.39-14.107-2.39h-3.008v-6.573c0-1.288-1.025-2.328-2.324-2.328h-6.708c-1.288,0-2.339,1.04-2.339,2.328
				v6.573h-7.544v-6.573c0-1.288-1.046-2.328-2.34-2.328h-6.7c-1.301,0-2.329,1.04-2.329,2.328v6.573h-6.89
				c-0.806,0-1.449,0.659-1.449,1.464v6.407c0,0.804,0.644,1.464,1.449,1.464h6.89v61.662h-6.493c-1.031,0-1.882,0.838-1.878,1.885
				l0.021,5.602c0.006,1.035,0.835,1.881,1.863,1.881h6.486v6.467c0,1.285,1.028,2.34,2.329,2.34h6.7c1.294,0,2.34-1.055,2.34-2.34
				v-6.467h7.544v6.467c0,1.285,1.051,2.34,2.339,2.34h6.708c1.299,0,2.324-1.055,2.324-2.34v-6.467h4.486
				c4.438,0,8.192-0.238,12.057-1.498c8.318-2.836,14.802-10.807,14.802-21.396C297.516,225.559,292.843,217.699,284.206,215.203
				 M269.179,186.522c3.418,0,6.02,0.458,8.305,1.592c3.413,1.939,5.23,5.916,5.23,10.588c0,7.287-4.547,12.296-11.824,12.296
				h-23.634v-24.476H269.179z M278.274,247.072c-2.155,0.908-4.886,1.131-7.171,1.131l-23.848-0.018v-27.854l24.768-0.01
				c8.429,0,13.888,5.461,13.888,13.779C285.911,240.119,282.944,245.129,278.274,247.072"/>
			<g>
				<path fill="none" d="M320.309,108.603H204.725c-12.821,0-23.252,10.432-23.252,23.252v170.933
					c0,12.82,10.431,23.25,23.252,23.25h115.584c12.82,0,23.252-10.43,23.252-23.25V131.854
					C343.561,119.034,333.129,108.603,320.309,108.603z M320.309,116.611c2.771,0,5.373,0.748,7.614,2.047l-5.445,7.584
					l-6.912-9.631H320.309z M308.524,116.611l10.432,14.536l-16.742,23.333l-16.748-23.333l10.432-14.536H308.524z M288.856,116.611
					l-6.912,9.631l-6.913-9.631H288.856z M248.325,116.611l-6.915,9.631l-6.912-9.631H248.325z M227.458,116.611l10.433,14.536
					l-16.747,23.333l-16.746-23.333l10.435-14.536H227.458z M204.725,116.611h3.064l-6.912,9.631l-4.916-6.848
					C198.442,117.643,201.465,116.611,204.725,116.611z M189.481,131.854c0-3.047,0.901-5.885,2.447-8.269l5.428,7.562
					l-7.875,10.971V131.854z M189.481,151.929l11.396-15.877l16.745,23.333l-16.745,23.332l-11.396-15.877V151.929z
					 M189.481,176.647l7.875,10.973l-7.875,10.973V176.647z M189.481,233.119l7.875,10.973l-7.875,10.973V233.119z M189.481,264.873
					l11.396-15.875l16.746,23.334l-16.746,23.328l-11.396-15.877V264.873z M189.481,302.787v-13.191l7.875,10.971l-6.355,8.854
					C190.027,307.414,189.481,305.162,189.481,302.787z M204.725,318.031c-3.874,0-7.411-1.455-10.103-3.844l6.255-8.719
					l9.014,12.563H204.725z M216.934,318.031l-12.536-17.465l16.746-23.332l16.747,23.332l-12.535,17.465H216.934z M232.396,318.031
					l9.014-12.563l9.014,12.563H232.396z M272.933,318.031l9.012-12.563l9.015,12.563H272.933z M298,318.031l-12.534-17.465
					l16.746-23.332l16.744,23.332l-12.533,17.465H298z M320.309,318.031h-6.845l9.014-12.563l6.874,9.58
					C326.821,316.918,323.69,318.031,320.309,318.031z M335.552,302.787c0,2.914-0.823,5.639-2.249,7.955l-7.306-10.176
					l9.555-13.309V302.787z M335.552,277.447l-13.074,18.213l-16.744-23.328l16.744-23.334l13.074,18.213V277.447z M335.552,257.402
					l-9.555-13.311l9.555-13.309V257.402z M335.552,220.975l-7.551,10.52c-3.96,18.381-15.454,33.957-31.099,43.332l-14.958,20.834
					l-8.754-12.195c-2.144,0.344-4.321,0.58-6.527,0.715l11.761,16.387l-12.533,17.465h-8.425l-12.535-17.465l11.849-16.508
					c-2.173-0.184-4.314-0.473-6.423-0.859l-8.946,12.461l-16.354-22.781c-13.091-8.846-22.872-22.201-27.151-37.832l-8.423-11.736
					v-14.908l10.072-14.035c4.227-11.592,11.571-21.677,21.009-29.269l0.581-0.809l0.162,0.226c1.501-1.173,3.052-2.285,4.651-3.329
					l-1.294-1.803l16.747-23.333l10.81,15.06c2.151-0.332,4.339-0.557,6.553-0.679l-13.842-19.285l10.433-14.536h12.627
					l10.434,14.536l-13.801,19.229c2.249,0.069,4.469,0.25,6.656,0.536l10.665-14.86l16.748,23.333l-0.766,1.066
					c13.832,8.63,24.277,22.162,28.924,38.166l8.701,12.123V220.975z M335.552,200.928l-9.555-13.308l9.555-13.309V200.928z
					 M335.552,164.501l-13.074,18.214l-16.744-23.332l16.744-23.333l13.074,18.214V164.501z M335.552,144.456l-9.555-13.309
					l6.268-8.729c2.056,2.599,3.287,5.875,3.287,9.437V144.456z"/>
				<path fill="#8B8B8B" d="M320.309,101.738H204.725c-16.633,0-30.117,13.484-30.117,30.116v170.933
					c0,16.633,13.484,30.117,30.117,30.117h115.584c16.633,0,30.116-13.484,30.116-30.117V131.854
					C350.425,115.222,336.941,101.738,320.309,101.738z M343.561,302.787c0,12.82-10.432,23.25-23.252,23.25H204.725
					c-12.821,0-23.252-10.43-23.252-23.25V131.854c0-12.82,10.431-23.252,23.252-23.252h115.584
					c12.82,0,23.252,10.432,23.252,23.252V302.787z"/>
				<polygon fill="#8B8B8B" points="305.733,159.384 322.478,182.715 335.552,164.501 335.552,154.265 322.478,136.051 				"/>
				<path fill="#8B8B8B" d="M241.41,295.66l8.946-12.461c-9.232-1.693-17.809-5.26-25.301-10.32L241.41,295.66z"/>
				<polygon fill="#8B8B8B" points="272.933,318.031 290.959,318.031 281.944,305.469 				"/>
				<path fill="#8B8B8B" d="M281.944,295.66l14.958-20.834c-7.148,4.283-15.159,7.27-23.712,8.639L281.944,295.66z"/>
				<path fill="#8B8B8B" d="M329.517,217.32c0,4.865-0.531,9.604-1.516,14.174l7.551-10.52v-10.236l-8.701-12.123
					C328.574,204.555,329.517,210.826,329.517,217.32z"/>
				<polygon fill="#8B8B8B" points="335.552,200.928 335.552,174.311 325.997,187.62 				"/>
				<polygon fill="#8B8B8B" points="232.396,318.031 250.424,318.031 241.41,305.469 				"/>
				<path fill="#8B8B8B" d="M256.779,284.059l-11.849,16.508l12.535,17.465h8.425l12.533-17.465l-11.761-16.387
					c-1.373,0.084-2.753,0.141-4.146,0.141C260.582,284.32,258.672,284.221,256.779,284.059z"/>
				<polygon fill="#8B8B8B" points="288.856,116.611 275.031,116.611 281.944,126.242 				"/>
				<path fill="#8B8B8B" d="M333.303,310.742c1.426-2.316,2.249-5.041,2.249-7.955v-15.529l-9.555,13.309L333.303,310.742z"/>
				<path fill="#8B8B8B" d="M264.623,150.375l13.801-19.229l-10.434-14.536h-12.627l-10.433,14.536l13.842,19.285
					c1.24-0.068,2.487-0.11,3.744-0.11C263.223,150.322,263.922,150.354,264.623,150.375z"/>
				<path fill="#8B8B8B" d="M189.481,289.596v13.191c0,2.375,0.546,4.627,1.52,6.633l6.355-8.854L189.481,289.596z"/>
				<path fill="#8B8B8B" d="M298.692,159.384l-16.748-23.333l-10.665,14.86c9.687,1.266,18.721,4.593,26.647,9.539L298.692,159.384z
					"/>
				<path fill="#8B8B8B" d="M207.789,116.611h-3.064c-3.26,0-6.282,1.032-8.764,2.783l4.916,6.848L207.789,116.611z"/>
				<path fill="#8B8B8B" d="M325.997,131.147l9.555,13.309v-12.601c0-3.563-1.231-6.838-3.287-9.437L325.997,131.147z"/>
				<polygon fill="#8B8B8B" points="302.214,154.479 318.956,131.147 308.524,116.611 295.897,116.611 285.466,131.147 				"/>
				<polygon fill="#8B8B8B" points="221.144,154.479 237.891,131.147 227.458,116.611 214.832,116.611 204.397,131.147 				"/>
				<polygon fill="#8B8B8B" points="335.552,257.402 335.552,230.783 325.997,244.092 				"/>
				<polygon fill="#8B8B8B" points="305.733,272.332 322.478,295.66 335.552,277.447 335.552,267.211 322.478,248.998 				"/>
				<polygon fill="#8B8B8B" points="217.622,159.384 200.877,136.051 189.481,151.929 189.481,166.838 200.877,182.715 				"/>
				<path fill="#8B8B8B" d="M313.464,318.031h6.845c3.382,0,6.513-1.113,9.043-2.982l-6.874-9.58L313.464,318.031z"/>
				<path fill="#8B8B8B" d="M191.929,123.585c-1.546,2.384-2.447,5.222-2.447,8.269v10.264l7.875-10.971L191.929,123.585z"/>
				<path fill="#8B8B8B" d="M194.622,314.188c2.691,2.389,6.229,3.844,10.103,3.844h5.166l-9.014-12.563L194.622,314.188z"/>
				<path fill="#8B8B8B" d="M327.923,118.658c-2.241-1.299-4.844-2.047-7.614-2.047h-4.743l6.912,9.631L327.923,118.658z"/>
				<path fill="#8B8B8B" d="M241.41,136.051l-16.747,23.333l1.294,1.803c7.786-5.082,16.686-8.599,26.263-10.076L241.41,136.051z"/>
				<path fill="#8B8B8B" d="M199.554,194.368l-10.072,14.035v14.908l8.423,11.736c-1.546-5.648-2.388-11.588-2.388-17.727
					C195.517,209.258,196.943,201.527,199.554,194.368z"/>
				<polygon fill="#8B8B8B" points="248.325,116.611 234.498,116.611 241.41,126.242 				"/>
				<polygon fill="#8B8B8B" points="189.481,176.647 189.481,198.592 197.356,187.62 				"/>
				<polygon fill="#8B8B8B" points="217.623,272.332 200.877,248.998 189.481,264.873 189.481,279.783 200.877,295.66 				"/>
				<polygon fill="#8B8B8B" points="221.144,277.234 204.397,300.566 216.934,318.031 225.355,318.031 237.891,300.566 				"/>
				<polygon fill="#8B8B8B" points="189.481,233.119 189.481,255.064 197.356,244.092 				"/>
				<polygon fill="#8B8B8B" points="302.212,277.234 285.466,300.566 298,318.031 306.423,318.031 318.956,300.566 				"/>
			</g>
		</g>
	</g>
</g>
</svg>
