<svg id="Layer_1" data-name="Layer 1" xmlns="http://www.w3.org/2000/svg" viewBox="0 0 70 70"><title>icon-wallet</title><path d="M45.65,41.24a2.74,2.74,0,1,0-2.73-2.75h0a2.74,2.74,0,0,0,2.73,2.74m0-3.46a.72.72,0,1,1-.72.72.7.7,0,0,1,.68-.72h0" style="fill:#fff"/><path d="M50.83,14.51H15.17A4.46,4.46,0,0,0,10.71,19V51.75a3.9,3.9,0,0,0,3.88,3.88H54.85a3.88,3.88,0,0,0,3.88-3.88h0V25.29a3.88,3.88,0,0,0-3.88-3.88h-3V15.52a1,1,0,0,0-1-1m-35.66,2H49.82v4.89H15.17a2.45,2.45,0,0,1,0-4.89M56.72,43.84H39.9a.69.69,0,0,1-.72-.66V33.92a.69.69,0,0,1,.66-.72H56.72ZM54.85,23.43a1.85,1.85,0,0,1,1.87,1.83v5.93H39.9a2.73,2.73,0,0,0-2.73,2.73h0v9.2a2.73,2.73,0,0,0,2.73,2.73H56.72v5.9a1.85,1.85,0,0,1-1.83,1.87H14.59a1.85,1.85,0,0,1-1.86-1.84V22.69l.21.13a4.61,4.61,0,0,0,2.23.61Z" style="fill:#fff"/><path d="M29.83,38.06h0a3.91,3.91,0,0,0,2.11-3.61,4,4,0,0,0-2.3-3.77,6.89,6.89,0,0,0-2.94-.5h-.63V28.77a.5.5,0,0,0-.48-.48h-1.4a.49.49,0,0,0-.49.48v1.37H22.13V28.77a.49.49,0,0,0-.49-.48h-1.4a.5.5,0,0,0-.48.48v1.37H18.33a.31.31,0,0,0-.31.31v1.33a.31.31,0,0,0,.31.31h1.43V44.94H18.41a.38.38,0,0,0-.39.39h0V46.5a.38.38,0,0,0,.39.39h1.35v1.35a.49.49,0,0,0,.48.49h1.4a.49.49,0,0,0,.49-.49h0V46.88H23.7v1.35a.49.49,0,0,0,.49.49h1.4a.49.49,0,0,0,.48-.49V46.88H27a8,8,0,0,0,2.52-.3,4.63,4.63,0,0,0,3.08-4.46,4,4,0,0,0-2.77-4.06m-7.7-6H26.7a3.69,3.69,0,0,1,1.73.33,2.41,2.41,0,0,1,1.09,2.2,2.37,2.37,0,0,1-2.16,2.56H22.13ZM28.59,44.7a4,4,0,0,1-1.49.24h-5V39.13h5.16a2.71,2.71,0,0,1,2.92,2.49,2.41,2.41,0,0,1,0,.38,2.8,2.8,0,0,1-1.59,2.7" style="fill:#fff"/></svg>