<svg xmlns="http://www.w3.org/2000/svg" xmlns:xlink="http://www.w3.org/1999/xlink" viewBox="0 0 1000 1000"><style>.st0{fill:#d1d3d4}.st1{fill:#8c4c47}.st2{fill:#b05432}.st3{fill:#996e62}.st4{fill:#e58462}.st5{fill:#723f35}.st8{fill:#ffd5a5}.st9{clip-path:url(#SVGID_4_)}.st10{fill:#2c7}.st11{fill:#c3fae4}.st12{fill:#bbe6ee}.st13{opacity:.1}.st15{fill:#34b1eb}.st16{fill:#a9ddff}.st17{fill:#c960ec}.st18{fill:#ff0}.st20{fill:#fe920d}.st21{fill:#feb05c}.st22{fill:#fec262}.st23{fill:#f36e21}.st24{fill:#ffb68e}.st27{fill:#ab2292}.st28{fill:#2f1e74}.st34{fill:#3b09bd}.st38{fill:#ffae9e}.st47{fill:#ffe800}.st48{fill:#fcb316}.st50{fill:#4c4c4c}</style><g id="Shadows"><path class="st0" d="M164.05 519.16c-20.27 9.01-39.14 32.84-.38 47.84 69.04 26.71 233.96-4.18 330.82-.61 95.8 3.53 188.2 32.55 283.1 7.09 21.81-5.85 46.25-12.57 52.32-32.04 5.36-17.19-6.48-36.38-23.39-47-21.78-13.67-50.67-17.56-78.29-20.21-100.31-9.62-201.51-4.27-301.5 4.77-86.72 7.84-186.73 6.39-262.68 40.16zM78.55 898.35c-14.05-.48-28.84-.8-41.26 5.79-12.42 6.59-20.98 22.67-14.42 35.11 3.34 6.34 9.78 10.43 16.31 13.37 24.26 10.89 52.04 9.35 78.58 7.59 45.95-3.04 91.9-6.07 137.85-9.11 22.93-1.51 46.2-3.1 67.84-10.8 7.67-2.73 15.28-6.36 20.8-12.35s8.56-14.78 5.98-22.51c-4.31-12.9-20.51-16.53-34.04-18.03-77.08-8.56-155.69-14.9-231.67.68M426.23 797.99c-23.86 1.34-46.87 13.73-61.13 32.91-3.73 5.02-7 10.91-6.54 17.15.95 12.93 16.21 19.18 29.03 21.09 29.48 4.4 59.48 1.32 89.27.26 22.45-.79 44.92-.42 67.38-.02 90.35 1.62 181.55 3.94 269.26 25.66 17.84 4.42 35.54 9.64 53.74 12.24 14.33 2.05 28.83 2.46 43.3 2.86 15.18.42 31.68.45 43.8-8.71 8.19-6.19 13.08-15.67 17.7-24.83 6.69-13.24 13.52-28.47 8.32-42.36-2.22-5.92-6.46-10.89-11.28-14.98-16.24-13.77-38.69-17.98-59.97-17.33-21.28.65-42.18 5.6-63.34 7.93-48.96 5.38-98.21-3.37-147.08-9.52-91.54-11.51-184.22-13.91-276.23-7.16"/></g><g id="Main_Wallet"><path class="st1" d="M786.06 533.61H184.89c-3.31 0-6-2.69-6-6V207.76c0-6.22 5.04-11.26 11.26-11.26H780.8c6.22 0 11.26 5.04 11.26 11.26v319.85c0 3.31-2.68 6-6 6z"/><path class="st2" d="M193.16 240.68h275.88v278.41H193.16zM499.41 239.56h276.72v278.41H499.41z"/><path class="st3" d="M184.65 214.2l-.01-6.64h6.64v2.65h-3.98l.01 3.98zM185.48 508.93l-.03-10.53 2.65-.01.03 10.53-2.65.01zm-.06-21.05l-.03-10.53 2.65-.01.03 10.53-2.65.01zm-.06-21.06l-.03-10.53 2.65-.01.03 10.53-2.65.01zm-.06-21.05l-.03-10.53 2.65-.01.03 10.53-2.65.01zm-.06-21.05l-.03-10.53 2.65-.01.03 10.53-2.65.01zm-.05-21.05l-.03-10.53 2.65-.01.03 10.53-2.65.01zm-.06-21.06l-.03-10.53 2.65-.01.03 10.53-2.65.01zm-.06-21.05l-.03-10.53 2.65-.01.03 10.53-2.65.01zm-.06-21.05l-.03-10.53 2.65-.01.03 10.53-2.65.01zm-.06-21.05l-.03-10.53 2.65-.01.03 10.53-2.65.01zm-.06-21.05l-.03-10.53 2.65-.01.03 10.53-2.65.01zm-.06-21.06l-.03-10.53 2.65-.01.03 10.53-2.65.01zm-.06-21.05l-.03-10.53 2.65-.01.03 10.53-2.65.01zm-.06-21.05l-.03-10.53 2.65-.01.03 10.53-2.65.01zM192.16 526.1l-6.63-.01-.02-6.63 2.65-.01.02 3.99h3.98zM765.52 526.95l-10.62-.02v-2.65l10.62.02v2.65zm-21.24-.03l-10.62-.02v-2.65l10.62.02v2.65zm-21.23-.03l-10.62-.02v-2.65l10.62.02v2.65zm-21.24-.04l-10.62-.02v-2.65l10.62.02v2.65zm-21.24-.03l-10.62-.02v-2.65l10.62.02v2.65zm-21.23-.03l-10.62-.02v-2.65l10.62.02v2.65zm-21.24-.03l-10.62-.02v-2.65l10.62.02v2.65zm-21.23-.03l-10.62-.02v-2.65l10.62.02v2.65zm-21.24-.03l-10.62-.02v-2.65l10.62.02v2.65zm-21.23-.04l-10.62-.02v-2.65l10.62.02v2.65zm-21.24-.03l-10.62-.02v-2.65l10.62.02v2.65zm-21.23-.03l-10.62-.02v-2.65l10.62.02v2.65zm-21.24-.03l-10.62-.02v-2.65l10.62.02v2.65zm-21.23-.03l-10.62-.02v-2.65l10.62.02v2.65zm-21.24-.03l-10.62-.02v-2.65l10.62.02v2.65zm-21.24-.04l-10.62-.02v-2.65l10.62.02v2.65zm-21.23-.03l-10.62-.02v-2.65l10.62.02v2.65zm-21.24-.03l-10.62-.02v-2.65l10.62.02v2.65zm-21.23-.03l-10.62-.02v-2.65l10.62.02v2.65zm-21.24-.03l-10.62-.02v-2.65l10.62.02v2.65zm-21.23-.03l-10.62-.02v-2.65l10.62.02v2.65zm-21.24-.04l-10.62-.02v-2.65l10.62.02v2.65zm-21.23-.03l-10.62-.02v-2.65l10.62.02v2.65zm-21.24-.03l-10.62-.02v-2.65l10.62.02v2.65zm-21.23-.03l-10.62-.02v-2.65l10.62.02v2.65zm-21.24-.03l-10.62-.02v-2.65l10.62.02v2.65zm-21.24-.03l-10.62-.02v-2.65l10.62.02v2.65zM782.76 526.97l-6.63-.01.01-2.65 3.99.01.03-3.99 2.66.02zM782.91 509.79l-2.65-.02.09-10.56 2.65.02-.09 10.56zm.17-21.11l-2.65-.02.09-10.56 2.65.02-.09 10.56zm.18-21.12l-2.65-.02.09-10.56 2.65.02-.09 10.56zm.18-21.11l-2.65-.02.09-10.56 2.65.02-.09 10.56zm.17-21.11l-2.65-.02.09-10.56 2.65.02-.09 10.56zm.18-21.12l-2.65-.02.09-10.56 2.65.02-.09 10.56zm.18-21.11l-2.65-.02.09-10.56 2.65.02-.09 10.56zm.17-21.11l-2.65-.02.09-10.56 2.65.02-.09 10.56zm.18-21.12l-2.65-.02.09-10.56 2.65.02-.09 10.56zm.18-21.11l-2.65-.02.09-10.56 2.65.02-.09 10.56zm.17-21.11l-2.65-.02.09-10.56 2.65.02-.09 10.56zm.18-21.12l-2.65-.02.09-10.56 2.65.02-.09 10.56zm.18-21.11l-2.65-.02.09-10.56 2.65.02-.09 10.56zm.17-21.11l-2.65-.02.09-10.56 2.65.02-.09 10.56zM785.38 214.2l-2.65-.02.03-3.97h-3.97v-2.65h6.65zM768.11 210.21h-10.68v-2.65h10.68v2.65zm-21.37 0h-10.68v-2.65h10.68v2.65zm-21.36 0H714.7v-2.65h10.68v2.65zm-21.36 0h-10.68v-2.65h10.68v2.65zm-21.37 0h-10.68v-2.65h10.68v2.65zm-21.36 0h-10.68v-2.65h10.68v2.65zm-21.37 0h-10.68v-2.65h10.68v2.65zm-21.36 0h-10.68v-2.65h10.68v2.65zm-21.36 0h-10.68v-2.65h10.68v2.65zm-21.37 0h-10.68v-2.65h10.68v2.65zm-21.36 0h-10.68v-2.65h10.68v2.65zm-21.37 0h-10.68v-2.65h10.68v2.65zm-21.36 0h-10.68v-2.65h10.68v2.65zm-21.37 0h-10.68v-2.65h10.68v2.65zm-21.36 0h-10.68v-2.65h10.68v2.65zm-21.36 0h-10.68v-2.65h10.68v2.65zm-21.37 0H415.6v-2.65h10.68v2.65zm-21.36 0h-10.68v-2.65h10.68v2.65zm-21.37 0h-10.68v-2.65h10.68v2.65zm-21.36 0h-10.68v-2.65h10.68v2.65zm-21.36 0h-10.68v-2.65h10.68v2.65zm-21.37 0h-10.68v-2.65h10.68v2.65zm-21.36 0h-10.68v-2.65h10.68v2.65zm-21.37 0h-10.68v-2.65h10.68v2.65zm-21.36 0h-10.68v-2.65h10.68v2.65zm-21.36 0h-10.68v-2.65h10.68v2.65zm-21.37 0h-10.68v-2.65h10.68v2.65z"/><path class="st4" d="M193.05 218.62h583.98v21.24H193.05z"/><path class="st5" d="M198.35 224.81h573.36v7.96H198.35z"/><g><path class="st4" d="M200.12 403.98h261.02v7.08H200.12z"/><path transform="matrix(.0034 -1 1 .0034 -214.9371 619.749)" class="st3" d="M202.13 414.85h2.65v5.72h-2.65z"/><path class="st3" d="M442.2 419.85l-11.79-.04.01-2.65 11.79.04-.01 2.65zm-23.59-.08l-11.79-.04.01-2.65 11.79.04-.01 2.65zm-23.59-.08l-11.79-.04.01-2.65 11.79.04-.01 2.65zm-23.59-.08l-11.79-.04.01-2.65 11.79.04-.01 2.65zm-23.59-.08l-11.79-.04.01-2.65 11.79.04-.01 2.65zm-23.58-.08l-11.79-.04.01-2.65 11.79.04-.01 2.65zm-23.59-.08l-11.79-.04.01-2.65 11.79.04-.01 2.65zm-23.59-.08l-11.79-.04.01-2.65 11.79.04-.01 2.65zm-23.59-.08l-11.79-.04.01-2.65 11.79.04-.01 2.65zm-23.59-.08l-11.79-.04.01-2.65 11.79.04-.01 2.65z"/><path transform="matrix(.00342 -1 1 .00342 36.7247 873.9973)" class="st3" d="M455.53 415.72h2.65v5.72h-2.65z"/></g><g><path class="st4" d="M200.12 311.08h261.02v7.08H200.12z"/><path transform="matrix(.0034 -1 1 .0034 -122.0324 527.1589)" class="st3" d="M202.13 321.95h2.65v5.72h-2.65z"/><path class="st3" d="M442.2 326.95l-11.79-.04.01-2.65 11.79.04-.01 2.65zm-23.59-.09l-11.79-.04.01-2.65 11.79.04-.01 2.65zm-23.59-.08l-11.79-.04.01-2.65 11.79.04-.01 2.65zm-23.59-.08l-11.79-.04.01-2.65 11.79.04-.01 2.65zm-23.59-.08l-11.79-.04.01-2.65 11.79.04-.01 2.65zm-23.58-.08l-11.79-.04.01-2.65 11.79.04-.01 2.65zm-23.59-.08l-11.79-.04.01-2.65 11.79.04-.01 2.65zm-23.59-.08l-11.79-.04.01-2.65 11.79.04-.01 2.65zm-23.59-.08l-11.79-.04.01-2.65 11.79.04-.01 2.65zm-23.59-.08l-11.79-.04.01-2.65 11.79.04-.01 2.65z"/><path transform="matrix(.00342 -1 1 .00342 129.6293 781.4095)" class="st3" d="M455.53 322.81h2.65v5.72h-2.65z"/></g><path class="st1" d="M766.4 308.87v186.25c0 6.6-5.34 11.94-11.94 11.94H522.64c-6.6 0-11.94-5.34-11.94-11.94V308.87h255.7z"/><g><path class="st5" d="M581.58 360.63h10.36v2.65h-10.36zM560.85 360.63h10.36v2.65h-10.36zM602.31 360.63h10.36v2.65h-10.36zM510.69 337.36c1.09 1.6 2.27 3.16 3.53 4.65l2.03-1.71c-2.11-2.49-3.97-5.16-5.56-7.92v4.98zM623.03 360.63h10.36v2.65h-10.36zM540.07 359.88c3.35 1.2 6.8 2.09 10.25 2.66l.43-2.62c-3.29-.54-6.59-1.39-9.79-2.54l-.89 2.5zM521.75 349.45c2.71 2.24 5.64 4.27 8.7 6.02l1.31-2.31c-2.94-1.67-5.74-3.61-8.32-5.75l-1.69 2.04zM766.4 332.37c-1.58 2.75-3.43 5.4-5.52 7.88l2.03 1.71c1.25-1.48 2.41-3.02 3.49-4.6v-4.99zM745.38 353.13l1.32 2.31c3.07-1.75 6-3.78 8.7-6.02l-1.7-2.04c-2.59 2.14-5.39 4.08-8.32 5.75zM726.4 359.91l.43 2.62c3.45-.57 6.9-1.47 10.25-2.67l-.9-2.5c-3.19 1.15-6.48 2-9.78 2.55zM643.76 360.63h10.36v2.65h-10.36zM664.48 360.63h10.36v2.65h-10.36zM705.94 360.63h10.36v2.65h-10.36zM685.21 360.63h10.36v2.65h-10.36z"/></g><path class="st5" d="M765.49 308.87H511.6c-.02.53-.03 1.08-.03 1.62 0 24.9 23.01 45.28 47.78 45.28h158.37c24.77 0 47.78-20.38 47.78-45.28.02-.54.01-1.09-.01-1.62z"/><path class="st1" d="M765.49 309.75H511.6c-.02-.53-.03-1.08-.03-1.62 0-24.9 23.01-45.28 47.78-45.28h158.37c24.77 0 47.78 20.38 47.78 45.28.02.54.01 1.09-.01 1.62z"/><ellipse transform="rotate(-77.96 639.451596 410.176067)" class="st3" cx="639.43" cy="410.18" rx="16.37" ry="16.37"/><g><defs><path id="SVGID_1_" d="M456.22 311.43V264.6c0-8.48-7.28-15.35-16.25-15.35H220.13c-8.97 0-16.25 6.87-16.25 15.35v46.83h252.34z"/></defs><clipPath id="SVGID_2_"><use xlink:href="#SVGID_1_" overflow="visible"/></clipPath><g clip-path="url(#SVGID_2_)"><path d="M442.89 426.42H217.21c-7.36 0-13.33-5.97-13.33-13.33V262.57c0-7.36 5.97-13.33 13.33-13.33h225.68c7.36 0 13.33 5.97 13.33 13.33v150.52c0 7.36-5.97 13.33-13.33 13.33z" fill="#f60"/><path class="st8" d="M217.29 272.11h75.09v6.86h-75.09zM303.11 272.11h75.09v6.86h-75.09zM223.38 380.7h97.85v6.86h-97.85zM335.21 380.7h97.85v6.86h-97.85z"/><g><path class="st8" d="M422.79 300.68c-.48 0-.96-.18-1.31-.54-.66-.68-.61-1.73.11-2.35 5.33-4.57 8.26-10.63 8.26-17.05s-2.93-12.48-8.26-17.05c-.72-.62-.77-1.67-.11-2.35.66-.67 1.78-.72 2.5-.1 6.07 5.21 9.42 12.13 9.42 19.5 0 7.37-3.34 14.29-9.41 19.5-.34.3-.77.44-1.2.44z"/><path class="st8" d="M417.68 296.3c-.48 0-.96-.18-1.31-.54-.66-.68-.61-1.73.11-2.35 3.96-3.4 6.14-7.89 6.14-12.66 0-4.77-2.18-9.27-6.15-12.67-.72-.62-.77-1.67-.11-2.34.66-.68 1.78-.73 2.5-.1 4.71 4.03 7.3 9.4 7.3 15.12 0 5.71-2.59 11.08-7.29 15.11-.33.28-.76.43-1.19.43z"/><path class="st8" d="M412.57 291.91c-.48 0-.96-.18-1.31-.54-.66-.68-.61-1.73.11-2.35 2.59-2.22 4.02-5.16 4.02-8.28 0-3.12-1.43-6.06-4.02-8.28-.72-.62-.77-1.67-.11-2.34.66-.68 1.78-.72 2.5-.1 3.34 2.86 5.17 6.67 5.17 10.73 0 4.06-1.84 7.86-5.17 10.73-.33.29-.76.43-1.19.43z"/><path class="st8" d="M407.46 287.53c-.48 0-.96-.18-1.31-.54-.66-.68-.61-1.73.11-2.35 1.22-1.05 1.9-2.43 1.9-3.89s-.67-2.85-1.9-3.9c-.72-.62-.77-1.67-.11-2.34.66-.68 1.78-.72 2.5-.1 1.97 1.68 3.05 3.94 3.05 6.34s-1.08 4.66-3.05 6.34c-.33.29-.76.44-1.19.44z"/></g><path class="st8" d="M217.29 285.82H378.2v6.86H217.29zM223.38 344.12h210.89v6.86H223.38zM223.38 362.41h210.89v6.86H223.38z"/></g></g><g><defs><path id="SVGID_3_" d="M782.92 232.95H188.03V-33.41h594.89v266.36z"/></defs><clipPath id="SVGID_4_"><use xlink:href="#SVGID_3_" overflow="visible"/></clipPath><g class="st9"><path transform="rotate(-88.378 486.694598 201.07387)" class="st10" d="M355.63-69.55h262.13V471.7H355.63z"/><path transform="rotate(91.622 486.694824 201.074342)" class="st11" d="M369.05-56.13h235.29v514.41H369.05z"/><path class="st10" d="M272.38 73.29c-.04 1.36-.14 2.7-.3 4.02-2.47 20.88-19.41 37.15-40.29 38.86-1.62.14-3.26.19-4.93.14-2.91-.08-5.74-.44-8.47-1.06l1.5-52.83 51.76 1.47c.57 3.03.82 6.18.73 9.4zM266.44 314.77c.04-1.36.01-2.7-.07-4.03-1.29-20.99-17.27-38.19-38.03-41.07-1.6-.23-3.25-.37-4.91-.42-2.91-.08-5.76.11-8.52.58l-1.5 52.83 51.76 1.47c.75-3.01 1.18-6.14 1.27-9.36zM699.39 328.1c.03-1.36.13-2.7.29-4.02 2.4-20.89 19.28-37.21 40.16-38.99 1.61-.15 3.26-.2 4.93-.15 2.91.07 5.74.42 8.48 1.03l-1.32 52.84-51.77-1.29c-.59-3.05-.85-6.2-.77-9.42zM707 85.59c-.04 1.36-.01 2.7.07 4.03 1.29 20.99 17.28 38.19 38.03 41.07 1.6.23 3.25.37 4.91.42 2.91.08 5.76-.11 8.52-.58l1.5-52.83-51.76-1.47c-.75 3.01-1.18 6.14-1.27 9.36z"/><ellipse transform="rotate(-45 486.694842 201.080497)" class="st10" cx="486.69" cy="201.07" rx="83.65" ry="83.65"/><path class="st12" d="M479.29 262.17l.3-10.7c-13.35-1.75-25.22-7.41-35.61-17l11.06-12.45c8.01 7.37 16.34 11.86 25 13.47l.81-28.44c-10.97-2.95-18.96-6.65-23.97-11.09-5.01-4.44-7.39-10.89-7.15-19.35.24-8.45 3.39-15.28 9.46-20.49 6.06-5.21 13.84-7.92 23.34-8.14l.21-7.33 9.38.27-.21 7.48c10.73 1.09 20.79 5.04 30.18 11.86l-9.91 13.22c-6.32-4.78-13.23-7.81-20.72-9.1l-.78 27.56.44.01c11.16 2.96 19.32 6.76 24.47 11.4 5.15 4.65 7.6 11.24 7.36 19.79-.24 8.55-3.47 15.43-9.68 20.63-6.21 5.2-14.31 7.91-24.29 8.11l-.3 10.55-9.39-.26zm-7.65-94.91c-2.55 2.13-3.88 4.83-3.97 8.1-.09 3.28.81 5.89 2.71 7.85s5.56 3.9 10.99 5.81l.72-25.36c-4.42.27-7.9 1.47-10.45 3.6zm29.03 65.15c2.8-2.17 4.25-4.96 4.35-8.39.1-3.42-.9-6.16-2.99-8.23-2.09-2.06-6.05-4.06-11.86-5.98l-.75 26.39c4.7-.36 8.45-1.62 11.25-3.79z"/><path class="st10" d="M647.22 205.62c-.27 9.63-8.3 17.22-17.93 16.94-9.63-.27-17.22-8.3-16.94-17.93.27-9.63 8.3-17.22 17.93-16.94 9.62.27 17.21 8.3 16.94 17.93zM703.56 207.21c-.27 9.63-8.3 17.22-17.93 16.94-9.63-.27-17.22-8.3-16.94-17.93.27-9.63 8.3-17.22 17.93-16.94 9.62.27 17.21 8.3 16.94 17.93zM305.58 196.84c-.27 9.63-8.3 17.22-17.93 16.94-9.63-.27-17.22-8.3-16.94-17.93.27-9.63 8.3-17.22 17.93-16.94 9.63.27 17.21 8.3 16.94 17.93zM361.92 198.44c-.27 9.63-8.3 17.22-17.93 16.94-9.63-.27-17.22-8.3-16.94-17.93.27-9.63 8.3-17.22 17.93-16.94 9.62.27 17.21 8.3 16.94 17.93z"/></g><g class="st9"><path class="st13" d="M712.63 76.21c3.51 71.43 4.18 140.93 7.69 212.36-156.97-5.58-314.25 12.52-463.62 52.95-16.98-52.64-31.33-143.45-48.31-196.09 162.29-61.62 473.69-73.78 504.24-69.22z"/><path class="st10" d="M695.46 34.23c6.51 89.63 13.03 179.25 19.54 268.88-158.28-13.54-315.89 2.57-464.6 46.98-19.29-66.65-38.59-133.29-57.88-199.94C353.36 79.73 524.04 40.59 695.46 34.23z"/><path class="st11" d="M258.56 336.51c-17.05-60.4-34.09-120.8-51.14-181.2 152.73-64.2 314.1-100.24 476.34-106.86 6.14 80.01 12.28 160.01 18.42 240.01-151.04-10.49-301.28 5.91-443.62 48.05z"/><path class="st10" d="M241.8 137.88c.28 1.08.5 2.16.67 3.25 2.62 17.3-4.74 40.87-26.35 44.97-1.52.29-2.81 1.36-4.27 1.95-2.56 1.03-5.12 1.84-7.65 2.42l-11.67-40.32c15.39-6.74 30.87-13.19 46.43-19.35 1.21 2.16 2.17 4.53 2.84 7.08zM292.58 328.86c-.28-1.08-.61-2.13-.99-3.15-5.88-16.22-23.31-25.5-41.36-21.61-1.39.29-2.8.66-4.2 1.11-2.44.79-4.77 1.78-6.95 2.95 3.89 13.45 7.77 26.89 11.66 40.34 14.24-4.26 28.56-8.25 42.95-11.99-.07-2.54-.44-5.1-1.11-7.65zM666.37 289.79c-.13-1.36-.2-2.71-.21-4.03-.32-20.88 12.8-37.45 31.22-39.02 1.42-.13 2.88-.15 4.37-.08 2.59.12 5.15.53 7.65 1.23 1.38 18.06 2.75 36.12 4.12 54.19-15.14-1.21-30.28-2.15-45.4-2.83-.86-3.07-1.45-6.23-1.75-9.46zM645.33 46.51c.12 1.36.3 2.71.54 4.02 3.68 20.83 20.56 36.78 40.19 38.72 1.52.16 3.07.21 4.62.18 2.72-.06 5.36-.38 7.89-.98-1.32-18.07-2.64-36.13-3.95-54.2-16.4.62-32.79 1.54-49.17 2.76-.37 3.1-.41 6.27-.12 9.5zM534.99 176.07c5.64 43.93-22.73 81.19-62.95 85.99-40.24 4.71-79.05-21.24-87.18-60.71-8.12-39.39 19.5-81.17 62.23-90.36 42.73-9.25 82.28 21.22 87.9 65.08z"/><path class="st12" d="M463.71 242.56c-.54-3.21-1.08-6.42-1.61-9.64-12.04.51-23.46-2.53-34.37-9.02 2.47-4.32 4.96-8.66 7.46-13 8.42 5.03 16.57 7.6 24.5 7.63-1.43-8.54-2.86-17.07-4.29-25.61-10.29-.7-18.07-2.44-23.34-5.38s-8.59-8.1-9.94-15.59c-1.35-7.48.21-14.16 4.73-20.07 4.52-5.9 11.07-10 19.64-12.16-.37-2.2-.74-4.4-1.1-6.6 2.86-.58 5.72-1.14 8.58-1.7.37 2.26.74 4.51 1.11 6.77 9.93-1.17 19.76.5 29.42 5.09-2.27 4.61-4.53 9.21-6.77 13.8-6.51-3.24-13.28-4.71-20.28-4.43 1.36 8.31 2.72 16.63 4.08 24.94.13-.02.26-.04.4-.07 10.52.67 18.48 2.79 23.87 6.22 5.39 3.43 8.67 9.12 9.85 17 1.19 7.88-.56 14.64-5.18 20.25-4.63 5.62-11.31 9.2-20.05 10.87.52 3.18 1.04 6.37 1.56 9.55-2.76.37-5.52.75-8.27 1.15zm-23.62-83.42c-1.92 2.41-2.62 5.08-2.12 8 .51 2.93 1.79 5.07 3.84 6.44s5.68 2.39 10.87 3.09c-1.27-7.61-2.55-15.23-3.82-22.84-3.93 1.12-6.86 2.9-8.77 5.31zm37.32 53.35c2.11-2.39 2.93-5.15 2.43-8.27-.49-3.12-1.85-5.46-4.06-6.99-2.22-1.53-6.08-2.7-11.6-3.45 1.3 7.96 2.61 15.92 3.91 23.88 4.1-1.06 7.2-2.77 9.32-5.17z"/><path class="st10" d="M604.84 170.34c1 9.44-5.25 17.39-13.95 17.89-8.71.5-16.66-6.5-17.77-15.76-1.11-9.25 5.12-17.41 13.94-18.09 8.81-.68 16.78 6.52 17.78 15.96zM656.21 168.52c.85 9.68-5.54 17.55-14.27 17.71-8.73.16-16.58-7.32-17.55-16.82-.96-9.5 5.42-17.57 14.26-17.9 8.84-.34 16.71 7.34 17.56 17.01zM299.11 224.82c1.9 7.83-3.35 16.14-11.69 18.67-8.34 2.53-16.69-1.5-18.69-9.12-2-7.62 3.19-16.11 11.64-18.85 8.44-2.75 16.85 1.48 18.74 9.3zM348.59 210.98c1.75 8.12-3.68 16.38-12.1 18.58-8.42 2.2-16.73-2.33-18.59-10.24-1.86-7.9 3.53-16.36 12.05-18.77 8.54-2.41 16.89 2.32 18.64 10.43z"/></g><g class="st9"><path class="st13" d="M279.54 287.51c.37 10.84.74 21.68 1.12 32.52 134.02-16.38 321.15-15.9 456.34 12.07 5.1-76.69 9.75-102.4 17.07-194.23-140.91-5.46-339.38-12.98-480.29-18.44 1.92 56.02 3.84 112.05 5.76 168.08z"/><path class="st10" d="M734.53 374.8c14.15-81.07 28.29-162.13 42.44-243.2-164.45-6.38-328.9-12.75-493.35-19.13 2.41 70.18 4.81 140.36 7.22 210.53 147.9 17.28 295.79 34.54 443.69 51.8z"/><path class="st11" d="M296.16 123.77c1.79 63.24 3.58 126.47 5.38 189.71 141.37 15.88 282.73 31.75 424.1 47.63 12.33-72.52 24.66-145.05 36.99-217.57l-466.47-19.77z"/><path class="st10" d="M334.03 320.41c-.01-1.11-.08-2.21-.19-3.3-1.7-17.28-15.65-32.3-33.21-35.86-1.35-.29-2.74-.49-4.13-.63-2.44-.24-4.82-.26-7.1-.05.49 14.15.97 28.3 1.46 42.45l42.45 4.95c.49-2.41.75-4.94.72-7.56zM332.65 123.5c.01 1.11-.03 2.2-.14 3.28-1.56 17.03-16.11 29.9-34.6 30.72-1.43.07-2.9.07-4.38-.01-2.59-.14-5.14-.5-7.6-1.07-.48-14.15-.96-28.31-1.44-42.46 15.72.62 31.44 1.23 47.17 1.85.62 2.49.96 5.06.99 7.69zM725.92 138.93c-.2 1.24-.34 2.48-.42 3.69-1.31 19.22 10.94 35.37 29.11 38.58 1.41.26 2.86.42 4.34.51 2.59.15 5.18.04 7.72-.33 2.9-16.34 5.79-32.67 8.69-49.01-15.72-.67-31.44-1.34-47.16-2-1.05 2.76-1.81 5.62-2.28 8.56zM691.87 361.07c.19-1.24.44-2.47.73-3.67 4.51-18.97 20.71-32.92 38.57-33.33 1.38-.04 2.77.01 4.17.15 2.44.24 4.78.74 6.99 1.47-2.85 16.34-5.69 32.68-8.54 49.03l-42.45-4.95c-.1-2.85.07-5.75.53-8.7zM593.9 240.96c4.71-41.04-25.19-75.91-66.79-77.88-41.6-1.97-76.53 27.99-78.03 66.92-1.5 38.93 28.4 73.79 66.79 77.88 38.38 4.07 73.32-25.88 78.03-66.92z"/><path class="st11" d="M513.99 287.5c.15-3.09.31-6.18.46-9.27-11.77-1.94-22.14-7.22-30.99-15.72 3.36-3.45 6.71-6.92 10.05-10.4 6.81 6.53 14.04 10.64 21.62 12.28.41-8.21.82-16.42 1.22-24.62-9.49-2.78-16.34-6.11-20.56-10.02-4.23-3.91-6.1-9.47-5.65-16.72.45-7.24 3.35-13.07 8.67-17.51 5.32-4.44 12-6.75 20.08-6.9.1-2.12.21-4.23.32-6.35 2.65.08 5.3.17 7.96.25-.1 2.16-.2 4.33-.3 6.49 9.11.99 17.62 4.47 25.6 10.51-2.85 3.84-5.71 7.67-8.59 11.49-5.38-4.24-11.26-6.94-17.65-8.12-.37 7.98-.73 15.96-1.1 23.93.13.01.25.01.38.02 9.61 2.74 16.64 6.2 21.07 10.37 4.43 4.16 6.54 10.01 6.29 17.51-.25 7.51-3.11 13.46-8.62 17.84-5.51 4.38-12.7 6.48-21.52 6.33-.14 3.06-.28 6.11-.42 9.17-2.77-.19-5.55-.38-8.32-.56zm-4.79-82.29c-2.24 1.81-3.44 4.13-3.59 6.95-.16 2.82.56 5.09 2.16 6.81 1.6 1.72 4.71 3.44 9.37 5.18.36-7.32.73-14.64 1.09-21.96-3.79.2-6.79 1.21-9.03 3.02zm24.1 57.06c2.48-1.82 3.78-4.22 3.9-7.21.12-2.98-.73-5.4-2.53-7.25-1.8-1.85-5.22-3.67-10.26-5.46-.35 7.64-.7 15.28-1.06 22.92 4.15-.18 7.46-1.17 9.95-3z"/><path class="st10" d="M660.5 246c1.2-8.7-4.65-16.23-13.05-16.82-8.41-.59-16.09 5.92-17.15 14.53-1.06 8.61 4.78 16.14 13.05 16.82 8.27.67 15.95-5.83 17.15-14.53zM709.28 249.69c1.39-8.83-4.3-16.46-12.71-17.04-8.41-.59-16.24 6.02-17.49 14.76s4.44 16.36 12.71 17.04c8.27.67 16.1-5.93 17.49-14.76zM364.68 222.87c.05-7.94-6.73-14.86-15.15-15.44-8.41-.58-15.16 5.31-15.07 13.16.09 7.85 6.87 14.76 15.15 15.44 8.27.68 15.02-5.21 15.07-13.16zM413.48 226.55c.24-8.07-6.39-15.08-14.8-15.67-8.41-.58-15.31 5.41-15.41 13.39-.1 7.98 6.53 14.99 14.8 15.67 8.27.68 15.17-5.32 15.41-13.39z"/></g></g><g><defs><path id="SVGID_5_" d="M455 404.06v-63.53c0-1.19-2.29-2.15-5.11-2.15H209.65c-2.82 0-5.11.96-5.11 2.15v63.53H455z"/></defs><clipPath id="SVGID_6_"><use xlink:href="#SVGID_5_" overflow="visible"/></clipPath><g clip-path="url(#SVGID_6_)"><path class="st15" d="M450.81 503.39H208.73c-2.31 0-4.19-1.88-4.19-4.19V342.58c0-2.31 1.88-4.19 4.19-4.19h242.08c2.31 0 4.19 1.88 4.19 4.19V499.2c0 2.31-1.88 4.19-4.19 4.19z"/><path class="st15" d="M435.52 490.15H224.84c-4.6 0-8.33-3.73-8.33-8.33V359.53c0-4.6 3.73-8.33 8.33-8.33h210.68c4.6 0 8.33 3.73 8.33 8.33v122.28c0 4.61-3.73 8.34-8.33 8.34z"/><path class="st16" d="M302.22 378.41h-74.66c-1.14 0-2.07-.93-2.07-2.07v-11.98c0-1.14.93-2.07 2.07-2.07h74.66c1.14 0 2.07.93 2.07 2.07v11.98c0 1.14-.94 2.07-2.07 2.07zM377.25 443.01H230.53c-.82 0-1.49-.67-1.49-1.49v-8.63c0-.82.67-1.49 1.49-1.49h146.72c.82 0 1.49.67 1.49 1.49v8.63c0 .82-.67 1.49-1.49 1.49z"/><path class="st17" d="M377.25 463.71H230.53c-.82 0-1.49-.67-1.49-1.49v-8.63c0-.82.67-1.49 1.49-1.49h146.72c.82 0 1.49.67 1.49 1.49v8.63c0 .81-.67 1.49-1.49 1.49z"/><path class="st18" d="M430.11 493.03H229.43c-8.56 0-15.52-6.95-15.52-15.5v-113.2c0-8.55 6.96-15.5 15.52-15.5h200.68c8.56 0 15.52 6.95 15.52 15.5v113.2c0 8.55-6.96 15.5-15.52 15.5zM229.43 352.38c-6.6 0-11.97 5.36-11.97 11.95v113.2c0 6.59 5.37 11.95 11.97 11.95h200.68c6.6 0 11.97-5.36 11.97-11.95v-113.2c0-6.59-5.37-11.95-11.97-11.95H229.43z"/><path class="st18" d="M281.73 420.68h-47.65c-2.38 0-4.33-1.95-4.33-4.33v-22.76c0-2.38 1.95-4.33 4.33-4.33h47.65c2.38 0 4.33 1.95 4.33 4.33v22.76c.01 2.38-1.94 4.33-4.33 4.33z"/><g><path class="st16" d="M411.97 400.85c-.45 0-.9-.18-1.22-.54-.62-.67-.57-1.72.1-2.34 4.98-4.56 7.72-10.59 7.72-16.99 0-6.4-2.74-12.44-7.72-16.99-.67-.62-.72-1.66-.1-2.34.62-.67 1.67-.72 2.34-.1 5.67 5.19 8.8 12.09 8.8 19.43s-3.12 14.24-8.79 19.43c-.33.3-.73.44-1.13.44z"/><path class="st16" d="M407.19 396.48c-.45 0-.9-.18-1.22-.54-.62-.67-.57-1.72.1-2.34 3.7-3.39 5.74-7.87 5.74-12.62 0-4.75-2.04-9.24-5.74-12.62-.67-.62-.72-1.66-.1-2.34.62-.68 1.66-.72 2.34-.1 4.4 4.02 6.82 9.37 6.82 15.06 0 5.69-2.42 11.04-6.81 15.06-.33.3-.73.44-1.13.44z"/><path class="st16" d="M402.42 392.11c-.45 0-.9-.18-1.22-.54-.62-.67-.57-1.72.1-2.34 2.42-2.22 3.76-5.14 3.76-8.25 0-3.11-1.33-6.03-3.76-8.25-.67-.62-.72-1.66-.1-2.34.62-.68 1.67-.72 2.34-.1 3.12 2.85 4.83 6.65 4.83 10.69 0 4.04-1.72 7.84-4.83 10.69-.32.3-.72.44-1.12.44z"/><path class="st16" d="M397.64 387.74c-.45 0-.89-.18-1.22-.54-.62-.67-.57-1.72.1-2.34 1.14-1.05 1.77-2.42 1.77-3.88s-.63-2.84-1.77-3.88c-.67-.62-.72-1.66-.1-2.34.62-.67 1.67-.72 2.34-.1 1.84 1.68 2.85 3.92 2.85 6.32 0 2.4-1.01 4.64-2.85 6.32-.32.3-.72.44-1.12.44z"/></g></g></g></g><g id="Wallet_Coins"><defs><path id="SVGID_7_" d="M765.52 308.18c0-24.9-23.01-45.28-47.78-45.28H559.37c-24.77 0-47.78 20.38-47.78 45.28 0 .39.01.78.02 1.17-.01.39-.02.79-.02 1.17 0 24.9 23.01 45.28 47.78 45.28h158.37c24.77 0 47.78-20.38 47.78-45.28 0-.39-.01-.78-.02-1.17.01-.38.02-.78.02-1.17z"/></defs><clipPath id="SVGID_8_"><use xlink:href="#SVGID_7_" overflow="visible"/></clipPath><g clip-path="url(#SVGID_8_)"><ellipse transform="rotate(-14.128 580.139735 335.881657)" class="st20" cx="580.23" cy="335.92" rx="44.13" ry="44.13"/><ellipse transform="rotate(-14.128 580.139735 335.881657)" class="st20" cx="580.23" cy="335.92" rx="44.13" ry="44.13"/><path class="st21" d="M628.18 320.72c8.42 26.55-6.28 54.9-32.83 63.32-26.55 8.42-54.9-6.28-63.32-32.83-8.42-26.55 6.28-54.9 32.83-63.32 26.55-8.42 54.9 6.27 63.32 32.83z"/><ellipse transform="rotate(-14.128 580.139735 335.881657)" class="st20" cx="580.23" cy="335.92" rx="44.13" ry="44.13"/><path class="st22" d="M595.07 375.33c-23.2 7.36-48.06-5.53-55.41-28.73-3.66-11.55-2.3-23.51 2.85-33.52-6.35 10.51-8.34 23.59-4.35 36.19 7.36 23.2 32.21 36.09 55.41 28.73 11.64-3.69 20.69-11.8 25.88-21.89-5.35 8.84-13.78 15.86-24.38 19.22z"/><path class="st23" d="M566.89 293.85c-10.54 3.34-18.93 10.3-24.29 19.06 5.34-7.28 12.94-13 22.19-15.94 23.2-7.36 48.05 5.53 55.41 28.73 4.02 12.66 1.99 25.81-4.44 36.35 8.06-10.98 10.96-25.53 6.54-39.48-7.36-23.19-32.22-36.07-55.41-28.72z"/><path class="st23" d="M601.39 321.88c-2.55-.64-5.34-.27-8.37 1.13 1.95-4.21 1.17-8.15-2.34-11.81-1.26-1.34-2.64-2.27-4.13-2.81-1.5-.53-3.06-.68-4.7-.43-1.64.25-3.26.72-4.85 1.43-1.6.71-3.32 1.66-5.16 2.86l-6.47-8.25-5.04 3.95 6.29 8.02c-.87.68-2.19 1.75-3.94 3.2l-6.34-8.08-5.04 3.95 6.47 8.25c-.7.59-1.75 1.43-3.15 2.53l-6.96 5.41 4.21 5.37 3.63-2.85c1.66-1.3 3.21-1.32 4.66-.06l7.37 9.39c.22-.17.4-.3.55-.38l-.52.41 10.33 13.15c.7 1.25.5 2.3-.59 3.16l-3.63 2.85 3.69 6.78 6.54-5.14c.42-.33 1.02-.79 1.81-1.4.79-.6 1.39-1.06 1.78-1.37l6.55 8.35 5.04-3.96-6.47-8.25c.93-.7 2.27-1.73 4.02-3.1l6.45 8.21 5.04-3.96-6.55-8.35c1.72-1.49 3.18-2.9 4.38-4.23 1.2-1.33 2.23-2.75 3.09-4.25.86-1.51 1.42-2.97 1.67-4.41.25-1.43.19-2.95-.17-4.57-.37-1.61-1.09-3.26-2.15-4.92-2.12-3.23-4.45-5.18-7-5.82zm-34 3.1c.15-.12.58-.46 1.28-1.03.7-.57 1.28-1.04 1.74-1.42.46-.38 1.11-.85 1.96-1.41.85-.56 1.59-1 2.22-1.32.63-.32 1.37-.61 2.22-.87.85-.26 1.61-.37 2.29-.32.67.05 1.37.25 2.08.59.71.34 1.35.87 1.91 1.59.48.61.82 1.24 1.02 1.9.2.66.23 1.31.1 1.95-.13.65-.3 1.26-.52 1.83-.22.58-.59 1.2-1.11 1.85-.53.66-.99 1.22-1.4 1.68-.41.46-.96.99-1.66 1.59-.7.6-1.22 1.05-1.59 1.35-.36.3-.87.7-1.52 1.19s-1.03.78-1.14.87l-7.88-10.02zm31.25 11.49c.19.67.26 1.31.23 1.94-.04.63-.21 1.29-.52 2-.31.7-.65 1.34-1.01 1.91-.36.57-.85 1.19-1.46 1.88s-1.16 1.27-1.65 1.74-1.1 1.02-1.81 1.63c-.72.61-1.28 1.08-1.7 1.41-.42.33-.94.73-1.58 1.22-.64.49-1.05.8-1.22.94l-8.68-11.06c.17-.14.68-.55 1.53-1.25.84-.7 1.54-1.26 2.09-1.69.55-.43 1.32-.99 2.34-1.68 1.01-.69 1.89-1.22 2.65-1.61.76-.38 1.63-.74 2.62-1.08.99-.34 1.88-.5 2.67-.48.79.02 1.58.2 2.39.55.81.35 1.52.92 2.14 1.71.46.61.79 1.25.97 1.92zm0 0"/><path class="st21" d="M599.86 323.05c-2.55-.64-5.34-.27-8.37 1.13 1.95-4.21 1.17-8.15-2.34-11.81-1.26-1.34-2.64-2.27-4.13-2.81-1.5-.53-3.06-.68-4.7-.43-1.64.25-3.26.72-4.85 1.43-1.6.71-3.32 1.66-5.16 2.86l-6.47-8.25-5.04 3.95 6.29 8.02c-.87.68-2.19 1.75-3.94 3.2l-6.34-8.08-5.04 3.95 6.47 8.25c-.7.59-1.75 1.43-3.15 2.53l-6.96 5.41 4.21 5.37 3.63-2.85c1.66-1.3 3.21-1.32 4.66-.06l7.37 9.39c.22-.17.4-.3.55-.38l-.52.41 10.33 13.15c.7 1.25.5 2.3-.59 3.16l-3.63 2.85 3.69 6.78 6.54-5.14c.42-.33 1.02-.79 1.81-1.4.79-.6 1.39-1.06 1.78-1.37l6.55 8.35 5.04-3.96-6.47-8.25c.93-.7 2.27-1.73 4.02-3.1l6.45 8.21 5.04-3.96-6.55-8.35c1.72-1.49 3.18-2.9 4.38-4.23 1.2-1.33 2.23-2.75 3.09-4.25.86-1.51 1.42-2.97 1.67-4.41.25-1.43.19-2.95-.17-4.57-.37-1.61-1.09-3.26-2.15-4.92-2.13-3.23-4.45-5.18-7-5.82zm-34.01 3.1c.15-.12.58-.46 1.28-1.03.7-.57 1.28-1.04 1.74-1.42.46-.38 1.11-.85 1.96-1.41.85-.56 1.59-1 2.22-1.32.63-.32 1.37-.61 2.22-.87.85-.26 1.61-.37 2.29-.32.67.05 1.37.25 2.08.59.71.34 1.35.87 1.91 1.59.48.61.82 1.24 1.02 1.9.2.66.23 1.31.1 1.95-.13.65-.3 1.26-.52 1.83-.22.58-.59 1.2-1.11 1.85-.53.66-.99 1.22-1.4 1.68-.41.46-.96.99-1.66 1.59-.7.6-1.22 1.05-1.59 1.35-.36.3-.87.7-1.52 1.19s-1.03.78-1.14.87l-7.88-10.02zm31.26 11.49c.19.67.26 1.31.23 1.94-.04.63-.21 1.29-.52 2-.31.7-.65 1.34-1.01 1.91-.36.57-.85 1.19-1.46 1.88s-1.16 1.27-1.65 1.74-1.1 1.02-1.81 1.63c-.72.61-1.28 1.08-1.7 1.41-.42.33-.94.73-1.58 1.22-.64.49-1.05.8-1.22.94l-8.68-11.06c.17-.14.68-.55 1.53-1.25.84-.7 1.54-1.26 2.09-1.69.55-.43 1.32-.99 2.34-1.68 1.01-.69 1.89-1.22 2.65-1.61.76-.38 1.63-.74 2.62-1.08s1.88-.5 2.67-.48c.79.02 1.58.2 2.39.55.81.35 1.52.92 2.14 1.71.45.61.78 1.25.97 1.92zm0 0"/></g><ellipse transform="rotate(-56.055 712.923174 290.887987)" class="st20" cx="712.95" cy="290.9" rx="47.47" ry="47.47"/><ellipse transform="rotate(-56.055 712.923174 290.887987)" class="st20" cx="712.95" cy="290.9" rx="47.47" ry="47.47"/><ellipse transform="rotate(-10.39 712.693922 290.787585)" class="st21" cx="712.83" cy="290.86" rx="54.25" ry="54.25"/><ellipse transform="rotate(-56.055 712.923174 290.887987)" class="st20" cx="712.95" cy="290.9" rx="47.47" ry="47.47"/><path class="st22" d="M699.29 334.08c-24.5-9.21-36.94-36.64-27.73-61.14 4.59-12.2 13.69-21.41 24.7-26.44-12.36 4.66-22.74 14.39-27.74 27.7-9.21 24.5 3.23 51.93 27.73 61.14 12.3 4.62 25.33 3.79 36.43-1.29-10.4 3.92-22.2 4.24-33.39.03z"/><path class="st23" d="M729.66 246.47c-11.13-4.18-22.85-3.89-33.21-.04 9.36-2.6 19.59-2.38 29.36 1.29 24.5 9.21 36.94 36.64 27.73 61.14-5.03 13.37-15.49 23.14-27.93 27.77 14.11-3.93 26.24-14.29 31.78-29.02 9.21-24.5-3.23-51.93-27.73-61.14z"/><path class="st20" d="M617.91 246.3c-23.57 11.39-52.01 1.49-63.4-22.08-11.39-23.57-1.49-52.01 22.08-63.4 23.57-11.39 52.01-1.49 63.4 22.08 11.39 23.57 1.48 52.01-22.08 63.4z"/><path class="st20" d="M617.91 246.3c-23.57 11.39-52.01 1.49-63.4-22.08-11.39-23.57-1.49-52.01 22.08-63.4 23.57-11.39 52.01-1.49 63.4 22.08 11.39 23.57 1.48 52.01-22.08 63.4z"/><ellipse transform="rotate(-88.373 597.105667 203.628217)" class="st21" cx="597.12" cy="203.62" rx="54.25" ry="54.25"/><path class="st20" d="M617.91 246.3c-23.57 11.39-52.01 1.49-63.4-22.08-11.39-23.57-1.49-52.01 22.08-63.4 23.57-11.39 52.01-1.49 63.4 22.08 11.39 23.57 1.48 52.01-22.08 63.4z"/><path class="st22" d="M619.09 243.24c-23.57 11.39-52.01 1.49-63.4-22.08-5.67-11.74-6.06-24.68-2.11-36.13-5.15 12.16-5.26 26.39.93 39.19 11.39 23.57 39.83 33.47 63.4 22.08 11.83-5.72 20.21-15.73 24.19-27.27-4.34 10.23-12.24 19-23.01 24.21z"/><path class="st23" d="M623.11 199.01c-2.05-1.65-4.74-2.48-8.07-2.48 3.53-3.01 4.47-6.91 2.81-11.71-.59-1.74-1.45-3.17-2.58-4.28-1.14-1.11-2.5-1.9-4.09-2.36-1.59-.46-3.26-.7-5.01-.73-1.75-.02-3.71.12-5.88.44l-2.43-10.2-6.23 1.48 2.36 9.92c-1.08.26-2.72.68-4.92 1.26l-2.38-9.99-6.23 1.48 2.43 10.2c-.88.24-2.19.57-3.92.98l-8.59 2 1.58 6.64 4.49-1.07c2.05-.49 3.47.15 4.26 1.9l2.77 11.62c.27-.06.49-.1.66-.11l-.65.15 3.88 16.27c.11 1.43-.5 2.3-1.86 2.62l-4.49 1.07.51 7.7 8.09-1.93c.51-.12 1.26-.29 2.23-.51.97-.22 1.71-.38 2.19-.5l2.46 10.32 6.23-1.48-2.43-10.2c1.14-.24 2.79-.62 4.95-1.13l2.42 10.16 6.23-1.48-2.46-10.32c2.19-.64 4.1-1.3 5.74-2.01 1.64-.71 3.17-1.56 4.58-2.57 1.41-1.01 2.53-2.11 3.36-3.3.83-1.19 1.41-2.6 1.75-4.22.34-1.62.38-3.41.11-5.37-.53-3.87-1.83-6.61-3.87-8.26zm-32.19-11.41c.19-.05.72-.18 1.59-.4.87-.22 1.6-.41 2.18-.56.58-.15 1.37-.3 2.37-.46 1.01-.16 1.86-.24 2.57-.27.71-.02 1.5.02 2.38.14.88.12 1.62.34 2.21.67.59.33 1.14.8 1.64 1.41.5.61.86 1.36 1.07 2.25.18.75.22 1.47.13 2.15-.09.68-.34 1.29-.72 1.82-.38.54-.8 1.02-1.24 1.45-.44.43-1.04.84-1.78 1.22-.75.38-1.41.69-1.98.94-.57.25-1.29.5-2.17.75-.88.25-1.55.44-2.01.56-.45.12-1.08.27-1.88.45-.8.18-1.27.28-1.4.31l-2.96-12.43zm23.59 23.51c-.11.68-.31 1.3-.61 1.86-.3.55-.73 1.09-1.31 1.59-.58.51-1.15.95-1.72 1.31-.57.36-1.27.73-2.11 1.1-.84.37-1.58.67-2.23.89-.64.22-1.42.47-2.33.73-.91.26-1.62.45-2.13.57-.51.12-1.16.27-1.95.44-.79.17-1.29.29-1.5.34l-3.26-13.68c.22-.05.85-.22 1.91-.5s1.93-.5 2.6-.66c.67-.16 1.61-.34 2.82-.54 1.21-.2 2.23-.32 3.08-.35.85-.03 1.79.01 2.83.12s1.91.33 2.62.68c.71.34 1.36.85 1.94 1.5.59.66.99 1.47 1.23 2.44.19.76.23 1.47.12 2.16zm0 0"/><path class="st21" d="M621.22 199.43c-2.05-1.65-4.74-2.48-8.07-2.48 3.53-3.01 4.47-6.91 2.81-11.71-.59-1.74-1.45-3.17-2.58-4.28-1.14-1.11-2.5-1.9-4.09-2.36-1.59-.46-3.26-.7-5.01-.73-1.75-.02-3.71.12-5.88.44l-2.43-10.2-6.23 1.48 2.36 9.92c-1.08.26-2.72.68-4.92 1.26l-2.38-9.99-6.23 1.48 2.43 10.2c-.88.24-2.19.57-3.92.98l-8.59 2 1.58 6.64 4.49-1.07c2.05-.49 3.47.15 4.26 1.9l2.77 11.62c.27-.06.49-.1.66-.11l-.65.15 3.88 16.27c.11 1.43-.5 2.3-1.86 2.62l-4.49 1.07.51 7.7 8.09-1.93c.51-.12 1.26-.29 2.23-.51.97-.22 1.71-.38 2.19-.5l2.46 10.32 6.23-1.48-2.43-10.2c1.14-.24 2.79-.62 4.95-1.13l2.42 10.16 6.23-1.48-2.46-10.32c2.19-.64 4.1-1.3 5.74-2.01 1.64-.71 3.17-1.56 4.58-2.57 1.41-1.01 2.53-2.11 3.36-3.3.83-1.19 1.41-2.6 1.75-4.22.34-1.62.38-3.41.11-5.37-.52-3.87-1.82-6.61-3.87-8.26zm-32.18-11.41c.19-.05.72-.18 1.59-.4.87-.22 1.6-.41 2.18-.56.58-.15 1.37-.3 2.37-.46 1.01-.16 1.86-.24 2.57-.27.71-.02 1.5.02 2.38.14.88.12 1.62.34 2.21.67.59.33 1.14.8 1.64 1.41.5.61.86 1.36 1.07 2.25.18.75.22 1.47.13 2.15-.09.68-.34 1.29-.72 1.82-.38.54-.8 1.02-1.24 1.45-.44.43-1.04.84-1.78 1.22-.75.38-1.41.69-1.98.94-.57.25-1.29.5-2.17.75-.88.25-1.55.44-2.01.56-.45.12-1.08.27-1.88.45-.8.18-1.27.28-1.4.31l-2.96-12.43zm23.58 23.51c-.11.68-.31 1.3-.61 1.86-.3.55-.73 1.09-1.31 1.59-.58.51-1.15.95-1.72 1.31-.57.36-1.27.73-2.11 1.1-.84.37-1.58.67-2.23.89-.64.22-1.42.47-2.33.73-.91.26-1.62.45-2.13.57-.51.12-1.16.27-1.95.44-.79.17-1.29.29-1.5.34l-3.26-13.68c.22-.05.85-.22 1.91-.5s1.93-.5 2.6-.66c.67-.16 1.61-.34 2.82-.54 1.21-.2 2.23-.32 3.08-.35.85-.03 1.79.01 2.83.12s1.91.33 2.62.68c.71.34 1.36.85 1.94 1.5.59.66.99 1.47 1.23 2.44.2.76.23 1.47.12 2.16zm0 0"/><path class="st23" d="M733.91 305.85c-.46-2.59-1.95-4.98-4.46-7.17 4.64.05 7.91-2.28 9.81-6.98.7-1.7.99-3.34.86-4.92s-.64-3.07-1.54-4.47c-.9-1.39-2-2.67-3.3-3.84-1.3-1.16-2.88-2.34-4.73-3.53l4.86-9.29-5.67-2.97-4.73 9.03c-.98-.51-2.49-1.27-4.54-2.28l4.76-9.1-5.67-2.97-4.86 9.29c-.82-.4-2.02-1.01-3.6-1.83l-7.79-4.13-3.16 6.04 4.09 2.14c1.87.98 2.52 2.39 1.97 4.22l-5.54 10.58c.25.13.44.24.57.35l-.59-.31-7.75 14.82c-.85 1.15-1.89 1.41-3.12.76l-4.09-2.14-4.67 6.15 7.37 3.86c.47.25 1.14.6 2.02 1.08.88.48 1.54.83 1.98 1.06l-4.92 9.4 5.68 2.97 4.86-9.29c1.02.56 2.51 1.36 4.48 2.39l-4.84 9.25 5.68 2.97 4.92-9.4c2.07.95 3.95 1.71 5.65 2.25 1.7.54 3.42.9 5.14 1.07 1.73.17 3.29.07 4.7-.29 1.41-.36 2.77-1.04 4.1-2.04 1.32-1 2.52-2.33 3.61-3.98 2.1-3.24 2.92-6.16 2.46-8.75zm-16.79-29.73c.17.09.66.34 1.46.74.81.4 1.48.74 2.01 1.01.53.27 1.23.67 2.09 1.21.86.54 1.56 1.04 2.11 1.48.55.45 1.12 1 1.71 1.67.59.67 1 1.32 1.23 1.96.23.64.34 1.35.31 2.14-.02.79-.24 1.59-.67 2.4-.36.69-.8 1.26-1.31 1.71-.52.45-1.1.75-1.74.9-.64.15-1.27.24-1.88.28-.62.04-1.33-.05-2.14-.25-.82-.21-1.52-.4-2.11-.59-.59-.18-1.3-.47-2.13-.86-.83-.39-1.46-.69-1.88-.89-.42-.21-.99-.5-1.71-.9-.72-.39-1.14-.62-1.26-.68l5.91-11.33zm2.36 33.21c-.53.44-1.09.78-1.68 1-.59.22-1.27.34-2.03.34-.77.01-1.49-.04-2.16-.14-.67-.1-1.44-.29-2.31-.56-.88-.27-1.63-.53-2.27-.79-.63-.25-1.38-.58-2.23-.98-.85-.4-1.52-.72-1.98-.97-.47-.25-1.05-.56-1.76-.95-.71-.38-1.16-.63-1.36-.73l6.52-12.46c.2.1.79.4 1.77.88s1.78.89 2.4 1.21 1.44.8 2.49 1.44c1.04.64 1.89 1.22 2.55 1.76.66.53 1.35 1.18 2.06 1.95s1.22 1.51 1.53 2.23c.31.73.47 1.53.48 2.41.01.88-.22 1.77-.68 2.65-.36.71-.81 1.27-1.34 1.71zm0 0"/><g><path class="st21" d="M732.21 304.93c-.46-2.59-1.95-4.98-4.46-7.17 4.64.05 7.91-2.28 9.81-6.98.7-1.7.99-3.34.86-4.92s-.64-3.07-1.54-4.47c-.9-1.39-2-2.67-3.3-3.84-1.3-1.16-2.88-2.34-4.73-3.53l4.86-9.29-5.67-2.97-4.73 9.03c-.98-.51-2.49-1.27-4.54-2.28l4.76-9.1-5.67-2.97-4.86 9.29c-.82-.4-2.02-1.01-3.6-1.83l-7.79-4.13-3.16 6.04 4.09 2.14c1.87.98 2.52 2.39 1.97 4.22l-5.54 10.58c.25.13.44.24.57.35l-.59-.31-7.75 14.82c-.85 1.15-1.89 1.41-3.12.76l-4.09-2.14-4.67 6.15 7.37 3.86c.47.25 1.14.6 2.02 1.08.88.48 1.54.83 1.98 1.06l-4.92 9.4 5.68 2.97 4.86-9.29c1.02.56 2.51 1.36 4.48 2.39l-4.84 9.25 5.68 2.97 4.92-9.4c2.07.95 3.95 1.71 5.65 2.25 1.7.54 3.42.9 5.14 1.07 1.73.17 3.29.07 4.7-.29 1.41-.36 2.77-1.04 4.1-2.04 1.32-1 2.52-2.33 3.61-3.98 2.1-3.24 2.92-6.16 2.46-8.75zm-16.79-29.73c.17.09.66.34 1.46.74.81.4 1.48.74 2.01 1.01.53.27 1.23.67 2.09 1.21.86.54 1.56 1.04 2.11 1.48.55.45 1.12 1 1.71 1.67.59.67 1 1.32 1.23 1.96.23.64.33 1.35.31 2.14-.02.79-.24 1.59-.67 2.4-.36.69-.8 1.26-1.31 1.71-.52.45-1.1.75-1.74.9-.64.15-1.27.24-1.88.28-.62.04-1.33-.05-2.14-.25-.82-.21-1.52-.4-2.11-.59-.59-.18-1.3-.47-2.13-.86-.83-.39-1.46-.69-1.88-.89-.42-.21-.99-.5-1.71-.9-.72-.39-1.14-.62-1.26-.68l5.91-11.33zm2.36 33.22c-.53.44-1.09.78-1.68 1-.59.22-1.27.34-2.03.34-.77.01-1.49-.04-2.16-.14-.67-.1-1.44-.29-2.31-.56-.88-.27-1.63-.53-2.27-.79-.63-.25-1.38-.58-2.23-.98-.85-.4-1.52-.72-1.98-.97-.47-.25-1.05-.56-1.76-.95-.71-.38-1.16-.63-1.36-.73l6.52-12.46c.2.1.79.4 1.77.88s1.78.89 2.4 1.21c.61.32 1.44.8 2.49 1.44 1.04.64 1.89 1.22 2.55 1.76.66.53 1.35 1.18 2.06 1.95.71.76 1.22 1.51 1.53 2.23.31.73.47 1.53.48 2.41.01.88-.22 1.77-.68 2.65-.36.7-.81 1.26-1.34 1.71zm0 0"/></g><path class="st23" d="M576.59 160.82c-10.7 5.17-18.58 13.87-22.93 24.02 4.57-8.57 11.78-15.83 21.18-20.37 23.57-11.39 52.01-1.49 63.4 22.08 6.22 12.86 6.08 27.18.85 39.38 6.89-12.93 7.75-28.86.9-43.03-11.4-23.56-39.84-33.47-63.4-22.08z"/></g><g id="Layer_1"><path class="st24" d="M776.89 306.86l-4.4-12.6c-1.12-4.34-4.93-9.94-9.35-9.21l-3.78.62c-2.29.38-3.61 2.82-2.66 4.94l10.04 21.01 10.15-4.76z"/><path d="M804.81 373.43l-27.8-67.04-11.07 5.14 21.89 65.46 17.92 30.35s3.92-8.49 2.35-21.54c-.52-4.25-1.65-8.41-3.29-12.37z" fill="#80057a"/><path class="st24" d="M786.66 365.01c1.38-4.41 3.68-8.77 3.14-13.36-.37-3.14-2.04-5.96-3.68-8.67-4.89-8.11-16.11-4.12-21.07 1.57-3.26 3.75-4.91 8.86-4.46 13.8.21 2.25.82 4.45 1.55 6.59 1.35 3.98 3.87 8.39 8.06 8.71 1.14.09 2.32-.15 3.41.21 1.08.36 1.08 3.29.39 4.21 4.78 1.02 11.36.02 11.27-1.02-.34-3.76.53-9.3 1.39-12.04z"/><path d="M776.39 371.78c-.31-3.23-1.26-6.39-2.78-9.25 2.63-1.8 3.28-5.93 1.33-8.45-.7-.91-1.93-1.63-2.96-1.14-.44.21-.77.61-1.04 1.02-.78 1.19-1.26 2.57-1.37 3.99-.91-.09-1.81-.18-2.72-.28-2.02-2.43-1.15-6.14-2.33-9.08-.47-1.18-1.26-2.2-2.04-3.2-2.17-2.79-4.33-5.59-6.5-8.38 3.65-1.51 7.32-3.02 10.74-5.01 1.58-.91 3.15-1.95 4.94-2.29 2.7-.52 5.41.59 8.1 1.14 2.56.52 5.46.67 7.24 2.58.69.74 1.13 1.68 1.85 2.39 1.32 1.31 3.32 1.64 4.82 2.74 2.41 1.76 3.01 5.04 3.44 8 .11.75.21 1.53-.05 2.24-.24.67-.78 1.19-1.19 1.77-1.76 2.51-1.09 5.99-2.1 8.89-.58 1.66-1.7 3.08-2.63 4.57-.87 1.39-1.58 2.88-2.13 4.42-.43 1.21-.41 2.77-1.56 3.39-1.1.59-3.84 0-5.09-.01-1.99-.02-3.98-.04-5.97-.05z" fill="#003960"/><path class="st17" d="M785.27 377.05s4.61 2.9 7.34 4.78c0 0-9.9 6.14-23.9 1.71l5.29-5.46c0-.01 7.52 1.36 11.27-1.03z"/><path class="st27" d="M798.22 382.06l-5.61-.23s-9.73 6.15-23.9 1.71c0 0-4.71 1.97-9.87 4.59-4.9 2.5-8.79 6.44-11.34 11.16-.46.85 9.29 20.46 9.97 23.53.8 3.61 1.86 45.7 3.49 46 0 0 30.46 5.69 45.99-5.92 0 0-1.88-34.82 0-41.31 0 0 5.95-21.42-.74-33.65-1.74-3.16-4.37-5.74-7.99-5.88z"/><path class="st28" d="M811.46 598.23c1.24.97 1.95 2.48 1.87 4.05-.11 2.28-.91 5.42-4.16 7.01-1.28.63-2.76.69-4.14.33-3.36-.86-11.03-3.29-21.31-9.54-1.5-.91-2.62-2.46-2.75-4.22-.12-1.62.66-3.25 4.26-3.29 6.22-.07 21.97 2.33 26.23 5.66zM764.62 599.63v11.25s-.85 4.96-6.49 4.11l-21.17.1s-4.34.05-6.82-1.46c-.78-.47-.64-1.66.21-1.99l22.57-8.93 2.3-3.07h9.4z"/><path d="M806.95 462.91l.85 67.25 4.78 69.47c-.31 2.94-2.22 5.34-4.64 5.95-3.25.82-7.23-1.67-8-5.95l-11.61-69.3-11.8-62.72 30.42-4.7z" fill="#4e00bd"/><path d="M760.96 468.82l-5.9 64.75-4.29 69.57c.77.95 2.73 3.12 6.08 4.26 3.99 1.35 7.4.37 8.51 0 2.48-22.05 4.97-44.09 7.45-66.14l13.45-46.13c1.34-4.6 16.48-29.51 16.28-31.54-13.86 1.74-27.72 3.49-41.58 5.23z" fill="#7937e3"/><path class="st24" d="M719.14 349.01l3.61-12.85c.84-4.4 4.3-10.22 8.76-9.78l3.81.38c2.31.23 3.78 2.59 4.41 4.77l-8.71 21.6-11.88-4.12z"/><path class="st27" d="M767.05 388.09h-19.23l-23.61-6.4c-2.84-.77-4.3-3.92-3.06-6.58l11.29-21.27-14.1-5.13L705 377.26c-2.58 6.07.05 13.1 5.98 16l44.54 21.75 11.53-26.92z"/><g><path class="st24" d="M95.31 288.54c.32 4.76.01 11.14-7.29 8.93-4.24-1.74-9.41-4.47-11.13-11.09 1.32-3.56 1.68-7.48 1.03-11.22 5.97 5.78 14.14 5.93 14.14 5.93s2.14 5.82 3.25 7.45z"/><path class="st24" d="M100.57 270.18c.2 2.92.1 6.06-1.59 8.47-2.1 2.99-6.22 4.02-9.83 3.39-3.61-.64-6.8-2.65-9.8-4.75-4.31-3.01-8.52-6.41-11.18-10.93-2.67-4.52-3.54-10.4-1.02-15 2.71-4.97 8.92-7.41 14.56-6.73 5.22.64 11.26 3.9 14.49 8.12 3.29 4.33 4.02 12.16 4.37 17.43z"/><path d="M97.99 251.77c-2.88 2.08-6.62 2.57-10.17 2.52-3.36-.05-7.24-.32-9.52 2.14-2.13 2.3-1.77 5.88-1.27 8.97-.77-1.54-3.21-1.61-4.41-.38-1.2 1.24-1.26 3.24-.62 4.84.64 1.6 1.87 2.88 3.07 4.12-7.42-1.43-13.22-8.74-12.9-16.26.32-7.52 6.71-14.31 14.23-15.12 3.96-.42 7.9.63 11.85 1.16 2.42.32 4.71.28 7.12-.06 1.47-.21 3.26-.78 4.68-.01 3.39 1.85.08 6.54-2.06 8.08z" fill="#172755"/><path d="M76.88 286.38l-11.42 1.55s-11.28-.21-21.3 15.69c0 0-16.85 16.93-15.53 29.93 0 0 12.65-10.62 22.39-.95l-.44-8.14 11.67-10.63s6.38 34.01 4.15 39.01c0 0 19.71 17.99 42.79.78l3.88-42.35 36.2-11.16s9.32-4.69 12.71-9.08c0 0-14.96-2.31-15.55-12.58 0 0-16.34 6.59-22.04 9.97 0 0-20.43-1.4-29.1.12 0 0-1.51 11.14-7.29 8.93.01 0-6.97-2.35-11.12-11.09z" fill="#2693ff"/><path d="M51.04 332.6s5.72 6.52-1.78 12.38c0 0-4.23-9.43-13.54-1.23 0 0-8.92 1.84-7.71-8.55.14-1.17 1.13-2.08 2.1-2.75 3.6-2.47 13.18-7.69 20.93.15z" fill="#5faaff"/><path class="st34" d="M110.94 504.64s13.69 8.43 26.67 9.9c0 0 4.52 3.86-7.96 4.53l-24.33-1.79c-2.13-.16-3.75-1.97-3.67-4.09l.37-9.35c0 .01.88 2.48 8.92.8zM58.39 505.39c1.53 1.97 3.57 4.24 6.23 6.47 4.12 3.45 8.19 5.53 11.24 6.78.1.08 1.51 1.14 1.32 2.21-.19 1.09-1.61 1.48-4.38 1.57l-5.74-.1c-.78-.01-1.55-.22-2.24-.6l-17.17-9.57c-1.85-1.03-2.5-3.36-1.44-5.19l2.85-4.94c-.01.01 1.76 2.53 9.33 3.37z"/><path d="M108.27 354.29s5.06 72.03 2.23 77.98l1.79 72.47s-5.4 3.81-12.52-.63c0 0-9.82-65.16-10.06-73.54l-23.29-77.75c.01.01 17.66 18 41.85 1.47z" fill="#6d35aa"/><path d="M101.41 358.22l-6.53 13.53s-6.81 53.53-14.26 56.69l-20.16 76.58s-7.15 2.46-12.88-3.65c0 0 2.19-56.26 8.43-67.77 0 0 4.7-12.12 4.44-19.48 0 0-1.37-42.06 1.63-46.84 0 0 1.96-11.2 4.35-14.45 0 0 14.07 13.64 34.98 5.39z" fill="#914ae3"/><path d="M164.31 283.69s2.26 7.01-3.82 9.39c-1.65.64-5.66 2.18-9.92-.72-4.63-3.15-10.16-11.06-1.49-17.76 0 0-.44 5.32 6.5 11.59 2.88 2.6 7.61 1.37 8.69-2.35.02-.04.03-.1.04-.15z" fill="#8abeff"/><path class="st24" d="M163.48 286.03l15.19-49.1-6.14-1.7s-19.86 32.62-23.45 39.37c0 0 1.74 20.37 14.4 11.43zM48.3 342.37l5.59 25.51s18.77 9.44 16.09 16.38c0 0-9.88 5.53-24.43-12.72 0 0-8.53-24.3-12.77-29.45 0 0 4.93-8.81 15.52.28z"/><path class="st24" d="M184.5 217.78l-6.97 23.26c-5.35-1.6-8.13-8.11-6.21-14.54 1.92-6.42 7.82-10.33 13.18-8.72z"/></g><g><path class="st38" d="M291.79 380.09c7.1-4.37 24.39-12.32 33.22 6.98 0 0-1.76 6.48 0 9.51 0 0 1.89 5.36-2.15 11.23-1.85 2.69-5 4.06-8.26 4.16-2.61.08-5.84 4.84-5.34 11.66 0 0-9.33 1.83-12.35-3.25 0 0-1.92-11.35-7.34-19.25-2.77-4.05-3.97-9.01-2.92-13.81.02-.09.04-.19.06-.28.68-2.92 2.55-5.39 5.08-6.95z"/><path d="M294.31 410.85s-18.54-15.63-2.97-31.9c2.78-2.91 6.45-4.62 10.26-5.92 10.88-3.72 18.67-1.99 23.86 1.48 0 0 10.39 9.95-4.76 14.28 0 0-6.06 1.73-1.3 7.79 0 0 3.77 6.03-2.76 11.4-1.71 1.41-2.52 3.74-1.66 5.77.27.65.71 1.29 1.39 1.87 0 0-.13-.04-.36-.13-4.49-1.74-5.86-7.44-2.78-11.14l.05-.06c1.58-1.91 1.55-4.64.02-6.58-1.47-1.86-2.93-4.52-1.69-6.75 0 0-5.14 2.29-4.05 7.09.91 4.02.16 8.3-2.65 11.32-2.56 2.73-6.15 4.51-10.6 1.48z" fill="#3136d9"/><path d="M279.64 374.88c-4.42 1.15-8.6 3.57-11.34 7.23-2.74 3.66-3.87 8.61-2.46 12.96 1.02 3.13 3.21 5.7 5.18 8.33 1.97 2.63 3.83 5.57 3.98 8.86.16 3.28-2 6.89-5.27 7.22-1.2.12-2.43-.2-3.63-.03-1.2.17 3.11 6.55 18.9 3.86 6.38-1.09 10.32-8.68 10.55-15.15.13-3.61-.98-7.13-1.73-10.67-.74-3.54-1.09-7.38.49-10.63.95-1.97 2.82-3.57 4.87-4.19 1.72-.52 2.4-2.69 1.21-4.04-.07-.08-.14-.15-.2-.21-1.64-1.41-3.81-2.29-5.84-2.98-4.7-1.58-9.89-1.81-14.71-.56z" fill="#2a43e5"/><path d="M279.74 495.8l-14.5 130.55s3.98 3.25 9.5 0l32.3-124.87c-.01 0-15.81.07-27.3-5.68z" fill="#4c31ad"/><path d="M279.74 493.95s-5.33 17.51 14.14 29.19l16.88 103.2s6.81 2.92 11.03 0l-6.68-127.51s-15.11 3.47-35.37-4.88z" fill="#6643e5"/><path class="st38" d="M358.46 406.35c.18 2.74-13.28 3.57-15.65 4.97l-4.22 4.97-25.22 31.93s-.36-5.07-6.71-9.69c0 0 22.86-22.72 29.94-30.19 1.12-1.19 3.26-3.61 4.71-4.38 1.09-.55 2.91-1.27 5.23-1.33 4.6-.12 9.93 1.24 11.92 3.72z"/><path d="M324.41 431.4c1.11 2.96.31 6.28-.77 9.25-1.8 4.97-4.35 9.67-5.7 14.77-1.64 6.21-1.43 12.74-1.21 19.16.26 7.66.53 15.32.79 22.99.03.73.03 1.52-.4 2.11-.46.62-1.27.84-2.03.99-12.68 2.59-25.66-1.6-37.93-5.74 1.58-6.18 2.57-12.5 2.97-18.87 1.01-16.37-1.77-33.84 5.8-48.39 1.31-2.52 2.99-4.97 5.41-6.47 5.27-3.27 12.56-1.05 18.15.2 5 1.12 12.99 4.85 14.92 10z" fill="#ce55ed"/><path d="M340.94 440.71s-17.2-17.85-26.29-5.84c0 0-7.46 14.93 18.82 24.02.01-.01 7.9-15.59 7.47-18.18z" fill="#ff79ff"/><path class="st38" d="M339.9 444.8l16.3 5.65s11.03-20.26 14.28-27.82l7.04-11.06c.71-1.12 1.64-2.08 2.72-2.83l7.63-5.3c.85-.59 1.94-.75 2.93-.42l4.11 1.37c1.36.45 1.73 2.19.68 3.16l-16.34 15.08-11.76 35.85c-1.27 3.87-4.7 6.74-8.77 7.02-2.03.14-4.56-1.34-7.7-2.07l-16.75-6.1 5.63-12.53zM310.76 626.34v11.68h11.03l-2.27-10.24c0 .01-3.25-.46-8.76-1.44z"/><path class="st28" d="M310.76 638.03s9.68-15.85 29.05-2.33c1.03.72.53 2.33-.72 2.33h-28.33z"/><path class="st38" d="M265.24 626.34v11.69h13.83l-4.34-11.69z"/><path class="st28" d="M265.24 638.03s11.07-14.49 28.21-3.94c1.83 1.12 1.05 3.94-1.1 3.94h-27.11z"/></g></g><g id="Front_Wallets"><path class="st5" d="M646.26 824.5l11.86-165.28c.89-12.43 11.67-21.88 24.05-21.25-.16-.01-.31-.05-.47-.06L429 640.87c-12.59-.9-23.62 8.65-24.52 21.24l-11.86 165.28c-.9 12.58 8.65 23.62 21.24 24.52l252.69-2.95c.16.01.31 0 .47.01-12.34-1.14-21.66-12.04-20.76-24.47zM932.32 676.98l-249.68-39c-.16-.01-.31 0-.47-.01 12.35 1.14 21.66 12.04 20.77 24.47l-11.86 165.28c-.89 12.43-11.67 21.88-24.05 21.25.16.02.31.05.47.06l249.68 39c12.59.9 23.62-8.66 24.52-21.24l11.86-165.28c.91-12.59-8.65-23.62-21.24-24.53z"/><path class="st5" d="M691.08 827.72l11.86-165.28c.89-12.43-8.42-23.32-20.77-24.47-12.39-.63-23.16 8.82-24.05 21.25L646.26 824.5c-.89 12.43 8.42 23.32 20.77 24.47 12.38.63 23.16-8.83 24.05-21.25z"/><path class="st2" d="M643.75 826.67l11.86-165.28c.89-12.43 11.67-21.88 24.05-21.25-.16-.01-.31-.05-.47-.06l-252.69 2.95c-12.59-.9-23.62 8.65-24.52 21.24l-11.86 165.28c-.9 12.58 8.65 23.62 21.24 24.52l252.69-2.95c.16.01.31 0 .47.01-12.35-1.13-21.66-12.03-20.77-24.46z"/><path class="st1" d="M929.82 679.16l-249.68-39c-.16-.01-.31 0-.47-.01 12.35 1.14 21.66 12.04 20.77 24.47L688.58 829.9c-.89 12.43-11.67 21.88-24.05 21.25.16.02.31.05.47.06l249.68 39c12.59.9 23.62-8.66 24.52-21.24l11.86-165.28c.9-12.59-8.66-23.63-21.24-24.53z"/><path class="st1" d="M688.57 829.89l11.86-165.28c.89-12.43-8.42-23.32-20.77-24.47-12.39-.63-23.16 8.82-24.05 21.25l-11.86 165.28c-.89 12.43 8.42 23.32 20.77 24.47 12.39.63 23.16-8.82 24.05-21.25z"/><path class="st5" d="M630.54 752.44l-182.35.33c-3.6-.26-6.33-3.41-6.07-7.01.26-3.6 3.41-6.33 7.01-6.07l182.35-.33c3.6.26 6.33 3.41 6.07 7.01-.26 3.6-3.42 6.33-7.01 6.07zM902.52 739.28c-.22-.02-.44-.04-.66-.08-1.96-.34-196.65-33.8-228.64-36.5-22.96-1.97-129.15.53-186.23 1.85-31.57.73-41.93.96-43.84.82-3.69-.26-6.46-3.47-6.2-7.15.26-3.67 3.44-6.44 7.11-6.2 2.13.09 20.89-.34 42.61-.85 61.36-1.42 164.01-3.79 187.67-1.81 32.57 2.75 221.75 35.26 229.79 36.64 3.64.63 6.09 4.09 5.46 7.73-.6 3.43-3.68 5.8-7.07 5.55z"/><path d="M453.8 692.11s3.34-20.41 1.08-28.08c-2.27-7.67 136.99-12.7 234.13-5.73 127 9.11 219.84 36.43 219.84 36.43l-8.08 34.15S748.97 698 682.8 692.59c-66.18-5.42-229-.48-229-.48z" fill="#45c9b9"/><path d="M689 658.3c-97.14-6.97-236.39-1.95-234.13 5.72 2.27 7.67-1.08 28.08-1.08 28.08s3.5-.11 9.65-.27c6.29-2.61 12.32-6.19 16.92-11.22 3.02-3.3 4.52-6.46 9.04-7.71 5.64-1.57 12.21-.32 17.93.09 9.52.68 19.11-.18 28.61-.84 32.76-2.28 65.01-4.85 97.88-3.47 33.31 1.4 66.51 4.66 99.61 8.58 31.99 3.79 63.89 8.99 95.97 11.76 12.93 1.12 21.46 4.74 30.58 14 6.89 7.01 13.17 14.58 19.91 21.72 12.96 2.54 20.86 4.15 20.86 4.15l8.08-34.15c.01-.01-92.83-27.32-219.83-36.44z" fill="#14a359"/><path class="st15" d="M619.19 736.04c-.45-12.61-11.14-22.56-23.75-22.1l-124.46 4.46c-12.61.45-22.56 11.14-22.1 23.75l.13 3.65 170.56.83-.38-10.59z"/><path class="st5" d="M627.07 800.78l-182.35.33c-3.6-.26-6.33-3.41-6.07-7.01.26-3.6 3.41-6.33 7.01-6.07l182.35-.33c3.6.26 6.33 3.41 6.07 7.01-.26 3.6-3.42 6.33-7.01 6.07z"/><path class="st18" d="M615.72 784.38c-.45-12.61-11.14-22.56-23.75-22.1l-124.46 4.46c-12.61.45-22.56 11.14-22.1 23.75l.13 3.65 170.56.83-.38-10.59z"/><path class="st5" d="M875.54 863.68c-1.32-.15-3.27-.43-5.75-.81l.29-1.89c2.45.38 4.37.65 5.67.8l-.21 1.9zm-11.44-1.73c-1.76-.29-3.66-.61-5.68-.96l.32-1.89c2.02.35 3.92.67 5.67.96l-.31 1.89zM852.74 860c-1.82-.32-3.71-.65-5.67-1l.34-1.88c1.95.35 3.84.69 5.66 1l-.33 1.88zm-11.33-2.02l-5.66-1.03.34-1.88 5.65 1.03-.33 1.88zm39.03 2.13l-1.77-.73c.55-1.33 1.17-3.13 1.84-5.35l1.83.55c-.69 2.28-1.33 4.14-1.9 5.53zm-50.34-4.21l-5.65-1.06.35-1.88 5.65 1.06-.35 1.88zm-11.3-2.12l-5.65-1.08.36-1.88 5.64 1.08-.35 1.88zm-11.29-2.17l-5.64-1.1.37-1.88 5.64 1.1-.37 1.88zm-11.28-2.21l-5.62-1.12.38-1.87 5.62 1.12-.38 1.87zm-11.27-2.26l-5.63-1.15.39-1.87 5.63 1.15-.39 1.87zm-11.26-2.32l-5.63-1.18.4-1.87 5.62 1.18-.39 1.87zm-11.26-2.38c-1.92-.42-3.8-.83-5.62-1.23l.41-1.86c1.82.4 3.69.81 5.61 1.23l-.4 1.86zm-11.23-2.5c-1.96-.45-3.83-.88-5.61-1.31l.44-1.86c1.77.42 3.64.86 5.59 1.3l-.42 1.87zM883.9 849l-1.85-.48c.46-1.74.92-3.61 1.4-5.56l1.86.45c-.48 1.96-.95 3.84-1.41 5.59zm-143.91-11.73c-2.06-.52-3.94-1.01-5.59-1.47l.51-1.84c1.64.46 3.5.95 5.55 1.46l-.47 1.85zm-11.16-3.21c-.68-.25-1.25-.48-1.7-.69-1.21-.57-2.25-1.67-3.11-3.27l1.68-.9c.66 1.23 1.42 2.05 2.25 2.45.41.19.92.4 1.54.62l-.66 1.79zm157.78 3.73l-1.86-.43c.41-1.82.83-3.69 1.25-5.6l1.87.41c-.42 1.91-.84 3.79-1.26 5.62zm-164.53-13.35c-.37-1.68-.67-3.62-.91-5.77l1.9-.2c.23 2.08.52 3.96.87 5.56l-1.86.41zm166.99 2.09l-1.87-.39c.39-1.86.78-3.74 1.16-5.63l1.87.38c-.38 1.89-.77 3.78-1.16 5.64zm-168.33-13.64c-.09-1.85-.14-3.78-.15-5.78l1.91-.01c.01 1.97.06 3.88.15 5.7l-1.91.09zm170.63 2.35l-1.87-.37c.38-1.89.75-3.78 1.11-5.64l1.88.36c-.37 1.87-.74 3.76-1.12 5.65zm-170.74-13.89c.04-1.89.1-3.81.19-5.76l1.91.08c-.08 1.93-.15 3.84-.19 5.71l-1.91-.03zm172.94 2.59l-1.88-.36c.37-1.93.72-3.82 1.07-5.65l1.88.35c-.35 1.84-.7 3.73-1.07 5.66zm-172.45-14.09c.08-1.38.18-2.76.28-4.15l.12-1.59 1.91.14-.12 1.59c-.1 1.38-.19 2.75-.27 4.12l-1.92-.11zm174.56 2.77l-1.88-.34 1.03-5.66 1.88.34-1.03 5.66zm-171.79-14.07l-1.9-.17c.17-1.93.35-3.84.54-5.72l1.9.19c-.19 1.87-.37 3.77-.54 5.7zm173.84 2.74l-1.88-.33c.45-2.52.79-4.48 1-5.68l1.88.33c-.21 1.2-.55 3.15-1 5.68zm-172.71-14.14l-1.9-.21c.21-1.96.43-3.87.65-5.71l1.9.23c-.22 1.83-.44 3.73-.65 5.69zm1.34-11.39l-1.9-.24c.26-2.04.51-3.95.74-5.7l1.89.26c-.22 1.74-.47 3.65-.73 5.68zm1.53-11.36l-1.89-.27c.52-3.59.85-5.7.85-5.7l1.89.3s-.33 2.1-.85 5.67z"/><path class="st3" d="M898.02 774.06c-12.49 10.58-68.07 18.77-85.26 17.53-18.02-1.29-76.71-32.28-84.97-53.02-.94.57-1.48 1.27-1.51 2.14-.68 20.33 66.48 56.5 85.98 57.9 19.49 1.4 88.45-9.33 87.79-21.92-.04-.77-.75-1.66-2.03-2.63z"/><path class="st5" d="M812.77 791.6c17.18 1.23 72.76-6.96 85.26-17.53-18.28-13.85-154.47-44.96-170.23-35.49 8.26 20.74 66.95 51.72 84.97 53.02z"/><path class="st3" d="M808.15 768.54c4.29.31 7.55 4.07 7.24 8.36-.31 4.29-4.07 7.55-8.36 7.24-4.29-.31-7.55-4.07-7.24-8.36.31-4.29 4.07-7.55 8.36-7.24z"/><path class="st21" d="M630.17 592.95c-19.76-22.06-53.66-23.93-75.73-4.17-22.06 19.76-23.93 53.66-4.17 75.73s53.66 23.93 75.73 4.17c22.06-19.77 23.93-53.67 4.17-75.73zm-71.04 6.86c3.44-3.08 7.26-5.44 11.28-7.13 16.4-9.03 37.43-5.94 50.45 8.6 15.16 16.92 13.72 42.93-3.2 58.08-8.2 7.34-18.52 10.78-28.71 10.46-12.01.89-24.29-3.59-32.95-13.26-14.81-16.53-13.41-41.94 3.13-56.75z"/><path class="st23" d="M615.89 602.94c14.81 16.54 13.41 41.95-3.13 56.76-6.87 6.15-15.27 9.5-23.81 10.13 10.19.32 20.52-3.12 28.71-10.46 16.92-15.16 18.36-41.16 3.2-58.08-13.02-14.54-34.05-17.63-50.45-8.6 15.36-6.44 33.74-2.86 45.48 10.25z"/><path class="st47" d="M588.95 669.82c-10.85-.34-21.55-4.93-29.37-13.66-15.16-16.92-13.72-42.93 3.2-58.08 2.38-2.13 4.95-3.92 7.63-5.4-4.03 1.69-7.85 4.05-11.28 7.13-16.54 14.81-17.94 40.22-3.13 56.76 8.66 9.66 20.94 14.15 32.95 13.25z"/><path class="st22" d="M588.95 669.82c-10.85-.34-21.55-4.93-29.37-13.66-15.16-16.92-13.72-42.93 3.2-58.08 2.38-2.13 4.95-3.92 7.63-5.4-4.03 1.69-7.85 4.05-11.28 7.13-16.54 14.81-17.94 40.22-3.13 56.76 8.66 9.66 20.94 14.15 32.95 13.25z"/><path class="st48" d="M592.66 619.78c-.02.66.05 1.36.22 2.09.17.73.41 1.48.71 2.24l8.36-6.31c-.84-.72-1.64-1.26-2.4-1.62-.78-.36-1.53-.58-2.24-.63-.71-.05-1.37.04-1.97.26-.47.18-.91.42-1.31.73-.41.43-.73.88-.94 1.35-.26.59-.41 1.22-.43 1.89z"/><path class="st48" d="M559.58 656.16c7.82 8.73 18.52 13.32 29.37 13.66 8.54-.63 16.94-3.98 23.81-10.13 16.54-14.81 17.94-40.22 3.13-56.76-11.73-13.1-30.12-16.69-45.47-10.26-2.68 1.48-5.25 3.27-7.63 5.4-16.93 15.17-18.36 41.17-3.21 58.09zm8.31-28.31l4.14-.58c.37-.05.73-.02 1.1.11.37.12.68.32.92.59.3.33.5.8.61 1.39.11.59.22 1.28.33 2.05.12.77.29 1.62.53 2.53.24.91.67 1.86 1.28 2.85l10.31-7.76c-.65-1.34-1.24-2.7-1.77-4.11-.53-1.43-.84-2.87-.92-4.33-.08-1.45.17-2.91.75-4.36.58-1.45 1.65-2.87 3.21-4.27l.33-.27c.12-.11.22-.23.35-.34 1.16-1.04 2.5-1.83 4.03-2.35 1.53-.53 3.12-.74 4.78-.64 1.66.1 3.36.55 5.08 1.34 1.73.79 3.34 2.02 4.84 3.7l3.14-2.35c.4-.3.86-.45 1.4-.43.54.01 1.01.24 1.4.68l1.86 2.08-.73.55.05.06-4.12 3.09c1.16 1.82 1.94 3.61 2.34 5.35.39 1.76.57 3.44.52 5.05l-.68.1c0 .17.01.34 0 .51l-3.31.49c-.5.06-.91.05-1.26-.03-.34-.08-.65-.27-.93-.57-.2-.23-.37-.56-.51-1.01-.13-.44-.28-.96-.44-1.55-.16-.58-.35-1.22-.57-1.9-.22-.68-.53-1.38-.93-2.09l-9.47 7.14c.64 1.37 1.23 2.77 1.78 4.18.56 1.44.9 2.87 1.04 4.31.13 1.43-.04 2.84-.52 4.23-.48 1.39-1.43 2.72-2.86 4-.12.11-.25.2-.38.31-.1.1-.19.2-.3.3-1.42 1.27-2.96 2.22-4.63 2.86-1.67.64-3.38.94-5.15.88-1.76-.05-3.54-.47-5.32-1.27-1.78-.79-3.5-1.99-5.15-3.58l-3.61 2.73c-.38.29-.84.42-1.38.41-.54-.01-1.01-.23-1.41-.68l-1.86-2.08.73-.55-.05-.06 4.54-3.42c-1.33-1.99-2.33-4.07-2.99-6.27-.67-2.22-.95-4.36-.85-6.43l.68-.1c.03-.14.02-.32.03-.49z"/><path class="st20" d="M559.58 656.16c7.82 8.73 18.52 13.32 29.37 13.66 8.54-.63 16.94-3.98 23.81-10.13 16.54-14.81 17.94-40.22 3.13-56.76-11.73-13.1-30.12-16.69-45.47-10.26-2.68 1.48-5.25 3.27-7.63 5.4-16.93 15.17-18.36 41.17-3.21 58.09z"/><g><path class="st11" d="M446.33 697.84s3.23-18.9.93-26.03c-2.3-7.12 136.88-11.05 234.01-4.08 127 9.11 219.95 34.92 219.95 34.92l-7.9 31.62s-151.69-33.37-217.87-38.74c-66.17-5.37-229.12 2.31-229.12 2.31z"/><path class="st10" d="M681.27 667.73c-97.13-6.97-236.32-3.04-234.01 4.08 2.3 7.12-.93 26.03-.93 26.03s3.5-.08 9.64-.2c6.27-2.39 12.28-5.67 16.86-10.31 3-3.04 4.48-5.96 9-7.1 5.63-1.42 12.2-.24 17.93.17 9.52.68 19.1-.07 28.6-.63 32.74-1.94 64.96-4.16 97.83-2.7 33.3 1.47 66.51 4.67 99.62 8.47 31.99 3.68 63.91 8.67 96 11.4 12.93 1.1 21.48 4.5 30.64 13.14 6.92 6.53 13.24 13.59 20.01 20.24 12.96 2.42 20.87 3.95 20.87 3.95l7.9-31.62c-.01 0-92.96-25.8-219.96-34.92z"/></g><g><ellipse transform="rotate(-20.61 206.602975 784.182075)" cx="206.64" cy="784.26" rx="18.18" ry="24.25" fill="#c8eefc"/><path class="st1" d="M60.39 761.27c.38.05.77.08 1.16.06l210.67-11.85c1.73-.1 3.42 0 5.07.25l-1.32-23.46c-.58-10.39-9.56-18.41-19.95-17.83L58.43 719.57c-10.39.58-18.41 9.56-17.83 19.95l.16 2.92c-.01-.17-.01-.31-.01-.46.73 10.52 9.3 18.76 19.64 19.29z"/><path class="st11" d="M273.12 745.53c-.26-4.54-7.33-7.97-16.45-8.37-1.35-.06-2.74-.05-4.16.03l-173.78 9.78c-.32.02-.64.02-.95 0-8.5.05-15.35-2.96-15.69-7.05v.18l3.9 69.28c.29 5.21 9.57 8.96 20.62 8.34l169.91-9.56c11.05-.62 19.84-5.39 19.55-10.6l-2.95-52.03z"/><path class="st10" d="M77.76 746.97c.32.01.63.01.95 0l173.78-9.78c1.42-.08 2.82-.08 4.16-.03l-.51-9.12c-.23-4.04-7.42-6.95-15.99-6.47l-162.98 9.17c-8.57.48-15.4 4.18-15.17 8.22l.06 1.14v-.18c.35 4.09 7.2 7.09 15.7 7.05z"/><g><path class="st21" d="M58.23 747.19c-10.06 6.05-13.31 19.12-7.26 29.18 6.05 10.06 19.12 13.31 29.18 7.26 10.06-6.05 13.31-19.12 7.26-29.18-6.06-10.06-19.12-13.31-29.18-7.26zm-2.62 28.18c-.94-1.57-1.58-3.23-1.94-4.92-2.3-7.06.47-15.02 7.11-19.01 7.72-4.64 17.74-2.15 22.38 5.57 2.25 3.74 2.82 8.02 1.94 11.96-.55 4.74-3.21 9.19-7.62 11.84-7.54 4.54-17.33 2.1-21.87-5.44z"/><path class="st23" d="M61.05 753.5c7.54-4.54 17.33-2.1 21.87 5.44 1.88 3.13 2.56 6.65 2.17 10.03.88-3.95.31-8.22-1.94-11.96-4.64-7.72-14.66-10.21-22.38-5.57-6.63 3.99-9.4 11.95-7.11 19.01-1.35-6.47 1.42-13.36 7.39-16.95z"/><path class="st47" d="M85.1 768.97c-.94 4.2-3.53 8.03-7.51 10.42-7.72 4.64-17.74 2.15-22.38-5.57-.65-1.09-1.16-2.22-1.54-3.37.36 1.69.99 3.36 1.94 4.92 4.54 7.54 14.33 9.98 21.87 5.44 4.41-2.65 7.07-7.1 7.62-11.84z"/><path class="st22" d="M85.1 768.97c-.94 4.2-3.53 8.03-7.51 10.42-7.72 4.64-17.74 2.15-22.38-5.57-.65-1.09-1.16-2.22-1.54-3.37.36 1.69.99 3.36 1.94 4.92 4.54 7.54 14.33 9.98 21.87 5.44 4.41-2.65 7.07-7.1 7.62-11.84z"/><path class="st48" d="M65.88 763.8c.26.06.53.08.83.07.3-.01.61-.05.93-.11l-1.84-3.73c-.34.27-.61.54-.81.82-.2.28-.34.55-.41.82-.07.27-.09.53-.04.79.03.2.1.38.19.57.14.19.29.35.46.47.2.14.44.24.69.3z"/><path class="st20" d="M65.88 763.81c.26.06.53.08.83.07.3-.01.61-.05.93-.11l-1.85-3.72c-.34.27-.61.55-.81.82-.2.28-.34.55-.41.83-.07.27-.09.53-.04.79.03.2.1.38.19.57.14.19.29.35.46.46.21.13.44.23.7.29z"/><path class="st48" d="M77.59 779.39c3.98-2.39 6.57-6.22 7.51-10.42.39-3.37-.29-6.89-2.17-10.03-4.54-7.54-14.33-9.98-21.87-5.44-5.98 3.59-8.74 10.49-7.38 16.95.38 1.16.88 2.29 1.54 3.37 4.63 7.72 14.65 10.21 22.37 5.57zm-10.41-5.35l.08-1.66c.01-.15.05-.29.12-.42.07-.13.17-.24.3-.32.15-.09.35-.14.59-.13.24 0 .51.01.82.02.31.01.65.01 1.02-.02s.78-.12 1.21-.29l-2.26-4.59c-.57.15-1.15.28-1.73.38-.6.1-1.18.11-1.75.04-.57-.08-1.12-.28-1.64-.62-.52-.33-1-.86-1.42-1.57-.03-.05-.05-.1-.08-.15-.04-.06-.07-.1-.11-.16-.32-.53-.53-1.11-.62-1.74-.09-.63-.06-1.27.11-1.91.16-.64.46-1.27.9-1.88.44-.61 1.04-1.15 1.8-1.61l-.68-1.4c-.09-.18-.11-.37-.06-.58.05-.21.17-.37.37-.5l.95-.57.16.33.03-.02.9 1.84c.8-.32 1.55-.49 2.26-.51.71-.02 1.38.03 2.01.17l-.01.27c.07.01.13.02.2.04l-.06 1.33c-.01.2-.05.36-.1.49s-.15.23-.29.32c-.1.06-.25.1-.43.12-.18.02-.39.04-.64.05-.24.02-.5.04-.78.08s-.58.1-.88.21l2.08 4.22c.58-.15 1.17-.27 1.76-.38.6-.11 1.19-.14 1.76-.08.57.06 1.1.23 1.61.52.5.29.95.76 1.35 1.41.03.06.06.11.09.17.03.05.06.09.09.14.39.65.65 1.32.77 2.02.13.7.11 1.39-.04 2.07-.15.68-.45 1.34-.89 1.98-.44.63-1.04 1.21-1.78 1.74l.8 1.61c.08.17.1.36.06.57-.04.21-.17.38-.37.5l-.95.57-.16-.33-.03.02-1-2.02c-.87.37-1.76.6-2.66.7-.91.1-1.77.05-2.57-.15l.01-.27c-.08-.02-.15-.03-.22-.05z"/><path class="st20" d="M77.59 779.39c3.98-2.39 6.57-6.22 7.51-10.42.39-3.37-.29-6.89-2.17-10.03-4.54-7.54-14.33-9.98-21.87-5.44-5.98 3.59-8.74 10.49-7.38 16.95.38 1.16.88 2.29 1.54 3.37 4.63 7.72 14.65 10.21 22.37 5.57zm-10.41-5.35l.08-1.66c.01-.15.05-.29.12-.42.07-.13.17-.24.3-.32.15-.09.35-.14.59-.13.24 0 .51.01.82.02.31.01.65.01 1.02-.02s.78-.12 1.21-.29l-2.26-4.59c-.57.15-1.15.28-1.73.38-.6.1-1.18.11-1.75.04-.57-.08-1.12-.28-1.64-.62-.52-.33-1-.86-1.42-1.57-.03-.05-.05-.1-.08-.15-.04-.06-.07-.1-.11-.16-.32-.53-.53-1.11-.62-1.74-.09-.63-.06-1.27.11-1.91.16-.64.46-1.27.9-1.88.44-.61 1.04-1.15 1.8-1.61l-.68-1.4c-.09-.18-.11-.37-.06-.58.05-.21.17-.37.37-.5l.95-.57.16.33.03-.02.9 1.84c.8-.32 1.55-.49 2.26-.51.71-.02 1.38.03 2.01.17l-.01.27c.07.01.13.02.2.04l-.06 1.33c-.01.2-.05.36-.1.49s-.15.23-.29.32c-.1.06-.25.1-.43.12-.18.02-.39.04-.64.05-.24.02-.5.04-.78.08s-.58.1-.88.21l2.08 4.22c.58-.15 1.17-.27 1.76-.38.6-.11 1.19-.14 1.76-.08.57.06 1.1.23 1.61.52.5.29.95.76 1.35 1.41.03.06.06.11.09.17.03.05.06.09.09.14.39.65.65 1.32.77 2.02.13.7.11 1.39-.04 2.07-.15.68-.45 1.34-.89 1.98-.44.63-1.04 1.21-1.78 1.74l.8 1.61c.08.17.1.36.06.57-.04.21-.17.38-.37.5l-.95.57-.16-.33-.03.02-1-2.02c-.87.37-1.76.6-2.66.7-.91.1-1.77.05-2.57-.15l.01-.27c-.08-.02-.15-.03-.22-.05z"/><path class="st48" d="M73.89 766.82c-.14-.2-.29-.36-.47-.47-.21-.14-.45-.24-.71-.29-.26-.05-.54-.06-.84-.03-.3.03-.61.08-.93.15l2.03 4.12c.66-.53 1.07-1.11 1.2-1.73.13-.58.03-1.16-.28-1.75z"/><path class="st20" d="M73.9 766.8c-.14-.2-.3-.36-.47-.47-.21-.14-.45-.24-.71-.29-.26-.05-.54-.06-.84-.03-.3.03-.61.08-.93.15l2.05 4.11c.66-.54 1.06-1.12 1.19-1.74.12-.57.02-1.14-.29-1.73z"/><path class="st23" d="M62.02 761.22c.16-.64.46-1.27.9-1.88.44-.61 1.04-1.15 1.8-1.61l-.68-1.4c-.09-.18-.11-.37-.06-.58.04-.21.17-.37.37-.5l.92-.55-.16-.33-.95.57c-.2.12-.32.29-.37.5-.05.21-.02.4.06.58l.68 1.4c-.76.46-1.36 1-1.8 1.61-.44.61-.74 1.24-.9 1.88-.17.64-.2 1.28-.11 1.91.09.63.3 1.21.62 1.74.03.06.07.11.11.16-.27-.49-.45-1.02-.54-1.6-.09-.62-.06-1.26.11-1.9zM68.63 756.33c.64-.02 1.24.03 1.81.13l.01-.27c-.62-.14-1.29-.19-2.01-.17-.71.02-1.46.19-2.26.51l.16.32c.81-.33 1.57-.5 2.29-.52zM73.98 766.95c-.03-.05-.06-.09-.09-.14.31.59.4 1.17.28 1.74-.14.62-.54 1.2-1.2 1.73l.16.33c.68-.54 1.09-1.12 1.23-1.75.14-.62.01-1.26-.38-1.91zM71.47 763.24c.6-.11 1.19-.14 1.76-.08.57.06 1.1.23 1.61.52.47.27.88.69 1.25 1.27-.03-.06-.06-.11-.09-.17-.39-.65-.84-1.12-1.35-1.41-.51-.29-1.04-.46-1.61-.52-.57-.06-1.15-.03-1.76.08-.59.11-1.18.24-1.76.38l.16.32c.6-.15 1.19-.28 1.79-.39zM67.58 772.28c.07-.13.17-.24.3-.32.15-.09.35-.14.59-.13.24 0 .51.01.82.02s.65.01 1.02-.02.78-.12 1.21-.29l-2.41-4.91c-.01 0-.02 0-.03.01l2.26 4.59c-.43.16-.83.26-1.21.29-.37.03-.71.03-1.02.02-.31-.01-.59-.02-.82-.02-.24 0-.43.04-.59.13-.13.08-.23.18-.3.32-.08.14-.12.28-.12.42l-.08 1.66c.07.02.13.02.2.04l.07-1.38c-.01-.16.03-.3.11-.43zM72.6 773.8l1 2.02.03-.02-.99-2.02c-.02.02-.03.02-.04.02zM66.07 764.11c.26.06.53.08.83.07.3-.01.61-.05.93-.11l-2-4.06c-.01.01-.02.01-.02.02l1.84 3.73c-.32.06-.63.1-.93.11-.3.01-.57-.01-.83-.07-.26-.06-.49-.16-.7-.31-.17-.12-.32-.27-.46-.47.03.05.05.11.09.16.16.26.34.47.56.62.2.15.43.25.69.31z"/><path class="st21" d="M69.94 774.5c.9-.09 1.79-.33 2.66-.7.01 0 .02-.01.03-.01l.99 2.02.16.33.95-.57c.2-.12.32-.29.37-.5.04-.21.02-.4-.06-.57l-.8-1.61c.74-.52 1.34-1.1 1.78-1.74.44-.64.74-1.29.89-1.98.15-.68.17-1.37.04-2.07-.13-.7-.38-1.37-.77-2.02-.03-.05-.06-.09-.09-.14-.37-.58-.79-1.01-1.25-1.27-.51-.29-1.04-.46-1.61-.52-.57-.06-1.15-.03-1.76.08-.6.11-1.2.24-1.79.39l-.16-.32-2.08-4.22c.31-.1.6-.17.88-.21.28-.04.54-.06.78-.08.24-.02.45-.04.64-.05.18-.02.33-.06.43-.12.14-.08.24-.19.29-.32.06-.13.09-.29.1-.49l.06-1.33c-.06-.01-.13-.02-.2-.04-.57-.11-1.17-.16-1.81-.13-.72.02-1.48.2-2.29.52l-.16-.32-.9-1.84-.03.02-.92.55c-.2.12-.33.29-.37.5-.05.21-.02.4.06.58l.68 1.4c-.76.46-1.36 1-1.8 1.61-.44.61-.74 1.24-.9 1.88-.17.64-.2 1.28-.11 1.91.08.58.27 1.11.54 1.6.03.05.05.1.08.15.43.71.9 1.23 1.42 1.57.52.33 1.07.54 1.64.62.57.08 1.16.07 1.75-.04.59-.1 1.16-.23 1.73-.38.01 0 .02 0 .03-.01l2.41 4.91c-.43.16-.83.26-1.21.29-.37.03-.71.03-1.02.02s-.59-.02-.82-.02c-.24 0-.43.04-.59.13-.13.08-.23.18-.3.32-.08.14-.12.28-.12.42l-.07 1.38-.01.27c.84.2 1.69.25 2.61.15zm3.03-4.21l-2.03-4.12c.33-.07.64-.12.93-.15.3-.03.58-.01.84.03.26.05.5.15.71.29.17.12.33.28.47.47.03.04.06.09.09.14.39.65.51 1.28.38 1.91-.14.63-.55 1.21-1.23 1.75l-.16-.32zm-8.24-7.27c-.09-.18-.15-.37-.19-.57-.04-.25-.03-.52.04-.79s.21-.55.41-.82c.2-.27.47-.54.81-.82.01-.01.02-.01.02-.02l2 4.06c-.32.06-.63.1-.93.11-.3.01-.57-.01-.83-.07-.26-.06-.49-.16-.7-.31-.21-.15-.4-.35-.56-.62-.02-.04-.05-.09-.07-.15z"/><g><path class="st21" d="M231.7 738.17c-17.76 10.68-23.5 33.74-12.82 51.5 10.68 17.76 33.74 23.5 51.5 12.82 17.76-10.68 23.5-33.74 12.82-51.5-10.68-17.76-33.73-23.5-51.5-12.82zm-4.61 49.73c-1.66-2.77-2.79-5.7-3.42-8.69-4.05-12.46.84-26.51 12.54-33.55 13.62-8.19 31.31-3.79 39.5 9.83 3.97 6.6 4.97 14.15 3.42 21.11-.96 8.37-5.66 16.22-13.44 20.9-13.31 8.02-30.6 3.72-38.6-9.6z"/><path class="st23" d="M236.69 749.3c13.31-8.01 30.59-3.71 38.6 9.61 3.33 5.53 4.52 11.75 3.84 17.7 1.56-6.96.55-14.51-3.42-21.11-8.19-13.62-25.88-18.02-39.5-9.83-11.71 7.04-16.59 21.09-12.54 33.55-2.41-11.41 2.48-23.57 13.02-29.92z"/><path class="st47" d="M279.13 776.6c-1.66 7.42-6.22 14.17-13.25 18.39-13.62 8.19-31.31 3.79-39.5-9.83-1.15-1.92-2.05-3.92-2.71-5.96.63 2.99 1.76 5.93 3.42 8.69 8.01 13.31 25.29 17.61 38.6 9.61 7.78-4.67 12.48-12.52 13.44-20.9z"/><path class="st22" d="M279.13 776.6c-1.66 7.42-6.22 14.17-13.25 18.39-13.62 8.19-31.31 3.79-39.5-9.83-1.15-1.92-2.05-3.92-2.71-5.96.63 2.99 1.76 5.93 3.42 8.69 8.01 13.31 25.29 17.61 38.6 9.61 7.78-4.67 12.48-12.52 13.44-20.9z"/><path class="st48" d="M245.22 767.48c.45.1.94.14 1.46.12.52-.02 1.07-.09 1.64-.2l-3.24-6.58c-.6.48-1.08.96-1.43 1.44-.35.49-.6.98-.73 1.45-.13.48-.15.94-.08 1.39.06.35.17.68.33 1 .24.34.51.61.8.82.38.27.8.45 1.25.56z"/><path class="st20" d="M245.21 767.51c.45.1.94.14 1.47.12.52-.02 1.07-.09 1.64-.2l-3.27-6.56c-.6.48-1.08.97-1.42 1.45-.35.49-.6.98-.72 1.46-.13.48-.15.94-.07 1.39.06.35.17.68.33 1 .24.34.51.61.81.82.36.24.77.41 1.23.52z"/><path class="st48" d="M265.88 795c7.03-4.23 11.59-10.98 13.25-18.39.69-5.95-.51-12.17-3.84-17.7-8.01-13.31-25.29-17.61-38.6-9.61-10.55 6.34-15.43 18.51-13.02 29.91.66 2.04 1.56 4.04 2.71 5.96 8.19 13.62 25.88 18.02 39.5 9.83zm-18.37-9.43l.15-2.92c.01-.26.08-.51.22-.74.13-.24.31-.42.53-.56.27-.16.61-.24 1.03-.23.42 0 .91.02 1.46.04.55.02 1.15.01 1.81-.03.66-.05 1.37-.21 2.13-.5l-3.98-8.11c-1 .27-2.02.5-3.06.67-1.05.18-2.08.2-3.1.06-1.01-.14-1.97-.5-2.9-1.09-.92-.59-1.76-1.51-2.51-2.76-.05-.09-.09-.17-.14-.26-.06-.1-.13-.18-.19-.29-.56-.94-.93-1.96-1.09-3.08-.16-1.12-.1-2.24.19-3.37.29-1.13.82-2.24 1.59-3.32s1.83-2.03 3.18-2.84l-1.21-2.47c-.16-.31-.19-.65-.11-1.02s.3-.66.65-.87l1.67-1.01.28.58.05-.03 1.58 3.24c1.41-.56 2.73-.86 3.98-.9 1.26-.04 2.44.06 3.54.3l-.02.48c.12.02.24.04.35.06l-.1 2.34c-.02.35-.08.64-.18.86-.1.23-.27.41-.52.56-.18.11-.44.18-.76.22-.32.03-.69.07-1.12.1-.42.03-.88.08-1.38.14-.5.07-1.02.18-1.56.36l3.67 7.45c1.03-.26 2.06-.48 3.1-.67 1.06-.2 2.09-.24 3.1-.15 1 .1 1.95.4 2.84.91.89.51 1.68 1.34 2.38 2.49.06.1.11.2.16.3.05.08.11.16.17.25.69 1.14 1.14 2.33 1.36 3.56.22 1.23.2 2.45-.07 3.65-.27 1.2-.79 2.37-1.57 3.49s-1.83 2.14-3.14 3.07l1.41 2.84c.15.3.18.63.1 1-.08.37-.29.66-.65.88l-1.67 1.01-.28-.58-.05.03-1.76-3.57c-1.54.66-3.1 1.07-4.7 1.23-1.61.17-3.12.08-4.53-.26l.02-.48c-.11-.02-.23-.04-.35-.06z"/><path class="st20" d="M265.88 795c7.03-4.23 11.59-10.98 13.25-18.39.69-5.95-.51-12.17-3.84-17.7-8.01-13.31-25.29-17.61-38.6-9.61-10.55 6.34-15.43 18.51-13.02 29.91.66 2.04 1.56 4.04 2.71 5.96 8.19 13.62 25.88 18.02 39.5 9.83zm-18.37-9.43l.15-2.92c.01-.26.08-.51.22-.74.13-.24.31-.42.53-.56.27-.16.61-.24 1.03-.23.42 0 .91.02 1.46.04.55.02 1.15.01 1.81-.03.66-.05 1.37-.21 2.13-.5l-3.98-8.11c-1 .27-2.02.5-3.06.67-1.05.18-2.08.2-3.1.06-1.01-.14-1.97-.5-2.9-1.09-.92-.59-1.76-1.51-2.51-2.76-.05-.09-.09-.17-.14-.26-.06-.1-.13-.18-.19-.29-.56-.94-.93-1.96-1.09-3.08-.16-1.12-.1-2.24.19-3.37.29-1.13.82-2.24 1.59-3.32s1.83-2.03 3.18-2.84l-1.21-2.47c-.16-.31-.19-.65-.11-1.02s.3-.66.65-.87l1.67-1.01.28.58.05-.03 1.58 3.24c1.41-.56 2.73-.86 3.98-.9 1.26-.04 2.44.06 3.54.3l-.02.48c.12.02.24.04.35.06l-.1 2.34c-.02.35-.08.64-.18.86-.1.23-.27.41-.52.56-.18.11-.44.18-.76.22-.32.03-.69.07-1.12.1-.42.03-.88.08-1.38.14-.5.07-1.02.18-1.56.36l3.67 7.45c1.03-.26 2.06-.48 3.1-.67 1.06-.2 2.09-.24 3.1-.15 1 .1 1.95.4 2.84.91.89.51 1.68 1.34 2.38 2.49.06.1.11.2.16.3.05.08.11.16.17.25.69 1.14 1.14 2.33 1.36 3.56.22 1.23.2 2.45-.07 3.65-.27 1.2-.79 2.37-1.57 3.49s-1.83 2.14-3.14 3.07l1.41 2.84c.15.3.18.63.1 1-.08.37-.29.66-.65.88l-1.67 1.01-.28-.58-.05.03-1.76-3.57c-1.54.66-3.1 1.07-4.7 1.23-1.61.17-3.12.08-4.53-.26l.02-.48c-.11-.02-.23-.04-.35-.06z"/><path class="st48" d="M259.35 772.81c-.24-.35-.52-.63-.83-.84-.37-.25-.79-.42-1.26-.51-.46-.09-.96-.11-1.48-.06s-1.07.13-1.65.26l3.58 7.27c1.17-.94 1.88-1.96 2.12-3.06.24-1 .07-2.02-.48-3.06z"/><path class="st20" d="M259.37 772.78c-.25-.35-.52-.63-.83-.83-.38-.25-.8-.42-1.26-.5-.47-.09-.96-.11-1.48-.06s-1.07.14-1.64.27l3.61 7.25c1.17-.95 1.87-1.97 2.11-3.07.21-1.01.04-2.03-.51-3.06z"/><path class="st23" d="M238.39 762.94c.29-1.13.82-2.24 1.59-3.32.77-1.08 1.83-2.03 3.18-2.84l-1.21-2.46c-.16-.31-.19-.65-.11-1.02s.3-.66.65-.87l1.63-.98-.28-.58-1.67 1.01c-.36.21-.57.5-.65.87-.08.37-.04.71.11 1.02l1.21 2.47c-1.35.81-2.41 1.76-3.18 2.84s-1.3 2.19-1.59 3.32c-.29 1.13-.35 2.25-.19 3.37.16 1.12.53 2.14 1.09 3.08.06.1.13.19.19.29-.48-.87-.8-1.8-.95-2.82-.17-1.13-.11-2.25.18-3.38zM250.06 754.29c1.13-.04 2.19.05 3.19.24l.02-.48c-1.1-.24-2.28-.34-3.54-.3-1.25.04-2.58.34-3.98.9l.28.57c1.42-.58 2.77-.89 4.03-.93zM259.51 773.05c-.05-.08-.1-.16-.16-.24.55 1.04.71 2.06.49 3.07-.24 1.09-.95 2.11-2.12 3.06l.29.58c1.2-.95 1.92-1.98 2.16-3.09.25-1.11.03-2.24-.66-3.38zM255.08 766.5c1.06-.2 2.09-.24 3.1-.15 1 .1 1.95.4 2.84.91.82.47 1.56 1.23 2.21 2.24-.06-.1-.1-.2-.16-.3-.69-1.15-1.49-1.98-2.38-2.49-.89-.51-1.84-.81-2.84-.91-1-.1-2.04-.05-3.1.15-1.04.19-2.08.41-3.1.67l.28.56c1.04-.25 2.1-.48 3.15-.68zM248.21 782.44c.13-.24.31-.42.53-.56.27-.16.61-.24 1.03-.23.42 0 .91.02 1.46.04.55.02 1.15.01 1.81-.03.66-.04 1.37-.21 2.13-.5l-4.26-8.67c-.02 0-.04.01-.05.01l3.98 8.11c-.76.29-1.47.46-2.13.5-.66.04-1.26.06-1.81.03-.55-.02-1.03-.04-1.46-.04-.42-.01-.76.07-1.03.23-.22.13-.4.32-.53.56-.13.24-.21.49-.22.74l-.15 2.92c.12.03.24.04.35.07l.12-2.44c.02-.25.09-.5.23-.74zM257.07 785.14l1.76 3.57.05-.03-1.75-3.56c-.02.01-.04.01-.06.02zM245.55 768.03c.45.1.94.14 1.46.12.52-.02 1.07-.09 1.64-.19l-3.53-7.16c-.01.01-.03.02-.04.04l3.24 6.58c-.57.11-1.12.17-1.64.2-.52.02-1.01-.02-1.46-.12-.45-.1-.87-.29-1.24-.54-.3-.21-.57-.48-.8-.82.05.09.1.19.15.28.28.47.61.83.98 1.09.37.23.79.41 1.24.52z"/><path class="st21" d="M252.37 786.37c1.6-.17 3.16-.58 4.7-1.23.02-.01.03-.01.05-.02l1.75 3.56.28.58 1.67-1.01c.36-.21.57-.51.65-.88.08-.37.04-.71-.1-1l-1.41-2.84c1.31-.92 2.36-1.95 3.14-3.07.78-1.12 1.31-2.28 1.57-3.49.27-1.21.29-2.42.07-3.65-.22-1.23-.67-2.42-1.36-3.56-.05-.09-.11-.16-.17-.25-.65-1.02-1.39-1.78-2.21-2.24-.89-.51-1.84-.81-2.84-.91-1-.1-2.04-.05-3.1.15-1.06.19-2.11.42-3.16.68l-.28-.56-3.67-7.45c.55-.18 1.07-.3 1.56-.36.5-.06.96-.11 1.38-.14.43-.03.8-.06 1.12-.1.32-.03.58-.11.76-.22.25-.15.42-.34.52-.56.1-.23.16-.51.18-.86l.1-2.34c-.11-.03-.23-.04-.35-.06-1-.19-2.06-.27-3.19-.24-1.26.04-2.61.35-4.03.92l-.28-.57-1.58-3.24-.05.03-1.63.98c-.36.21-.57.5-.65.87-.08.37-.04.71.11 1.02l1.21 2.46c-1.35.81-2.41 1.76-3.18 2.84-.77 1.08-1.3 2.19-1.59 3.32-.29 1.13-.35 2.25-.19 3.37.15 1.02.47 1.95.95 2.82.05.09.09.18.14.26.75 1.26 1.59 2.18 2.51 2.76.92.58 1.89.95 2.9 1.09 1.01.14 2.04.12 3.1-.06 1.04-.18 2.05-.4 3.06-.67.02 0 .04-.01.05-.01l4.26 8.67c-.76.29-1.47.46-2.13.5-.66.05-1.26.06-1.81.03-.55-.02-1.03-.04-1.46-.04-.42-.01-.76.07-1.03.23-.22.13-.4.32-.53.56-.13.24-.21.49-.22.74l-.12 2.44-.02.48c1.43.35 2.94.44 4.55.27zm5.36-7.43l-3.58-7.27c.58-.13 1.12-.21 1.65-.26.53-.05 1.02-.03 1.48.06.46.09.88.26 1.26.51.31.21.58.49.83.84.05.08.11.15.16.24.69 1.14.91 2.27.66 3.37-.24 1.11-.97 2.14-2.16 3.09l-.3-.58zm-14.56-12.83c-.16-.32-.27-.65-.33-1-.08-.45-.05-.91.08-1.39.13-.48.37-.96.73-1.45.35-.48.83-.96 1.43-1.44.01-.01.03-.02.04-.04l3.53 7.16c-.57.11-1.12.17-1.64.19-.52.02-1.01-.02-1.46-.12-.45-.1-.87-.29-1.24-.54-.37-.26-.7-.62-.98-1.09-.06-.09-.11-.18-.16-.28z"/></g><path class="st2" d="M277.76 874.59c-6.94.39-12.93-4.97-13.33-11.9l-.29-5.21-1.55-27.62-.29-5.21c-.39-6.94 4.97-12.93 11.91-13.32l22.26-1.25c1.24-.07 2.44.05 3.6.32l-2.13-37.93c-.66-11.67-9.53-21.01-20.65-22.73-1.65-.25-3.34-.35-5.07-.25L61.54 761.33c-.39.02-.77-.01-1.16-.06-10.34-.53-18.9-8.77-19.63-19.29 0 .15 0 .29.01.46l10.02 178.09c.75 13.39 12.33 23.73 25.72 22.98l205.97-11.59c13.39-.75 23.73-12.33 22.98-25.72l-1.89-33.6c-1.11.4-2.3.66-3.54.73l-22.26 1.26z"/><path class="st5" d="M277.47 869.38c-6.94.39-12.93-4.97-13.33-11.9l.29 5.21c.39 6.94 6.39 12.3 13.33 11.9l22.26-1.25c1.24-.07 2.42-.32 3.54-.73l-.29-5.21c-1.11.4-2.3.66-3.54.73l-22.26 1.25z"/><path class="st5" d="M300.06 810.38c-1.15-.27-2.36-.39-3.6-.32l-22.26 1.25c-6.94.39-12.3 6.39-11.91 13.32l.29 5.21 1.55 27.62c.39 6.94 6.39 12.3 13.33 11.9l22.26-1.25c1.24-.07 2.42-.32 3.54-.73 5.13-1.84 8.69-6.9 8.37-12.6l-1.55-27.62-.29-5.21c-.32-5.68-4.43-10.31-9.73-11.57zm-11.95 38.8c-5.28.3-9.79-3.74-10.09-9.01-.3-5.28 3.74-9.79 9.01-10.09 5.28-.3 9.79 3.74 10.09 9.01.3 5.27-3.73 9.79-9.01 10.09z"/><circle class="st3" cx="287.58" cy="839.63" r="9.57"/><g><path class="st5" d="M290.42 805.93l-1.64.09-.28-4.91 1.64-.09.28 4.91zm-.55-9.83l-1.64.09-.28-4.91 1.64-.09.28 4.91zm-.55-9.82l-1.64.09-.28-4.9 1.64-.12.28 4.93zm-2.83-9.42c-.49-1.49-1.16-2.92-2-4.27l1.39-.87c.91 1.45 1.63 3.01 2.16 4.62l-1.55.52zm-4.94-7.96c-1.11-1.11-2.35-2.1-3.7-2.95l.88-1.39c1.45.91 2.78 1.98 3.98 3.17l-1.16 1.17zm-7.94-5.03c-1.48-.54-3.03-.92-4.6-1.13l.22-1.63c1.69.23 3.35.64 4.94 1.21l-.56 1.55zm-9.35-1.27l-4.91.28-.09-1.64 4.91-.28.09 1.64zm-9.83.55l-4.91.28-.09-1.64 4.91-.28.09 1.64zm-9.82.55l-4.91.28-.09-1.64 4.91-.28.09 1.64zm-9.83.56l-4.91.28-.09-1.64 4.91-.28.09 1.64zm-9.82.55l-4.91.28-.09-1.64 4.91-.28.09 1.64zm-9.82.55l-4.91.28-.09-1.64 4.91-.28.09 1.64zm-9.83.55l-4.91.28-.09-1.64 4.91-.28.09 1.64zm-9.82.56l-4.91.28-.09-1.64 4.91-.28.09 1.64zm-9.82.55l-4.91.28-.09-1.64 4.91-.28.09 1.64zm-9.83.55l-4.91.28-.09-1.64 4.91-.28.09 1.64zm-9.82.56l-4.91.28-.09-1.64 4.91-.28.09 1.64zm-9.83.55l-4.91.28-.09-1.64 4.91-.28.09 1.64zm-9.82.55l-4.91.28-.09-1.64 4.91-.28.09 1.64zm-9.82.55l-4.91.28-.09-1.64 4.91-.28.09 1.64zm-9.83.56l-4.91.28-.09-1.64 4.91-.28.09 1.64zm-9.82.55l-4.91.28-.09-1.64 4.91-.28.09 1.64zm-9.83.55l-4.91.28-.09-1.64 4.91-.28.09 1.64zm-9.82.56l-4.91.28-.09-1.64 4.91-.28.09 1.64zm-9.82.55l-4.91.28-.09-1.64 4.91-.28.09 1.64zm-9.83.55l-4.91.28-.09-1.64 4.91-.28.09 1.64zm-9.87.47c-1.71 0-3.39-.08-4.99-.25l.17-1.63c1.55.16 3.17.24 4.83.24l-.01 1.64zm-9.94-1.06c-1.67-.39-3.29-.89-4.81-1.49l.6-1.53c1.45.57 2.99 1.04 4.58 1.41l-.37 1.61zm-9.35-3.7c-1.44-.86-2.82-1.84-4.11-2.94l1.06-1.25c1.22 1.03 2.52 1.97 3.89 2.78l-.84 1.41z"/></g><g><path class="st5" d="M273.65 921.75l-1.53.09-.09-1.64 1.53-.09c1.08-.06 2.18-.2 3.24-.42l.32 1.61c-1.14.23-2.31.38-3.47.45zm-6.45.36l-4.91.28-.09-1.64 4.91-.28.09 1.64zm-9.82.55l-4.91.28-.09-1.64 4.91-.28.09 1.64zm-9.82.56l-4.91.28-.09-1.64 4.91-.28.09 1.64zm-9.83.55l-4.91.28-.09-1.64 4.91-.28.09 1.64zm-9.82.55l-4.91.28-.09-1.64 4.91-.28.09 1.64zm-9.82.55l-4.91.28-.09-1.64 4.91-.28.09 1.64zm-9.83.56l-4.91.28-.09-1.64 4.91-.28.09 1.64zm-9.82.55l-4.91.28-.09-1.64 4.91-.28.09 1.64zm-9.83.55l-4.91.28-.09-1.64 4.91-.28.09 1.64zm-9.82.56l-4.91.28-.09-1.64 4.91-.28.09 1.64zm-9.82.55l-4.91.28-.09-1.64 4.91-.28.09 1.64zm-9.83.55l-4.91.28-.09-1.64 4.91-.28.09 1.64zm-9.82.55l-4.91.28-.09-1.64 4.91-.28.09 1.64zm-9.82.56l-4.91.28-.09-1.64 4.91-.28.09 1.64zm-9.83.55l-4.91.28-.09-1.64 4.91-.28.09 1.64zm-9.82.55l-4.91.28-.09-1.64 4.91-.28.09 1.64zm-9.83.56l-4.91.28-.09-1.64 4.91-.28.09 1.64zm-9.82.55l-4.91.28-.09-1.64 4.91-.28.09 1.64zm-9.82.55l-4.91.28-.09-1.64 4.91-.28.09 1.64zm-9.92.41c-1.7-.08-3.39-.33-5.01-.72l.39-1.59c1.52.37 3.1.6 4.7.68l-.08 1.63zm201.51-12.7l-.66-1.5c1.45-.64 2.84-1.43 4.11-2.35l.96 1.33c-1.37.99-2.85 1.84-4.41 2.52zm-211.3 10.3c-1.51-.7-2.98-1.56-4.37-2.55l.95-1.34c1.31.93 2.7 1.74 4.11 2.4l-.69 1.49zm219.48-16.24l-1.23-1.09c1.05-1.19 1.97-2.49 2.71-3.87l1.44.78c-.8 1.49-1.78 2.89-2.92 4.18zm-227.7 10.43c-1.15-1.14-2.27-2.41-3.32-3.78l1.3-1c1 1.3 2.07 2.52 3.17 3.61l-1.15 1.17zm232.51-19.34l-1.59-.42c.4-1.52.62-3.09.64-4.66l1.64.02c-.02 1.7-.25 3.4-.69 5.06zM56.32 916.34c-.83-1.38-1.62-2.86-2.36-4.4l1.48-.71c.71 1.49 1.48 2.93 2.29 4.26l-1.41.85zm239.11-21.45l-1.64.09-.28-4.91 1.64-.09.28 4.91zM51.99 907.36c-.58-1.51-1.12-3.09-1.61-4.71l1.57-.48c.48 1.58 1.01 3.13 1.58 4.6l-1.54.59zm242.88-22.3l-1.64.09-.28-4.91 1.64-.09.28 4.91zm-.55-9.82l-1.64.09-.11-2.01 1.64-.09.11 2.01z"/></g></g></g><g><path class="st23" d="M611.01 620.64c-2.01-1.11-4.45-1.42-7.32-.93 2.59-3.12 2.81-6.62.67-10.5-.77-1.41-1.72-2.51-2.86-3.3s-2.43-1.26-3.88-1.42c-1.44-.16-2.91-.12-4.42.12-1.51.24-3.17.66-5 1.26l-3.62-8.42-5.14 2.21 3.52 8.18c-.89.38-2.24.99-4.05 1.82l-3.55-8.25-5.14 2.21 3.62 8.42c-.73.34-1.8.81-3.23 1.43l-7.09 3.01 2.35 5.48 3.71-1.59c1.69-.73 3.01-.39 3.95.99l4.12 9.59c.22-.1.4-.16.55-.2l-.53.23 5.77 13.43c.31 1.21-.09 2.06-1.21 2.54l-3.71 1.59 1.59 6.56 6.68-2.87c.42-.18 1.04-.44 1.84-.77.81-.33 1.41-.59 1.81-.76l3.66 8.52 5.14-2.21-3.62-8.42c.94-.38 2.31-.95 4.09-1.72l3.6 8.38 5.14-2.21-3.66-8.52c1.79-.87 3.34-1.74 4.64-2.59 1.31-.85 2.5-1.82 3.56-2.9 1.07-1.08 1.86-2.19 2.4-3.35.53-1.15.83-2.45.88-3.9.05-1.45-.19-2.99-.71-4.64-1.02-3.22-2.55-5.39-4.55-6.5zm-29.42-5.01c.16-.07.59-.26 1.31-.58.72-.32 1.32-.59 1.79-.81.47-.22 1.13-.46 1.97-.75.84-.28 1.57-.49 2.17-.62.6-.13 1.3-.21 2.07-.24.78-.03 1.45.05 2.01.25.56.19 1.1.52 1.62.97.52.45.94 1.04 1.26 1.77.27.62.41 1.23.43 1.83.02.6-.1 1.16-.35 1.67-.25.52-.53 1-.85 1.43-.31.44-.77.88-1.35 1.31-.59.44-1.11.81-1.56 1.11-.45.3-1.04.62-1.76.97s-1.27.61-1.64.78c-.37.17-.89.4-1.55.67s-1.05.43-1.16.48l-4.41-10.24zm23.82 16.71c.01.6-.07 1.17-.24 1.69-.17.52-.47 1.05-.89 1.57-.42.53-.85.99-1.28 1.38-.43.4-.99.82-1.65 1.26-.67.45-1.26.81-1.78 1.1-.52.29-1.15.61-1.9.97-.74.36-1.33.63-1.75.81-.42.18-.96.41-1.61.67-.65.27-1.07.44-1.24.52l-4.85-11.29c.18-.08.7-.31 1.57-.72.87-.4 1.58-.72 2.14-.96s1.34-.54 2.35-.89 1.87-.61 2.6-.76c.73-.15 1.54-.26 2.45-.32.91-.06 1.7 0 2.36.19.66.19 1.29.53 1.9 1 .6.48 1.08 1.12 1.42 1.92.26.64.39 1.26.4 1.86zm0 0"/><path class="st21" d="M609.45 621.28c-2.01-1.11-4.45-1.42-7.32-.93 2.59-3.12 2.81-6.62.67-10.5-.77-1.41-1.72-2.51-2.86-3.3s-2.43-1.26-3.88-1.42c-1.44-.16-2.91-.12-4.42.12-1.51.24-3.17.66-5 1.26l-3.62-8.42-5.14 2.21 3.52 8.18c-.89.38-2.24.99-4.05 1.82l-3.55-8.25-5.14 2.21 3.62 8.42c-.73.34-1.8.81-3.23 1.43l-7.09 3.01 2.35 5.48 3.71-1.59c1.69-.73 3.01-.39 3.95.99l4.12 9.59c.22-.1.4-.16.55-.2l-.53.23 5.77 13.43c.31 1.21-.09 2.06-1.21 2.54l-3.71 1.59 1.59 6.56 6.68-2.87c.42-.18 1.04-.44 1.84-.77.81-.33 1.41-.59 1.81-.76l3.66 8.52 5.14-2.21-3.62-8.42c.94-.38 2.31-.95 4.09-1.72l3.6 8.38 5.14-2.21-3.66-8.52c1.79-.87 3.34-1.74 4.64-2.59 1.31-.85 2.5-1.82 3.56-2.9 1.07-1.08 1.86-2.19 2.4-3.35.53-1.15.83-2.45.88-3.9.05-1.45-.19-2.99-.71-4.64-1.02-3.22-2.54-5.39-4.55-6.5zm-29.42-5c.16-.07.59-.26 1.31-.58.72-.32 1.32-.59 1.79-.81.47-.22 1.13-.46 1.97-.75.84-.28 1.57-.49 2.17-.62.6-.13 1.3-.21 2.07-.24.78-.03 1.45.05 2.01.25.56.19 1.1.52 1.62.97.52.45.94 1.04 1.26 1.77.27.62.41 1.23.43 1.83.02.6-.1 1.16-.35 1.67-.25.52-.53 1-.85 1.43-.31.44-.77.88-1.35 1.31-.59.44-1.11.81-1.56 1.11-.45.3-1.04.62-1.76.97s-1.27.61-1.64.78c-.37.17-.89.4-1.55.67s-1.05.43-1.16.48l-4.41-10.24zm23.82 16.7c.01.6-.07 1.17-.24 1.69-.17.52-.47 1.05-.89 1.57-.42.53-.85.99-1.29 1.38-.43.4-.99.82-1.65 1.26-.67.45-1.26.81-1.78 1.1-.52.29-1.15.61-1.9.97-.74.36-1.33.63-1.75.81-.42.18-.96.41-1.61.67-.65.27-1.07.44-1.24.52l-4.85-11.29c.18-.08.7-.31 1.57-.72.87-.4 1.58-.72 2.14-.96s1.34-.54 2.35-.89 1.87-.61 2.6-.76c.73-.15 1.54-.26 2.45-.32.91-.06 1.7 0 2.36.19.66.19 1.29.53 1.9 1 .6.48 1.08 1.12 1.42 1.92.27.65.4 1.26.41 1.86zm0 0"/></g></g><g id="Arrows"><path class="st50" d="M99.99 359.85S12.81 530.96 59.61 630.66L27.5 646.52l71.73 52.94 36.34-100.89-41.47 15.45s-38.48-76.62 86.44-247.49l-55.89 18.02-24.66-24.7zM927.82 644.27s56.84-205.11-25.99-329.24l33.82-17.88-99.66-68.12-15.61 121.65 45.04-16.93s66.63 95.51-35.09 298.55l61.47-19.39 36.02 31.36z"/></g></svg>