<svg xmlns="http://www.w3.org/2000/svg" xmlns:xlink="http://www.w3.org/1999/xlink" viewBox="0 0 355.76 216.92"><defs><style>.cls-1,.cls-3,.cls-4,.cls-7{fill:none;stroke-miterlimit:10;stroke-width:3px;}.cls-1{stroke:#f7981f;stroke-linecap:round;}.cls-2{opacity:0.1;fill:url(#linear-gradient);}.cls-3{stroke:url(#linear-gradient-2);}.cls-4{stroke:url(#linear-gradient-3);}.cls-5{fill:url(#linear-gradient-4);}.cls-6{fill:url(#linear-gradient-5);}.cls-7{stroke:url(#linear-gradient-6);}.cls-8{fill:#f7981f;}.cls-9{fill:url(#linear-gradient-7);}.cls-10{fill:url(#linear-gradient-8);}.cls-11{fill:url(#linear-gradient-9);}.cls-12{fill:url(#linear-gradient-10);}</style><linearGradient id="linear-gradient" x1="189.44" y1="180.08" x2="153.24" y2="242.77" gradientUnits="userSpaceOnUse"><stop offset="0" stop-color="#231f20"/><stop offset="1" stop-color="#231f20" stop-opacity="0"/></linearGradient><linearGradient id="linear-gradient-2" x1="76.62" y1="106.5" x2="0" y2="106.5" gradientUnits="userSpaceOnUse"><stop offset="0" stop-color="#60ba46"/><stop offset="0.71" stop-color="#00ad4d" stop-opacity="0"/></linearGradient><linearGradient id="linear-gradient-3" x1="310.83" y1="91.66" x2="310.83" y2="106.19" gradientUnits="userSpaceOnUse"><stop offset="0" stop-color="#60ba46"/><stop offset="1" stop-color="#00ad4d" stop-opacity="0"/></linearGradient><linearGradient id="linear-gradient-4" x1="260.85" y1="93.16" x2="270.94" y2="93.16" gradientUnits="userSpaceOnUse"><stop offset="0" stop-color="#99cb58"/><stop offset="1" stop-color="#2cad4a"/></linearGradient><linearGradient id="linear-gradient-5" x1="71.57" y1="98.8" x2="81.66" y2="98.8" xlink:href="#linear-gradient-4"/><linearGradient id="linear-gradient-6" x1="286.39" y1="73.15" x2="341.76" y2="73.15" xlink:href="#linear-gradient-3"/><linearGradient id="linear-gradient-7" x1="-291.58" y1="-727.5" x2="-322.13" y2="-674.59" gradientTransform="translate(406.27 730.85)" gradientUnits="userSpaceOnUse"><stop offset="0" stop-color="#f69a1d"/><stop offset="1" stop-color="#f29924" stop-opacity="0"/></linearGradient><linearGradient id="linear-gradient-8" x1="618.86" y1="-40.02" x2="580.81" y2="25.88" gradientTransform="translate(-345.56 168.86)" xlink:href="#linear-gradient-7"/><linearGradient id="linear-gradient-9" x1="106.46" y1="88.12" x2="233.41" y2="88.12" xlink:href="#linear-gradient-4"/><linearGradient id="linear-gradient-10" x1="278.61" y1="73.15" x2="288.7" y2="73.15" xlink:href="#linear-gradient-4"/></defs><title>Buy Bitcoin</title><g id="Layer_2" data-name="Layer 2"><g id="Layer_1-2" data-name="Layer 1"><line class="cls-1" x1="226.15" y1="16.24" x2="233.65" y2="6.9"/><line class="cls-1" x1="216.23" y1="15.62" x2="209.07" y2="9.87"/><line class="cls-1" x1="236.3" y1="32.68" x2="229.14" y2="26.94"/><ellipse class="cls-2" cx="171.34" cy="211.43" rx="71.75" ry="5.5"/><polyline class="cls-3" points="76.62 98.93 39.16 98.93 25.03 114.06 0 114.06"/><polyline class="cls-4" points="265.9 93.16 310.12 93.16 321.65 104.69 355.76 104.69"/><circle class="cls-5" cx="265.9" cy="93.16" r="5.04"/><circle class="cls-6" cx="76.62" cy="98.8" r="5.04"/><line class="cls-7" x1="286.39" y1="73.15" x2="341.76" y2="73.15"/><rect class="cls-8" x="57.41" y="146.59" width="8.5" height="8.5"/><rect class="cls-8" x="299.34" y="35.8" width="8.5" height="8.5"/><rect class="cls-9" x="77.05" y="7.45" width="44.72" height="44.72" transform="translate(-3.15 45.71) rotate(-25.5)"/><rect class="cls-10" x="226.41" y="133.93" width="55.71" height="55.71" transform="translate(54.15 -63.56) rotate(15.93)"/><path class="cls-11" d="M218.16,50.11c-3.78-17.59-19.83-21.76-39.42-21.2L175.87,4.24,160.85,6l2.8,24c-4,.46-8,1-12,1.55L148.86,7.39l-15,1.75,2.87,24.67c-3.24.44-6.43.88-9.54,1.24V35l-20.71,2.41,1.87,16s11.07-1.5,10.9-1.28c6.09-.71,8.48,2.6,9.41,5.58l3.28,28.1a12,12,0,0,1,1.6-.08l-1.59.19,4.59,39.37c0,2-.81,5.13-5.06,5.63.21.15-10.92,1.27-10.92,1.27l-.89,18.29,19.54-2.28c3.64-.42,7.23-.78,10.74-1.17l2.92,25,15-1.75L165,145.56c4.13-.4,8.12-.83,12-1.29l2.86,24.58,15-1.75L192,142.19c25.07-4.39,42-12.82,41.43-36.78-.45-19.3-10.43-26.77-25.16-28.54C216.42,71.42,221,63,218.16,50.11Zm-14.79,55.8c2.19,18.65-30,20.25-40.17,21.45L159.35,94.3c10.18-1.19,41.76-7.84,44,11.61ZM191,60.08c2,17-24.89,18.1-33.36,19.09l-3.5-30C162.57,48.19,188.88,42.39,191,60.08Z"/><circle class="cls-12" cx="283.65" cy="73.15" r="5.04"/></g></g></svg>