<?xml version="1.0" encoding="UTF-8"?>
<svg width="61px" height="61px" viewBox="0 0 61 61" version="1.1" xmlns="http://www.w3.org/2000/svg" xmlns:xlink="http://www.w3.org/1999/xlink">
    <!-- Generator: Sketch 52.2 (67145) - http://www.bohemiancoding.com/sketch -->
    <title>Combined Shape</title>
    <desc>Created with Sketch.</desc>
    <g id="Page-1" stroke="none" stroke-width="1" fill="none" fill-rule="evenodd">
        <g id="Success" transform="translate(-102.000000, -75.000000)" fill="#FF9B00">
            <path d="M132.5,136 C115.655315,136 102,122.344685 102,105.5 C102,88.6553151 115.655315,75 132.5,75 C149.344685,75 163,88.6553151 163,105.5 C163,122.344685 149.344685,136 132.5,136 Z M151.747922,95.0097194 L147.050964,90.2497194 C146.893157,90.0898485 146.678887,90 146.455432,90 C146.231978,90 146.017707,90.0898485 145.859901,90.2497194 L126.022318,110.309719 C125.864512,110.46959 125.650241,110.559439 125.426787,110.559439 C125.203332,110.559439 124.989061,110.46959 124.831255,110.309719 L120.134297,105.549719 C119.976491,105.389849 119.76222,105.3 119.538766,105.3 C119.315311,105.3 119.101041,105.389849 118.943234,105.549719 L114.246276,110.309719 C113.917908,110.641644 113.917908,111.179695 114.246276,111.511619 L124.831255,122.209719 C124.989061,122.36959 125.203332,122.459439 125.426787,122.459439 C125.650241,122.459439 125.864512,122.36959 126.022318,122.209719 L151.747922,96.1997194 C152.068519,95.8692024 152.068519,95.3402364 151.747922,95.0097194 Z" id="Combined-Shape"></path>
        </g>
    </g>
</svg>