<svg xmlns="http://www.w3.org/2000/svg" xmlns:xlink="http://www.w3.org/1999/xlink" viewBox="0 0 517.95 304.74"><defs><style>.cls-1{fill:url(#linear-gradient);}.cls-2,.cls-3,.cls-6{fill:none;stroke-miterlimit:10;stroke-width:3px;}.cls-2{stroke:url(#linear-gradient-2);}.cls-3{stroke:url(#linear-gradient-3);}.cls-4{fill:#ce5047;}.cls-5{fill:#e2e0e0;}.cls-6{stroke:url(#linear-gradient-4);}.cls-7{fill:url(#linear-gradient-5);}.cls-8{fill:#fff;opacity:0;}</style><linearGradient id="linear-gradient" x1="120.14" y1="142.34" x2="171.67" y2="112.59" gradientUnits="userSpaceOnUse"><stop offset="0" stop-color="#ce5047"/><stop offset="1" stop-color="#ce5047" stop-opacity="0"/></linearGradient><linearGradient id="linear-gradient-2" x1="389.52" y1="162.39" x2="415.2" y2="147.56" xlink:href="#linear-gradient"/><linearGradient id="linear-gradient-3" x1="102.76" y1="225.47" x2="128.44" y2="210.64" xlink:href="#linear-gradient"/><linearGradient id="linear-gradient-4" x1="649.28" y1="-1859.36" x2="723.04" y2="-1859.36" gradientTransform="translate(1350.55 1798.77) rotate(-50.25)" xlink:href="#linear-gradient"/><linearGradient id="linear-gradient-5" x1="340.24" y1="93.55" x2="379.39" y2="70.94" gradientUnits="userSpaceOnUse"><stop offset="0" stop-color="#ce5047"/><stop offset="0.1" stop-color="#ce5047" stop-opacity="0.96"/><stop offset="0.25" stop-color="#ce5047" stop-opacity="0.87"/><stop offset="0.43" stop-color="#ce5047" stop-opacity="0.71"/><stop offset="0.63" stop-color="#ce5047" stop-opacity="0.49"/><stop offset="0.85" stop-color="#ce5047" stop-opacity="0.21"/><stop offset="1" stop-color="#ce5047" stop-opacity="0"/></linearGradient></defs><title>failed_1</title><g id="Layer_2" data-name="Layer 2"><g id="Layer_1-2" data-name="Layer 1"><rect class="cls-1" x="124.13" y="105.69" width="43.56" height="43.56"/><rect class="cls-2" x="393" y="145.62" width="18.71" height="18.71"/><rect class="cls-3" x="106.24" y="208.7" width="18.71" height="18.71"/><rect class="cls-4" x="378.69" y="201.61" width="8.62" height="8.62"/><path class="cls-5" d="M258.55,155.47h0a88.5,88.5,0,0,1,88.5,88.5v7.91a0,0,0,0,1,0,0h-177a0,0,0,0,1,0,0V244A88.5,88.5,0,0,1,258.55,155.47Z"/><circle class="cls-5" cx="258.55" cy="100.84" r="48"/><circle class="cls-6" cx="359.82" cy="82.24" r="35.38"/><polygon class="cls-7" points="378.69 69.73 372.33 63.37 359.82 75.88 347.3 63.37 340.94 69.73 353.45 82.24 340.94 94.76 347.3 101.12 359.82 88.61 372.33 101.12 378.69 94.76 366.18 82.24 378.69 69.73"/><rect class="cls-8" width="517.95" height="304.74"/></g></g></svg>