<svg xmlns="http://www.w3.org/2000/svg" xmlns:xlink="http://www.w3.org/1999/xlink" viewBox="0 0 517.95 304.74"><defs><style>.cls-1,.cls-11,.cls-12,.cls-13,.cls-2,.cls-3,.cls-4{fill:none;stroke-miterlimit:10;stroke-width:3px;}.cls-1{stroke:url(#linear-gradient);}.cls-2{stroke:url(#linear-gradient-2);}.cls-3{stroke:url(#linear-gradient-3);}.cls-4{stroke:url(#linear-gradient-4);}.cls-5{fill:url(#linear-gradient-5);}.cls-6{fill:url(#linear-gradient-6);}.cls-7{fill:url(#linear-gradient-7);}.cls-8{fill:#f6971f;}.cls-9{fill:url(#linear-gradient-8);}.cls-10{fill:url(#linear-gradient-9);}.cls-11{stroke:url(#linear-gradient-10);}.cls-12{stroke:url(#linear-gradient-11);}.cls-13{stroke:url(#linear-gradient-12);}.cls-14{fill:#fff;opacity:0;}</style><linearGradient id="linear-gradient" x1="141.44" y1="20.73" x2="141.44" y2="75.19" gradientUnits="userSpaceOnUse"><stop offset="0" stop-color="#f5991d"/><stop offset="1" stop-color="#f19824" stop-opacity="0"/></linearGradient><linearGradient id="linear-gradient-2" x1="3671.15" y1="-1029.38" x2="3671.15" y2="-974.92" gradientTransform="translate(-625.53 -3623.19) rotate(90)" xlink:href="#linear-gradient"/><linearGradient id="linear-gradient-3" x1="2880.28" y1="-4532.74" x2="2880.28" y2="-4478.27" gradientTransform="translate(3256.91 -4248.72) rotate(180)" xlink:href="#linear-gradient"/><linearGradient id="linear-gradient-4" x1="-882.31" y1="-3768.23" x2="-882.31" y2="-3713.77" gradientTransform="translate(3882.43 -625.53) rotate(-90)" xlink:href="#linear-gradient"/><linearGradient id="linear-gradient-5" x1="210.55" y1="100.85" x2="306.55" y2="100.85" gradientUnits="userSpaceOnUse"><stop offset="0" stop-color="#98ca58"/><stop offset="1" stop-color="#2cac4a"/></linearGradient><linearGradient id="linear-gradient-6" x1="295.29" y1="172.43" x2="229.58" y2="286.26" gradientUnits="userSpaceOnUse"><stop offset="0" stop-color="#60b946"/><stop offset="1" stop-color="#00ac4d" stop-opacity="0"/></linearGradient><linearGradient id="linear-gradient-7" x1="170.05" y1="174.23" x2="347.05" y2="174.23" xlink:href="#linear-gradient-5"/><linearGradient id="linear-gradient-8" x1="126.1" y1="74.02" x2="178.76" y2="74.02" xlink:href="#linear-gradient"/><linearGradient id="linear-gradient-9" x1="322.93" y1="145.71" x2="409.62" y2="145.71" xlink:href="#linear-gradient"/><linearGradient id="linear-gradient-10" x1="131.7" y1="240.39" x2="220.25" y2="240.39" xlink:href="#linear-gradient-6"/><linearGradient id="linear-gradient-11" x1="131.7" y1="226.12" x2="220.25" y2="226.12" xlink:href="#linear-gradient-6"/><linearGradient id="linear-gradient-12" x1="131.7" y1="211.85" x2="220.25" y2="211.85" xlink:href="#linear-gradient-6"/></defs><title>processing</title><g id="Layer_2" data-name="Layer 2"><g id="Layer_1-2" data-name="Layer 1"><polyline class="cls-1" points="115.71 75.19 115.71 22.23 168.67 22.23"/><polyline class="cls-2" points="349.39 22.23 402.35 22.23 402.35 75.19"/><polyline class="cls-3" points="402.35 229.55 402.35 282.51 349.39 282.51"/><polyline class="cls-4" points="168.67 282.51 115.71 282.51 115.71 229.55"/><circle class="cls-5" cx="258.55" cy="100.85" r="48"/><path class="cls-6" d="M329.31,196a84.92,84.92,0,0,1,14.74,48v4.91h-171V244a84.92,84.92,0,0,1,14.74-48H329.31m1.57-3H186.22a88.13,88.13,0,0,0-16.17,51v7.91h177V244a88.06,88.06,0,0,0-16.17-51Z"/><path class="cls-7" d="M322.93,183.26a88.49,88.49,0,0,0-128.76,0,89.36,89.36,0,0,0-7.95,9.72H330.88A88.2,88.2,0,0,0,322.93,183.26Z"/><polygon class="cls-8" points="319.46 193.19 198.2 193.19 87.42 193.19 87.42 196.7 190.71 196.7 326.95 196.7 430.53 196.7 430.53 193.19 319.46 193.19"/><rect class="cls-9" x="142.19" y="63.41" width="21.22" height="21.22"/><rect class="cls-10" x="349.42" y="128.24" width="34.93" height="34.93"/><rect class="cls-8" x="168.64" y="144.44" width="8.68" height="8.68"/><rect class="cls-8" x="328.56" y="42.05" width="8.68" height="8.68"/><line class="cls-11" x1="220.25" y1="240.39" x2="131.7" y2="240.39"/><line class="cls-12" x1="220.25" y1="226.12" x2="131.7" y2="226.12"/><line class="cls-13" x1="220.25" y1="211.85" x2="131.7" y2="211.85"/><rect class="cls-14" width="517.95" height="304.74"/></g></g></svg>