<?xml version="1.0" encoding="UTF-8"?>
<svg width="94px" height="55px" viewBox="0 0 94 55" version="1.1" xmlns="http://www.w3.org/2000/svg" xmlns:xlink="http://www.w3.org/1999/xlink">
    <!-- Generator: Sketch 52.6 (67491) - http://www.bohemiancoding.com/sketch -->
    <title>selfie</title>
    <desc>Created with Sketch.</desc>
    <defs>
        <filter x="-10.4%" y="-19.4%" width="120.9%" height="138.7%" filterUnits="objectBoundingBox" id="filter-1">
            <feOffset dx="0" dy="2" in="SourceAlpha" result="shadowOffsetOuter1"></feOffset>
            <feGaussianBlur stdDeviation="2" in="shadowOffsetOuter1" result="shadowBlurOuter1"></feGaussianBlur>
            <feColorMatrix values="0 0 0 0 0   0 0 0 0 0   0 0 0 0 0  0 0 0 0.5 0" type="matrix" in="shadowBlurOuter1" result="shadowMatrixOuter1"></feColorMatrix>
            <feMerge>
                <feMergeNode in="shadowMatrixOuter1"></feMergeNode>
                <feMergeNode in="SourceGraphic"></feMergeNode>
            </feMerge>
        </filter>
        <linearGradient x1="76.6094155%" y1="-27.7083333%" x2="23.4029408%" y2="127.708333%" id="linearGradient-2">
            <stop stop-color="#F4981D" offset="0%"></stop>
            <stop stop-color="#F09724" stop-opacity="0" offset="100%"></stop>
        </linearGradient>
        <linearGradient x1="73.0677966%" y1="10.2271549%" x2="33.6271186%" y2="135.639456%" id="linearGradient-3">
            <stop stop-color="#97C958" offset="0%"></stop>
            <stop stop-color="#2CAB4A" offset="100%"></stop>
        </linearGradient>
        <linearGradient x1="75%" y1="6.6875%" x2="24.9895833%" y2="93.3020833%" id="linearGradient-4">
            <stop stop-color="#97C958" offset="0%"></stop>
            <stop stop-color="#2CAB4A" offset="100%"></stop>
        </linearGradient>
        <linearGradient x1="0%" y1="50%" x2="100%" y2="50%" id="linearGradient-5">
            <stop stop-color="#97C958" offset="0%"></stop>
            <stop stop-color="#2CAB4A" offset="100%"></stop>
        </linearGradient>
        <linearGradient x1="-0.0826446281%" y1="50%" x2="100%" y2="50%" id="linearGradient-6">
            <stop stop-color="#97C958" offset="0%"></stop>
            <stop stop-color="#2CAB4A" offset="100%"></stop>
        </linearGradient>
        <linearGradient x1="0%" y1="50%" x2="100%" y2="50%" id="linearGradient-7">
            <stop stop-color="#60B846" offset="0%"></stop>
            <stop stop-color="#00AB4D" stop-opacity="0" offset="100%"></stop>
        </linearGradient>
    </defs>
    <g id="Page-1" stroke="none" stroke-width="1" fill="none" fill-rule="evenodd">
        <g id="Selfie" transform="translate(-146.000000, -403.000000)">
            <g id="selfie" transform="translate(130.000000, 398.000000)">
                <g id="Group-2" filter="url(#filter-1)">
                    <rect id="Rectangle" fill="#FFFFFF" opacity="0" x="0" y="0" width="115" height="62"></rect>
                    <rect id="Rectangle" stroke="url(#linearGradient-2)" stroke-width="2.39999986" x="57.9920012" y="13.368115" width="46.706773" height="27.7112556" rx="2.39999986"></rect>
                    <g id="Group" transform="translate(20.335664, 7.367089)">
                        <path d="M20.822655,23.9288231 C32.1934356,23.9288231 41.4112745,33.0788025 41.4112745,44.3658741 L41.4112745,44.3658741 C41.4112745,45.374696 40.5934627,46.1925077 39.5846409,46.1925077 L2.0606692,46.1925077 C1.05184732,46.1925077 0.234035606,45.374696 0.234035606,44.3658741 C0.234035606,33.0788025 9.4518745,23.9288231 20.822655,23.9288231 Z" id="Path" fill="url(#linearGradient-3)"></path>
                        <ellipse id="Oval" fill="url(#linearGradient-4)" cx="20.822655" cy="11.313274" rx="11.1667088" ry="11.0845022"></ellipse>
                    </g>
                    <path d="M69.4306302,27.264155 C71.1388157,27.264155 72.7770384,27.9429551 73.984908,29.151227 C75.1927776,30.3594989 75.8713516,31.9982673 75.8713516,33.7070219 L75.8713516,33.7070219 C75.8713516,34.0258657 75.6128776,34.2843397 75.2940338,34.2843397 L63.5672266,34.2843397 C63.2483827,34.2843397 62.9899087,34.0258657 62.9899087,33.7070219 C62.9899087,30.1487248 65.873518,27.264155 69.4306302,27.264155 Z" id="Path" fill="url(#linearGradient-5)"></path>
                    <ellipse id="Oval" fill="url(#linearGradient-6)" cx="69.4306302" cy="23.2864352" rx="3.49160974" ry="3.49277284"></ellipse>
                    <path d="M100.837804,21.2427301 L80.8923441,21.2427301" id="Path" stroke="url(#linearGradient-7)" stroke-width="2.39999986" stroke-linecap="round"></path>
                    <path d="M100.837804,27.0159083 L80.8923441,27.0159083" id="Path" stroke="url(#linearGradient-7)" stroke-width="2.39999986" stroke-linecap="round"></path>
                    <path d="M100.837804,32.7890866 L80.8923441,32.7890866" id="Path" stroke="url(#linearGradient-7)" stroke-width="2.39999986" stroke-linecap="round"></path>
                </g>
            </g>
        </g>
    </g>
</svg>