<svg xmlns="http://www.w3.org/2000/svg" xmlns:xlink="http://www.w3.org/1999/xlink" viewBox="0 0 517.95 304.74"><defs><style>.cls-1{fill:url(#linear-gradient);}.cls-10,.cls-11,.cls-12,.cls-14,.cls-16,.cls-2{fill:none;stroke-miterlimit:10;}.cls-11,.cls-12,.cls-14,.cls-16,.cls-2{stroke-width:3px;}.cls-2{stroke:url(#linear-gradient-2);}.cls-3{fill:#fff;opacity:0;}.cls-4{fill:url(#linear-gradient-3);}.cls-5{fill:url(#linear-gradient-4);}.cls-6{fill:url(#linear-gradient-5);}.cls-7{fill:#f6971f;}.cls-8{fill:url(#linear-gradient-6);}.cls-9{fill:url(#linear-gradient-7);}.cls-10{stroke-width:9px;stroke:url(#linear-gradient-8);}.cls-11{stroke:url(#linear-gradient-9);}.cls-12{stroke:url(#linear-gradient-10);}.cls-13{fill:url(#linear-gradient-11);}.cls-14{stroke:url(#linear-gradient-12);}.cls-15{fill:url(#linear-gradient-13);}.cls-16{stroke:url(#linear-gradient-14);}.cls-17{fill:url(#linear-gradient-15);}.cls-18{fill:url(#linear-gradient-16);}</style><linearGradient id="linear-gradient" x1="376" y1="279.67" x2="421.85" y2="233.82" gradientUnits="userSpaceOnUse"><stop offset="0" stop-color="#f5991d"/><stop offset="1" stop-color="#f19824" stop-opacity="0"/></linearGradient><linearGradient id="linear-gradient-2" x1="4491.36" y1="-236.71" x2="4388.04" y2="-236.71" gradientTransform="translate(4884.17 -25.84) rotate(180)" gradientUnits="userSpaceOnUse"><stop offset="0" stop-color="#60b946"/><stop offset="0.71" stop-color="#00ac4d" stop-opacity="0"/></linearGradient><linearGradient id="linear-gradient-3" x1="114" y1="100.38" x2="165.53" y2="70.63" xlink:href="#linear-gradient"/><linearGradient id="linear-gradient-4" x1="439.42" y1="146.14" x2="460.86" y2="124.7" xlink:href="#linear-gradient"/><linearGradient id="linear-gradient-5" x1="165.46" y1="166.4" x2="184.06" y2="147.8" xlink:href="#linear-gradient"/><linearGradient id="linear-gradient-6" x1="299.38" y1="164.16" x2="229.57" y2="285.07" gradientUnits="userSpaceOnUse"><stop offset="0" stop-color="#98ca58"/><stop offset="1" stop-color="#2cac4a"/></linearGradient><linearGradient id="linear-gradient-7" x1="282.56" y1="58.09" x2="234.55" y2="141.24" xlink:href="#linear-gradient-6"/><linearGradient id="linear-gradient-8" x1="347.2" y1="54.77" x2="428.2" y2="54.77" gradientUnits="userSpaceOnUse"><stop offset="0" stop-color="#60b946"/><stop offset="1" stop-color="#00ac4d" stop-opacity="0"/></linearGradient><linearGradient id="linear-gradient-9" x1="899.4" y1="-1744.21" x2="973.17" y2="-1744.21" gradientTransform="translate(1112.8 1910.26) rotate(-50.25)" xlink:href="#linear-gradient-8"/><linearGradient id="linear-gradient-10" x1="117.82" y1="166.98" x2="10.77" y2="166.98" gradientTransform="matrix(1, 0, 0, 1, 0, 0)" xlink:href="#linear-gradient-2"/><linearGradient id="linear-gradient-11" x1="112.78" y1="159.28" x2="122.87" y2="159.28" xlink:href="#linear-gradient-6"/><linearGradient id="linear-gradient-12" x1="4345.1" y1="91.03" x2="4251.55" y2="91.03" gradientTransform="translate(4758.73 271.41) rotate(180)" xlink:href="#linear-gradient-2"/><linearGradient id="linear-gradient-13" x1="4340.06" y1="83.34" x2="4350.15" y2="83.34" gradientTransform="translate(4758.73 271.41) rotate(180)" xlink:href="#linear-gradient-6"/><linearGradient id="linear-gradient-14" x1="139.76" y1="135.42" x2="36.44" y2="135.42" gradientTransform="matrix(1, 0, 0, 1, 0, 0)" xlink:href="#linear-gradient-2"/><linearGradient id="linear-gradient-15" x1="133.17" y1="135.42" x2="143.26" y2="135.42" xlink:href="#linear-gradient-6"/><linearGradient id="linear-gradient-16" x1="4359.8" y1="60.53" x2="4369.89" y2="60.53" gradientTransform="translate(4758.73 271.41) rotate(180)" xlink:href="#linear-gradient-6"/></defs><title>verified</title><g id="Layer_2" data-name="Layer 2"><g id="Layer_1-2" data-name="Layer 1"><rect class="cls-1" x="376" y="233.82" width="45.85" height="45.85"/><line class="cls-2" x1="496.12" y1="210.88" x2="392.8" y2="210.88"/><rect class="cls-3" width="517.95" height="304.74"/><rect class="cls-4" x="117.98" y="63.73" width="43.56" height="43.56"/><rect class="cls-5" x="439.42" y="124.7" width="21.44" height="21.44"/><rect class="cls-6" x="165.46" y="147.8" width="18.6" height="18.6"/><rect class="cls-7" x="98.22" y="206.81" width="8.62" height="8.62"/><rect class="cls-7" x="363.08" y="153.77" width="8.62" height="8.62"/><path class="cls-8" d="M258.55,154.3h0a88.5,88.5,0,0,1,88.5,88.5v7.91a0,0,0,0,1,0,0h-177a0,0,0,0,1,0,0V242.8A88.5,88.5,0,0,1,258.55,154.3Z"/><circle class="cls-9" cx="258.55" cy="99.67" r="48"/><polyline class="cls-10" points="350.38 62.87 368.8 81.29 425.01 25.08"/><circle class="cls-11" cx="370.54" cy="75.07" r="35.38"/><polyline class="cls-12" points="117.82 159.41 80.36 159.41 66.24 174.54 10.77 174.54"/><circle class="cls-13" cx="117.82" cy="159.28" r="5.04"/><polyline class="cls-14" points="413.63 187.94 451.09 187.94 465.22 172.81 507.19 172.81"/><circle class="cls-15" cx="413.63" cy="188.07" r="5.04"/><line class="cls-16" x1="36.44" y1="135.42" x2="139.76" y2="135.42"/><circle class="cls-17" cx="138.21" cy="135.42" r="5.04"/><circle class="cls-18" cx="393.88" cy="210.88" r="5.04"/></g></g></svg>