<?xml version="1.0" encoding="UTF-8" standalone="no"?>
<svg
   xmlns:dc="http://purl.org/dc/elements/1.1/"
   xmlns:cc="http://creativecommons.org/ns#"
   xmlns:rdf="http://www.w3.org/1999/02/22-rdf-syntax-ns#"
   xmlns:svg="http://www.w3.org/2000/svg"
   xmlns="http://www.w3.org/2000/svg"
   xmlns:sodipodi="http://sodipodi.sourceforge.net/DTD/sodipodi-0.dtd"
   xmlns:inkscape="http://www.inkscape.org/namespaces/inkscape"
   version="1.1"
   id="QR_Icon"
   x="0px"
   y="0px"
   viewBox="0 0 22 22"
   style="enable-background:new 0 0 22 22;"
   xml:space="preserve"
   sodipodi:docname="ico-receive-selected.svg"
   inkscape:version="0.92.1 r15371"><metadata
     id="metadata25"><rdf:RDF><cc:Work
         rdf:about=""><dc:format>image/svg+xml</dc:format><dc:type
           rdf:resource="http://purl.org/dc/dcmitype/StillImage" /><dc:title></dc:title></cc:Work></rdf:RDF></metadata><defs
     id="defs23" /><sodipodi:namedview
     pagecolor="#ffffff"
     bordercolor="#666666"
     borderopacity="1"
     objecttolerance="10"
     gridtolerance="10"
     guidetolerance="10"
     inkscape:pageopacity="0"
     inkscape:pageshadow="2"
     inkscape:window-width="1920"
     inkscape:window-height="1015"
     id="namedview21"
     showgrid="false"
     inkscape:zoom="27.402967"
     inkscape:cx="9.3590309"
     inkscape:cy="10.542241"
     inkscape:window-x="0"
     inkscape:window-y="27"
     inkscape:window-maximized="1"
     inkscape:current-layer="QR_Icon" /><style
     type="text/css"
     id="style2">
	.st0{fill:#343434;}
</style><path
     style="fill:#fab915;fill-opacity:1;fill-rule:evenodd;stroke:#001c2f;stroke-width:0.5;stroke-linecap:round;stroke-linejoin:miter;stroke-miterlimit:4;stroke-dasharray:none;stroke-opacity:0.98837208"
     d="m 11.751962,16.124854 c 0,0 2.022169,0.82094 2.613915,0.754494 0.580406,-0.06517 3.676717,-1.814529 5.494319,-2.846031 1.462966,-0.830244 2.591582,0.660811 1.257879,1.561505 -1.521828,1.02774 -6.619354,4.020995 -7.829208,4.012197 C 11.294229,19.592512 2.1474669,17.497101 2.1474669,17.497101"
     id="path4504"
     inkscape:connector-curvature="0"
     sodipodi:nodetypes="cssssc" /><g
     id="g4582"
     transform="matrix(0.90723485,0,0,0.90723485,2.36444,3.0085723)"
     style="stroke-width:0.55112521;stroke-miterlimit:4;stroke-dasharray:none"><path
       d="m 6.8630415,6.9967388 a 3.480648,3.480648 0 0 1 3.5396555,-3.4180565 3.480648,3.480648 0 0 1 3.420619,3.537179 3.480648,3.480648 0 0 1 -3.5347,3.4231807 3.480648,3.480648 0 0 1 -3.4257398,-3.5322204"
       sodipodi:open="true"
       sodipodi:end="3.1565327"
       sodipodi:start="3.1594299"
       sodipodi:ry="3.480648"
       sodipodi:rx="3.480648"
       sodipodi:cy="7.0588207"
       sodipodi:cx="10.343136"
       sodipodi:type="arc"
       id="path4508"
       style="fill:#fab915;fill-opacity:1;stroke:#000000;stroke-width:0.55112521;stroke-linecap:round;stroke-miterlimit:4;stroke-dasharray:none;stroke-opacity:1" /><g
       id="text4487"
       style="font-style:normal;font-variant:normal;font-weight:normal;font-stretch:normal;font-size:10.58333302px;line-height:125%;font-family:icomoon;-inkscape-font-specification:icomoon;letter-spacing:0px;word-spacing:0px;fill:#000000;fill-opacity:1;stroke:none;stroke-width:1.23886464;stroke-linecap:butt;stroke-linejoin:miter;stroke-opacity:1;stroke-miterlimit:4;stroke-dasharray:none"
       aria-label=""
       transform="matrix(0.44486314,0,0,0.44486314,-28.43135,-52.224958)"><path
         id="path4527"
         style="fill:#000000;fill-opacity:1;stroke:none;stroke-width:1.23886464;stroke-opacity:1;stroke-miterlimit:4;stroke-dasharray:none"
         d="m 89.784378,132.93788 v -0.0207 q 0.506429,-0.24804 0.785482,-0.7338 0.289388,-0.48576 0.289388,-1.11621 0,-0.69247 -0.330729,-1.1989 -0.33073,-0.50642 -0.847494,-0.74414 -0.320394,-0.14469 -0.682129,-0.19637 -0.3514,-0.0517 -0.816487,-0.0517 h -0.320394 v -0.7028 q 0,-0.10336 -0.07235,-0.1757 -0.07235,-0.0724 -0.1757,-0.0724 h -0.72347 q -0.103353,0 -0.1757,0.0724 -0.07235,0.0723 -0.07235,0.1757 v 0.7028 h -0.806152 v -0.7028 q 0,-0.10336 -0.07235,-0.1757 -0.07235,-0.0724 -0.1757,-0.0724 h -0.7028 q -0.113688,0 -0.186035,0.0724 -0.06201,0.0723 -0.06201,0.1757 v 0.7028 h -0.74414 q -0.06201,0 -0.113688,0.0517 -0.04134,0.0413 -0.04134,0.11369 v 0.68213 q 0,0.0724 0.04134,0.12402 0.05168,0.0413 0.113688,0.0413 h 0.74414 v 6.57324 h -0.692464 q -0.08268,0 -0.144694,0.062 -0.05168,0.0517 -0.05168,0.13436 v 0.59944 q 0,0.0827 0.05168,0.1447 0.06201,0.0517 0.144694,0.0517 h 0.692464 v 0.68213 q 0,0.11369 0.06201,0.1757 0.07235,0.0724 0.186035,0.0724 h 0.72347 q 0.103353,0 0.165365,-0.0724 0.07235,-0.062 0.07235,-0.1757 v -0.68213 h 0.816487 v 0.68213 q 0,0.11369 0.07235,0.1757 0.07235,0.0724 0.1757,0.0724 h 0.72347 q 0.103353,0 0.1757,-0.0724 0.07235,-0.062 0.07235,-0.1757 v -0.68213 h 0.475423 q 0.3514,0 0.661459,-0.0207 0.320394,-0.031 0.620117,-0.14469 0.661458,-0.21704 1.126546,-0.81649 0.465088,-0.60978 0.465088,-1.47794 -0.01034,-0.71314 -0.382406,-1.28158 -0.361735,-0.57877 -1.064534,-0.77515 z m -1.601969,-3.0489 q 0.279052,0 0.485758,0.0413 0.217041,0.0413 0.392741,0.13436 0.279053,0.15502 0.423747,0.45475 0.144694,0.29972 0.144694,0.67179 0,0.57878 -0.3514,0.94051 -0.341065,0.36174 -0.919841,0.36174 h -2.511474 v -2.60449 h 2.335775 z m 0.971516,6.44921 q -0.175699,0.0827 -0.382405,0.10336 -0.206706,0.0207 -0.382406,0.0207 h -2.54248 v -2.97657 h 2.645833 q 0.682129,0 1.085205,0.40308 0.403076,0.39274 0.403076,1.0542 0,0.49609 -0.227376,0.86816 -0.217041,0.37207 -0.599447,0.5271 z"
         inkscape:connector-curvature="0" /></g></g><g
     id="g4587"
     transform="matrix(0.81854393,0,0,0.81854393,4.6439463,1.1203143)"
     style="stroke-width:0.61084076;stroke-miterlimit:4;stroke-dasharray:none"><path
       d="M 12.520082,4.8183773 A 2.7159257,2.7159257 0 0 1 15.282051,2.1512914 2.7159257,2.7159257 0 0 1 17.951137,4.9113277 2.7159257,2.7159257 0 0 1 15.193034,7.5824119 2.7159257,2.7159257 0 0 1 12.519953,4.8262448"
       sodipodi:open="true"
       sodipodi:end="3.1565327"
       sodipodi:start="3.1594299"
       sodipodi:ry="2.7159257"
       sodipodi:rx="2.7159257"
       sodipodi:cy="4.8668194"
       sodipodi:cx="15.235576"
       sodipodi:type="arc"
       id="path4508-3"
       style="fill:#fab915;fill-opacity:1;stroke:#000000;stroke-width:0.54975669;stroke-linecap:round;stroke-miterlimit:4;stroke-dasharray:none;stroke-opacity:1" /><g
       id="text4487-5"
       style="font-style:normal;font-variant:normal;font-weight:normal;font-stretch:normal;font-size:10.58333302px;line-height:125%;font-family:icomoon;-inkscape-font-specification:icomoon;letter-spacing:0px;word-spacing:0px;fill:#000000;fill-opacity:1;stroke:none;stroke-width:1.75972102;stroke-linecap:butt;stroke-linejoin:miter;stroke-opacity:1;stroke-miterlimit:4;stroke-dasharray:none"
       aria-label=""
       transform="matrix(0.34712364,0,0,0.34712364,-15.019888,-41.391904)"><path
         id="path4527-6"
         style="fill:#000000;fill-opacity:1;stroke:none;stroke-width:1.75972102;stroke-opacity:1;stroke-miterlimit:4;stroke-dasharray:none"
         d="m 89.784378,132.93788 v -0.0207 q 0.506429,-0.24804 0.785482,-0.7338 0.289388,-0.48576 0.289388,-1.11621 0,-0.69247 -0.330729,-1.1989 -0.33073,-0.50642 -0.847494,-0.74414 -0.320394,-0.14469 -0.682129,-0.19637 -0.3514,-0.0517 -0.816487,-0.0517 h -0.320394 v -0.7028 q 0,-0.10336 -0.07235,-0.1757 -0.07235,-0.0724 -0.1757,-0.0724 h -0.72347 q -0.103353,0 -0.1757,0.0724 -0.07235,0.0723 -0.07235,0.1757 v 0.7028 h -0.806152 v -0.7028 q 0,-0.10336 -0.07235,-0.1757 -0.07235,-0.0724 -0.1757,-0.0724 h -0.7028 q -0.113688,0 -0.186035,0.0724 -0.06201,0.0723 -0.06201,0.1757 v 0.7028 h -0.74414 q -0.06201,0 -0.113688,0.0517 -0.04134,0.0413 -0.04134,0.11369 v 0.68213 q 0,0.0724 0.04134,0.12402 0.05168,0.0413 0.113688,0.0413 h 0.74414 v 6.57324 h -0.692464 q -0.08268,0 -0.144694,0.062 -0.05168,0.0517 -0.05168,0.13436 v 0.59944 q 0,0.0827 0.05168,0.1447 0.06201,0.0517 0.144694,0.0517 h 0.692464 v 0.68213 q 0,0.11369 0.06201,0.1757 0.07235,0.0724 0.186035,0.0724 h 0.72347 q 0.103353,0 0.165365,-0.0724 0.07235,-0.062 0.07235,-0.1757 v -0.68213 h 0.816487 v 0.68213 q 0,0.11369 0.07235,0.1757 0.07235,0.0724 0.1757,0.0724 h 0.72347 q 0.103353,0 0.1757,-0.0724 0.07235,-0.062 0.07235,-0.1757 v -0.68213 h 0.475423 q 0.3514,0 0.661459,-0.0207 0.320394,-0.031 0.620117,-0.14469 0.661458,-0.21704 1.126546,-0.81649 0.465088,-0.60978 0.465088,-1.47794 -0.01034,-0.71314 -0.382406,-1.28158 -0.361735,-0.57877 -1.064534,-0.77515 z m -1.601969,-3.0489 q 0.279052,0 0.485758,0.0413 0.217041,0.0413 0.392741,0.13436 0.279053,0.15502 0.423747,0.45475 0.144694,0.29972 0.144694,0.67179 0,0.57878 -0.3514,0.94051 -0.341065,0.36174 -0.919841,0.36174 h -2.511474 v -2.60449 h 2.335775 z m 0.971516,6.44921 q -0.175699,0.0827 -0.382405,0.10336 -0.206706,0.0207 -0.382406,0.0207 h -2.54248 v -2.97657 h 2.645833 q 0.682129,0 1.085205,0.40308 0.403076,0.39274 0.403076,1.0542 0,0.49609 -0.227376,0.86816 -0.217041,0.37207 -0.599447,0.5271 z"
         inkscape:connector-curvature="0" /></g></g><path
     style="fill:#fab915;fill-opacity:1;fill-rule:evenodd;stroke:#001c2f;stroke-width:0.5;stroke-linecap:round;stroke-linejoin:miter;stroke-miterlimit:4;stroke-dasharray:none;stroke-opacity:0.98837208"
     d="m 2.1474669,17.497101 c 0,0 -0.066277,-3.709739 4.4331886,-3.694935 1.3611187,-0.05817 2.6485391,0.345582 3.7287885,0.289227 0.578433,-0.03018 2.483508,-0.297611 4.139254,-0.644783 1.655745,-0.347172 1.836545,1.451895 0.476939,1.823833 -2.50459,0.685165 -5.3653783,1.33553 -5.3653783,1.33553"
     id="path4502"
     inkscape:connector-curvature="0"
     sodipodi:nodetypes="ccszsc" /><rect
     style="fill:#fab915;fill-opacity:1;stroke:#001c2f;stroke-width:0.5;stroke-linecap:round;stroke-miterlimit:4;stroke-dasharray:none;stroke-opacity:0.98837208"
     id="rect4553"
     width="3.5497355"
     height="6.5393057"
     x="0.34308091"
     y="13.035734"
     ry="0.35189092"
     rx="0.17066038" /></svg>