<?xml version="1.0" encoding="UTF-8"?>
<svg width="27px" height="22px" viewBox="0 0 27 22" version="1.1" xmlns="http://www.w3.org/2000/svg" xmlns:xlink="http://www.w3.org/1999/xlink">
    <!-- Generator: Sketch 52.5 (67469) - http://www.bohemiancoding.com/sketch -->
    <title>scan</title>
    <desc>Created with Sketch.</desc>
    <g id="Page-1" stroke="none" stroke-width="1" fill="none" fill-rule="evenodd">
        <g id="scan" fill="#B9B9B9">
            <path d="M5,2.5 L5,5.75 C5,6.44035594 4.44035594,7 3.75,7 C3.05964406,7 2.5,6.44035594 2.5,5.75 L2.5,2 C2.5,0.8954305 3.3954305,-8.8817842e-16 4.5,0 L9.25,2.66453526e-15 C9.94035594,2.66453526e-15 10.5,0.559644063 10.5,1.25 C10.5,1.94035594 9.94035594,2.5 9.25,2.5 L5,2.5 Z M5,19 L9.25,19 C9.94035594,19 10.5,19.5596441 10.5,20.25 C10.5,20.9403559 9.94035594,21.5 9.25,21.5 L4.5,21.5 C3.3954305,21.5 2.5,20.6045695 2.5,19.5 L2.5,15.75 C2.5,15.0596441 3.05964406,14.5 3.75,14.5 C4.44035594,14.5 5,15.0596441 5,15.75 L5,19 Z M21.5,2.5 L17.25,2.5 C16.5596441,2.5 16,1.94035594 16,1.25 C16,0.559644063 16.5596441,1.3580248e-12 17.25,1.3580248e-12 L22,1.35713663e-12 C23.1045695,1.35713663e-12 24,0.8954305 24,2 L24,5.75 C24,6.44035594 23.4403559,7 22.75,7 C22.0596441,7 21.5,6.44035594 21.5,5.75 L21.5,2.5 Z M21.5,19 L21.5,15.75 C21.5,15.0596441 22.0596441,14.5 22.75,14.5 C23.4403559,14.5 24,15.0596441 24,15.75 L24,19.5 C24,20.6045695 23.1045695,21.5 22,21.5 L17.25,21.5 C16.5596441,21.5 16,20.9403559 16,20.25 C16,19.5596441 16.5596441,19 17.25,19 L21.5,19 Z M1.25,9.5 L25.25,9.5 C25.9403559,9.5 26.5,10.0596441 26.5,10.75 C26.5,11.4403559 25.9403559,12 25.25,12 L1.25,12 C0.559644063,12 8.45442189e-17,11.4403559 0,10.75 C-8.45442189e-17,10.0596441 0.559644063,9.5 1.25,9.5 Z" id="Shape"></path>
        </g>
    </g>
</svg>