<?xml version="1.0" encoding="UTF-8" standalone="no"?>
<!-- Generator: Adobe Illustrator 20.1.0, SVG Export Plug-In . SVG Version: 6.00 Build 0)  -->

<svg
   xmlns:dc="http://purl.org/dc/elements/1.1/"
   xmlns:cc="http://creativecommons.org/ns#"
   xmlns:rdf="http://www.w3.org/1999/02/22-rdf-syntax-ns#"
   xmlns:svg="http://www.w3.org/2000/svg"
   xmlns="http://www.w3.org/2000/svg"
   xmlns:sodipodi="http://sodipodi.sourceforge.net/DTD/sodipodi-0.dtd"
   xmlns:inkscape="http://www.inkscape.org/namespaces/inkscape"
   version="1.1"
   id="Settings"
   x="0px"
   y="0px"
   viewBox="0 0 24.682217 24.174313"
   xml:space="preserve"
   sodipodi:docname="ico-settings.svg"
   inkscape:version="0.92.1 r15371"
   width="24.682217"
   height="24.174313"><metadata
     id="metadata10"><rdf:RDF><cc:Work
         rdf:about=""><dc:format>image/svg+xml</dc:format><dc:type
           rdf:resource="http://purl.org/dc/dcmitype/StillImage" /><dc:title></dc:title></cc:Work></rdf:RDF></metadata><defs
     id="defs8" /><sodipodi:namedview
     pagecolor="#ffffff"
     bordercolor="#666666"
     borderopacity="1"
     objecttolerance="10"
     gridtolerance="10"
     guidetolerance="10"
     inkscape:pageopacity="0"
     inkscape:pageshadow="2"
     inkscape:window-width="1920"
     inkscape:window-height="1015"
     id="namedview6"
     showgrid="false"
     inkscape:zoom="23.723718"
     inkscape:cx="12.334441"
     inkscape:cy="12.08863"
     inkscape:window-x="0"
     inkscape:window-y="27"
     inkscape:window-maximized="1"
     inkscape:current-layer="Settings"
     showguides="false"
     fit-margin-top="0"
     fit-margin-left="0"
     fit-margin-right="0"
     fit-margin-bottom="0" /><style
     type="text/css"
     id="style2">
	.st0{fill:#343434;}
</style><path
     style="fill:#fefefe;fill-opacity:1;stroke:#350000;stroke-width:0.97899997;stroke-miterlimit:4;stroke-dasharray:none;stroke-opacity:1"
     d="m 9.1276802,0.48949999 a 3.4580598,3.4580598 0 0 1 0.00195,0.0761719 A 3.4580598,3.4580598 0 0 1 5.6179146,3.9660624 3.4580598,3.4580598 0 0 1 3.8952583,3.4719218 L 0.6784615,9.0441874 A 3.4580598,3.4580598 0 0 1 2.498774,12.143797 3.4580598,3.4580598 0 0 1 0.67650837,15.128172 l 3.20898433,5.554687 a 3.4580598,3.4580598 0 0 1 1.8222656,-0.484375 3.4580598,3.4580598 0 0 1 3.3984376,3.486328 h 6.4121091 a 3.4580598,3.4580598 0 0 1 -0.002,-0.07227 v -0.01172 a 3.4580598,3.4580598 0 0 1 3.517578,-3.394531 3.4580598,3.4580598 0 0 1 1.703125,0.484375 l 3.175781,-5.498047 a 3.4580598,3.4580598 0 0 1 -1.74414,-3.054688 v -0.01172 A 3.4580598,3.4580598 0 0 1 24.004633,9.1398906 L 20.737055,3.4816874 A 3.4580598,3.4580598 0 0 1 18.920649,3.9660624 3.4580598,3.4580598 0 0 1 15.516352,0.48949999 Z M 12.399165,7.0539531 a 5.0338984,5.0338984 0 0 1 4.947265,5.1152339 5.0338984,5.0338984 0 0 1 -5.111328,4.951172 5.0338984,5.0338984 0 0 1 -4.955078,-5.109375 v -0.01367 a 5.0338984,5.0338984 0 0 1 5.119141,-4.9433609 z"
     id="path4491"
     inkscape:connector-curvature="0" /></svg>