<?xml version="1.0" encoding="UTF-8"?>
<svg width="21px" height="19px" viewBox="0 0 21 19" version="1.1" xmlns="http://www.w3.org/2000/svg" xmlns:xlink="http://www.w3.org/1999/xlink">
    <!-- Generator: Sketch 52.5 (67469) - http://www.bohemiancoding.com/sketch -->
    <title>receive </title>
    <desc>Created with Sketch.</desc>
    <g id="Page-1" stroke="none" stroke-width="1" fill="none" fill-rule="evenodd">
        <g id="receive-" transform="translate(10.500000, 9.000000) scale(1, -1) translate(-10.500000, -9.000000) translate(0.000000, -0.500000)" fill="#0AC18E">
            <path d="M20.1785635,9.31326849 L11.0272024,0.321525692 C10.5918799,-0.107175231 9.90812007,-0.107175231 9.47279758,0.321525692 L0.321436509,9.31326849 C0.00758294568,9.63814128 -0.0862894836,10.1266443 0.0835796613,10.5510525 C0.253448806,10.9754607 0.653618203,11.2522228 1.09754118,11.2523209 L6.13346178,11.2523209 C6.20633621,11.2520174 6.27631057,11.2818398 6.32784099,11.3351633 C6.37937141,11.3884868 6.40819092,11.4608961 6.40789766,11.5363063 L6.40789766,17.3640583 C6.40789766,17.9914216 6.89937418,18.5 7.50564119,18.5 L12.9943588,18.5 C13.6006258,18.5 14.0921023,17.9914216 14.0921023,17.3640583 L14.0921023,11.5363063 C14.0921023,11.3794655 14.2149715,11.2523209 14.3665382,11.2523209 L19.4024588,11.2523209 C19.8463818,11.2522228 20.2465512,10.9754607 20.4164203,10.5510525 C20.5862895,10.1266443 20.4924171,9.63814128 20.1785635,9.31326849 Z" id="Path"></path>
        </g>
    </g>
</svg>