<?xml version="1.0" encoding="UTF-8"?>
<svg width="24px" height="24px" viewBox="0 0 24 24" version="1.1" xmlns="http://www.w3.org/2000/svg" xmlns:xlink="http://www.w3.org/1999/xlink">
    <!-- Generator: Sketch 52.5 (67469) - http://www.bohemiancoding.com/sketch -->
    <title>shop</title>
    <desc>Created with Sketch.</desc>
    <g id="Page-1" stroke="none" stroke-width="1" fill="none" fill-rule="evenodd">
        <g id="shop" fill="#B9B9B9">
            <path d="M23.362,6.763 C23.4438818,6.46262482 23.3811909,6.14124938 23.1924195,5.89367066 C23.0036481,5.64609194 22.7103351,5.50055897 22.399,5.5 L5.246,5.5 C5.12629379,5.50137771 5.02255028,5.41737486 4.999,5.3 L4.427,2.58 C4.10563027,1.08042296 2.78361115,0.00682859106 1.25,0 C0.559644063,1.50462608e-16 5.55111512e-17,0.559644063 0,1.25 C-5.55111512e-17,1.94035594 0.559644063,2.5 1.25,2.5 C1.60542392,2.50164469 1.91116203,2.75190781 1.983,3.1 L5.149,18.169 C5.31317496,18.9415196 5.7528675,19.6278949 6.386,20.1 C6.44673962,20.1452447 6.48358452,20.2156749 6.48611423,20.2913715 C6.48864393,20.3670681 6.45658341,20.4398011 6.399,20.489 C5.61298897,21.1691105 5.47894927,22.3379411 6.09059152,23.1783323 C6.70223377,24.0187235 7.85566325,24.2505256 8.74448764,23.7116798 C9.63331204,23.1728341 9.96123625,22.0429679 9.499,21.112 C9.45996293,21.0346406 9.46413317,20.9425161 9.51,20.869 C9.5560242,20.7956977 9.63644692,20.7511443 9.723,20.751 L15.693,20.751 C15.7794836,20.7510023 15.8598234,20.7957024 15.9054215,20.8691886 C15.9510196,20.9426748 15.9553987,21.0345084 15.917,21.112 C15.6099679,21.731614 15.6447968,22.4658725 16.0091001,23.0536423 C16.3734033,23.641412 17.0154874,23.9992901 17.707,24 C18.4010766,23.9996332 19.0453381,23.6394402 19.4091588,23.048359 C19.7729795,22.4572777 19.8043346,21.7198303 19.492,21.1 C19.4541083,21.0252797 19.4577401,20.9362423 19.5015915,20.8648562 C19.545443,20.7934702 19.6232211,20.7499798 19.707,20.75 C20.3973559,20.75 20.957,20.1903559 20.957,19.5 C20.957,18.8096441 20.3973559,18.25 19.707,18.25 L8.33,18.25 C7.97585743,18.2489476 7.67030756,18.0012607 7.596,17.655 L7.417,16.8 C7.40198386,16.7264363 7.42082482,16.6500187 7.46831594,16.5918664 C7.51580706,16.533714 7.58691933,16.4999847 7.662,16.5 L18.416,16.5 C19.7688448,16.4998253 20.9542018,15.5942191 21.31,14.289 L23.362,6.763 Z" id="Path"></path>
        </g>
    </g>
</svg>